<svg width="16" height="8" viewBox="0 0 16 8" fill="none" xmlns="http://www.w3.org/2000/svg">
<g clip-path="url(#clip0_20_40)">
<path d="M1.1825 2.67311H1.16895L1.30108 3.11693L1.1825 2.67311ZM2.01458 5.50071L2.01865 5.51493L2.02271 5.50071H2.01458Z" fill="white"/>
<path d="M4.01813 2.67311L2.74019 6.4595H1.28607L0 2.67311H1.16885L1.30098 3.11422L1.5937 4.09402L2.01448 5.50071L2.01855 5.51494L2.02261 5.50071L2.4434 4.09402L2.86825 2.67311H4.01813Z" fill="white"/>
<path d="M4.95532 2.77203V6.43713H6.00762V2.77203H4.95532Z" fill="white"/>
<path d="M4.95532 1.28268V2.26926H6.00762V1.28268H4.95532Z" fill="white"/>
<path d="M6.87012 1.28268V2.26926H7.92242V1.28268H6.87012Z" fill="white"/>
<path d="M6.88224 2.77814V6.36938C6.88224 6.60925 6.7596 6.77187 6.51905 6.77187C6.43603 6.77207 6.35319 6.76413 6.27173 6.74815V7.65681C6.38384 7.67463 6.49703 7.68482 6.61052 7.6873C7.57677 7.6873 7.93319 7.12354 7.93319 6.23318V2.77814H6.88224Z" fill="white"/>
<path d="M10.2952 2.6792C9.28225 2.6792 8.77134 3.35069 8.64734 4.01541L9.63798 4.04116C9.70574 3.68475 9.90902 3.51399 10.2573 3.51399C10.6591 3.51399 10.8217 3.7315 10.8217 4.11095V4.36573H9.86227C8.89466 4.36573 8.50708 4.82243 8.50708 5.47969C8.50708 6.19997 8.96378 6.51641 9.58242 6.51641C10.2011 6.51641 10.8739 5.56778 10.8739 5.56778V6.43713H11.8646V4.11095C11.8659 3.1901 11.4092 2.6792 10.2952 2.6792ZM10.8217 5.0318C10.8217 5.42548 10.5195 5.70939 10.0398 5.70939C9.63798 5.70939 9.50653 5.52373 9.50653 5.29132C9.50653 5.03587 9.72268 4.88476 10.0628 4.88476H10.8217V5.0318Z" fill="white"/>
<path d="M16.0001 2.76526L14.5528 6.44865C14.197 7.34579 13.8941 7.73201 12.974 7.73201C12.7713 7.73248 12.569 7.71456 12.3696 7.67848L12.3635 6.78813C12.5194 6.82185 12.6783 6.84023 12.8378 6.84301H12.8486C12.9491 6.84216 13.0478 6.81702 13.1364 6.76975C13.225 6.72247 13.3009 6.65447 13.3575 6.57153C13.4142 6.48859 13.4499 6.39319 13.4617 6.29345C13.4735 6.19371 13.461 6.09259 13.4253 5.99873L12.1968 2.76526H13.3487L13.7126 4.11164C13.7932 4.41655 13.8867 4.75603 13.9768 5.09415L14.0805 5.44243L14.1299 5.60708L14.1794 5.44243L14.3292 4.94236C14.4023 4.65913 14.4735 4.38471 14.5324 4.13467L14.8712 2.76526H16.0001Z" fill="white"/>
<path d="M0 0.863931V1.66756C0 2.00093 0.170753 2.27129 0.577987 2.27129C0.719148 2.27359 0.859584 2.25064 0.992673 2.20353L0.988608 1.79223C0.914807 1.81891 0.837321 1.83399 0.758904 1.83695C0.725294 1.83826 0.691773 1.83266 0.660413 1.8205C0.629053 1.80834 0.60052 1.78988 0.576578 1.76626C0.552636 1.74263 0.533794 1.71435 0.521216 1.68315C0.508638 1.65196 0.502592 1.61851 0.503451 1.58489V0.863931H0.987253V0.463473H0.503451V0H0V0.463473" fill="white"/>
<path d="M2.28085 0.542077C2.01523 0.542077 1.8255 0.711475 1.72861 1.0252H1.70151V0.00474548H1.23193V2.2198H1.70151V1.30911C1.70151 1.10583 1.82889 0.963539 2.02878 0.963539C2.19818 0.963539 2.27746 1.07805 2.27746 1.24339V2.2198H2.74635V1.11193C2.74635 0.756874 2.59118 0.542077 2.28085 0.542077Z" fill="white"/>
<path d="M4.56485 1.27252H2.99486C2.98819 1.32692 2.98502 1.38169 2.98538 1.4365C2.98538 1.99213 3.32417 2.26452 3.81678 2.26452C4.24502 2.26452 4.43949 2.0836 4.52419 1.83492C4.52661 1.82719 4.5272 1.819 4.52591 1.811C4.52462 1.80301 4.52148 1.79542 4.51674 1.78884C4.51201 1.78227 4.50581 1.77689 4.49863 1.77312C4.49146 1.76936 4.48351 1.76732 4.47541 1.76716L4.15084 1.76174C4.08985 1.92775 4.02819 1.94808 3.76122 1.93792C3.53694 1.92911 3.43259 1.69195 3.4475 1.50765H4.47202C4.49473 1.50719 4.51644 1.49824 4.53287 1.48256C4.5493 1.46688 4.55926 1.44561 4.56078 1.42295C4.56417 1.3701 4.56553 1.32266 4.56485 1.27252Z" fill="white"/>
<path d="M3.4327 0.943882C3.54047 0.943882 3.62784 0.856512 3.62784 0.748736C3.62784 0.640959 3.54047 0.553589 3.4327 0.553589C3.32492 0.553589 3.23755 0.640959 3.23755 0.748736C3.23755 0.856512 3.32492 0.943882 3.4327 0.943882Z" fill="white"/>
<path d="M4.32586 0.760255L4.07922 0.890353C4.06925 0.895654 4.05781 0.89753 4.04667 0.895693C4.03553 0.893857 4.0253 0.888409 4.01756 0.880189C3.99351 0.854034 3.97706 0.82181 3.96998 0.786992C3.9629 0.752175 3.96546 0.716084 3.97738 0.682614C3.98931 0.649144 4.01014 0.619564 4.03764 0.597066C4.06514 0.574567 4.09826 0.560003 4.13343 0.554945C4.18194 0.548595 4.23106 0.560761 4.27099 0.589018C4.31093 0.617275 4.33875 0.659546 4.3489 0.707403C4.35118 0.717517 4.35017 0.728093 4.34603 0.737596C4.34188 0.7471 4.33482 0.755036 4.32586 0.760255V0.760255Z" fill="white"/>
<path d="M1.1825 2.67311L1.30108 3.11422L1.16895 2.67311H1.1825Z" fill="white"/>
<path d="M2.02254 5.5007L2.01847 5.51493L2.0144 5.5007H2.02254Z" fill="white"/>
</g>
<defs>
<clipPath id="clip0_20_40">
<rect width="16" height="7.73201" fill="white"/>
</clipPath>
</defs>
</svg>
