<svg id="Layer_1" data-name="Layer 1" xmlns="http://www.w3.org/2000/svg" viewBox="0 0 300 300"><defs><style>.cls-1{fill:#ffecd3;}.cls-2{fill:#a46947;}.cls-3{fill:#7d4025;}.cls-4{fill:#a46c47;}.cls-5{fill:#b0744a;}.cls-6{fill:#9da6a3;}.cls-7{fill:#575557;}.cls-8{fill:#696466;}</style></defs><rect class="cls-1" width="300" height="300"/><path class="cls-2" d="M74.62,208.37l3.62-.31c-2.51-8.76,4.23-16.93,4.23-16.93,7.3-14.35,36-30,36-30,40.62-20.09,77-66.7,77-66.7,5.05-6.92,6.87-6,6.87-6l.12-.45a14.83,14.83,0,0,1,4.6,4.19c1.87,2.83,2.22,4.47,2.23,5.26a8.58,8.58,0,0,0,.15,1.6h0c-3.13,4.24-14.69,19.44-24.63,26.43-11.63,8.17-50.36,43.41-66.36,53.17-14.77,9-28.71,29.21-33.85,37.36A17.07,17.07,0,0,1,74.62,208.37Z"/><path class="cls-3" d="M84.51,215.9c5.14-8.15,19.08-28.35,33.85-37.36,16-9.76,54.73-45,66.36-53.17,9.94-7,21.5-22.19,24.63-26.43.24,1.16.48,3.08-.15,4.2,0,0-15.11,17.71-21.34,23.06,0,0-41.94,38.92-68.78,55.08,0,0-8.73,4.93-13.7,12.64s-12.47,15.16-15,20.31a4.41,4.41,0,0,1-4.93,1.89S85.1,216.06,84.51,215.9Z"/><path class="cls-4" d="M175.78,119.71s-12.39,19.79-19.05,23.86-28.56,27-39.47,31.19c0,0,24.82-22.45,28.55-26.09,0,0,13.63-13.25,14.63-16.32C160.44,132.35,177.21,115.78,175.78,119.71Z"/><path class="cls-5" d="M72.91,204.77s-1.46-9.08,12.51-24.27,15.27-16.78,23.43-20.4,50.35-30.79,64.05-51.9,21.88-22.6,21.88-22.6a16.9,16.9,0,0,1,7.59,2.29l-.12.45s-1.82-.88-6.87,6c0,0-36.34,46.61-77,66.7,0,0-28.65,15.7-35.95,30,0,0-6.74,8.17-4.23,16.93l-3.62.31A20.39,20.39,0,0,1,72.91,204.77Z"/><path class="cls-6" d="M190.48,152.77a29.83,29.83,0,0,0,1.85-5c22.52,2.44,30.19-17.5,31.95-23.35,1.45,1.31,2.42,2.14,2.42,2.14s3.75,7.77-10.85,21.09S190.48,152.77,190.48,152.77Z"/><path class="cls-7" d="M172.18,105.87c-.58-2-1.6-4.68-1.6-4.68,1.08-4.12,10.36-12.89,14.39-16.06a7,7,0,0,1,7.75-.45c-6.43,6-12.7,23.31-9.07,27.69,3.08,3.73,17.46-5.42,24.16-10,.62,1.06,1.18,2.07,1.68,3-9.25-.65-16.65,11.5-20.08,18.39a47,47,0,0,0-7.29-10.14c-1.75-2-5.52-4-7.76-5.16A4.24,4.24,0,0,1,172.18,105.87Z"/><path class="cls-7" d="M192.33,147.74c.13-.46.25-.91.35-1.35a33.83,33.83,0,0,0,.7-4.67c19.43-.14,25-14.78,26.55-21.43,1.28,1.26,2.51,2.42,3.58,3.4l.77.7C222.52,130.24,214.85,150.18,192.33,147.74Z"/><path class="cls-8" d="M193.38,141.72a22.24,22.24,0,0,0,0-3.58,31.24,31.24,0,0,0-4-14.39c3.43-6.89,10.83-19,20.08-18.39a34,34,0,0,1,2,4.23c1.05,2.91,4.9,7.17,8.46,10.7C218.39,126.94,212.81,141.58,193.38,141.72Z"/><path class="cls-8" d="M192.72,84.68a7.25,7.25,0,0,1,.75.44c2.74-.56,9.84,9.45,14.34,17.23-6.7,4.6-21.08,13.75-24.16,10C180,108,186.29,90.73,192.72,84.68Z"/><path class="cls-2" d="M225.38,208.37l-3.62-.31c2.51-8.76-4.23-16.93-4.23-16.93-7.3-14.35-35.95-30-35.95-30-40.62-20.09-77-66.7-77-66.7-5.05-6.92-6.87-6-6.87-6l-.12-.45A14.83,14.83,0,0,0,93,92.08c-1.87,2.83-2.22,4.47-2.23,5.26a8.58,8.58,0,0,1-.15,1.6h0c3.13,4.24,14.69,19.44,24.63,26.43,11.63,8.17,50.36,43.41,66.36,53.17,14.77,9,28.71,29.21,33.85,37.36A17.07,17.07,0,0,0,225.38,208.37Z"/><path class="cls-3" d="M215.49,215.9c-5.14-8.15-19.08-28.35-33.85-37.36-16-9.76-54.73-45-66.36-53.17-9.94-7-21.5-22.19-24.63-26.43-.24,1.16-.48,3.08.15,4.2,0,0,15.11,17.71,21.34,23.06,0,0,41.94,38.92,68.78,55.08,0,0,8.73,4.93,13.7,12.64s12.47,15.16,15,20.31a4.41,4.41,0,0,0,4.93,1.89S214.9,216.06,215.49,215.9Z"/><path class="cls-4" d="M124.22,119.71s12.39,19.79,19.05,23.86,28.56,27,39.47,31.19c0,0-24.82-22.45-28.55-26.09,0,0-13.63-13.25-14.63-16.32C139.56,132.35,122.79,115.78,124.22,119.71Z"/><path class="cls-5" d="M227.09,204.77s1.46-9.08-12.51-24.27-15.27-16.78-23.43-20.4-50.35-30.79-64.05-51.9-21.88-22.6-21.88-22.6a16.9,16.9,0,0,0-7.59,2.29l.12.45s1.82-.88,6.87,6c0,0,36.34,46.61,77,66.7,0,0,28.65,15.7,35.95,30,0,0,6.74,8.17,4.23,16.93l3.62.31A20.39,20.39,0,0,0,227.09,204.77Z"/><path class="cls-6" d="M109.52,152.77a29.83,29.83,0,0,1-1.85-5c-22.52,2.44-30.19-17.5-31.95-23.35-1.45,1.31-2.42,2.14-2.42,2.14s-3.75,7.77,10.85,21.09S109.52,152.77,109.52,152.77Z"/><path class="cls-7" d="M127.82,105.87c.58-2,1.6-4.68,1.6-4.68C128.34,97.07,119.06,88.3,115,85.13a7,7,0,0,0-7.75-.45c6.43,6,12.7,23.31,9.07,27.69-3.08,3.73-17.46-5.42-24.16-10-.62,1.06-1.18,2.07-1.68,3,9.25-.65,16.65,11.5,20.08,18.39a47,47,0,0,1,7.29-10.14c1.75-2,5.52-4,7.76-5.16A4.24,4.24,0,0,0,127.82,105.87Z"/><path class="cls-7" d="M107.67,147.74c-.13-.46-.25-.91-.35-1.35a33.83,33.83,0,0,1-.7-4.67c-19.43-.14-25-14.78-26.55-21.43-1.28,1.26-2.51,2.42-3.58,3.4l-.77.7C77.48,130.24,85.15,150.18,107.67,147.74Z"/><path class="cls-8" d="M106.62,141.72a22.24,22.24,0,0,1,0-3.58,31.24,31.24,0,0,1,4-14.39c-3.43-6.89-10.83-19-20.08-18.39a34,34,0,0,0-2,4.23c-1,2.91-4.9,7.17-8.46,10.7C81.61,126.94,87.19,141.58,106.62,141.72Z"/><path class="cls-8" d="M107.28,84.68a7.25,7.25,0,0,0-.75.44c-2.74-.56-9.84,9.45-14.34,17.23,6.7,4.6,21.08,13.75,24.16,10C120,108,113.71,90.73,107.28,84.68Z"/></svg>