<svg id="Layer_1" data-name="Layer 1" xmlns="http://www.w3.org/2000/svg" viewBox="0 0 300 300"><defs><style>.cls-1,.cls-12{fill:#151e21;}.cls-2,.cls-6{fill:#fff;}.cls-2{opacity:0.15;}.cls-3{fill:#d79849;}.cls-4{fill:#aa7235;}.cls-5{fill:#845126;}.cls-7{fill:#eb5757;}.cls-8{fill:#323f4b;}.cls-9{fill:#2fb2e0;}.cls-10,.cls-11{fill:none;stroke-linecap:round;stroke-miterlimit:10;stroke-width:1.04px;}.cls-10{stroke:#e27f2e;}.cls-11{stroke:#2fb2e0;}.cls-12{opacity:0.3;}.cls-13{fill:#a5b3b7;opacity:0.05;}</style></defs><rect class="cls-1" width="300" height="300"/><path class="cls-2" d="M183.33,209.63a61.15,61.15,0,0,1-21,4.06l-2.55-1.35.64-4.52-11.09-6.23-6.69,2.61s0,0,0,0a5.26,5.26,0,0,1-.15-.53c-2.48-9.65,9.6-22.54,27.75-29.3,18.78-7,36.94-4.75,40.56,5S202.1,202.64,183.33,209.63Z"/><polygon class="cls-3" points="165.84 215.58 159.75 212.34 166.71 177.16 174.05 176.54 165.84 215.58"/><polygon class="cls-3" points="144.33 204.64 138.24 201.4 145.2 166.22 152.54 165.59 144.33 204.64"/><polygon class="cls-4" points="165.84 215.58 170.81 213.15 178.27 177.03 174.05 176.54 165.84 215.58"/><polygon class="cls-4" points="144.33 204.64 149.3 201.59 156.76 165.47 152.54 164.97 144.33 204.64"/><polygon class="cls-5" points="190.4 189.9 197.98 192.33 190.33 154.72 185.79 166.28 187.66 175.6 190.4 189.9"/><polygon class="cls-3" points="200.78 190.9 197.98 192.33 191.76 161.18 194.69 159.19 200.78 190.9"/><path class="cls-6" d="M176.54,92.56c18,3.85,28.33,27.37,23,52.53s-24.35,42.45-42.39,38.6"/><path class="cls-7" d="M195,144.13c-4.24,19.86-15.69,35.07-28,39a22.42,22.42,0,0,1-3.17.75,18.58,18.58,0,0,1-6.73-.17,19.78,19.78,0,0,1-10.52-6.27,25.24,25.24,0,0,1-2.2-2.75c-6.78-9.66-9.33-25.63-5.73-42.55C144,107,161,89.24,176.54,92.56S200.34,119,195,144.13Z"/><ellipse class="cls-6" cx="166.82" cy="138.13" rx="35.95" ry="22.22" transform="translate(-3.06 272.48) rotate(-77.96)"/><ellipse class="cls-8" cx="166.82" cy="138.13" rx="22.23" ry="13.73" transform="translate(-3.06 272.48) rotate(-77.96)"/><ellipse class="cls-7" cx="166.82" cy="138.13" rx="9.47" ry="5.85" transform="translate(-3.06 272.48) rotate(-77.96)"/><path class="cls-9" d="M104.77,136.67h0a1,1,0,0,1,.63.82,7.6,7.6,0,0,1,.1.86h6.73A8.55,8.55,0,0,0,104.77,136.67Z"/><path class="cls-9" d="M104.8,140.6h0a1,1,0,0,0,.64-.82,7.89,7.89,0,0,0,.09-.86h6.74A8.56,8.56,0,0,1,104.8,140.6Z"/><line class="cls-10" x1="102.64" y1="138.64" x2="164.77" y2="138.64"/><line class="cls-11" x1="102.64" y1="138.64" x2="104.35" y2="138.64"/><path d="M165.14,138.12l1.72.42a.1.1,0,0,1,0,.2l-1.72.42a.53.53,0,1,1,0-1Z"/><path class="cls-9" d="M118.88,154.2h0a1,1,0,0,1,.64.82,7.41,7.41,0,0,1,.09.86h6.74A8.56,8.56,0,0,0,118.88,154.2Z"/><path class="cls-9" d="M118.92,158.13h0a1,1,0,0,0,.64-.82c0-.3.08-.64.09-.86h6.74A8.57,8.57,0,0,1,118.92,158.13Z"/><line class="cls-10" x1="116.75" y1="156.17" x2="178.89" y2="156.17"/><line class="cls-11" x1="116.75" y1="156.17" x2="118.47" y2="156.17"/><path d="M179.26,155.65l1.72.42a.1.1,0,0,1,0,.2l-1.72.42a.53.53,0,1,1,0-1Z"/><path class="cls-9" d="M99.12,114.08h0a1.06,1.06,0,0,1,.64.82c0,.29.08.64.09.86h6.74A8.58,8.58,0,0,0,99.12,114.08Z"/><path class="cls-9" d="M99.16,118h0a1.06,1.06,0,0,0,.64-.82c0-.29.08-.63.09-.86h6.74A8.58,8.58,0,0,1,99.16,118Z"/><line class="cls-10" x1="96.99" y1="116.05" x2="159.13" y2="116.05"/><line class="cls-11" x1="96.99" y1="116.05" x2="98.71" y2="116.05"/><path d="M159.49,115.53l1.72.42a.11.11,0,0,1,0,.21l-1.72.41a.53.53,0,1,1,0-1Z"/><path class="cls-9" d="M74.9,179h0a1,1,0,0,1,.14,1,7.9,7.9,0,0,1-.35.8l5.82,3.39A8.55,8.55,0,0,0,74.9,179Z"/><path class="cls-9" d="M73,182.41h0a1,1,0,0,0,1-.39,8.36,8.36,0,0,0,.52-.7l5.82,3.4A8.57,8.57,0,0,1,73,182.41Z"/><line class="cls-10" x1="72.07" y1="179.62" x2="125.73" y2="210.96"/><line class="cls-11" x1="72.07" y1="179.62" x2="73.55" y2="180.49"/><path d="M126.31,210.69l1.27,1.23c.09.07,0,.21-.1.18l-1.69-.51a.53.53,0,1,1,.52-.9Z"/><path class="cls-12" d="M167,138.23l-20.43,39.19a25.24,25.24,0,0,1-2.2-2.75Z"/><path class="cls-13" d="M127.38,212.3,60.6,199.39a2.53,2.53,0,0,0-2.43.88l-.05.06a2.53,2.53,0,0,0,1.66,4.11Z"/><path class="cls-12" d="M161.85,115.53l-36.67,59.06s2.73,4.94,3.21,5.12Z"/><path class="cls-12" d="M181.14,156,167,183.11a22.42,22.42,0,0,1-3.17.75Z"/></svg>