<svg id="Layer_1" data-name="Layer 1" xmlns="http://www.w3.org/2000/svg" viewBox="0 0 300 300"><defs><style>.cls-1{fill:#85d39c;}.cls-1,.cls-14{opacity:0.5;}.cls-2{opacity:0.15;}.cls-19,.cls-3,.cls-4{fill:#ffdcb3;}.cls-11,.cls-12,.cls-17,.cls-18,.cls-19,.cls-3,.cls-4,.cls-5,.cls-7,.cls-9{stroke:#07152d;}.cls-15,.cls-16,.cls-19,.cls-3{stroke-linecap:round;}.cls-11,.cls-12,.cls-15,.cls-16,.cls-17,.cls-18,.cls-19,.cls-3,.cls-4,.cls-5,.cls-7,.cls-9{stroke-miterlimit:10;}.cls-3{stroke-width:0.66px;}.cls-4{stroke-width:0.94px;}.cls-11,.cls-17,.cls-5{fill:#d57a43;}.cls-6{fill:#ed8d58;}.cls-7{fill:#f6ca67;}.cls-8{fill:#eab853;}.cls-9{fill:#e19a24;}.cls-10{fill:#ffb852;}.cls-11,.cls-12{stroke-width:0.5px;}.cls-12,.cls-18{fill:#fe951c;}.cls-13{fill:#07152d;}.cls-15,.cls-16{fill:none;stroke:#5e3f1b;}.cls-16{stroke-dasharray:3.14 5.23;}.cls-17,.cls-18{stroke-width:0.27px;}.cls-19{stroke-width:1.06px;}</style></defs><rect class="cls-1" width="300" height="300"/><g class="cls-2"><line class="cls-3" x1="31.62" y1="67.12" x2="108.22" y2="67.12"/><line class="cls-3" x1="97.62" y1="75.11" x2="37.12" y2="75.11"/><line class="cls-3" x1="45.07" y1="83.11" x2="89.68" y2="83.11"/><line class="cls-3" x1="49.86" y1="67.12" x2="49.86" y2="75.11"/><line class="cls-3" x1="58.15" y1="75.11" x2="58.15" y2="83.11"/><line class="cls-3" x1="79.1" y1="75.11" x2="79.1" y2="67.12"/><line class="cls-3" x1="97.06" y1="67.12" x2="97.06" y2="74.73"/><line class="cls-3" x1="82.05" y1="75.11" x2="82.05" y2="83.11"/><line class="cls-3" x1="57.04" y1="67.12" x2="57.04" y2="59.68"/><line class="cls-3" x1="90.22" y1="67.12" x2="90.22" y2="59.68"/><line class="cls-3" x1="70.47" y1="83.11" x2="70.47" y2="89.18"/></g><g class="cls-2"><line class="cls-3" x1="253.11" y1="173.84" x2="199.51" y2="173.84"/><line class="cls-3" x1="210.1" y1="165.85" x2="270.61" y2="165.85"/><line class="cls-3" x1="262.66" y1="157.85" x2="218.05" y2="157.85"/><line class="cls-3" x1="252.87" y1="173.84" x2="252.87" y2="165.85"/><line class="cls-3" x1="249.58" y1="165.85" x2="249.58" y2="157.85"/><line class="cls-3" x1="228.63" y1="165.85" x2="228.63" y2="173.84"/><line class="cls-3" x1="210.67" y1="173.84" x2="210.67" y2="166.23"/><line class="cls-3" x1="225.68" y1="165.85" x2="225.68" y2="157.85"/></g><path class="cls-4" d="M202.35,214.32H178.12c-2.11,0-3.81-2.08-3.81-4.65V162.45c0-2.57,1.7-4.66,3.81-4.66h18.69a3.76,3.76,0,0,1,3.33,2.41c.68,1.49,1.3,3,2.09,4.44,7.67,14,9.17,28.08,4.62,42.24a23.1,23.1,0,0,0-.76,3.66C205.76,212.67,204.24,214.32,202.35,214.32Z"/><path class="cls-4" d="M87.37,214.32H111.6c2.11,0,3.81-2.08,3.81-4.65V162.45c0-2.57-1.7-4.66-3.81-4.66H92.91a3.76,3.76,0,0,0-3.33,2.41c-.68,1.49-1.3,3-2.09,4.44-7.67,14-9.17,28.08-4.62,42.24a23.1,23.1,0,0,1,.76,3.66C84,212.67,85.48,214.32,87.37,214.32Z"/><path class="cls-5" d="M169.15,89.83V101.1H158.67V92.43H132.14v8.67H121.26V89.83A6.76,6.76,0,0,1,128,83.07h34.37A6.76,6.76,0,0,1,169.15,89.83Z"/><path class="cls-6" d="M168.59,89.18H121.74a6.59,6.59,0,0,1,6.37-5.66l34.33.1C165.71,83.62,168,86,168.59,89.18Z"/><path class="cls-7" d="M197.68,131.76s-.34,24.51,3.81,43.4.25,51.21-12.24,49.34h-88C88.74,226.37,84.84,194.06,89,175.16s3.81-43.4,3.81-43.4Z"/><path class="cls-8" d="M189.25,224.5h-88c-4.77-.49-7.68-3.58-10-10,23.56-12.41,86.58-46.9,106.14-70.92a193.56,193.56,0,0,0,4.1,31.58C205.64,194.05,201.53,224.66,189.25,224.5Z"/><path class="cls-9" d="M190.9,140.5H101.09c-7.77,0-13.52-6.63-11.79-13.59l4.43-17.81c1.26-5.06,6.15-8.64,11.78-8.64h81c5.64,0,10.53,3.58,11.79,8.64l4.42,17.81C204.41,133.87,198.66,140.5,190.9,140.5Z"/><path class="cls-10" d="M196.4,105.88H95.59a12.39,12.39,0,0,1,9.92-4.78h81A12.41,12.41,0,0,1,196.4,105.88Z"/><path class="cls-11" d="M123.52,158.8v6.64a6.91,6.91,0,0,1-13.82,0v-6.36l6.77,6.77Z"/><path class="cls-12" d="M123.52,125.68V158.8l-7,7-6.77-6.77v-33.4a1.49,1.49,0,0,1,1.49-1.49H122A1.49,1.49,0,0,1,123.52,125.68Z"/><rect class="cls-11" x="108.14" y="144.72" width="17.49" height="10.15" rx="2"/><circle class="cls-13" cx="116.99" cy="133.7" r="1.28"/><circle class="cls-13" cx="116.88" cy="142.15" r="1.28"/><circle class="cls-13" cx="116.99" cy="157.43" r="1.28"/><path class="cls-11" d="M177,158.8v6.64a6.91,6.91,0,1,1-13.82,0v-6.36l6.77,6.77Z"/><path class="cls-12" d="M177,125.68V158.8l-7.05,7-6.77-6.77v-33.4a1.49,1.49,0,0,1,1.49-1.49h10.85A1.49,1.49,0,0,1,177,125.68Z"/><rect class="cls-11" x="161.64" y="144.72" width="17.49" height="10.15" rx="2"/><circle class="cls-13" cx="170.49" cy="133.7" r="1.28"/><circle class="cls-13" cx="170.38" cy="142.15" r="1.28"/><circle class="cls-13" cx="170.49" cy="157.43" r="1.28"/><g class="cls-14"><path class="cls-15" d="M186.59,141.49s0,.52.08,1.49"/><path class="cls-16" d="M186.93,148.2c.8,16.27,2.63,57.55,1.43,72.69"/><path class="cls-15" d="M188.08,223.49a13.29,13.29,0,0,1-.26,1.47"/></g><g class="cls-14"><path class="cls-15" d="M103.75,141.49s0,.52-.08,1.49"/><path class="cls-16" d="M103.41,148.2c-.8,16.27-2.62,57.55-1.42,72.69"/><path class="cls-15" d="M102.26,223.49c.08.56.16,1.06.26,1.47"/></g><path class="cls-9" d="M138.39,187.93h13.27a36.57,36.57,0,0,1,36.57,36.57v0a0,0,0,0,1,0,0H101.82a0,0,0,0,1,0,0v0A36.57,36.57,0,0,1,138.39,187.93Z"/><path class="cls-17" d="M120.49,204.09v3.61a3.76,3.76,0,0,1-7.51,0v-3.46l3.68,3.68Z"/><path class="cls-18" d="M120.49,186.1v18l-3.83,3.83L113,204.24V186.1a.81.81,0,0,1,.81-.81h5.89A.81.81,0,0,1,120.49,186.1Z"/><rect class="cls-17" x="112.14" y="196.44" width="9.5" height="5.51" rx="2"/><circle class="cls-13" cx="116.94" cy="190.46" r="0.69"/><circle class="cls-13" cx="116.88" cy="195.05" r="0.69"/><circle class="cls-13" cx="116.94" cy="203.35" r="0.69"/><path class="cls-17" d="M174,204.09v3.61a3.76,3.76,0,0,1-7.51,0v-3.46l3.68,3.68Z"/><path class="cls-18" d="M174,186.1v18l-3.83,3.83-3.68-3.68V186.1a.81.81,0,0,1,.81-.81h5.89A.81.81,0,0,1,174,186.1Z"/><rect class="cls-17" x="165.64" y="196.44" width="9.5" height="5.51" rx="2"/><circle class="cls-13" cx="170.44" cy="190.46" r="0.69"/><circle class="cls-13" cx="170.38" cy="195.05" r="0.69"/><circle class="cls-13" cx="170.44" cy="203.35" r="0.69"/><line class="cls-19" x1="214.18" y1="224.96" x2="240.87" y2="224.96"/><line class="cls-19" x1="86.85" y1="224.96" x2="206.85" y2="224.96"/><line class="cls-19" x1="59.13" y1="224.96" x2="72.18" y2="224.96"/></svg>