<svg id="Layer_1" data-name="Layer 1" xmlns="http://www.w3.org/2000/svg" xmlns:xlink="http://www.w3.org/1999/xlink" viewBox="0 0 300 300"><defs><style>.cls-1{fill:url(#radial-gradient);}.cls-2{fill:#f17937;}.cls-10,.cls-11,.cls-3,.cls-4{fill:none;stroke-miterlimit:10;}.cls-10,.cls-11,.cls-3{stroke:#383838;}.cls-3{stroke-width:0.1px;}.cls-4{stroke:#350a0a;}.cls-10,.cls-4{stroke-linecap:round;}.cls-5{fill:#27afaf;}.cls-6{fill:#287d87;}.cls-7,.cls-8{fill:#e14d2b;}.cls-8{opacity:0.3;}.cls-9{fill:#22a1a0;}.cls-10,.cls-11{stroke-width:0.25px;}</style><radialGradient id="radial-gradient" cx="150" cy="150" r="150" gradientUnits="userSpaceOnUse"><stop offset="0" stop-color="#fff"/><stop offset="1" stop-color="#d2faff"/></radialGradient></defs><rect class="cls-1" width="300" height="300"/><path class="cls-2" d="M184.73,162.58s-38.65-1-51-4.56c0,0,.56-2.79,1.2-7,1-6.66,2.26-16.84,1.85-24.93a110,110,0,0,0,36.46-9.44s0,4.39,7.59,11.14a13.31,13.31,0,0,0-.09,4.91,15.85,15.85,0,0,0,4.31,8.59s-3.88,4.05,1.52,9.62C186.59,150.93,181.87,154.48,184.73,162.58Z"/><path class="cls-3" d="M180.85,127.81s-29.07,10.89-44.13,7.05"/><path class="cls-3" d="M185.07,141.31s-38.58,7-49.19,2.94"/><path class="cls-3" d="M186.59,150.93s-40.33,6.81-51.83,1.32"/><path class="cls-2" d="M220.92,161.24l-6.37-1-6.32-1c2-8.43-3.95-16.2-3.95-16.2.4-.7,3.32-2.14,5.56-3.17,1.47-.67,2.65-1.17,2.65-1.17a7.35,7.35,0,0,0,5.69,3.9,7.71,7.71,0,0,0,2,7.84,5.53,5.53,0,0,0,.64,5.49A7.25,7.25,0,0,0,220.92,161.24Z"/><path class="cls-3" d="M218.18,142.61s-7.06,5.18-11.65,4.33"/><path class="cls-3" d="M220.15,150.44s-9.44,2-12,1.32"/><path class="cls-3" d="M220.79,155.93s-6.56,2.37-12.17,0"/><path class="cls-2" d="M125.28,160a58.24,58.24,0,0,1-10.42,1.26,24.19,24.19,0,0,1-5.74-.48l.52-11.92a63.61,63.61,0,0,0,5.19-4.56,19.44,19.44,0,0,0,2.68-3.16s1,2.68,2.86,2.72c0,0,1.5,2.94,3.92,3.67,0,0-1.16,4.56.79,6.18A10.14,10.14,0,0,0,125.28,160Z"/><path class="cls-3" d="M120.37,143.87s-5.81,7.23-10.87,8.26"/><path class="cls-3" d="M124.29,147.54s-9,7.57-14.94,8"/><path class="cls-3" d="M125.08,153.72s-10,6-15.86,4.88"/><path class="cls-4" d="M113,143.44s-1.58,14.92-.86,22.16"/><path class="cls-4" d="M203.21,139.35s7.29,6.42,6.91,25.79"/><path class="cls-5" d="M229.93,163.41a72.81,72.81,0,0,1-.91,9.47c-20.85,3.09-81.66,10.37-131-.83a114.23,114.23,0,0,0-28.15-16.53l46,10.71c2.42,4.24,8.18,8.33,13.79,10.1s46.95.62,54.83,0,7.68-11.1,7.68-11.1Z"/><path class="cls-6" d="M225.71,187.17c-1.79,6-3.46,10-3.46,10H115.72a36.2,36.2,0,0,0-3.4-8.59C153,196.35,207.64,189.75,225.71,187.17Z"/><path class="cls-7" d="M151.9,105.17s6.35-4.2,9.53-2.42,4.7,5.34,8.13,5c0,0-3.17,3.3-6.35,2.92s-7.75-5.59-11.31.51Z"/><path class="cls-8" d="M214.55,160.24c.68-5.35-2.94-15.71-4.71-20.37,1.47-.67,2.65-1.17,2.65-1.17a7.35,7.35,0,0,0,5.69,3.9,7.71,7.71,0,0,0,2,7.84,5.53,5.53,0,0,0,.64,5.49,7.25,7.25,0,0,0,.13,5.31Z"/><path class="cls-8" d="M184.73,162.58s-38.65-1-51-4.56c0,0,.56-2.79,1.2-7,8.22-1.18,33.76-5.76,45.81-18.32a15.85,15.85,0,0,0,4.31,8.59s-3.88,4.05,1.52,9.62C186.59,150.93,181.87,154.48,184.73,162.58Z"/><path class="cls-8" d="M114.86,161.27c.69-3.75.31-11.88,0-17a19.44,19.44,0,0,0,2.68-3.16s1,2.68,2.86,2.72c0,0,1.5,2.94,3.92,3.67,0,0-1.16,4.56.79,6.18a10.14,10.14,0,0,0,.2,6.29A58.24,58.24,0,0,1,114.86,161.27Z"/><line class="cls-3" x1="153.27" y1="118.36" x2="208.18" y2="164.46"/><path class="cls-4" d="M139.83,178.28s15.53-23.47,12.16-76"/><line class="cls-3" x1="151.7" y1="114.39" x2="72.89" y2="156.23"/><line class="cls-3" x1="151.7" y1="119.96" x2="106.31" y2="164.01"/><line class="cls-3" x1="153.1" y1="110.72" x2="179.46" y2="176.61"/><path class="cls-9" d="M229,172.88a109.14,109.14,0,0,1-3.31,14.29c-18.07,2.58-72.73,9.18-113.39,1.39-3.49-6.38-8.7-11.9-14.29-16.51C147.36,183.25,208.17,176,229,172.88Z"/><path class="cls-10" d="M208.18,175.48c8.73-.9,15.91-1.87,20.84-2.6"/><path class="cls-10" d="M196.2,176.57l3.41-.28"/><path class="cls-10" d="M118.21,175.59c19.81,2.58,40.32,2.86,58.58,2.14"/><path class="cls-11" d="M199.61,170.5s16.13-.15,23.06-1.06"/><path class="cls-10" d="M178.43,191.71c9.55-.48,18.5-1.21,26.24-2"/><path class="cls-10" d="M167.57,192.12q3.31-.09,6.57-.22"/><path class="cls-10" d="M125.28,190.53a296.63,296.63,0,0,0,38.25,1.67"/><path class="cls-4" d="M111.94,197.15s101.41-.46,110.31,0"/><path class="cls-4" d="M225.71,197.5s.47-.7,4.41.19"/></svg>