<svg id="Layer_1" data-name="Layer 1" xmlns="http://www.w3.org/2000/svg" viewBox="0 0 300 300"><defs><style>.cls-1{fill:#f2a950;}.cls-2,.cls-7,.cls-9{fill:none;stroke-miterlimit:10;}.cls-2{stroke:#100019;}.cls-2,.cls-9{stroke-width:2px;}.cls-3{fill:#100019;}.cls-4{fill:#eb3e51;}.cls-5{fill:#232323;}.cls-6{fill:#e9e8e4;}.cls-7{stroke:#eb3e51;}.cls-8{fill:#fff;opacity:0.3;}.cls-9{stroke:#232323;stroke-linecap:round;}</style></defs><rect class="cls-1" width="300" height="300"/><line class="cls-2" x1="146.18" y1="128.01" x2="118.04" y2="211.88"/><line class="cls-2" x1="149.61" y1="129.17" x2="149.61" y2="211.88"/><line class="cls-2" x1="153.98" y1="128.34" x2="181.55" y2="211.88"/><path class="cls-3" d="M137.76,122.58h24.47a0,0,0,0,1,0,0v2.24a4.35,4.35,0,0,1-4.35,4.35H142.12a4.35,4.35,0,0,1-4.35-4.35v-2.24A0,0,0,0,1,137.76,122.58Z"/><path class="cls-4" d="M111.23,217.57s2.07-8.57,8.08-6.79a6.58,6.58,0,0,1,4.36,4.63c.42,1.54.44,2.18.22,2.51Z"/><path class="cls-4" d="M157.08,217.75s0-7.17-7.22-6.75a5.5,5.5,0,0,0-5.22,4.59,5.57,5.57,0,0,0-.22,2.51Z"/><path class="cls-4" d="M176,218.24s1.39-8.71,7.52-7.4a6.56,6.56,0,0,1,4.71,4.27c.53,1.5.6,2.13.42,2.48Z"/><rect class="cls-5" x="120.06" y="84.82" width="59.88" height="36.12" rx="4.35"/><circle class="cls-6" cx="136" cy="105.05" r="2.91"/><rect class="cls-6" x="158.9" y="87.53" width="6.71" height="3.56"/><rect class="cls-6" x="167.41" y="87.53" width="8.97" height="3.56"/><rect class="cls-4" x="125.59" y="81.76" width="7.88" height="3.06" rx="0.84"/><circle class="cls-7" cx="149.94" cy="105.76" r="11.76"/><circle class="cls-4" cx="150" cy="105.76" r="11.76"/><circle class="cls-5" cx="150" cy="105.76" r="9.71"/><circle class="cls-7" cx="150" cy="105.76" r="6.12"/><circle class="cls-4" cx="148.8" cy="103.82" r="2.18"/><path class="cls-8" d="M120.06,91.08v24.39S141,81.11,120.06,91.08Z"/><path class="cls-8" d="M179.69,102.94c.24-.17.25.23.25.23v9.53S174.54,106.71,179.69,102.94Z"/><line class="cls-9" x1="95.12" y1="218.24" x2="172.88" y2="218.24"/><line class="cls-9" x1="177.12" y1="218.24" x2="192.88" y2="218.24"/><line class="cls-9" x1="197.12" y1="218.24" x2="204.88" y2="218.24"/></svg>