<svg id="Layer_1" data-name="Layer 1" xmlns="http://www.w3.org/2000/svg" viewBox="0 0 300 300"><defs><style>.cls-1{fill:#f5e6b8;}.cls-2{fill:#265c4b;}.cls-3{fill:#f2a950;}.cls-4{fill:#589a8d;}.cls-5{fill:#615e56;}.cls-6{fill:#b1afa2;}</style></defs><rect class="cls-1" width="300" height="300"/><path class="cls-2" d="M139.53,207.58S134.48,82,146.65,71.94s30.52-9.64,24.78,32.82c-2,14.65-4.37,31.44-6.65,47.14-4.33,29.79-8.27,55.68-8.27,55.68Z"/><path class="cls-2" d="M164.78,151.9s19,2.06,37.63-14.85c13.08-9.34,22.26,12-1.83,21.41s-37.08,2.18-37.08,2.18Z"/><path class="cls-2" d="M108.78,113.48S105.34,82.27,117,82s13.08,7.34,11,34.88S126,155,138.49,159.38v15.84s-8.83,2.06-17.78-6S108.78,113.48,108.78,113.48Z"/><path class="cls-3" d="M159.73,207.58s-60.59-2.76-73.44,8.72,45.21,12.16,45.44,14.23,35.8,6.19,61.5-1.61S176.94,207.35,159.73,207.58Z"/><path class="cls-4" d="M139.29,203.73q-.18-16.24,0-32.49c.16-10.83.43-21.65.89-32.48s.94-21.66,2.2-32.45c.67-5.39,1.39-10.77,2.47-16.11s2.28-10.72,5-15.48l.18.09a37.62,37.62,0,0,0-2.41,7.68c-.56,2.63-1,5.28-1.42,8q-1.15,8-1.85,16.08c-1,10.75-1.93,21.52-2.59,32.32s-1.13,21.61-1.49,32.43-.69,21.63-.84,32.46Z"/><path class="cls-4" d="M152,149q-.26-6.87-.23-13.73c.06-4.58.19-9.16.47-13.74a93.31,93.31,0,0,1,1.5-13.72,46.72,46.72,0,0,1,1.89-6.7,15.33,15.33,0,0,1,3.6-6l.15.13a20.08,20.08,0,0,0-2.41,6.25c-.52,2.18-.92,4.41-1.26,6.64s-.69,4.47-1,6.72-.63,4.5-.87,6.77c-.47,4.53-.81,9.08-1.06,13.64s-.48,9.12-.57,13.69Z"/><path class="cls-4" d="M154,196.39l5.81-57.22c.95-9.54,1.61-19.11,2.78-28.61l1.77-14.26c.27-2.37.64-4.75.89-7.12l.45-3.57q.12-1.77.3-3.57h.3c.1,1.19.2,2.4.26,3.61l.06,3.62c0,2.41-.08,4.81-.15,7.22-.19,4.8-.51,9.59-.9,14.38-.73,9.57-2.17,19.06-3.38,28.58L158.43,168l-4.1,28.47Z"/><path class="cls-4" d="M166.21,155.24s28.92-5.52,38.71-12.76a2.78,2.78,0,0,1,3.87,3.9c-1.22,1.64-3.5,3.7-7.44,6.27C186.2,162.53,166.21,155.24,166.21,155.24Z"/><path class="cls-4" d="M116.88,91.8s-9.88,56.36,9.88,70.72c12.26,8.91,10.81,5,7.94.68-2.72-4-10.74-8.36-11.3-13.2C121.23,131.31,118.65,97.65,116.88,91.8Z"/><path class="cls-5" d="M129.51,199.31s-6.2,9.18-5,18.36c1,6.08,29.14,2.64,31.59.48s3.14-8,3.14-8-8.19-5.76-11.09-8.67-7.43-11-13.85-7.27S129.51,199.31,129.51,199.31Z"/><path class="cls-5" d="M170.67,223s13.23-3.6,13.77-4.36-.54-11.48-16-12.78c0,0-9.72,4.82-11.94,7.5s.23,3.55.85,4.76S170.67,223,170.67,223Z"/><path class="cls-6" d="M170.66,223s-12.7-3.67-13.31-4.88-3.06-2.08-.84-4.76,11.93-7.5,11.93-7.5S174.62,217.12,170.66,223Z"/><path class="cls-6" d="M135,193.92h0a5.58,5.58,0,0,0-.64.33c-6.43,3.75-4.82,5.05-4.82,5.05a35.21,35.21,0,0,0-4.6,11,22.21,22.21,0,0,0-.47,6.5c0,.27,0,.55.09.82.56,3.39,9.55,3.82,17.82,3.16h.07Z"/><path class="cls-6" d="M124.44,216.85l-.07-.09c-1-1.33-.55-3.69.54-6.41A22.21,22.21,0,0,0,124.44,216.85Z"/><path class="cls-5" d="M113.37,223.49s20.73,1,21.49-.84-2.37-10-6.5-10.1-19.05,5-18.74,7S113.37,223.49,113.37,223.49Z"/><path class="cls-6" d="M134.86,222.65c-.76,1.83-21.5.84-21.5.84a12.49,12.49,0,0,1-2.93-2.4h0c.93-.28,19.71-5.78,23.54-2.93C134.83,220.05,135.18,221.89,134.86,222.65Z"/></svg>