<svg id="Layer_1" data-name="Layer 1" xmlns="http://www.w3.org/2000/svg" xmlns:xlink="http://www.w3.org/1999/xlink" viewBox="0 0 300 300"><defs><style>.cls-1{fill:url(#linear-gradient);}.cls-2{fill:#3d3c3f;opacity:0.15;}.cls-3{fill:#475059;}.cls-4{fill:#6d7a8a;}.cls-5,.cls-6{fill:#505863;}.cls-5{opacity:0.5;}.cls-7{fill:#8899ad;}</style><linearGradient id="linear-gradient" x1="150" y1="300" x2="150" gradientUnits="userSpaceOnUse"><stop offset="0" stop-color="#dcf3ff"/><stop offset="1" stop-color="#fff"/></linearGradient></defs><rect class="cls-1" width="300" height="300"/><ellipse class="cls-2" cx="150" cy="217.77" rx="57.91" ry="14.04"/><path class="cls-3" d="M181.48,218.06a166.46,166.46,0,0,1-63,0,2.27,2.27,0,0,1-1.84-2.24v-1.1h66.64v1.1A2.27,2.27,0,0,1,181.48,218.06Z"/><path class="cls-4" d="M192.9,115.72l-.09,2.25L189,207.17a7.78,7.78,0,0,1-6.31,7.31A182.12,182.12,0,0,1,152,217.77,162.74,162.74,0,0,1,117.92,215a7.78,7.78,0,0,1-6.3-7.26l-4.52-92Z"/><path class="cls-5" d="M192.81,118,189,207.17a7.78,7.78,0,0,1-6.31,7.31A182.12,182.12,0,0,1,152,217.77V118Z"/><path class="cls-6" d="M111.81,105.12h76.37a4.46,4.46,0,0,1,4.46,4.46V118a0,0,0,0,1,0,0H107.36a0,0,0,0,1,0,0v-8.39A4.46,4.46,0,0,1,111.81,105.12Z"/><path class="cls-4" d="M188,96.16c-24.79-9.6-50.08-9.13-75.8.09a6.91,6.91,0,0,0-4.57,6.5h84.78v-.15A6.9,6.9,0,0,0,188,96.16Z"/><path class="cls-4" d="M160.93,78.94H139.07a5.67,5.67,0,0,0-5.67,5.67v7h5.07V82.53h23.06v9.06h5.07v-7A5.67,5.67,0,0,0,160.93,78.94Z"/><rect class="cls-7" x="103.77" y="102.87" width="92.46" height="12.85" rx="4.46"/><path class="cls-6" d="M136.25,211.19h0c-1.11.06-2-1.28-2.07-3l-1.9-85.76c0-1.71.83-3.14,1.93-3.2h0c1.11-.06,2,1.28,2.08,3l1.9,85.75C138.23,209.7,137.36,211.14,136.25,211.19Z"/><path class="cls-6" d="M121.1,211.19h0c-1.11.06-2-1.28-2.08-3l-1.9-85.76c0-1.71.83-3.14,1.94-3.2h0c1.11-.06,2,1.28,2.07,3L123,208C123.07,209.7,122.2,211.14,121.1,211.19Z"/><rect class="cls-6" x="147.99" y="119.22" width="4.01" height="92" rx="2.01"/><path class="cls-6" d="M162.19,211.19h0c1.11.06,2-1.28,2.07-3l1.9-85.76c0-1.71-.83-3.14-1.93-3.2h0c-1.11-.06-2,1.28-2.08,3L160.25,208C160.21,209.7,161.08,211.14,162.19,211.19Z"/><path class="cls-6" d="M177.35,211.19h0c1.1.06,2-1.28,2.07-3l1.9-85.76c0-1.71-.83-3.14-1.94-3.2h0c-1.11-.06-2,1.28-2.07,3L175.41,208C175.37,209.7,176.24,211.14,177.35,211.19Z"/><path class="cls-6" d="M136.25,211.19h0c-1.11.06-2-1.28-2.07-3l-1.9-85.76c0-1.71.83-3.14,1.93-3.2h0c1.11-.06,2,1.28,2.08,3l1.9,85.75C138.23,209.7,137.36,211.14,136.25,211.19Z"/><path class="cls-6" d="M121.1,211.19h0c-1.11.06-2-1.28-2.08-3l-1.9-85.76c0-1.71.83-3.14,1.94-3.2h0c1.11-.06,2,1.28,2.07,3L123,208C123.07,209.7,122.2,211.14,121.1,211.19Z"/></svg>