<svg id="Layer_1" data-name="Layer 1" xmlns="http://www.w3.org/2000/svg" viewBox="0 0 300 300"><defs><style>.cls-1{fill:#333;}.cls-2{fill:#1a1a1a;}.cls-3{fill:#4dc57e;}.cls-4{fill:#0071bd;}.cls-5{fill:#fff5de;}.cls-6{fill:#b6e5ff;opacity:0.1;}.cls-7{opacity:0.5;}.cls-8{fill:none;stroke:#343e4c;stroke-miterlimit:10;stroke-width:0.21px;}</style></defs><rect class="cls-1" width="300" height="300"/><polygon class="cls-2" points="112.29 189.47 175.82 300.29 300.29 300.29 300.29 197.35 188.76 117.71 112.29 189.47"/><path class="cls-3" d="M189.88,119.27v66.35a4.27,4.27,0,0,1-4.26,4.27H114.38a4.27,4.27,0,0,1-4.26-4.27V114.38a4.27,4.27,0,0,1,4.26-4.27h67.18a4.26,4.26,0,0,1,3.28,1.55l4.06,4.89A4.3,4.3,0,0,1,189.88,119.27Z"/><path class="cls-2" d="M179.41,110.11v24.82a6.23,6.23,0,0,1-6.24,6.24H126.56a6,6,0,0,1-6-6v-25.1Z"/><path class="cls-4" d="M179.41,110.11v25.1a6,6,0,0,1-6,6H141.56a6,6,0,0,1-6-6v-25.1Z"/><rect class="cls-5" x="166" y="111.06" width="7.94" height="20.06"/><rect class="cls-4" x="116" y="185.06" width="68" height="4.82"/><path class="cls-5" d="M120.32,146.41h59.35a4.32,4.32,0,0,1,4.32,4.32v34.32a0,0,0,0,1,0,0H116a0,0,0,0,1,0,0V150.73A4.32,4.32,0,0,1,120.32,146.41Z"/><rect class="cls-6" x="185.44" y="131.82" width="2.59" height="31.65"/><rect class="cls-6" x="185.44" y="165.2" width="2.59" height="4.85"/><g class="cls-7"><line class="cls-8" x1="119.3" y1="151.82" x2="180.7" y2="151.82"/><line class="cls-8" x1="119.3" y1="154.74" x2="180.7" y2="154.74"/><line class="cls-8" x1="119.3" y1="157.65" x2="180.7" y2="157.65"/><line class="cls-8" x1="119.3" y1="160.29" x2="180.7" y2="160.29"/><line class="cls-8" x1="119.3" y1="163.21" x2="180.7" y2="163.21"/><line class="cls-8" x1="119.3" y1="166.12" x2="180.7" y2="166.12"/><line class="cls-8" x1="119.3" y1="169.29" x2="180.7" y2="169.29"/><line class="cls-8" x1="119.3" y1="172.21" x2="180.7" y2="172.21"/><line class="cls-8" x1="119.3" y1="175.12" x2="180.7" y2="175.12"/><line class="cls-8" x1="119.3" y1="177.76" x2="180.7" y2="177.76"/><line class="cls-8" x1="119.3" y1="180.68" x2="180.7" y2="180.68"/><line class="cls-8" x1="119.3" y1="183.59" x2="180.7" y2="183.59"/></g></svg>