<svg id="Layer_1" data-name="Layer 1" xmlns="http://www.w3.org/2000/svg" viewBox="0 0 300 300"><defs><style>.cls-1{fill:#f9eecf;}.cls-2{fill:#e28e13;}.cls-3{fill:#f9a621;}.cls-4{fill:#125177;}.cls-5{fill:#e08e17;}.cls-6{fill:#e03b0e;}.cls-6,.cls-8{stroke:#0d1752;}.cls-10,.cls-14,.cls-6,.cls-8,.cls-9{stroke-miterlimit:10;}.cls-7{fill:#0d1752;}.cls-8{fill:#c8dde8;}.cls-9{fill:#035072;stroke-width:0.25px;}.cls-10,.cls-9{stroke:#fff;}.cls-10,.cls-14{fill:none;}.cls-10{stroke-width:3px;}.cls-10,.cls-11{opacity:0.5;}.cls-11,.cls-13{fill:#fff;}.cls-12{fill:#0a0a0a;}.cls-14{stroke:#666;stroke-width:0.2px;}</style></defs><rect class="cls-1" width="300" height="300"/><path class="cls-2" d="M182.49,242.59H97.37a5.94,5.94,0,0,1-5.94-5.94V67.35a5.94,5.94,0,0,1,5.94-5.94H206.84a5.94,5.94,0,0,1,5.94,5.94V212.29A30.29,30.29,0,0,1,182.49,242.59Z"/><path class="cls-3" d="M180.49,240.59H95.37a5.94,5.94,0,0,1-5.94-5.94V65.35a5.94,5.94,0,0,1,5.94-5.94H204.84a5.94,5.94,0,0,1,5.94,5.94V210.29A30.29,30.29,0,0,1,180.49,240.59Z"/><rect class="cls-4" x="101.33" y="74.05" width="97.55" height="75.95"/><circle class="cls-5" cx="128.1" cy="181.98" r="15.44"/><path class="cls-6" d="M144.58,175.48h-10v-10a3.16,3.16,0,0,0-3.16-3.17h-6.66a3.17,3.17,0,0,0-3.17,3.17v10h-10a3.17,3.17,0,0,0-3.17,3.17v6.66a3.17,3.17,0,0,0,3.17,3.16h10v10a3.17,3.17,0,0,0,3.17,3.16h6.66a3.16,3.16,0,0,0,3.16-3.16v-10h10a3.16,3.16,0,0,0,3.16-3.16v-6.66A3.16,3.16,0,0,0,144.58,175.48Z"/><circle class="cls-7" cx="111.53" cy="219.61" r="1.26"/><circle class="cls-7" cx="115.46" cy="219.61" r="1.26"/><circle class="cls-7" cx="119.39" cy="219.61" r="1.26"/><circle class="cls-7" cx="123.32" cy="219.61" r="1.26"/><circle class="cls-7" cx="127.25" cy="219.61" r="1.26"/><circle class="cls-7" cx="131.18" cy="219.61" r="1.26"/><circle class="cls-7" cx="135.11" cy="219.61" r="1.26"/><circle class="cls-7" cx="139.04" cy="219.61" r="1.26"/><circle class="cls-7" cx="142.97" cy="219.61" r="1.26"/><circle class="cls-7" cx="146.9" cy="219.61" r="1.26"/><circle class="cls-7" cx="111.53" cy="226.91" r="1.26"/><circle class="cls-7" cx="115.46" cy="226.91" r="1.26"/><circle class="cls-7" cx="119.39" cy="226.91" r="1.26"/><circle class="cls-7" cx="123.32" cy="226.91" r="1.26"/><circle class="cls-7" cx="127.25" cy="226.91" r="1.26"/><circle class="cls-7" cx="131.18" cy="226.91" r="1.26"/><circle class="cls-7" cx="135.11" cy="226.91" r="1.26"/><circle class="cls-7" cx="139.04" cy="226.91" r="1.26"/><circle class="cls-7" cx="142.97" cy="226.91" r="1.26"/><circle class="cls-7" cx="146.9" cy="226.91" r="1.26"/><circle class="cls-7" cx="109.71" cy="223.26" r="1.26"/><circle class="cls-7" cx="113.64" cy="223.26" r="1.26"/><circle class="cls-7" cx="117.57" cy="223.26" r="1.26"/><circle class="cls-7" cx="121.5" cy="223.26" r="1.26"/><circle class="cls-7" cx="125.43" cy="223.26" r="1.26"/><circle class="cls-7" cx="129.36" cy="223.26" r="1.26"/><circle class="cls-7" cx="133.28" cy="223.26" r="1.26"/><circle class="cls-7" cx="137.21" cy="223.26" r="1.26"/><circle class="cls-7" cx="141.14" cy="223.26" r="1.26"/><circle class="cls-7" cx="145.07" cy="223.26" r="1.26"/><circle class="cls-8" cx="185.83" cy="165.43" r="7.4"/><circle class="cls-8" cx="170.6" cy="186.56" r="7.4"/><rect class="cls-9" x="169.09" y="217.61" width="3.29" height="10.93" rx="1.64" transform="translate(112.78 -51.8) rotate(25.52)"/><rect class="cls-9" x="176.96" y="217.61" width="3.29" height="10.93" rx="1.64" transform="translate(113.55 -55.19) rotate(25.52)"/><rect class="cls-9" x="184.83" y="217.61" width="3.29" height="10.93" rx="1.64" transform="translate(114.32 -58.58) rotate(25.52)"/><rect class="cls-9" x="192.7" y="217.61" width="3.29" height="10.93" rx="1.64" transform="translate(115.09 -61.97) rotate(25.52)"/><path class="cls-10" d="M124.05,122.82s19.57,7.69,26.09,7.69,26.1-7.69,26.1-7.69"/><rect class="cls-11" x="176" y="117.14" width="1.91" height="10.66" rx="0.95" transform="translate(-31.22 67.92) rotate(-20)"/><rect class="cls-11" x="122.3" y="117.14" width="1.91" height="10.66" rx="0.95" transform="translate(197.19 279.72) rotate(-160)"/><ellipse class="cls-12" cx="135.88" cy="102.24" rx="5.04" ry="8.38"/><ellipse class="cls-12" cx="166.82" cy="101.92" rx="5.04" ry="8.38"/><circle class="cls-13" cx="137.73" cy="98.79" r="1.86"/><circle class="cls-13" cx="164.97" cy="97.94" r="1.86"/><line class="cls-14" x1="89.43" y1="67.74" x2="210.78" y2="67.74"/><line class="cls-14" x1="100.41" y1="59.41" x2="100.41" y2="67.74"/><line class="cls-14" x1="201.87" y1="59.41" x2="201.87" y2="67.74"/><line class="cls-14" x1="201.94" y1="231.68" x2="89.22" y2="231.68"/><line class="cls-14" x1="98.13" y1="240" x2="98.13" y2="231.68"/></svg>