<svg id="Layer_1" data-name="Layer 1" xmlns="http://www.w3.org/2000/svg" viewBox="0 0 300 300"><defs><style>.cls-1{fill:#1071c1;}.cls-18,.cls-2,.cls-4{fill:#b8bcb8;}.cls-3{fill:none;stroke:#b8bcb8;stroke-miterlimit:10;stroke-width:3px;}.cls-4{opacity:0.15;}.cls-5{opacity:0.75;}.cls-6{fill:#062660;}.cls-7{fill:#eaeaea;}.cls-8{fill:#d8d7d6;}.cls-9{fill:#dbdbdb;}.cls-10{fill:#fff;}.cls-11{fill:#e72434;}.cls-12{fill:#004bb7;}.cls-13{fill:#37a2e0;}.cls-14{fill:#f46606;}.cls-15{fill:#ffc017;}.cls-16{fill:#ff1a46;}.cls-17{fill:#9b9a98;}.cls-18{opacity:0.3;}</style></defs><rect class="cls-1" width="300" height="300"/><rect class="cls-2" x="141.95" y="117.71" width="19.17" height="8.53" rx="4.26"/><path class="cls-3" d="M151.53,0V47.71a6.88,6.88,0,0,1-6.88,6.88H123.3a10.24,10.24,0,0,0-10.24,10.23h0A10.24,10.24,0,0,0,123.3,75.06h21.35a6.88,6.88,0,0,1,6.88,6.88v36.53"/><path class="cls-4" d="M89.81,122.77h32.28a0,0,0,0,1,0,0V172a0,0,0,0,1,0,0H89.81a24.62,24.62,0,0,1-24.62-24.62v0A24.62,24.62,0,0,1,89.81,122.77Z"/><path class="cls-4" d="M203.61,122.77h32.28a0,0,0,0,1,0,0V172a0,0,0,0,1,0,0H203.61A24.62,24.62,0,0,1,179,147.39v0a24.62,24.62,0,0,1,24.62-24.62Z" transform="translate(414.89 294.77) rotate(-180)"/><g class="cls-5"><path class="cls-6" d="M240.21,160a33.43,33.43,0,0,1-33.42,33.22H185.46a8,8,0,0,0-8-8h-54.1a8,8,0,0,0-8,8H94.59c-18.5,0-34.13-15.14-34-33.64A33.41,33.41,0,0,1,94,126.38H206.2C224.69,126.38,240.32,141.51,240.21,160Z"/></g><path class="cls-7" d="M240.21,158a33.43,33.43,0,0,1-33.42,33.22H185.46a8,8,0,0,0-8-8h-54.1a8,8,0,0,0-8,8H94.59c-18.5,0-34.13-15.14-34-33.64A33.41,33.41,0,0,1,94,124.38H206.2C224.69,124.38,240.32,139.51,240.21,158Z"/><g class="cls-5"><path class="cls-8" d="M78.65,178.16l-9.21-15.94a6.83,6.83,0,0,1,0-6.83l9.21-15.94A6.82,6.82,0,0,1,84.56,136H103a6.82,6.82,0,0,1,5.91,3.41l9.21,15.94a6.83,6.83,0,0,1,0,6.83l-9.21,15.94a6.81,6.81,0,0,1-5.91,3.42H84.56A6.81,6.81,0,0,1,78.65,178.16Z"/></g><path class="cls-2" d="M77.65,177.16l-9.21-15.94a6.83,6.83,0,0,1,0-6.83l9.21-15.94A6.82,6.82,0,0,1,83.56,135H102a6.82,6.82,0,0,1,5.91,3.41l9.21,15.94a6.83,6.83,0,0,1,0,6.83l-9.21,15.94a6.81,6.81,0,0,1-5.91,3.42H83.56A6.81,6.81,0,0,1,77.65,177.16Z"/><path class="cls-9" d="M105.1,153H96.86v-8.24a1.46,1.46,0,0,0-1.46-1.46H88.75a1.46,1.46,0,0,0-1.46,1.46V153H79.05a1.46,1.46,0,0,0-1.46,1.46v6.65a1.46,1.46,0,0,0,1.46,1.46h8.24v8.24a1.46,1.46,0,0,0,1.46,1.46H95.4a1.46,1.46,0,0,0,1.46-1.46v-8.24h8.24a1.46,1.46,0,0,0,1.46-1.46v-6.65A1.46,1.46,0,0,0,105.1,153Z"/><circle class="cls-10" cx="92.07" cy="157.81" r="2.56"/><path class="cls-10" d="M92.07,148.2H90.41a.32.32,0,0,1-.28-.48l.83-1.45.84-1.44a.31.31,0,0,1,.55,0l.84,1.44.83,1.45a.32.32,0,0,1-.28.48Z"/><path class="cls-10" d="M92.07,167.42H90.41a.32.32,0,0,0-.28.48l.83,1.44.84,1.45a.32.32,0,0,0,.55,0l.84-1.45L94,167.9a.32.32,0,0,0-.28-.48Z"/><path class="cls-10" d="M101.69,157.81v-1.67a.31.31,0,0,1,.47-.28l1.45.84,1.45.83a.32.32,0,0,1,0,.55l-1.45.84-1.45.83a.31.31,0,0,1-.47-.27Z"/><path class="cls-10" d="M82.46,157.81v-1.67a.32.32,0,0,0-.48-.28l-1.44.84-1.45.83a.32.32,0,0,0,0,.55l1.45.84,1.44.83a.32.32,0,0,0,.48-.27Z"/><g class="cls-5"><path class="cls-8" d="M196.92,178.16l-9.2-15.94a6.83,6.83,0,0,1,0-6.83l9.2-15.94a6.84,6.84,0,0,1,5.91-3.41h18.42a6.84,6.84,0,0,1,5.91,3.41l9.2,15.94a6.83,6.83,0,0,1,0,6.83l-9.2,15.94a6.82,6.82,0,0,1-5.91,3.42H202.83A6.82,6.82,0,0,1,196.92,178.16Z"/></g><path class="cls-2" d="M195.92,177.16l-9.2-15.94a6.83,6.83,0,0,1,0-6.83l9.2-15.94a6.84,6.84,0,0,1,5.91-3.41h18.42a6.84,6.84,0,0,1,5.91,3.41l9.2,15.94a6.83,6.83,0,0,1,0,6.83l-9.2,15.94a6.82,6.82,0,0,1-5.91,3.42H201.83A6.82,6.82,0,0,1,195.92,177.16Z"/><rect class="cls-10" x="200.57" y="150.11" width="7.53" height="25.77" rx="3.77" transform="translate(-56.79 151.42) rotate(-36.04)"/><rect class="cls-10" x="213.22" y="140.91" width="7.53" height="25.77" rx="3.77" transform="translate(-48.95 157.1) rotate(-36.04)"/><circle class="cls-11" cx="199.1" cy="155.8" r="3.1"/><circle class="cls-12" cx="209.47" cy="170.06" r="3.1"/><circle class="cls-13" cx="211.75" cy="146.6" r="3.1"/><circle class="cls-14" cx="222.12" cy="160.85" r="3.1"/><rect class="cls-15" x="135.54" y="173.85" width="11.14" height="2.3" rx="0.63"/><rect class="cls-16" x="154.1" y="173.85" width="11.14" height="2.3" rx="0.63"/><rect class="cls-2" x="126.22" y="135.31" width="48.34" height="5.55" rx="1.73"/><rect class="cls-17" x="130.85" y="137.21" width="8.63" height="1.78" rx="0.63"/><rect class="cls-17" x="146.08" y="137.19" width="8.63" height="1.78" rx="0.63"/><rect class="cls-17" x="161.31" y="137.19" width="8.63" height="1.78" rx="0.63"/><rect class="cls-2" x="126.22" y="142.37" width="48.34" height="2.29" rx="1.15"/><path class="cls-18" d="M240.21,158a33.43,33.43,0,0,1-33.42,33.22H185.46a8,8,0,0,0-8-8H130.09l48.26-58.84H206.2C224.69,124.38,240.32,139.51,240.21,158Z"/></svg>