<svg id="Layer_1" data-name="Layer 1" xmlns="http://www.w3.org/2000/svg" viewBox="0 0 300 300"><defs><style>.cls-1{fill:#338fa8;}.cls-12,.cls-2,.cls-5{fill:#3c464e;}.cls-2{opacity:0.15;}.cls-3{fill:#79c7f2;stroke-width:0.69px;}.cls-10,.cls-11,.cls-12,.cls-3,.cls-5,.cls-6{stroke:#382a21;stroke-miterlimit:10;}.cls-4{fill:#2ebe7c;}.cls-11,.cls-5,.cls-6{stroke-width:0.35px;}.cls-6{fill:#4e5e6c;}.cls-7{fill:#ded666;}.cls-8{fill:#382a21;}.cls-9{fill:#ff1010;}.cls-10{fill:none;stroke-linecap:round;stroke-width:0.55px;}.cls-11{fill:#fff;opacity:0.05;}.cls-12{stroke-width:0.74px;}</style></defs><rect class="cls-1" width="300" height="300"/><polygon class="cls-2" points="96.48 187.39 156.09 299.9 300.07 300.57 299.23 174.82 216.96 130 96.48 187.39"/><path class="cls-3" d="M95,123.31h3.5a0,0,0,0,1,0,0v18a0,0,0,0,1,0,0H95a2.75,2.75,0,0,1-2.75-2.75V126.06A2.75,2.75,0,0,1,95,123.31Z"/><path class="cls-3" d="M95,150.72h3.5a0,0,0,0,1,0,0v18a0,0,0,0,1,0,0H95A2.75,2.75,0,0,1,92.22,166V153.47A2.75,2.75,0,0,1,95,150.72Z"/><rect class="cls-4" x="126.67" y="179.25" width="17.46" height="6.82"/><rect class="cls-4" x="149.58" y="179.25" width="46.78" height="6.82"/><path class="cls-5" d="M214,126.77H105.48V149a2.17,2.17,0,0,1-2.17,2.17h-2.46a1.46,1.46,0,0,0-1.46,1.47v25.82a3.65,3.65,0,0,0,3.65,3.66H214a3.66,3.66,0,0,0,3.65-3.66v-48A3.66,3.66,0,0,0,214,126.77Z"/><path class="cls-6" d="M190.92,134.64H115.56a.58.58,0,0,0-.58.58v37.67a.58.58,0,0,0,.58.57h75.36a19.41,19.41,0,0,0,19.41-19.41h0A19.41,19.41,0,0,0,190.92,134.64Zm-46,36.41a17,17,0,1,1,17-17A17,17,0,0,1,144.89,171.05Zm40.08,0a17,17,0,1,1,17-17A17,17,0,0,1,185,171.05Z"/><path class="cls-7" d="M150.14,183.05h0a.42.42,0,0,1,.42.42v2.6a0,0,0,0,1,0,0h-.84a0,0,0,0,1,0,0v-2.6A.42.42,0,0,1,150.14,183.05Z"/><path class="cls-7" d="M151.52,183.05h0a.42.42,0,0,1,.42.42v2.6a0,0,0,0,1,0,0h-.84a0,0,0,0,1,0,0v-2.6a.42.42,0,0,1,.42-.42Z"/><path class="cls-7" d="M152.9,183.05h0a.42.42,0,0,1,.42.42v2.6a0,0,0,0,1,0,0h-.84a0,0,0,0,1,0,0v-2.6a.42.42,0,0,1,.42-.42Z"/><path class="cls-7" d="M154.28,183.05h0a.42.42,0,0,1,.42.42v2.6a0,0,0,0,1,0,0h-.84a0,0,0,0,1,0,0v-2.6A.42.42,0,0,1,154.28,183.05Z"/><path class="cls-7" d="M127.85,183.09h0a.42.42,0,0,1,.42.42v2.6a0,0,0,0,1,0,0h-.84a0,0,0,0,1,0,0v-2.6A.42.42,0,0,1,127.85,183.09Z"/><path class="cls-7" d="M129.23,183.09h0a.42.42,0,0,1,.42.42v2.6a0,0,0,0,1,0,0h-.84a0,0,0,0,1,0,0v-2.6A.42.42,0,0,1,129.23,183.09Z"/><path class="cls-7" d="M130.61,183.09h0a.42.42,0,0,1,.42.42v2.6a0,0,0,0,1,0,0h-.84a0,0,0,0,1,0,0v-2.6A.42.42,0,0,1,130.61,183.09Z"/><path class="cls-7" d="M132,183.09h0a.42.42,0,0,1,.42.42v2.6a0,0,0,0,1,0,0h-.84a0,0,0,0,1,0,0v-2.6A.42.42,0,0,1,132,183.09Z"/><path class="cls-7" d="M133.33,183.09h0a.42.42,0,0,1,.42.42v2.6a0,0,0,0,1,0,0h-.84a0,0,0,0,1,0,0v-2.6a.42.42,0,0,1,.42-.42Z"/><path class="cls-7" d="M134.71,183.09h0a.42.42,0,0,1,.42.42v2.6a0,0,0,0,1,0,0h-.84a0,0,0,0,1,0,0v-2.6a.42.42,0,0,1,.42-.42Z"/><path class="cls-7" d="M136.09,183.09h0a.42.42,0,0,1,.42.42v2.6a0,0,0,0,1,0,0h-.84a0,0,0,0,1,0,0v-2.6A.42.42,0,0,1,136.09,183.09Z"/><path class="cls-7" d="M137.47,183.09h0a.42.42,0,0,1,.42.42v2.6a0,0,0,0,1,0,0h-.84a0,0,0,0,1,0,0v-2.6A.42.42,0,0,1,137.47,183.09Z"/><path class="cls-7" d="M138.81,183.09h0a.42.42,0,0,1,.42.42v2.6a0,0,0,0,1,0,0h-.84a0,0,0,0,1,0,0v-2.6A.42.42,0,0,1,138.81,183.09Z"/><path class="cls-7" d="M140.19,183.09h0a.42.42,0,0,1,.42.42v2.6a0,0,0,0,1,0,0h-.84a0,0,0,0,1,0,0v-2.6A.42.42,0,0,1,140.19,183.09Z"/><path class="cls-7" d="M141.57,183.09h0a.42.42,0,0,1,.42.42v2.6a0,0,0,0,1,0,0h-.84a0,0,0,0,1,0,0v-2.6A.42.42,0,0,1,141.57,183.09Z"/><path class="cls-7" d="M143,183.09h0a.42.42,0,0,1,.42.42v2.6a0,0,0,0,1,0,0h-.84a0,0,0,0,1,0,0v-2.6A.42.42,0,0,1,143,183.09Z"/><path class="cls-7" d="M155.64,183.05h0a.42.42,0,0,1,.42.42v2.6a0,0,0,0,1,0,0h-.84a0,0,0,0,1,0,0v-2.6A.42.42,0,0,1,155.64,183.05Z"/><path class="cls-7" d="M157,183.05h0a.42.42,0,0,1,.42.42v2.6a0,0,0,0,1,0,0h-.84a0,0,0,0,1,0,0v-2.6A.42.42,0,0,1,157,183.05Z"/><path class="cls-7" d="M158.4,183.05h0a.42.42,0,0,1,.42.42v2.6a0,0,0,0,1,0,0H158a0,0,0,0,1,0,0v-2.6a.42.42,0,0,1,.42-.42Z"/><path class="cls-7" d="M159.78,183.05h0a.42.42,0,0,1,.42.42v2.6a0,0,0,0,1,0,0h-.84a0,0,0,0,1,0,0v-2.6A.42.42,0,0,1,159.78,183.05Z"/><path class="cls-7" d="M161.14,183.05h0a.42.42,0,0,1,.42.42v2.6a0,0,0,0,1,0,0h-.84a0,0,0,0,1,0,0v-2.6A.42.42,0,0,1,161.14,183.05Z"/><path class="cls-7" d="M162.52,183.05h0a.42.42,0,0,1,.42.42v2.6a0,0,0,0,1,0,0h-.84a0,0,0,0,1,0,0v-2.6A.42.42,0,0,1,162.52,183.05Z"/><path class="cls-7" d="M163.91,183.05h0a.42.42,0,0,1,.42.42v2.6a0,0,0,0,1,0,0h-.84a0,0,0,0,1,0,0v-2.6a.42.42,0,0,1,.42-.42Z"/><path class="cls-7" d="M165.29,183.05h0a.42.42,0,0,1,.42.42v2.6a0,0,0,0,1,0,0h-.84a0,0,0,0,1,0,0v-2.6A.42.42,0,0,1,165.29,183.05Z"/><path class="cls-7" d="M166.65,183.05h0a.42.42,0,0,1,.42.42v2.6a0,0,0,0,1,0,0h-.84a0,0,0,0,1,0,0v-2.6a.42.42,0,0,1,.42-.42Z"/><path class="cls-7" d="M168,183.05h0a.42.42,0,0,1,.42.42v2.6a0,0,0,0,1,0,0h-.84a0,0,0,0,1,0,0v-2.6A.42.42,0,0,1,168,183.05Z"/><path class="cls-7" d="M169.41,183.05h0a.42.42,0,0,1,.42.42v2.6a0,0,0,0,1,0,0H169a0,0,0,0,1,0,0v-2.6a.42.42,0,0,1,.42-.42Z"/><path class="cls-7" d="M170.79,183.05h0a.42.42,0,0,1,.42.42v2.6a0,0,0,0,1,0,0h-.84a0,0,0,0,1,0,0v-2.6A.42.42,0,0,1,170.79,183.05Z"/><path class="cls-7" d="M172.15,183.05h0a.42.42,0,0,1,.42.42v2.6a0,0,0,0,1,0,0h-.84a0,0,0,0,1,0,0v-2.6A.42.42,0,0,1,172.15,183.05Z"/><path class="cls-7" d="M173.53,183.05h0a.42.42,0,0,1,.42.42v2.6a0,0,0,0,1,0,0h-.84a0,0,0,0,1,0,0v-2.6a.42.42,0,0,1,.42-.42Z"/><path class="cls-7" d="M174.91,183.05h0a.42.42,0,0,1,.42.42v2.6a0,0,0,0,1,0,0h-.84a0,0,0,0,1,0,0v-2.6A.42.42,0,0,1,174.91,183.05Z"/><path class="cls-7" d="M176.29,183.05h0a.42.42,0,0,1,.42.42v2.6a0,0,0,0,1,0,0h-.84a0,0,0,0,1,0,0v-2.6a.42.42,0,0,1,.42-.42Z"/><circle class="cls-8" cx="184.98" cy="154.06" r="16.85"/><circle class="cls-8" cx="144.92" cy="154.04" r="16.85"/><path class="cls-7" d="M177.65,183.05h0a.42.42,0,0,1,.42.42v2.6a0,0,0,0,1,0,0h-.84a0,0,0,0,1,0,0v-2.6a.42.42,0,0,1,.42-.42Z"/><path class="cls-7" d="M179,183.05h0a.42.42,0,0,1,.42.42v2.6a0,0,0,0,1,0,0h-.84a0,0,0,0,1,0,0v-2.6A.42.42,0,0,1,179,183.05Z"/><path class="cls-7" d="M180.41,183.05h0a.42.42,0,0,1,.42.42v2.6a0,0,0,0,1,0,0H180a0,0,0,0,1,0,0v-2.6a.42.42,0,0,1,.42-.42Z"/><path class="cls-7" d="M181.79,183.05h0a.42.42,0,0,1,.42.42v2.6a0,0,0,0,1,0,0h-.84a0,0,0,0,1,0,0v-2.6A.42.42,0,0,1,181.79,183.05Z"/><path class="cls-7" d="M183.15,183.05h0a.42.42,0,0,1,.42.42v2.6a0,0,0,0,1,0,0h-.84a0,0,0,0,1,0,0v-2.6a.42.42,0,0,1,.42-.42Z"/><path class="cls-7" d="M184.53,183.05h0a.42.42,0,0,1,.42.42v2.6a0,0,0,0,1,0,0h-.84a0,0,0,0,1,0,0v-2.6A.42.42,0,0,1,184.53,183.05Z"/><path class="cls-7" d="M185.92,183.05h0a.42.42,0,0,1,.42.42v2.6a0,0,0,0,1,0,0h-.84a0,0,0,0,1,0,0v-2.6A.42.42,0,0,1,185.92,183.05Z"/><path class="cls-7" d="M187.3,183.05h0a.42.42,0,0,1,.42.42v2.6a0,0,0,0,1,0,0h-.84a0,0,0,0,1,0,0v-2.6A.42.42,0,0,1,187.3,183.05Z"/><path class="cls-7" d="M188.66,183.05h0a.42.42,0,0,1,.42.42v2.6a0,0,0,0,1,0,0h-.84a0,0,0,0,1,0,0v-2.6A.42.42,0,0,1,188.66,183.05Z"/><path class="cls-7" d="M190,183.05h0a.42.42,0,0,1,.42.42v2.6a0,0,0,0,1,0,0h-.84a0,0,0,0,1,0,0v-2.6A.42.42,0,0,1,190,183.05Z"/><path class="cls-7" d="M191.42,183.05h0a.42.42,0,0,1,.42.42v2.6a0,0,0,0,1,0,0H191a0,0,0,0,1,0,0v-2.6A.42.42,0,0,1,191.42,183.05Z"/><path class="cls-7" d="M192.8,183.05h0a.42.42,0,0,1,.42.42v2.6a0,0,0,0,1,0,0h-.84a0,0,0,0,1,0,0v-2.6A.42.42,0,0,1,192.8,183.05Z"/><path class="cls-7" d="M194.16,183.05h0a.42.42,0,0,1,.42.42v2.6a0,0,0,0,1,0,0h-.84a0,0,0,0,1,0,0v-2.6a.42.42,0,0,1,.42-.42Z"/><path class="cls-7" d="M195.54,183.05h0a.42.42,0,0,1,.42.42v2.6a0,0,0,0,1,0,0h-.84a0,0,0,0,1,0,0v-2.6A.42.42,0,0,1,195.54,183.05Z"/><polygon class="cls-9" points="145.02 154.34 145.02 154.34 145.02 154.34 145.02 154.34"/><polygon class="cls-9" points="145.05 154.33 145.05 154.33 145.05 154.33 145.05 154.33 145.05 154.33"/><polygon class="cls-9" points="145.05 154.3 145.05 154.31 145.05 154.3 145.05 154.3 145.05 154.3"/><polygon class="cls-9" points="145.05 154.32 145.05 154.32 145.05 154.32 145.05 154.32 145.05 154.32 145.05 154.32"/><polygon class="cls-9" points="145.06 154.32 145.06 154.32 145.06 154.33 145.05 154.32 145.05 154.32 145.05 154.32 145.06 154.32"/><polygon class="cls-9" points="145.06 154.3 145.05 154.31 145.05 154.31 145.05 154.31 145.05 154.31 145.05 154.31 145.05 154.31 145.06 154.3"/><polygon class="cls-9" points="145.06 154.3 145.06 154.3 145.06 154.3 145.06 154.3"/><polygon class="cls-9" points="145.06 154.3 145.05 154.29 145.05 154.29 145.05 154.29 145.05 154.29 145.06 154.29 145.06 154.3"/><polygon class="cls-9" points="145.06 154.32 145.06 154.32 145.06 154.32 145.06 154.32"/><polygon class="cls-9" points="145.07 154.29 145.07 154.29 145.07 154.29 145.07 154.29"/><polygon class="cls-9" points="145.07 154.33 145.07 154.33 145.07 154.33 145.07 154.33 145.07 154.33 145.07 154.33"/><polygon class="cls-9" points="145.07 154.3 145.07 154.29 145.08 154.3 145.07 154.3"/><polygon class="cls-9" points="145.08 154.3 145.08 154.3 145.07 154.3 145.08 154.3 145.08 154.3"/><polygon class="cls-9" points="145.08 154.32 145.08 154.32 145.08 154.32 145.08 154.32 145.08 154.32"/><polygon class="cls-9" points="145.08 154.31 145.08 154.32 145.08 154.32 145.08 154.32 145.08 154.32 145.08 154.32 145.08 154.32 145.08 154.31 145.08 154.31 145.08 154.31 145.08 154.31"/><polygon class="cls-9" points="145.08 154.3 145.08 154.31 145.08 154.3 145.08 154.3 145.09 154.29 145.09 154.29 145.09 154.29 145.09 154.29 145.08 154.3 145.08 154.3"/><path class="cls-9" d="M145.09,154.36v0h0Z"/><polygon class="cls-9" points="145.06 154.37 145.06 154.36 145.06 154.37 145.06 154.37"/><polygon class="cls-9" points="145.08 154.32 145.08 154.32 145.08 154.32 145.08 154.32 145.08 154.32"/><polygon class="cls-9" points="145.08 154.32 145.08 154.32 145.08 154.32 145.08 154.32"/><polygon class="cls-9" points="145.08 154.31 145.08 154.31 145.08 154.31 145.08 154.31 145.08 154.31"/><polygon class="cls-9" points="145.09 154.29 145.09 154.29 145.08 154.3 145.08 154.3 145.08 154.31 145.08 154.3 145.08 154.3 145.09 154.29 145.09 154.29 145.09 154.29"/><path class="cls-9" d="M145.64,152.43h0a1.1,1.1,0,0,0-.26-.06,11.88,11.88,0,0,0-.23-2.18.43.43,0,0,0,0-.05,31.58,31.58,0,0,0-3.29-8.39l-.14-.25s4-2.5,5.41-.26a1.71,1.71,0,0,1,.25.64v0C147.81,144.16,146.46,149.51,145.64,152.43Z"/><polygon class="cls-9" points="145.05 154.33 145.05 154.33 145.05 154.33 145.05 154.33 145.05 154.33"/><polygon class="cls-9" points="145.05 154.32 145.05 154.32 145.05 154.32 145.05 154.32 145.05 154.32 145.05 154.32"/><polygon class="cls-9" points="145.06 154.3 145.05 154.31 145.05 154.31 145.05 154.31 145.05 154.31 145.06 154.3"/><polygon class="cls-9" points="145.06 154.3 145.06 154.3 145.06 154.3 145.06 154.3"/><path class="cls-9" d="M148.47,167.13s-4,2.5-5.41.27a1.12,1.12,0,0,1-.14-.29,2.15,2.15,0,0,1-.13-.47v0c-.42-2.32.9-7.55,1.71-10.42a1.5,1.5,0,0,0,.29.06h0a11.9,11.9,0,0,0,.23,2.19l0,.14A32.68,32.68,0,0,0,148.47,167.13Z"/><path class="cls-9" d="M144.62,152.4a1.38,1.38,0,0,0-.27.08h0c-2.08-3.57-7.21-6.74-8.37-7.44l-.24-.13s2.18-4.15,4.55-2.94C142,142.86,143.79,149.11,144.62,152.4Z"/><polygon class="cls-9" points="145.07 154.29 145.07 154.29 145.07 154.29 145.07 154.29"/><polygon class="cls-9" points="145.08 154.3 145.07 154.3 145.07 154.29 145.08 154.3"/><path class="cls-9" d="M145.08,154.31h0Z"/><polygon class="cls-9" points="145.08 154.32 145.08 154.32 145.08 154.32 145.08 154.31 145.08 154.31 145.08 154.32 145.08 154.32"/><path class="cls-9" d="M145.09,154.36v0h0Z"/><polygon class="cls-9" points="145.09 154.36 145.09 154.36 145.09 154.36 145.09 154.36"/><polygon class="cls-9" points="145.05 154.29 145.05 154.29 145.05 154.29 145.05 154.29 145.05 154.29"/><polygon class="cls-9" points="145.05 154.31 145.05 154.3 145.05 154.3 145.05 154.3 145.05 154.31"/><polygon class="cls-9" points="145.05 154.31 145.05 154.31 145.05 154.31 145.05 154.31"/><polygon class="cls-9" points="145.06 154.33 145.05 154.32 145.05 154.32 145.05 154.32 145.06 154.32 145.06 154.32 145.06 154.33"/><path class="cls-9" d="M154.43,163.71s-2.19,4.15-4.56,2.94l-.27-.18c-1.65-1.35-3.3-7.13-4.09-10.24h0a1.4,1.4,0,0,0,.29-.09C148.17,160.17,154.43,163.71,154.43,163.71Z"/><path class="cls-9" d="M143.72,152.88a1.29,1.29,0,0,0-.16.17l-.05.06c-3.59-2.05-9.63-2.24-11-2.26h-.27s-.18-4.68,2.48-4.82C136.68,145.93,141.36,150.45,143.72,152.88Z"/><polygon class="cls-9" points="145.08 154.3 145.08 154.3 145.08 154.3 145.08 154.3"/><path class="cls-9" d="M155.4,162.6l-.34,0c-2.11-.35-6.41-4.52-8.65-6.82,0,0,0,0,0,0a1.54,1.54,0,0,0,.17-.19c4.06,2.32,11.25,2.25,11.25,2.25S158.06,162.45,155.4,162.6Z"/><path class="cls-9" d="M143.18,153.74c0,.07,0,.13-.05.2s0,.07,0,.11c-4.14,0-9.46,2.87-10.63,3.53l-.24.14s-2.5-4-.27-5.42C133.61,151.24,139.92,152.82,143.18,153.74Z"/><polygon class="cls-9" points="145.06 154.29 145.06 154.3 145.05 154.29 145.05 154.29 145.05 154.29 145.05 154.29 145.06 154.29"/><polygon class="cls-9" points="145.08 154.3 145.08 154.3 145.08 154.3 145.07 154.3 145.08 154.3"/><polygon class="cls-9" points="145.08 154.3 145.08 154.3 145.08 154.3 145.08 154.3 145.08 154.3"/><polygon class="cls-9" points="145.05 154.32 145.05 154.32 145.05 154.32 145.05 154.32 145.05 154.32"/><polygon class="cls-9" points="145.06 154.32 145.06 154.32 145.05 154.32 145.05 154.32 145.06 154.32"/><polygon class="cls-9" points="145.06 154.32 145.06 154.32 145.06 154.32 145.06 154.32"/><polygon class="cls-9" points="145.07 154.33 145.07 154.33 145.07 154.33 145.07 154.33 145.07 154.33 145.07 154.33"/><polygon class="cls-9" points="145.09 154.33 145.09 154.33 145.08 154.33 145.08 154.33 145.09 154.33"/><path class="cls-9" d="M158.15,156.32a1.2,1.2,0,0,1-.3.15c-2,.75-7.81-.71-10.9-1.59l0-.09c0-.07,0-.14,0-.21,4.67,0,10.87-3.67,10.87-3.67S160.39,154.87,158.15,156.32Z"/><path class="cls-9" d="M143.21,155l0,.1c-3.56,2.08-6.73,7.19-7.43,8.37l-.14.24s-4.15-2.18-2.94-4.55c.88-1.74,7.13-3.53,10.42-4.36A.66.66,0,0,0,143.21,155Z"/><polygon class="cls-9" points="145.05 154.3 145.05 154.3 145.05 154.3 145.05 154.3"/><polygon class="cls-9" points="145.09 154.29 145.09 154.29 145.09 154.29 145.09 154.29 145.09 154.29"/><polygon class="cls-9" points="145.11 154.29 145.11 154.29 145.11 154.29 145.11 154.29"/><polygon class="cls-9" points="145.02 154.34 145.02 154.34 145.02 154.34 145.02 154.34"/><polygon class="cls-9" points="145.05 154.33 145.05 154.33 145.05 154.33 145.05 154.33 145.05 154.33"/><path class="cls-9" d="M157.4,149.51a1.06,1.06,0,0,1-.18.27c-1.35,1.65-7.12,3.3-10.24,4.08a.44.44,0,0,0,0-.1,1.46,1.46,0,0,0-.07-.19c4-2.36,7.57-8.62,7.57-8.62S158.61,147.13,157.4,149.51Z"/><path class="cls-9" d="M143.81,155.83l.05,0c-2,3.57-2.23,9.57-2.25,11v.29s-4.68.18-4.83-2.48c-.1-1.95,4.42-6.62,6.85-9A1.49,1.49,0,0,0,143.81,155.83Z"/><polygon class="cls-9" points="145.02 154.34 145.02 154.34 145.02 154.34 145.02 154.34"/><polygon class="cls-9" points="145.05 154.31 145.05 154.31 145.05 154.31 145.05 154.31"/><polygon class="cls-9" points="145.06 154.3 145.06 154.3 145.06 154.3 145.06 154.3"/><polygon class="cls-9" points="145.08 154.32 145.08 154.32 145.08 154.32 145.08 154.32"/><polygon class="cls-9" points="145.08 154.32 145.08 154.32 145.08 154.32 145.08 154.32"/><path class="cls-9" d="M153.35,144a1.94,1.94,0,0,1,0,.33c-.34,2.1-4.52,6.42-6.83,8.66l-.06-.07-.17-.14c2.32-4.06,2.25-11.25,2.25-11.25S153.21,141.32,153.35,144Z"/><polygon class="cls-9" points="145.02 154.34 145.02 154.34 145.02 154.34 145.02 154.34"/><polygon class="cls-9" points="145.05 154.33 145.05 154.33 145.05 154.33 145.05 154.33 145.05 154.33"/><polygon class="cls-9" points="145.05 154.3 145.05 154.31 145.05 154.3 145.05 154.3 145.05 154.3"/><polygon class="cls-9" points="145.05 154.32 145.05 154.32 145.05 154.32 145.05 154.32 145.05 154.32 145.05 154.32"/><polygon class="cls-9" points="145.06 154.32 145.06 154.32 145.06 154.33 145.05 154.32 145.05 154.32 145.05 154.32 145.06 154.32"/><polygon class="cls-9" points="145.06 154.3 145.05 154.31 145.05 154.31 145.05 154.31 145.05 154.31 145.05 154.31 145.05 154.31 145.06 154.3"/><polygon class="cls-9" points="145.06 154.3 145.06 154.3 145.06 154.3 145.06 154.3"/><polygon class="cls-9" points="145.06 154.3 145.05 154.29 145.05 154.29 145.05 154.29 145.05 154.29 145.06 154.29 145.06 154.3"/><polygon class="cls-9" points="145.06 154.32 145.06 154.32 145.06 154.32 145.06 154.32"/><polygon class="cls-9" points="145.07 154.29 145.07 154.29 145.07 154.29 145.07 154.29"/><polygon class="cls-9" points="145.07 154.33 145.07 154.33 145.07 154.33 145.07 154.33 145.07 154.33 145.07 154.33"/><polygon class="cls-9" points="145.07 154.3 145.07 154.29 145.08 154.3 145.07 154.3"/><polygon class="cls-9" points="145.08 154.3 145.08 154.3 145.07 154.3 145.08 154.3 145.08 154.3"/><polygon class="cls-9" points="145.08 154.32 145.08 154.32 145.08 154.32 145.08 154.32 145.08 154.32"/><polygon class="cls-9" points="145.08 154.31 145.08 154.32 145.08 154.32 145.08 154.32 145.08 154.32 145.08 154.32 145.08 154.32 145.08 154.31 145.08 154.31 145.08 154.31 145.08 154.31"/><polygon class="cls-9" points="145.08 154.3 145.08 154.31 145.08 154.3 145.08 154.3 145.09 154.29 145.09 154.29 145.09 154.29 145.09 154.29 145.08 154.3 145.08 154.3"/><path class="cls-9" d="M145.09,154.36v0h0Z"/><polygon class="cls-9" points="145.02 154.34 145.02 154.34 145.02 154.34 145.02 154.34"/><polygon class="cls-9" points="145.05 154.33 145.05 154.33 145.05 154.33 145.05 154.33 145.05 154.33"/><polygon class="cls-9" points="145.05 154.3 145.05 154.31 145.05 154.3 145.05 154.3 145.05 154.3"/><polygon class="cls-9" points="145.05 154.32 145.05 154.32 145.05 154.32 145.05 154.32 145.05 154.32 145.05 154.32"/><polygon class="cls-9" points="145.06 154.32 145.06 154.32 145.06 154.33 145.05 154.32 145.05 154.32 145.05 154.32 145.06 154.32"/><polygon class="cls-9" points="145.06 154.3 145.05 154.31 145.05 154.31 145.05 154.31 145.05 154.31 145.05 154.31 145.05 154.31 145.06 154.3"/><polygon class="cls-9" points="145.06 154.3 145.06 154.3 145.06 154.3 145.06 154.3"/><polygon class="cls-9" points="145.06 154.3 145.05 154.29 145.05 154.29 145.05 154.29 145.05 154.29 145.06 154.29 145.06 154.3"/><polygon class="cls-9" points="145.06 154.32 145.06 154.32 145.06 154.32 145.06 154.32"/><polygon class="cls-9" points="145.07 154.29 145.07 154.29 145.07 154.29 145.07 154.29"/><polygon class="cls-9" points="145.07 154.33 145.07 154.33 145.07 154.33 145.07 154.33 145.07 154.33 145.07 154.33"/><polygon class="cls-9" points="145.07 154.3 145.07 154.29 145.08 154.3 145.07 154.3"/><polygon class="cls-9" points="145.08 154.3 145.08 154.3 145.07 154.3 145.08 154.3 145.08 154.3"/><polygon class="cls-9" points="145.08 154.32 145.08 154.32 145.08 154.32 145.08 154.32 145.08 154.32"/><polygon class="cls-9" points="145.08 154.31 145.08 154.32 145.08 154.32 145.08 154.32 145.08 154.32 145.08 154.32 145.08 154.32 145.08 154.31 145.08 154.31 145.08 154.31 145.08 154.31"/><polygon class="cls-9" points="145.08 154.3 145.08 154.31 145.08 154.3 145.08 154.3 145.09 154.29 145.09 154.29 145.09 154.29 145.09 154.29 145.08 154.3 145.08 154.3"/><path class="cls-9" d="M145.09,154.36v0h0Z"/><circle class="cls-9" cx="145.07" cy="154.31" r="1.97"/><circle class="cls-9" cx="145.07" cy="154.31" r="1.41"/><polygon class="cls-9" points="185.2 154.25 185.2 154.25 185.2 154.25 185.2 154.25"/><polygon class="cls-9" points="185.23 154.24 185.23 154.24 185.23 154.25 185.23 154.25 185.23 154.24"/><polygon class="cls-9" points="185.23 154.22 185.23 154.22 185.23 154.22 185.23 154.22 185.23 154.22"/><polygon class="cls-9" points="185.23 154.23 185.23 154.23 185.23 154.23 185.23 154.24 185.23 154.24 185.23 154.23"/><polygon class="cls-9" points="185.24 154.24 185.24 154.24 185.24 154.24 185.23 154.24 185.23 154.24 185.23 154.23 185.24 154.24"/><polygon class="cls-9" points="185.24 154.22 185.23 154.23 185.23 154.23 185.23 154.22 185.23 154.22 185.23 154.22 185.23 154.22 185.24 154.22"/><polygon class="cls-9" points="185.24 154.21 185.24 154.22 185.24 154.21 185.24 154.21"/><polygon class="cls-9" points="185.24 154.21 185.23 154.21 185.23 154.21 185.23 154.21 185.23 154.21 185.24 154.21 185.24 154.21"/><polygon class="cls-9" points="185.24 154.24 185.24 154.24 185.24 154.24 185.24 154.24"/><polygon class="cls-9" points="185.26 154.21 185.25 154.2 185.25 154.2 185.26 154.21"/><polygon class="cls-9" points="185.25 154.24 185.26 154.24 185.26 154.24 185.25 154.24 185.25 154.24 185.25 154.24"/><polygon class="cls-9" points="185.26 154.21 185.26 154.21 185.26 154.21 185.26 154.21"/><polygon class="cls-9" points="185.26 154.22 185.26 154.22 185.26 154.21 185.26 154.21 185.26 154.22"/><polygon class="cls-9" points="185.26 154.23 185.26 154.23 185.26 154.24 185.26 154.24 185.26 154.23"/><polygon class="cls-9" points="185.26 154.23 185.26 154.23 185.26 154.24 185.26 154.23 185.26 154.23 185.26 154.23 185.26 154.23 185.26 154.23 185.26 154.23 185.26 154.22 185.26 154.23"/><polygon class="cls-9" points="185.26 154.22 185.26 154.22 185.26 154.22 185.26 154.22 185.27 154.21 185.27 154.21 185.27 154.21 185.27 154.21 185.26 154.22 185.26 154.22"/><path class="cls-9" d="M185.27,154.27v0h0Z"/><polygon class="cls-9" points="185.24 154.28 185.25 154.28 185.24 154.28 185.24 154.28"/><polygon class="cls-9" points="185.26 154.23 185.26 154.24 185.26 154.24 185.26 154.23 185.26 154.23"/><polygon class="cls-9" points="185.26 154.23 185.26 154.23 185.26 154.23 185.26 154.23"/><polygon class="cls-9" points="185.26 154.22 185.26 154.23 185.26 154.23 185.26 154.23 185.26 154.22"/><polygon class="cls-9" points="185.27 154.21 185.27 154.21 185.26 154.22 185.26 154.22 185.26 154.22 185.26 154.22 185.26 154.22 185.27 154.21 185.27 154.21 185.27 154.21"/><path class="cls-9" d="M185.81,152.36l0,0-.26-.05a11.78,11.78,0,0,0-.23-2.17.43.43,0,0,1,0-.05,31.43,31.43,0,0,0-3.27-8.32c-.08-.16-.13-.24-.13-.24s3.93-2.49,5.37-.27a2,2,0,0,1,.25.64v0C188,144.16,186.63,149.46,185.81,152.36Z"/><polygon class="cls-9" points="185.23 154.24 185.23 154.24 185.23 154.25 185.23 154.25 185.23 154.24"/><polygon class="cls-9" points="185.23 154.23 185.23 154.23 185.23 154.24 185.23 154.24 185.23 154.23 185.23 154.23"/><polygon class="cls-9" points="185.24 154.22 185.23 154.23 185.23 154.23 185.23 154.22 185.23 154.22 185.24 154.22"/><polygon class="cls-9" points="185.24 154.21 185.24 154.22 185.24 154.21 185.24 154.21"/><path class="cls-9" d="M188.63,166.94s-3.93,2.49-5.38.27a1.83,1.83,0,0,1-.14-.28,2.8,2.8,0,0,1-.12-.48h0c-.41-2.31.89-7.49,1.7-10.34l.28.06h0a12.71,12.71,0,0,0,.23,2.17l0,.14A32.11,32.11,0,0,0,188.63,166.94Z"/><path class="cls-9" d="M184.8,152.32l-.26.08,0,0c-2.07-3.54-7.15-6.69-8.31-7.38l-.24-.14s2.16-4.11,4.52-2.92C182.21,142.86,184,149.06,184.8,152.32Z"/><polygon class="cls-9" points="185.26 154.21 185.25 154.2 185.25 154.2 185.26 154.21"/><polygon class="cls-9" points="185.26 154.21 185.26 154.21 185.26 154.21 185.26 154.21"/><path class="cls-9" d="M185.26,154.23Z"/><polygon class="cls-9" points="185.26 154.24 185.26 154.23 185.26 154.23 185.26 154.23 185.26 154.23 185.26 154.23 185.26 154.24"/><path class="cls-9" d="M185.27,154.27v0h0Z"/><polygon class="cls-9" points="185.27 154.27 185.27 154.27 185.27 154.27 185.27 154.27"/><polygon class="cls-9" points="185.23 154.21 185.23 154.21 185.23 154.21 185.23 154.21 185.23 154.21"/><polygon class="cls-9" points="185.23 154.22 185.23 154.22 185.23 154.22 185.23 154.22 185.23 154.22"/><polygon class="cls-9" points="185.23 154.23 185.23 154.23 185.23 154.22 185.23 154.23"/><polygon class="cls-9" points="185.24 154.24 185.23 154.24 185.23 154.24 185.23 154.23 185.24 154.24 185.24 154.24 185.24 154.24"/><path class="cls-9" d="M194.53,163.55s-2.16,4.12-4.52,2.92a2.11,2.11,0,0,1-.27-.18c-1.63-1.34-3.27-7.07-4.05-10.16h0a1.66,1.66,0,0,0,.29-.1C188.33,160,194.53,163.55,194.53,163.55Z"/><path class="cls-9" d="M183.91,152.8a1.29,1.29,0,0,0-.16.17l-.05.06c-3.56-2-9.56-2.22-10.89-2.24h-.27s-.18-4.64,2.46-4.78C176.93,145.91,181.57,150.39,183.91,152.8Z"/><polygon class="cls-9" points="185.26 154.22 185.26 154.22 185.26 154.22 185.26 154.22"/><path class="cls-9" d="M195.5,162.44a1.32,1.32,0,0,1-.34,0c-2.09-.35-6.36-4.49-8.58-6.77l0,0a1.54,1.54,0,0,0,.17-.19c4,2.3,11.16,2.24,11.16,2.24S198.14,162.3,195.5,162.44Z"/><path class="cls-9" d="M183.38,153.66a1.17,1.17,0,0,0,0,.2s0,.07,0,.1c-4.1,0-9.38,2.85-10.55,3.51l-.23.14s-2.48-3.93-.27-5.38C173.88,151.18,180.14,152.74,183.38,153.66Z"/><polygon class="cls-9" points="185.24 154.21 185.24 154.21 185.23 154.21 185.23 154.21 185.23 154.21 185.23 154.21 185.24 154.21"/><polygon class="cls-9" points="185.26 154.21 185.26 154.22 185.26 154.22 185.26 154.21 185.26 154.21"/><polygon class="cls-9" points="185.26 154.22 185.26 154.22 185.26 154.22 185.26 154.22 185.26 154.22"/><polygon class="cls-9" points="185.23 154.23 185.23 154.23 185.23 154.24 185.23 154.24 185.23 154.23"/><polygon class="cls-9" points="185.24 154.24 185.24 154.24 185.23 154.24 185.23 154.24 185.24 154.24"/><polygon class="cls-9" points="185.24 154.24 185.24 154.24 185.24 154.24 185.24 154.24"/><polygon class="cls-9" points="185.26 154.24 185.26 154.24 185.25 154.24 185.25 154.24 185.25 154.24 185.26 154.24"/><polygon class="cls-9" points="185.27 154.25 185.27 154.25 185.26 154.25 185.26 154.25 185.27 154.25"/><path class="cls-9" d="M198.23,156.22a1.68,1.68,0,0,1-.3.15c-2,.74-7.75-.71-10.81-1.58,0,0,0-.06,0-.09a1.55,1.55,0,0,0,0-.21c4.64,0,10.79-3.64,10.79-3.64S200.45,154.78,198.23,156.22Z"/><path class="cls-9" d="M183.4,154.87l0,.09c-3.53,2.07-6.68,7.14-7.37,8.31l-.15.24s-4.11-2.16-2.91-4.52c.87-1.72,7.07-3.49,10.33-4.32Z"/><polygon class="cls-9" points="185.23 154.22 185.23 154.22 185.23 154.22 185.23 154.22"/><polygon class="cls-9" points="185.27 154.21 185.27 154.21 185.27 154.21 185.27 154.21 185.27 154.21"/><polygon class="cls-9" points="185.29 154.2 185.29 154.2 185.29 154.2 185.29 154.2"/><polygon class="cls-9" points="185.2 154.25 185.2 154.25 185.2 154.25 185.2 154.25"/><polygon class="cls-9" points="185.23 154.24 185.23 154.25 185.23 154.25 185.23 154.24 185.23 154.24"/><path class="cls-9" d="M197.49,149.46a2.11,2.11,0,0,1-.18.27c-1.34,1.64-7.07,3.27-10.16,4.05l0-.1a1.06,1.06,0,0,0-.06-.19c4-2.34,7.51-8.55,7.51-8.55S198.69,147.1,197.49,149.46Z"/><path class="cls-9" d="M184,155.73l.05,0c-2,3.55-2.22,9.5-2.23,10.87,0,.19,0,.29,0,.29s-4.64.18-4.78-2.46c-.1-1.93,4.38-6.56,6.79-8.91A1.45,1.45,0,0,0,184,155.73Z"/><polygon class="cls-9" points="185.2 154.25 185.2 154.25 185.2 154.25 185.2 154.25"/><polygon class="cls-9" points="185.23 154.22 185.23 154.22 185.23 154.22 185.23 154.22"/><polygon class="cls-9" points="185.24 154.21 185.24 154.21 185.24 154.21 185.24 154.21"/><polygon class="cls-9" points="185.26 154.23 185.26 154.23 185.26 154.23 185.26 154.23"/><polygon class="cls-9" points="185.26 154.23 185.26 154.23 185.26 154.23 185.26 154.23"/><path class="cls-9" d="M193.47,144a1.82,1.82,0,0,1,0,.32c-.33,2.09-4.48,6.37-6.77,8.59l-.06-.06-.17-.15c2.3-4,2.24-11.16,2.24-11.16S193.32,141.34,193.47,144Z"/><polygon class="cls-9" points="185.2 154.25 185.2 154.25 185.2 154.25 185.2 154.25"/><polygon class="cls-9" points="185.23 154.24 185.23 154.24 185.23 154.25 185.23 154.25 185.23 154.24"/><polygon class="cls-9" points="185.23 154.22 185.23 154.22 185.23 154.22 185.23 154.22 185.23 154.22"/><polygon class="cls-9" points="185.23 154.23 185.23 154.23 185.23 154.23 185.23 154.24 185.23 154.24 185.23 154.23"/><polygon class="cls-9" points="185.24 154.24 185.24 154.24 185.24 154.24 185.23 154.24 185.23 154.24 185.23 154.23 185.24 154.24"/><polygon class="cls-9" points="185.24 154.22 185.23 154.23 185.23 154.23 185.23 154.22 185.23 154.22 185.23 154.22 185.23 154.22 185.24 154.22"/><polygon class="cls-9" points="185.24 154.21 185.24 154.22 185.24 154.21 185.24 154.21"/><polygon class="cls-9" points="185.24 154.21 185.23 154.21 185.23 154.21 185.23 154.21 185.23 154.21 185.24 154.21 185.24 154.21"/><polygon class="cls-9" points="185.24 154.24 185.24 154.24 185.24 154.24 185.24 154.24"/><polygon class="cls-9" points="185.26 154.21 185.25 154.2 185.25 154.2 185.26 154.21"/><polygon class="cls-9" points="185.25 154.24 185.26 154.24 185.26 154.24 185.25 154.24 185.25 154.24 185.25 154.24"/><polygon class="cls-9" points="185.26 154.21 185.26 154.21 185.26 154.21 185.26 154.21"/><polygon class="cls-9" points="185.26 154.22 185.26 154.22 185.26 154.21 185.26 154.21 185.26 154.22"/><polygon class="cls-9" points="185.26 154.23 185.26 154.23 185.26 154.24 185.26 154.24 185.26 154.23"/><polygon class="cls-9" points="185.26 154.23 185.26 154.23 185.26 154.24 185.26 154.23 185.26 154.23 185.26 154.23 185.26 154.23 185.26 154.23 185.26 154.23 185.26 154.22 185.26 154.23"/><polygon class="cls-9" points="185.26 154.22 185.26 154.22 185.26 154.22 185.26 154.22 185.27 154.21 185.27 154.21 185.27 154.21 185.27 154.21 185.26 154.22 185.26 154.22"/><path class="cls-9" d="M185.27,154.27v0h0Z"/><polygon class="cls-9" points="185.2 154.25 185.2 154.25 185.2 154.25 185.2 154.25"/><polygon class="cls-9" points="185.23 154.24 185.23 154.24 185.23 154.25 185.23 154.25 185.23 154.24"/><polygon class="cls-9" points="185.23 154.22 185.23 154.22 185.23 154.22 185.23 154.22 185.23 154.22"/><polygon class="cls-9" points="185.23 154.23 185.23 154.23 185.23 154.23 185.23 154.24 185.23 154.24 185.23 154.23"/><polygon class="cls-9" points="185.24 154.24 185.24 154.24 185.24 154.24 185.23 154.24 185.23 154.24 185.23 154.23 185.24 154.24"/><polygon class="cls-9" points="185.24 154.22 185.23 154.23 185.23 154.23 185.23 154.22 185.23 154.22 185.23 154.22 185.23 154.22 185.24 154.22"/><polygon class="cls-9" points="185.24 154.21 185.24 154.22 185.24 154.21 185.24 154.21"/><polygon class="cls-9" points="185.24 154.21 185.23 154.21 185.23 154.21 185.23 154.21 185.23 154.21 185.24 154.21 185.24 154.21"/><polygon class="cls-9" points="185.24 154.24 185.24 154.24 185.24 154.24 185.24 154.24"/><polygon class="cls-9" points="185.26 154.21 185.25 154.2 185.25 154.2 185.26 154.21"/><polygon class="cls-9" points="185.25 154.24 185.26 154.24 185.26 154.24 185.25 154.24 185.25 154.24 185.25 154.24"/><polygon class="cls-9" points="185.26 154.21 185.26 154.21 185.26 154.21 185.26 154.21"/><polygon class="cls-9" points="185.26 154.22 185.26 154.22 185.26 154.21 185.26 154.21 185.26 154.22"/><polygon class="cls-9" points="185.26 154.23 185.26 154.23 185.26 154.24 185.26 154.24 185.26 154.23"/><polygon class="cls-9" points="185.26 154.23 185.26 154.23 185.26 154.24 185.26 154.23 185.26 154.23 185.26 154.23 185.26 154.23 185.26 154.23 185.26 154.23 185.26 154.22 185.26 154.23"/><polygon class="cls-9" points="185.26 154.22 185.26 154.22 185.26 154.22 185.26 154.22 185.27 154.21 185.27 154.21 185.27 154.21 185.27 154.21 185.26 154.22 185.26 154.22"/><path class="cls-9" d="M185.27,154.27v0h0Z"/><circle class="cls-9" cx="185.25" cy="154.23" r="1.95"/><circle class="cls-9" cx="185.25" cy="154.23" r="1.4"/><line class="cls-10" x1="117.5" y1="137.93" x2="126.32" y2="137.93"/><line class="cls-10" x1="117.5" y1="140.33" x2="126.32" y2="140.33"/><line class="cls-10" x1="117.5" y1="142.73" x2="126.32" y2="142.73"/><line class="cls-10" x1="117.5" y1="145.13" x2="126.32" y2="145.13"/><line class="cls-10" x1="117.5" y1="147.52" x2="126.32" y2="147.52"/><line class="cls-10" x1="117.5" y1="149.74" x2="126.32" y2="149.74"/><line class="cls-10" x1="117.5" y1="152.14" x2="126.32" y2="152.14"/><line class="cls-10" x1="117.5" y1="154.54" x2="126.32" y2="154.54"/><line class="cls-10" x1="117.5" y1="156.94" x2="126.32" y2="156.94"/><line class="cls-10" x1="117.5" y1="159.34" x2="126.32" y2="159.34"/><line class="cls-10" x1="117.5" y1="161.55" x2="126.32" y2="161.55"/><line class="cls-10" x1="117.5" y1="163.95" x2="126.32" y2="163.95"/><line class="cls-10" x1="117.5" y1="166.35" x2="126.32" y2="166.35"/><line class="cls-10" x1="117.5" y1="168.75" x2="126.32" y2="168.75"/><line class="cls-10" x1="117.5" y1="171.15" x2="126.32" y2="171.15"/><path class="cls-11" d="M145,126.77h69a3.65,3.65,0,0,1,3.66,3.65v48a3.65,3.65,0,0,1-3.66,3.65H197.8"/><path class="cls-12" d="M99.34,194a3,3,0,0,1-3-2.95V113.74a1.8,1.8,0,0,0-1.8-1.8H85.27a3,3,0,0,1,0-5.91h9.32a7.72,7.72,0,0,1,7.71,7.71V191A3,3,0,0,1,99.34,194Z"/></svg>