<svg id="Layer_1" data-name="Layer 1" xmlns="http://www.w3.org/2000/svg" viewBox="0 0 300 300"><defs><style>.cls-1{fill:#e6dbd3;}.cls-2{fill:#b66532;stroke-width:3px;}.cls-2,.cls-6{stroke:#54221a;stroke-linecap:square;stroke-linejoin:bevel;}.cls-3{fill:#8b3c1e;}.cls-4{opacity:0.3;}.cls-5{fill:#fff;}.cls-6{fill:none;stroke-width:6px;}</style></defs><rect class="cls-1" width="300" height="300"/><path class="cls-2" d="M193.68,130.3s36.28-20.6,36.68,10.39a45.17,45.17,0,0,1-7.3,25.3c-20.7,31.48-73.38,33.33-73.38,33.33-.17-.16-52-1.85-72.74-33.33a45.17,45.17,0,0,1-7.3-25.3c.4-31,37.75-10.39,37.75-10.39"/><path class="cls-3" d="M183.81,135.09s28-12.66,28.34,11.31A34.93,34.93,0,0,1,206.5,166c-16,24.35-56.12,25.66-56.25,25.78h-.5c-.13-.12-40.24-1.43-56.25-25.78a34.93,34.93,0,0,1-5.65-19.56c.31-24,30.25-11,30.25-11"/><path class="cls-2" d="M150,181.11c29.82,1.06,49.59-21.18,49.59-21.18,2.12-17.47-21.18-57.53-24.35-59.12s-24.88,11.61-24.88,11.61h0s-21.69-13.2-24.87-11.61-26.47,41.65-24.35,59.12c0,0,19.76,22.24,49.59,21.18"/><path class="cls-3" d="M150.12,180.42a58.68,58.68,0,0,0,37.64-12.07c1.61-13.26-16.07-56.67-18.49-57.88s-18.88,8.81-18.88,8.81h0s-16.47-10-18.88-8.81S111.42,155.09,113,168.35a58.68,58.68,0,0,0,37.64,12.07"/><g class="cls-4"><path class="cls-5" d="M87.85,167.09a53.22,53.22,0,0,1-6.63-10.82,41.38,41.38,0,0,1-3.77-12.33,18.61,18.61,0,0,1,.34-6.75,10.5,10.5,0,0,1,3.8-5.88A12.07,12.07,0,0,1,88,129.15a21.21,21.21,0,0,1,6.38.53,34.94,34.94,0,0,0-6.14.92,11.65,11.65,0,0,0-5.12,2.53c-2.74,2.5-3.08,6.58-2.64,10.47a38.33,38.33,0,0,0,1.16,5.91c.48,2,1.14,3.93,1.79,5.89C84.73,159.3,86.27,163.17,87.85,167.09Z"/></g><g class="cls-4"><path class="cls-5" d="M213.16,167.09c1.59-3.92,3.12-7.79,4.48-11.69.65-2,1.31-3.91,1.79-5.89a40.86,40.86,0,0,0,1.16-5.91c.44-3.89.09-8-2.64-10.47a11.69,11.69,0,0,0-5.13-2.53,34.8,34.8,0,0,0-6.14-.92,21.24,21.24,0,0,1,6.38-.53,12.11,12.11,0,0,1,6.37,2.16,10.44,10.44,0,0,1,3.79,5.88,18.62,18.62,0,0,1,.35,6.75,42,42,0,0,1-3.77,12.33A53.27,53.27,0,0,1,213.16,167.09Z"/></g><g class="cls-4"><path class="cls-5" d="M127.25,109.33c-1.48,4.28-3.1,8.5-4.77,12.7s-3.4,8.36-5.12,12.53L112.07,147l-1.32,3.11c-.45,1-.88,2.07-1.3,3.12l-.66,1.56-.61,1.57c-.43,1-.76,2.11-1.14,3.19a31.8,31.8,0,0,1,.61-3.35c.25-1.11.55-2.21.87-3.3.63-2.18,1.34-4.33,2.09-6.47,1.48-4.28,3.18-8.48,4.9-12.66s3.59-8.29,5.54-12.38S125,113.27,127.25,109.33Z"/></g><path class="cls-6" d="M107.78,140s36.93,34,85-1.23"/></svg>