<svg xmlns="http://www.w3.org/2000/svg" viewBox="0 0 300 300"><defs><style>.cls-1{isolation:isolate;}.cls-2{fill:#eb3e51;}.cls-3{fill:#d8d7d6;}.cls-3,.cls-4,.cls-7,.cls-8{stroke:#00003f;stroke-linecap:round;}.cls-3,.cls-4,.cls-8{stroke-linejoin:round;stroke-width:2px;}.cls-4{fill:#f27127;}.cls-5{fill:#ff9700;mix-blend-mode:multiply;}.cls-6{fill:#f7f7f7;}.cls-7,.cls-8{fill:none;}.cls-7{stroke-miterlimit:10;stroke-width:1.5px;}</style></defs><g class="cls-1"><g id="Layer_1" data-name="Layer 1"><rect class="cls-2" width="300" height="300"/><path class="cls-3" d="M137.58,58.56s16.24,14.12-3.17,24S110.76,109,123.47,128.44c0,0,41.64,15.88,60.7,0S187.35,51.15,137.58,58.56Z"/><path class="cls-4" d="M122.42,126.79l22.34,109.28a7.25,7.25,0,0,0,6.09,5.75c3.94.55,9,.43,10.38-3.26,2.47-6.35,24-111.09,24-111.09S147.47,142.21,122.42,126.79Z"/><path class="cls-5" d="M132.47,169.38s10.5-13,15.13,1.29S142.78,219.28,142,219,131.62,170.33,132.47,169.38Z"/><path class="cls-6" d="M143.84,106.34s10.28-10.85,19.54-5.37a11.43,11.43,0,0,1,3.75,15.86c-8.59,13.37-36.49,13.24-41.46,11-7.47-3.45-14.29-29.16.53-38.07C140.52,81.09,165.08,90,143.84,106.34Z"/><path class="cls-6" d="M143.87,60.48s9.71,12.59-2.19,21C141.68,81.46,190.17,79.33,143.87,60.48Z"/><path class="cls-7" d="M139.11,134.21s21.71,25.58,38.47,26.82"/><path class="cls-7" d="M128.17,146s20.47,33.35,45.35,33.18"/><path class="cls-7" d="M132.23,174.26S159.82,201,169,199.76"/><path class="cls-7" d="M139.82,199.37c-.53-.05,14.09,14.57,25,18.28"/><path class="cls-7" d="M144.23,219.09s7.59,11.12,17.47,12.17"/><path class="cls-7" d="M130.82,161s19.41-3.53,39-26.82"/><path class="cls-7" d="M135.05,180.62s26.65-4.77,46.59-35.3"/><path class="cls-7" d="M139.8,201.26s21.37-7.58,35-25.94"/><path class="cls-7" d="M143,219.09s15.36-5.3,25.06-17.83"/><path class="cls-7" d="M144.55,231.26s8.68.84,20.5-12.92"/><path class="cls-7" d="M128.17,143s8.65-5.29,12.35-8.82"/><path class="cls-7" d="M167.35,133.5s7.41,8.47,14.29,9.53"/><path class="cls-8" d="M148.08,102.58s11-13.49,23-4.49"/><path class="cls-8" d="M158.35,95s-13.65-19.12-30.18-8.63"/><line class="cls-8" x1="182.38" y1="170.23" x2="176.89" y2="188.37"/><line class="cls-8" x1="185.59" y1="174.43" x2="182.38" y2="184.16"/><path class="cls-8" d="M108,74.05s21.46,9.58,18,.06c-4.14-11.41-14.94,2.54-8.82,8.47"/></g></g></svg>