<svg id="Layer_1" data-name="Layer 1" xmlns="http://www.w3.org/2000/svg" viewBox="0 0 300 300"><defs><style>.cls-1{fill:#e4f0f9;}.cls-2{fill:#6f7f93;}.cls-3{fill:#343e4c;}.cls-11,.cls-14,.cls-4,.cls-5,.cls-6{fill:none;}.cls-4,.cls-5{stroke:#6f7f93;}.cls-11,.cls-12,.cls-14,.cls-15,.cls-16,.cls-17,.cls-4,.cls-5,.cls-6,.cls-7{stroke-miterlimit:10;}.cls-4{stroke-width:0.75px;}.cls-11,.cls-14,.cls-5{stroke-linecap:round;}.cls-5,.cls-6{stroke-width:1.5px;}.cls-6,.cls-7{stroke:#e4f0f9;}.cls-7{fill:#26110b;stroke-width:3.75px;}.cls-8{fill:#c17638;}.cls-9{opacity:0.5;}.cls-10{fill:#66381f;}.cls-11{stroke:#2b2b2b;stroke-width:1.16px;}.cls-12{fill:#547a11;}.cls-12,.cls-14,.cls-15,.cls-16,.cls-17{stroke:#343e4c;}.cls-13{fill:#678c17;}.cls-14{stroke-width:2.5px;}.cls-15{fill:#ea7e1c;}.cls-16{fill:#f2b145;}.cls-17{fill:#ff6550;}</style></defs><rect class="cls-1" width="300" height="300"/><path class="cls-2" d="M247.54,209.63h6.62a3.74,3.74,0,0,1,3.74,3.74v5a3.74,3.74,0,0,1-3.74,3.74h-6.62a0,0,0,0,1,0,0V209.63A0,0,0,0,1,247.54,209.63Z"/><path class="cls-3" d="M90.93,235.8H86.06s-3.47-.81-3.47-5.44H74.86S70,229.74,70,225.24V204.43h-.55a1.13,1.13,0,0,1-1.13-1.13v-2.89h90a3.26,3.26,0,0,0,1.32-2.7V182.06s1.26-7.92,13.68-7.8,17-.66,23.27,7.92c5.94,9.29,5.7,11,5.7,11s39.27-.13,43.28,2.75,4.23,9.94,4.23,9.94,5,1.17,5.17,5.44.58,10.71.58,10.71,1.83.25,1.83,1.69v3.81a2.43,2.43,0,0,1-1.8,1.26l-1,0s-.39,2.73-1.47,2.73l-3.83.21h-3.12l-29.87-.66-4.05,5.86H128.72L118,228.6l-15-.9-8.1,3.87Z"/><path class="cls-2" d="M83.37,227l2.7-12s.84-3.78,11-4.14,25.49-1.14,29.93.78,6.12,8.63,6.12,9.53a15.18,15.18,0,0,0-11.76-7.43c-8.16-.6-28.73-.6-32,2.52S83.37,227,83.37,227Z"/><path class="cls-2" d="M201.54,227.22s5-12.47,6.9-13.43,4.62-3.24,18.89-3.24,24.06-.93,24.06,5.19v5s-.59-7.06-10.31-7.19S216.34,213,211,215.92,201.54,227.22,201.54,227.22Z"/><polygon class="cls-2" points="200.06 204.37 244.32 205.59 200.05 205.87 200.06 204.37 200.06 204.37"/><path class="cls-2" d="M165.5,205.35l-.61-7,0-.62h.66l33.21.59c.07.11-33.21.59-33.21.63l.62-.61-.62,7Z"/><path class="cls-2" d="M165.76,196.12c-.17-3.89-.2-7.79-.21-11.68,1.13-5.1,5.62-6.3,10.21-5.94a56.66,56.66,0,0,1,8.54.37c4.24.5,8.43,2.56,10.76,6.23-2.43-3.61-6.59-5.49-10.8-6a57.38,57.38,0,0,0-8.5-.29c-4.42-.3-8.71.79-9.76,5.66,0,3.69,0,7.85-.24,11.62Z"/><path class="cls-1" d="M173.86,180.83h8.78A12.15,12.15,0,0,1,194.79,193v0a2.74,2.74,0,0,1-2.74,2.74H172.48a3.91,3.91,0,0,1-3.91-3.91v-5.68A5.29,5.29,0,0,1,173.86,180.83Z"/><line class="cls-4" x1="185.38" y1="181.08" x2="185.38" y2="195.72"/><path class="cls-2" d="M75.13,212.5l-.2-2.7a4.27,4.27,0,0,1,2.95-4.56,5.14,5.14,0,0,1,1.47-.22c4-.2,8.1-.34,12.15-.45,14.17-.36,29-.35,43.19,0,3.6.09,7.2.23,10.8.37,1.81.1,4.06-.08,5.36,1.48,1.45,1.45,1.08,3.52.94,5.34-.2-1.63,0-3.69-1.44-4.82s-3.16-.77-4.86-.74c-3.6.15-7.2.28-10.8.37-14.15.37-29,.39-43.19,0-4-.11-8.11-.25-12.15-.44a3.69,3.69,0,0,0-1.21.05,3.63,3.63,0,0,0-2.82,3.58l-.19,2.7Z"/><line class="cls-5" x1="168.99" y1="202.85" x2="174.7" y2="202.85"/><line class="cls-6" x1="157.99" y1="204.85" x2="157.99" y2="220.14"/><path class="cls-2" d="M200.61,210.79l.72,18.65,0,.75H164.69l.06-.75.75-9.3.76,9.3-.76-.75h35.08l-.75.75s.62-18.78.78-18.65Z"/><circle class="cls-7" cx="230.23" cy="239.67" r="15.64"/><circle class="cls-2" cx="230.23" cy="239.67" r="7.1"/><circle class="cls-3" cx="230.23" cy="239.67" r="2.02"/><path class="cls-2" d="M222.74,229.24a13,13,0,0,1,13.17-1,17.76,17.76,0,0,1,1.66,1,18,18,0,0,0-14.83,0Z"/><path class="cls-2" d="M237.57,250.3a13,13,0,0,1-13.17,1,15.48,15.48,0,0,1-1.66-1,18,18,0,0,0,14.83,0Z"/><circle class="cls-7" cx="109.89" cy="239.67" r="15.64"/><circle class="cls-2" cx="109.89" cy="239.67" r="7.1"/><circle class="cls-3" cx="109.89" cy="239.67" r="2.02"/><path class="cls-2" d="M102.39,229.24a13,13,0,0,1,13.17-1,16.69,16.69,0,0,1,1.67,1,18.07,18.07,0,0,0-14.84,0Z"/><path class="cls-2" d="M117.23,250.3a13,13,0,0,1-13.17,1,16.69,16.69,0,0,1-1.67-1,18.07,18.07,0,0,0,14.84,0Z"/><rect class="cls-8" x="117.21" y="183.81" width="37.28" height="4.52" rx="1.21" transform="translate(271.7 372.15) rotate(-180)"/><rect class="cls-8" x="97.38" y="189.36" width="57.1" height="4.52" rx="1.21" transform="translate(251.87 383.25) rotate(-180)"/><rect class="cls-8" x="80.57" y="194.92" width="73.92" height="4.52" rx="1.21" transform="translate(235.06 394.35) rotate(-180)"/><g class="cls-9"><path class="cls-10" d="M119.3,186.87l.23-.18a.31.31,0,0,0,.1-.15.39.39,0,0,0,0-.18.34.34,0,0,0,0-.18.31.31,0,0,0-.1-.15l-.1-.08a.46.46,0,0,0-.23-.06h-.13a.46.46,0,0,0-.2.13l-.23.18a.4.4,0,0,0-.1.15.34.34,0,0,0,0,.18.5.5,0,0,0,.14.33l.1.07a.48.48,0,0,0,.23.07l.13,0a.37.37,0,0,0,.2-.12Z"/><path class="cls-10" d="M122.14,186.54l.22-.21a.31.31,0,0,0,.1-.15.39.39,0,0,0,0-.18.34.34,0,0,0,0-.18.31.31,0,0,0-.1-.15l-.09-.08a.48.48,0,0,0-.24-.06h-.12a.57.57,0,0,0-.21.13l-.22.21a.31.31,0,0,0-.1.15.34.34,0,0,0,0,.18.39.39,0,0,0,0,.18.31.31,0,0,0,.1.15l.09.07a.48.48,0,0,0,.24.07l.12,0a.45.45,0,0,0,.21-.12Z"/><path class="cls-10" d="M128.57,185.82a15.67,15.67,0,0,0-2.47,0,.47.47,0,0,0-.47.46.46.46,0,0,0,.47.47,15.67,15.67,0,0,1,2.47,0,.47.47,0,0,0,.47-.47.48.48,0,0,0-.47-.47Z"/><path class="cls-10" d="M123.33,187.06a2.26,2.26,0,0,1,0-.45v.12a1.36,1.36,0,0,1,.06-.29.5.5,0,0,0,0-.36.51.51,0,0,0-.28-.22.45.45,0,0,0-.36,0,.44.44,0,0,0-.22.28,2.83,2.83,0,0,0-.09.87.49.49,0,0,0,.13.33.45.45,0,0,0,.34.14.43.43,0,0,0,.33-.14.5.5,0,0,0,.14-.33Z"/><path class="cls-10" d="M130.9,186.35v.06a2,2,0,0,1,0-.49V186l0,.11,0,0-.08.09h0l-.1.07.05,0-.11,0a4.4,4.4,0,0,1,1.08-.28h-.06a.55.55,0,0,0,.33-.14.52.52,0,0,0,.14-.33.54.54,0,0,0-.14-.34.44.44,0,0,0-.33-.13,4.78,4.78,0,0,0-1.12.25,1.44,1.44,0,0,0-.31.13.6.6,0,0,0-.23.27,1.19,1.19,0,0,0-.05.26,3.44,3.44,0,0,0,0,.64.48.48,0,0,0,.22.28.46.46,0,0,0,.36.05.51.51,0,0,0,.28-.22l.05-.11a.53.53,0,0,0,0-.25Z"/><path class="cls-10" d="M137.06,187.23a1.72,1.72,0,0,1,.07-.21l0,.11a1.17,1.17,0,0,1,.17-.28l-.08.09a2.06,2.06,0,0,1,.3-.29l-.1.07a5.7,5.7,0,0,1,.76-.43.47.47,0,0,0,.22-.28.46.46,0,0,0,0-.36.48.48,0,0,0-.28-.22.5.5,0,0,0-.36,0,4,4,0,0,0-.94.58,1.7,1.7,0,0,0-.56.92.49.49,0,0,0,0,.36.51.51,0,0,0,.28.22.45.45,0,0,0,.36-.05.44.44,0,0,0,.22-.28Z"/><path class="cls-10" d="M142.63,186.6a.25.25,0,0,1,0,.07s0,0,0,0l.13-.08.35-.17.72-.32c.45-.19,1-.39,1.46-.57a.48.48,0,0,0,.32-.58.47.47,0,0,0-.57-.33c-.6.22-1.2.46-1.79.72l-.82.37a1.14,1.14,0,0,0-.66.65.48.48,0,0,0,.33.58.5.5,0,0,0,.58-.33Z"/><path class="cls-10" d="M148.65,186.5c.82-.2,1.65-.38,2.48-.51a.48.48,0,0,0,.33-.58.5.5,0,0,0-.58-.33c-.83.14-1.66.31-2.48.52a.47.47,0,0,0,.25.9Z"/><path class="cls-10" d="M152.74,186.44a17.74,17.74,0,0,1-2.52.14.46.46,0,0,0-.47.46.47.47,0,0,0,.47.47,16.37,16.37,0,0,0,2.52-.13.47.47,0,1,0,0-.94Z"/><path class="cls-10" d="M99.06,191.54v.07a.48.48,0,0,1,0-.17l0,.12a.84.84,0,0,1,0-.17l0,.11a.91.91,0,0,1,.07-.14.27.27,0,0,0,.06-.17.41.41,0,0,0,0-.19.35.35,0,0,0-.08-.16.49.49,0,0,0-.13-.12.48.48,0,0,0-.37-.05l-.11.05a.46.46,0,0,0-.17.17.54.54,0,0,0-.07.13,1.17,1.17,0,0,0-.09.24l0,.19v.15l0,.19a.35.35,0,0,0,.08.16.41.41,0,0,0,.14.12.49.49,0,0,0,.17.06.41.41,0,0,0,.19,0,.51.51,0,0,0,.28-.22l0-.11a.36.36,0,0,0,0-.25Z"/><path class="cls-10" d="M102,193.28l.06-.12a.35.35,0,0,0,.05-.18.28.28,0,0,0,0-.18.3.3,0,0,0-.08-.16.37.37,0,0,0-.13-.12l-.11-.05a.53.53,0,0,0-.25,0l-.11.05a.4.4,0,0,0-.17.17l-.06.12a.27.27,0,0,0-.06.17.41.41,0,0,0,0,.19.35.35,0,0,0,.08.16.49.49,0,0,0,.13.12l.12,0a.36.36,0,0,0,.25,0l.11,0a.55.55,0,0,0,.17-.17Z"/><path class="cls-10" d="M101.81,191.73l.07-.42a.31.31,0,0,0,0-.19.34.34,0,0,0,0-.17.3.3,0,0,0-.12-.13.51.51,0,0,0-.16-.09h-.13a.46.46,0,0,0-.23.06l-.1.07a.45.45,0,0,0-.12.21l-.06.42a.4.4,0,0,0,0,.19.27.27,0,0,0,.06.17.3.3,0,0,0,.12.13.42.42,0,0,0,.16.09h.12a.5.5,0,0,0,.24-.06l.09-.07a.45.45,0,0,0,.12-.21Z"/><path class="cls-10" d="M103.83,192.6a5.53,5.53,0,0,0,1.19-.53.51.51,0,0,0,.22-.28.46.46,0,0,0,0-.36.47.47,0,0,0-.64-.17c-.21.12-.42.22-.64.32l.12-.05-.45.17a.48.48,0,0,0-.28.21.45.45,0,0,0,0,.36.4.4,0,0,0,.21.28.46.46,0,0,0,.36,0Z"/><path class="cls-10" d="M108,193l.36-.18a.37.37,0,0,0,.13-.12.35.35,0,0,0,.08-.16.41.41,0,0,0,0-.19.34.34,0,0,0,0-.17l-.08-.1a.45.45,0,0,0-.21-.12l-.12,0a.55.55,0,0,0-.24.07l-.35.18a.41.41,0,0,0-.14.12.35.35,0,0,0-.08.16.41.41,0,0,0,0,.19.27.27,0,0,0,.06.17l.07.1a.45.45,0,0,0,.21.12l.12,0A.48.48,0,0,0,108,193Z"/><path class="cls-10" d="M113.14,192.05a.69.69,0,0,1,.13-.11l-.1.08a2.14,2.14,0,0,1,.38-.23l-.11.05.23-.08a.45.45,0,0,0,.28-.21.5.5,0,0,0,0-.36.45.45,0,0,0-.22-.28.5.5,0,0,0-.36,0,2.19,2.19,0,0,0-.94.52.47.47,0,0,0-.14.33.48.48,0,0,0,.14.34.46.46,0,0,0,.33.13.49.49,0,0,0,.33-.13Z"/><path class="cls-10" d="M111.69,191.15c-1.41-.22-2.84-.39-4.26-.49a.47.47,0,0,0-.47.47.48.48,0,0,0,.47.47c1.34.1,2.68.25,4,.46a.5.5,0,0,0,.58-.33.48.48,0,0,0-.33-.58Z"/><path class="cls-10" d="M115.7,192.08a.47.47,0,0,0,0-.94.47.47,0,0,0,0,.94Z"/><path class="cls-10" d="M122.09,192.57a.88.88,0,0,1,0-.15l0,.11a.46.46,0,0,1,.09-.15l-.08.09a.63.63,0,0,1,.12-.11.38.38,0,0,0,.09-.15.3.3,0,0,0,0-.18.27.27,0,0,0,0-.18.38.38,0,0,0-.09-.15l-.1-.08a.48.48,0,0,0-.24-.06l-.12,0a.45.45,0,0,0-.21.12l-.09.08a1.71,1.71,0,0,1-.11.14l0,.06,0,.05a1.22,1.22,0,0,0-.07.17l0,.12a.41.41,0,0,0,0,.19.27.27,0,0,0,.06.17.3.3,0,0,0,.12.13.32.32,0,0,0,.16.09h.12a.5.5,0,0,0,.24-.06l.09-.07a.45.45,0,0,0,.12-.21Z"/><path class="cls-10" d="M115.9,193.37a2.49,2.49,0,0,1,.44-.42l-.1.07.24-.17a.48.48,0,0,0,.22-.28.37.37,0,0,0,0-.18.39.39,0,0,0-.06-.18.43.43,0,0,0-.28-.21.5.5,0,0,0-.36,0,3.25,3.25,0,0,0-.77.66.54.54,0,0,0-.1.16.34.34,0,0,0,0,.18.47.47,0,0,0,.14.33.52.52,0,0,0,.33.14.48.48,0,0,0,.33-.14Z"/><path class="cls-10" d="M120.18,191.67a2.29,2.29,0,0,1,0-.37v.13a1.09,1.09,0,0,1,.07-.3.37.37,0,0,0,0-.18.35.35,0,0,0-.06-.18.37.37,0,0,0-.12-.13.42.42,0,0,0-.16-.09.5.5,0,0,0-.36,0l-.1.08a.56.56,0,0,0-.12.2,2.24,2.24,0,0,0-.09.45,1.93,1.93,0,0,0,0,.34.48.48,0,0,0,.47.47A.5.5,0,0,0,120,192l.08-.1a.46.46,0,0,0,.06-.23Z"/><path class="cls-10" d="M119.05,192.26l-.36-.59a.44.44,0,0,0-.28-.22.37.37,0,0,0-.18,0,.3.3,0,0,0-.18.06.43.43,0,0,0-.21.28.5.5,0,0,0,0,.36l.36.6a.53.53,0,0,0,.28.21.31.31,0,0,0,.19,0,.41.41,0,0,0,.18-.05.49.49,0,0,0,.21-.28.48.48,0,0,0,0-.37Z"/><path class="cls-10" d="M126.86,192.55a5.45,5.45,0,0,1,.68-.35l-.11.05a4.6,4.6,0,0,1,.52-.19.54.54,0,0,0,.28-.22.5.5,0,0,0,0-.36.48.48,0,0,0-.57-.33,6.26,6.26,0,0,0-1.32.59.46.46,0,0,0-.21.28.5.5,0,0,0,0,.36.49.49,0,0,0,.65.17Z"/><path class="cls-10" d="M132.4,192.13l.09-.12s.07-.09,0,0,0,0,0,0,.13-.16.2-.23a4.26,4.26,0,0,1,.42-.43l.23-.2.05,0,.11-.08a5.8,5.8,0,0,1,.52-.34.47.47,0,0,0-.47-.81,6.45,6.45,0,0,0-2,1.82.48.48,0,0,0,.17.65.49.49,0,0,0,.64-.17Z"/><path class="cls-10" d="M130.4,192.32a1.62,1.62,0,0,0-.1-.18,2.2,2.2,0,0,0-.2-.23,1.5,1.5,0,0,0-.25-.19,1.55,1.55,0,0,0-.29-.14.4.4,0,0,0-.19,0,.27.27,0,0,0-.17.06.37.37,0,0,0-.13.12.42.42,0,0,0-.09.16.5.5,0,0,0,.05.36l.08.09a.37.37,0,0,0,.2.12h0l-.12,0a.86.86,0,0,1,.23.13l-.09-.07a1.14,1.14,0,0,1,.19.19l-.07-.1.11.19a.41.41,0,0,0,.12.14.35.35,0,0,0,.16.08.41.41,0,0,0,.19,0,.27.27,0,0,0,.17-.06.48.48,0,0,0,.22-.28l0-.12a.48.48,0,0,0-.07-.24Z"/><path class="cls-10" d="M125,192.65a2.79,2.79,0,0,0-.64-.55.41.41,0,0,0-.18,0,.37.37,0,0,0-.18,0,.35.35,0,0,0-.16.09.33.33,0,0,0-.13.13.48.48,0,0,0,.17.64l.2.14L124,193a2.26,2.26,0,0,1,.35.34.39.39,0,0,0,.16.1.34.34,0,0,0,.18,0,.39.39,0,0,0,.18,0,.31.31,0,0,0,.15-.1.5.5,0,0,0,.14-.33l0-.12a.45.45,0,0,0-.12-.21Z"/><path class="cls-10" d="M135.8,192.77a5.11,5.11,0,0,1,.86-.2l-.12,0a2.4,2.4,0,0,1,.28,0,.52.52,0,0,0,.33-.14.46.46,0,0,0,0-.66.47.47,0,0,0-.33-.14,5.48,5.48,0,0,0-1.27.24.48.48,0,0,0-.28.22.46.46,0,0,0,.17.64.46.46,0,0,0,.36.05Z"/><path class="cls-10" d="M142,192.31l.3-.18a.3.3,0,0,0,.13-.12.37.37,0,0,0,.09-.16.4.4,0,0,0,0-.19.35.35,0,0,0-.06-.17l-.07-.1a.72.72,0,0,0-.21-.12H142a.48.48,0,0,0-.24.06l-.3.18a.3.3,0,0,0-.13.12.51.51,0,0,0-.09.16.31.31,0,0,0,0,.19.34.34,0,0,0,.05.17l.07.1a.45.45,0,0,0,.21.12h.13a.46.46,0,0,0,.23-.06Z"/><path class="cls-10" d="M138.62,190.36h-.24a.27.27,0,0,0-.18,0,.38.38,0,0,0-.15.09.39.39,0,0,0-.1.16.34.34,0,0,0,0,.18V191a.57.57,0,0,0,.13.21l.09.07a.61.61,0,0,0,.24.07h.24a.41.41,0,0,0,.18-.05.29.29,0,0,0,.15-.09.49.49,0,0,0,.1-.15.39.39,0,0,0,0-.18l0-.13a.45.45,0,0,0-.12-.21l-.1-.07a.46.46,0,0,0-.23-.06Z"/><path class="cls-10" d="M148.45,192.49a.47.47,0,0,0,0-.93.47.47,0,0,0,0,.93Z"/><path class="cls-10" d="M144.94,193l.47-.41-.09.08a5.74,5.74,0,0,1,.73-.48.48.48,0,0,0,.17-.65.48.48,0,0,0-.64-.17,6.47,6.47,0,0,0-1.3,1,.46.46,0,0,0,0,.66.47.47,0,0,0,.66,0Z"/><path class="cls-10" d="M151.7,192.84a1.19,1.19,0,0,0,.26-.11l.23-.17a1.81,1.81,0,0,0,.18-.21l.09-.15a.34.34,0,0,0,0-.17.4.4,0,0,0,0-.19.35.35,0,0,0-.08-.16.37.37,0,0,0-.13-.12l-.12-.05a.49.49,0,0,0-.24,0l-.12.05a.55.55,0,0,0-.17.17.6.6,0,0,1-.09.15l.08-.09-.15.14.09-.07a1,1,0,0,1-.17.1l.11-.05-.06,0a.35.35,0,0,0-.16.08.37.37,0,0,0-.12.13.55.55,0,0,0-.06.18.37.37,0,0,0,0,.18l0,.12a.44.44,0,0,0,.17.16l.11.05a.53.53,0,0,0,.25,0Z"/><path class="cls-10" d="M83.31,198.55h.12a.27.27,0,0,0,.18,0,.38.38,0,0,0,.15-.09.39.39,0,0,0,.1-.16.34.34,0,0,0,0-.18V198a.57.57,0,0,0-.13-.21l-.09-.07a.48.48,0,0,0-.24-.07h-.12a.41.41,0,0,0-.18,0,.29.29,0,0,0-.15.09.5.5,0,0,0-.14.33l0,.13a.45.45,0,0,0,.12.21l.1.07a.46.46,0,0,0,.23.06Z"/><path class="cls-10" d="M86.7,198.12l.12-.12a.39.39,0,0,0,.1-.16.34.34,0,0,0,0-.18.39.39,0,0,0,0-.18.36.36,0,0,0-.1-.15l-.09-.07a.61.61,0,0,0-.24-.07l-.12,0a.45.45,0,0,0-.21.12l-.12.12a.36.36,0,0,0-.1.15.39.39,0,0,0,0,.18.34.34,0,0,0,0,.18.39.39,0,0,0,.1.16l.1.07a.46.46,0,0,0,.23.06h.13a.56.56,0,0,0,.2-.12Z"/><path class="cls-10" d="M83.5,196.68a3.61,3.61,0,0,1,.65-.15H84l.36,0a.47.47,0,0,0,.33-.13.45.45,0,0,0,.14-.34.43.43,0,0,0-.14-.33.44.44,0,0,0-.33-.13,4.06,4.06,0,0,0-1.14.19A.48.48,0,0,0,83,196a.46.46,0,0,0,0,.36.51.51,0,0,0,.22.28.45.45,0,0,0,.36.05Z"/><path class="cls-10" d="M90.63,198.44l.54-.06a.34.34,0,0,0,.18,0,.46.46,0,0,0,.25-.25.39.39,0,0,0,0-.18.42.42,0,0,0-.14-.33l-.09-.08a.5.5,0,0,0-.24-.06l-.54.06a.39.39,0,0,0-.18,0,.46.46,0,0,0-.25.25.39.39,0,0,0,0,.18.5.5,0,0,0,.14.33l.09.08a.53.53,0,0,0,.24.06Z"/><path class="cls-10" d="M89,196.75l.17-.08-.11,0a5.62,5.62,0,0,1,1.15-.33.49.49,0,0,0,.28-.21.48.48,0,0,0,0-.37.45.45,0,0,0-.21-.28.5.5,0,0,0-.36,0,5.6,5.6,0,0,0-1.44.45.48.48,0,0,0-.21.29.5.5,0,0,0,0,.36.45.45,0,0,0,.28.21.59.59,0,0,0,.37,0Z"/><path class="cls-10" d="M95,197.76l1.2-.36a.48.48,0,0,0,.28-.22.46.46,0,0,0,0-.36.48.48,0,0,0-.58-.33l-1.2.36a.54.54,0,0,0-.28.22.5.5,0,0,0,0,.36.47.47,0,0,0,.57.33Z"/><path class="cls-10" d="M102.3,198.11l.18-.16,0,0c.08-.06-.06.05,0,0l.1-.07a3.87,3.87,0,0,1,.43-.27c.14-.08.29-.15.44-.22,0,0-.09,0,0,0l.06,0,.13,0,.24-.08a.47.47,0,0,0,.33-.57.47.47,0,0,0-.58-.33,5.28,5.28,0,0,0-2,1.13.47.47,0,0,0,0,.66.48.48,0,0,0,.67,0Z"/><path class="cls-10" d="M99.62,197.6v-.18a.39.39,0,0,0,0-.18.36.36,0,0,0-.1-.15.29.29,0,0,0-.15-.09.41.41,0,0,0-.18-.05L99,197a.41.41,0,0,0-.2.12l-.08.1a.46.46,0,0,0-.06.23v.18a.34.34,0,0,0,0,.18.39.39,0,0,0,.1.16A.38.38,0,0,0,99,198a.27.27,0,0,0,.18,0h.12a.72.72,0,0,0,.21-.12l.07-.1a.4.4,0,0,0,.07-.24Z"/><path class="cls-10" d="M91.84,196.88l-.06.48a.34.34,0,0,0,0,.18.39.39,0,0,0,.1.16.38.38,0,0,0,.15.09.3.3,0,0,0,.18,0h.13a.82.82,0,0,0,.2-.12l.08-.1a.48.48,0,0,0,.06-.24l.06-.48a.39.39,0,0,0,0-.18.36.36,0,0,0-.1-.15.29.29,0,0,0-.15-.09.28.28,0,0,0-.18,0h-.12a.45.45,0,0,0-.21.12l-.07.1a.39.39,0,0,0-.07.23Z"/><path class="cls-10" d="M99,196.66l.15-.07-.11,0a5.49,5.49,0,0,1,1.36-.37.48.48,0,0,0,.28-.22.46.46,0,0,0,.05-.36.49.49,0,0,0-.21-.28.58.58,0,0,0-.37,0,5.83,5.83,0,0,0-1.62.49.46.46,0,0,0-.17.64.48.48,0,0,0,.28.22.5.5,0,0,0,.36-.05Z"/><path class="cls-10" d="M96.21,198.19a2.69,2.69,0,0,0,.48.24,1.89,1.89,0,0,0,.41.1.31.31,0,0,0,.19,0,.41.41,0,0,0,.18,0,.49.49,0,0,0,.21-.28.48.48,0,0,0-.05-.37.46.46,0,0,0-.28-.21,2.26,2.26,0,0,1-.49-.14l.12,0-.3-.16a.5.5,0,0,0-.36,0,.46.46,0,0,0-.33.57.48.48,0,0,0,.22.28Z"/><path class="cls-10" d="M104.91,198.54l1.26-.42a.48.48,0,0,0,.28-.22.46.46,0,0,0,0-.36.49.49,0,0,0-.58-.33l-1.26.42a.48.48,0,0,0-.33.58.49.49,0,0,0,.58.33Z"/><path class="cls-10" d="M106.94,196.53a7.05,7.05,0,0,0,1.08.5.49.49,0,0,0,.36,0,.51.51,0,0,0,.22-.28.48.48,0,0,0,0-.37.54.54,0,0,0-.28-.21L108,196l.11.05q-.37-.17-.72-.36a.5.5,0,0,0-.36-.05.44.44,0,0,0-.28.22.45.45,0,0,0,0,.36.51.51,0,0,0,.22.28Z"/><path class="cls-10" d="M110.69,198.11a7.72,7.72,0,0,1,1.25-1.24l-.09.07.25-.19a.44.44,0,0,0,.22-.28.46.46,0,0,0,0-.36.47.47,0,0,0-.64-.17,7.65,7.65,0,0,0-1.6,1.51.5.5,0,0,0-.14.33.47.47,0,0,0,.14.33.5.5,0,0,0,.33.14.44.44,0,0,0,.33-.14Z"/><path class="cls-10" d="M113.27,198.47l.36-.36a.31.31,0,0,0,.1-.15.39.39,0,0,0,0-.18.34.34,0,0,0,0-.18.31.31,0,0,0-.1-.15l-.09-.08a.53.53,0,0,0-.24-.06l-.12,0a.45.45,0,0,0-.21.12l-.37.35a.6.6,0,0,0-.09.15.3.3,0,0,0,0,.18.31.31,0,0,0,0,.19.6.6,0,0,0,.09.15l.1.07a.48.48,0,0,0,.24.06h.12a.72.72,0,0,0,.21-.12Z"/><path class="cls-10" d="M114.86,198.55l1.68-.06a.47.47,0,1,0,0-.93l-1.68.06a.47.47,0,0,0-.47.46.48.48,0,0,0,.47.47Z"/><path class="cls-10" d="M115.83,196.77l.12-.11-.09.07a1,1,0,0,1,.22-.13l-.11.05a.78.78,0,0,1,.25-.07h0a.54.54,0,0,0,.34-.14.46.46,0,0,0,.13-.33.47.47,0,0,0-.13-.34.53.53,0,0,0-.34-.13,1.66,1.66,0,0,0-.32,0,2,2,0,0,0-.32.11.67.67,0,0,0-.18.11,1.71,1.71,0,0,0-.26.21.49.49,0,0,0-.13.33.51.51,0,0,0,.13.33.47.47,0,0,0,.67,0Z"/><path class="cls-10" d="M122.23,198.32l.18-.24a.34.34,0,0,0,0-.17.31.31,0,0,0,0-.19.35.35,0,0,0-.08-.16.37.37,0,0,0-.13-.12l-.11-.05a.53.53,0,0,0-.25,0l-.11.05a.4.4,0,0,0-.17.17l-.18.24a.27.27,0,0,0-.06.17.41.41,0,0,0,0,.19.35.35,0,0,0,.08.16.41.41,0,0,0,.14.12l.11,0a.53.53,0,0,0,.25,0l.11,0a.46.46,0,0,0,.17-.17Z"/><path class="cls-10" d="M119.09,198l.12-.12a.39.39,0,0,0,.1-.16.34.34,0,0,0,0-.18.39.39,0,0,0,0-.18.36.36,0,0,0-.1-.15l-.09-.07a.61.61,0,0,0-.24-.07l-.12,0a.45.45,0,0,0-.21.12l-.12.12a.49.49,0,0,0-.1.15.39.39,0,0,0,0,.18.34.34,0,0,0,0,.18.54.54,0,0,0,.1.16l.1.07a.46.46,0,0,0,.23.06h.13a.56.56,0,0,0,.2-.12Z"/><path class="cls-10" d="M120.11,197.61h0l-.05.11a1.29,1.29,0,0,1,.19-.32l-.07.09a1.48,1.48,0,0,1,.25-.25l-.09.07.09-.07a.52.52,0,0,0,.22-.28.31.31,0,0,0,0-.19.34.34,0,0,0,0-.17.51.51,0,0,0-.28-.22.5.5,0,0,0-.36,0,1.64,1.64,0,0,0-.42.37,2.56,2.56,0,0,0-.2.26,1.73,1.73,0,0,0-.14.31.4.4,0,0,0,0,.19.34.34,0,0,0,0,.17.33.33,0,0,0,.13.13.35.35,0,0,0,.16.09.5.5,0,0,0,.36-.05l.09-.08a.37.37,0,0,0,.12-.2Z"/><path class="cls-10" d="M122.13,196.62l.66-.18a.51.51,0,0,0,.28-.22.34.34,0,0,0,.05-.17.31.31,0,0,0,0-.19.45.45,0,0,0-.21-.28.5.5,0,0,0-.36-.05l-.66.18a.48.48,0,0,0-.28.22.27.27,0,0,0-.06.17.41.41,0,0,0,0,.19.51.51,0,0,0,.22.28.5.5,0,0,0,.36.05Z"/><path class="cls-10" d="M124.57,196.94l0,0,0,.11a.27.27,0,0,1,0-.12V197a.71.71,0,0,1,0-.14l0,.13a.53.53,0,0,1,0-.12l0,.11a.3.3,0,0,1,.06-.11l-.08.1h0a.39.39,0,0,0,.1-.16.34.34,0,0,0,0-.18.39.39,0,0,0,0-.18.36.36,0,0,0-.1-.15.5.5,0,0,0-.33-.14l-.12,0a.45.45,0,0,0-.21.12l-.11.15a.71.71,0,0,0-.08.18.76.76,0,0,0-.06.26,1.24,1.24,0,0,0,0,.27.84.84,0,0,0,.09.25.37.37,0,0,0,.12.13.35.35,0,0,0,.16.08.31.31,0,0,0,.19,0,.34.34,0,0,0,.17,0,.51.51,0,0,0,.22-.28l0-.13a.55.55,0,0,0-.07-.24Z"/><path class="cls-10" d="M127.66,198.09l0-.11,0,.11a1,1,0,0,1,.08-.14l-.07.1a.34.34,0,0,1,.12-.12l-.1.07.14-.08-.11.05.06,0a.49.49,0,0,0,.28-.21.35.35,0,0,0,0-.18.37.37,0,0,0,0-.18l0-.11a.46.46,0,0,0-.17-.17l-.11-.05a.53.53,0,0,0-.25,0l-.19.08-.08,0a1.24,1.24,0,0,0-.22.18,1.37,1.37,0,0,0-.17.23c0,.05,0,.12-.08.18a.29.29,0,0,0,0,.09.28.28,0,0,0,0,.18.39.39,0,0,0,.17.31.35.35,0,0,0,.16.08l.13,0a.46.46,0,0,0,.23-.06l.1-.08a.41.41,0,0,0,.12-.2Z"/><path class="cls-10" d="M126.29,196.73a1.37,1.37,0,0,1,.25-.23l-.1.07a1.76,1.76,0,0,1,.42-.24l-.12,0a2.29,2.29,0,0,1,.37-.12.49.49,0,0,0,.28-.21.45.45,0,0,0,0-.36.4.4,0,0,0-.21-.28.46.46,0,0,0-.36,0,2.26,2.26,0,0,0-1.24.71.49.49,0,0,0-.13.33.51.51,0,0,0,.13.33.47.47,0,0,0,.67,0Z"/><path class="cls-10" d="M130,198.5l.12-.24a.27.27,0,0,0,.06-.17.4.4,0,0,0,0-.19.3.3,0,0,0-.08-.16.37.37,0,0,0-.13-.12l-.12-.05a.49.49,0,0,0-.24,0l-.12.05a.55.55,0,0,0-.17.17l-.12.24a.34.34,0,0,0-.05.17.31.31,0,0,0,0,.19.35.35,0,0,0,.08.16.37.37,0,0,0,.13.12l.12.05a.49.49,0,0,0,.24,0l.12-.05a.44.44,0,0,0,.16-.17Z"/><path class="cls-10" d="M132.29,198l.6-.48a.44.44,0,0,0,.1-.15.41.41,0,0,0,0-.19.39.39,0,0,0,0-.18.36.36,0,0,0-.1-.15.52.52,0,0,0-.33-.14l-.13,0a.41.41,0,0,0-.2.12l-.6.48a.36.36,0,0,0-.1.15.39.39,0,0,0,0,.18.34.34,0,0,0,0,.18.39.39,0,0,0,.1.16.44.44,0,0,0,.33.13h.12a.72.72,0,0,0,.21-.12Z"/><path class="cls-10" d="M135.29,198.12l.12-.12a.39.39,0,0,0,.1-.16.34.34,0,0,0,0-.18.39.39,0,0,0,0-.18.36.36,0,0,0-.1-.15l-.09-.07a.73.73,0,0,0-.24-.07l-.13,0a.37.37,0,0,0-.2.12l-.12.12a.36.36,0,0,0-.1.15.39.39,0,0,0,0,.18.34.34,0,0,0,0,.18.39.39,0,0,0,.1.16l.09.07a.48.48,0,0,0,.24.06h.12a.72.72,0,0,0,.21-.12Z"/><path class="cls-10" d="M134.6,196.36l1.32-.35a.47.47,0,0,0,.33-.58.49.49,0,0,0-.58-.33l-1.32.36a.47.47,0,0,0-.33.58.48.48,0,0,0,.58.32Z"/><path class="cls-10" d="M138.62,198.3l.78-.18a.43.43,0,0,0,.28-.21.46.46,0,0,0,0-.36.45.45,0,0,0-.58-.33l-.78.18a.49.49,0,0,0-.28.21.47.47,0,0,0,0,.37.45.45,0,0,0,.21.28.51.51,0,0,0,.36,0Z"/><path class="cls-10" d="M143.53,198.25l.18-.12a.3.3,0,0,0,.13-.12.37.37,0,0,0,.09-.16.41.41,0,0,0,0-.19.35.35,0,0,0-.06-.17l-.07-.1a.45.45,0,0,0-.21-.12l-.12,0a.61.61,0,0,0-.24.07l-.18.12a.3.3,0,0,0-.13.12.51.51,0,0,0-.09.16.31.31,0,0,0,0,.19.34.34,0,0,0,0,.17l.07.1a.72.72,0,0,0,.21.12h.13a.46.46,0,0,0,.23-.06Z"/><path class="cls-10" d="M146.88,197.46l.55-.36a.46.46,0,0,0,.21-.28.28.28,0,0,0,0-.18.37.37,0,0,0-.05-.18.45.45,0,0,0-.28-.21.48.48,0,0,0-.37,0l-.54.36a.52.52,0,0,0-.22.28.28.28,0,0,0,0,.18.37.37,0,0,0,.05.18.45.45,0,0,0,.28.21.49.49,0,0,0,.36,0Z"/><path class="cls-10" d="M151.63,197.59h.12a.27.27,0,0,0,.18,0,.51.51,0,0,0,.16-.09.6.6,0,0,0,.09-.15.31.31,0,0,0,0-.19V197a.72.72,0,0,0-.12-.21l-.1-.07a.61.61,0,0,0-.24-.07h-.12a.41.41,0,0,0-.18,0,.29.29,0,0,0-.15.09.49.49,0,0,0-.1.15.58.58,0,0,0,0,.18l0,.13a.45.45,0,0,0,.12.21l.1.07a.46.46,0,0,0,.23.06Z"/><path class="cls-10" d="M150.13,198.61a.47.47,0,0,0,0-.94.47.47,0,0,0,0,.94Z"/><path class="cls-10" d="M138.74,196.27h1a.51.51,0,0,0,.33-.13.52.52,0,0,0,.14-.34.48.48,0,0,0-.47-.46h-1a.49.49,0,0,0-.33.13.43.43,0,0,0-.14.33.47.47,0,0,0,.47.47Z"/><path class="cls-10" d="M141.55,197.41l.12-.06a.3.3,0,0,0,.13-.12.37.37,0,0,0,.09-.16.41.41,0,0,0,0-.19.35.35,0,0,0-.06-.17l-.07-.1a.45.45,0,0,0-.21-.12h-.12a.48.48,0,0,0-.24.06l-.12.06a.3.3,0,0,0-.13.12.51.51,0,0,0-.09.16.31.31,0,0,0,0,.19.34.34,0,0,0,0,.17l.07.1a.72.72,0,0,0,.21.12h.13a.46.46,0,0,0,.23-.06Z"/><path class="cls-10" d="M145.58,198.67a.47.47,0,0,0,0-.94.47.47,0,0,0,0,.94Z"/><path class="cls-10" d="M145,196.63l.18-.12a.3.3,0,0,0,.13-.12.37.37,0,0,0,.09-.16.41.41,0,0,0,0-.19.49.49,0,0,0-.06-.17l-.07-.1a.45.45,0,0,0-.21-.12h-.12a.48.48,0,0,0-.24.06l-.18.12a.3.3,0,0,0-.13.12.51.51,0,0,0-.09.16.4.4,0,0,0,0,.19.49.49,0,0,0,.06.17l.07.1a.72.72,0,0,0,.21.12h.13a.46.46,0,0,0,.23-.06Z"/><path class="cls-10" d="M149,196.42a3.81,3.81,0,0,1,.92-.25l-.12,0,.28,0a.52.52,0,0,0,.34-.14.48.48,0,0,0,0-.66.52.52,0,0,0-.34-.14,4.14,4.14,0,0,0-1.33.3.54.54,0,0,0-.28.21.45.45,0,0,0,0,.36.4.4,0,0,0,.21.28.42.42,0,0,0,.36,0Z"/><path class="cls-10" d="M153,198.05l-.24.06a.32.32,0,0,0-.16.09.3.3,0,0,0-.12.13.35.35,0,0,0-.06.17.41.41,0,0,0,0,.19l.05.11a.46.46,0,0,0,.17.17l.11.05a.53.53,0,0,0,.25,0l.24-.06a.51.51,0,0,0,.16-.09.3.3,0,0,0,.12-.13.34.34,0,0,0,.05-.17.31.31,0,0,0,0-.19l-.05-.11a.46.46,0,0,0-.17-.17l-.11,0a.53.53,0,0,0-.25,0Z"/><path class="cls-10" d="M130.88,196.75h.24a.3.3,0,0,0,.18,0,.38.38,0,0,0,.15-.09.44.44,0,0,0,.1-.15.41.41,0,0,0,0-.19l0-.12a.45.45,0,0,0-.12-.21l-.09-.07a.53.53,0,0,0-.24-.06h-.24a.27.27,0,0,0-.18,0,.29.29,0,0,0-.15.09.44.44,0,0,0-.1.15.39.39,0,0,0,0,.18l0,.13a.45.45,0,0,0,.12.21l.09.07a.5.5,0,0,0,.24.06Z"/></g><line class="cls-11" x1="94.14" y1="254.48" x2="9.09" y2="254.48"/><line class="cls-11" x1="253.04" y1="254.48" x2="96.09" y2="254.48"/><line class="cls-11" x1="266.39" y1="254.48" x2="257.93" y2="254.48"/><line class="cls-11" x1="290.91" y1="254.48" x2="270.35" y2="254.48"/><ellipse class="cls-12" cx="39" cy="199.78" rx="13.78" ry="41.94"/><ellipse class="cls-13" cx="32.72" cy="172.43" rx="0.93" ry="1.32"/><ellipse class="cls-13" cx="43.81" cy="177.52" rx="0.93" ry="1.32"/><ellipse class="cls-13" cx="31.79" cy="188.19" rx="0.93" ry="1.32"/><ellipse class="cls-13" cx="46.42" cy="194.02" rx="0.93" ry="1.32"/><ellipse class="cls-13" cx="31.79" cy="210.08" rx="0.93" ry="1.32"/><ellipse class="cls-13" cx="43.55" cy="219.24" rx="0.93" ry="1.32"/><line class="cls-14" x1="39" y1="254.07" x2="39" y2="184.84"/><line class="cls-14" x1="39" y1="195.34" x2="35.17" y2="188.63"/><line class="cls-14" x1="39" y1="210.56" x2="43.55" y2="203.85"/><line class="cls-14" x1="39" y1="223.98" x2="35.17" y2="217.75"/><path class="cls-15" d="M36.48,248v.34a12,12,0,0,1-1.48,5.7H25.88a12.32,12.32,0,0,1-1.48-6c0-5.1,2.71-9.22,6.05-9.22S36.48,242.93,36.48,248Z"/><path class="cls-16" d="M51.91,254.07H45.73c.34-2.13,1.59-3.71,3.09-3.71S51.57,251.94,51.91,254.07Z"/><path class="cls-17" d="M44.51,254.07H32.43a6,6,0,0,1,4-5.7,5.94,5.94,0,0,1,2-.34,3.08,3.08,0,0,1,.53,0A6,6,0,0,1,44.51,254.07Z"/><path class="cls-15" d="M277.51,248c0,.11,0,.22,0,.34a12.1,12.1,0,0,0,1.47,5.7h9.12a12.21,12.21,0,0,0,1.48-6c0-5.1-2.7-9.22-6-9.22S277.51,242.93,277.51,248Z"/><path class="cls-16" d="M262.08,254.07h6.19c-.34-2.13-1.6-3.71-3.09-3.71S262.42,251.94,262.08,254.07Z"/><path class="cls-17" d="M269.49,254.07h12.08a6,6,0,0,0-6.05-6,3.2,3.2,0,0,0-.53,0A6,6,0,0,0,269.49,254.07Z"/></svg>