<svg id="Layer_1" data-name="Layer 1" xmlns="http://www.w3.org/2000/svg" viewBox="0 0 300 300"><defs><style>.cls-1{fill:#f9be69;}.cls-2{fill:none;stroke:#2b2b2b;stroke-linecap:round;stroke-miterlimit:10;stroke-width:0.94px;}.cls-3,.cls-6,.cls-7{fill:#5a595c;}.cls-4{fill:#3d3c3f;}.cls-5{fill:#75736f;}.cls-6{opacity:0.2;}.cls-7{opacity:0.3;}.cls-8{opacity:0.5;}</style></defs><rect class="cls-1" width="300" height="300"/><line class="cls-2" x1="95.32" y1="220.68" x2="66.11" y2="220.68"/><line class="cls-2" x1="209.23" y1="220.68" x2="107.06" y2="220.68"/><line class="cls-2" x1="217.93" y1="220.68" x2="212.42" y2="220.68"/><line class="cls-2" x1="233.89" y1="220.68" x2="220.5" y2="220.68"/><path class="cls-3" d="M189.32,179H106.87V120.55a41.23,41.23,0,1,1,82.45,0Zm-72-10.48h61.48v-48a30.74,30.74,0,0,0-61.48,0Z"/><rect class="cls-4" x="95.25" y="138.8" width="105.68" height="81.88" rx="7.54"/><path class="cls-5" d="M156.21,207.59a2.35,2.35,0,0,1-2.34,2.65H142.3a2.35,2.35,0,0,1-2.33-2.65l.47-3.83,1.79-14.28a10.15,10.15,0,1,1,11.72,0l.82,6.62Z"/><path class="cls-6" d="M200.93,175.17v38a7.54,7.54,0,0,1-7.54,7.54H138.55C154.38,214.69,184,200.7,200.93,175.17Z"/><path class="cls-7" d="M153.87,210.24H142.3a2.35,2.35,0,0,1-2.33-2.65l.47-3.83a41,41,0,0,0,14.33-7.66l1.44,11.49A2.35,2.35,0,0,1,153.87,210.24Z"/><g class="cls-8"><path class="cls-3" d="M101.28,163.15a1.21,1.21,0,0,1-1.2-1.21V152a8.91,8.91,0,0,1,8.9-8.9h14a1.21,1.21,0,1,1,0,2.41H109a6.5,6.5,0,0,0-6.49,6.49v9.9A1.21,1.21,0,0,1,101.28,163.15Z"/></g></svg>