<svg id="Layer_1" data-name="Layer 1" xmlns="http://www.w3.org/2000/svg" viewBox="0 0 300 300"><defs><style>.cls-1{fill:#5a595c;}.cls-2,.cls-9{fill:#fff;}.cls-2{opacity:0.15;}.cls-3{fill:#efe3ca;stroke-width:4px;}.cls-3,.cls-4{stroke:#fff;}.cls-10,.cls-11,.cls-12,.cls-13,.cls-14,.cls-15,.cls-16,.cls-17,.cls-18,.cls-19,.cls-20,.cls-21,.cls-3,.cls-4,.cls-5,.cls-6,.cls-7{stroke-miterlimit:10;}.cls-10,.cls-11,.cls-12,.cls-13,.cls-14,.cls-15,.cls-16,.cls-17,.cls-18,.cls-19,.cls-20,.cls-4,.cls-5{fill:none;}.cls-4{stroke-width:3px;}.cls-10,.cls-11,.cls-12,.cls-13,.cls-14,.cls-15,.cls-16,.cls-17,.cls-18,.cls-19,.cls-20,.cls-5{stroke:#726658;stroke-linecap:round;}.cls-10,.cls-11,.cls-12,.cls-13,.cls-14,.cls-15,.cls-16,.cls-17,.cls-18,.cls-19,.cls-20,.cls-5,.cls-6{stroke-width:0.1px;}.cls-5{stroke-dasharray:3;}.cls-6{fill:#aad792;stroke:#59ad23;}.cls-7{fill:#87d5f7;stroke:#60cef4;}.cls-21,.cls-7{stroke-width:0.25px;}.cls-8{fill:#a5a5a5;}.cls-11{stroke-dasharray:3.53 3.53;}.cls-12{stroke-dasharray:3.17 3.17;}.cls-13{stroke-dasharray:2.86 2.86;}.cls-14{stroke-dasharray:2.83 2.83;}.cls-15{stroke-dasharray:3.02 3.02;}.cls-16{stroke-dasharray:2.97 2.97;}.cls-17{stroke-dasharray:2.76 2.76;}.cls-18{stroke-dasharray:2.98 2.98;}.cls-19{stroke-dasharray:2.31 2.31;}.cls-20{stroke-dasharray:2.93 2.93;}.cls-21{fill:#fe0002;stroke:#b70009;}</style></defs><rect class="cls-1" width="300" height="300"/><polygon class="cls-2" points="85.21 187.78 131.26 182.03 174.02 187.07 215.51 172.91 213.93 167.3 135.83 161.01 84.99 185.21 84.1 187.87 85.21 187.78"/><polygon class="cls-3" points="86.85 185.69 131.79 173.1 174 184.84 213.15 171.57 200.55 118.29 169.91 123.91 136.89 118.29 102.51 124.25 86.85 185.69"/><polyline class="cls-4" points="119.87 157.03 133.4 155.91 147.57 160.89 172.47 167.52 194.43 159.99"/><polyline class="cls-5" points="119.87 157.03 133.4 155.91 147.57 160.89 172.47 167.52 194.43 159.99"/><line class="cls-4" x1="148.6" y1="154.25" x2="148.06" y2="161.01"/><line class="cls-4" x1="165.16" y1="139.6" x2="172.09" y2="150.03"/><circle class="cls-4" cx="202.05" cy="158.08" r="8.21"/><circle class="cls-6" cx="202.05" cy="158.08" r="4.14"/><path class="cls-6" d="M172.09,141.55l28.08-16.33.58,2.49a3.33,3.33,0,0,1-.73,2.78L184.52,149a3.77,3.77,0,0,1-5.68.07Z"/><path class="cls-7" d="M195.93,175.14s.45-6-3.06-7.17-18.93,4.09-20,4.6-18.89-3.32-22.91-5-15.83-8.39-16.63-8.39-8,3.25-9.77,5.18c0,0-9.6-.3-9-10.06s22.08-18.7,23.68-18.64,25.28-1.28,28.4-3.19a7.19,7.19,0,0,0,3.86-6.46l-4.58-.6s-.17,2.84-5,3.74-21.7,2.42-22.78,2.36-9.07,2.17-15,7.28-17.07,9.34-14,24.57c2.68,7.31,9.22,6.54,9.22,6.54l-2,5.35,15.3-4.28L174,182.63Z"/><polygon class="cls-8" points="102.96 133.95 102.19 137.78 112.49 136.08 113.23 132.08 102.96 133.95"/><polygon class="cls-8" points="100.02 146.92 98.5 153.9 107.95 151.84 108.93 145.04 100.02 146.92"/><polygon class="cls-8" points="97.08 157.78 94.6 169.25 101.84 167.4 104.14 156.49 97.08 157.78"/><polygon class="cls-9" points="129.54 121.47 118.96 123.49 118.69 126.99 129.44 124.88 129.54 121.47"/><polygon class="cls-8" points="106.28 139.03 105.51 142.86 117.62 140.68 118.36 136.68 106.28 139.03"/><polygon class="cls-8" points="101.55 139.65 100.79 144.18 103.52 144.18 104.27 139.48 101.55 139.65"/><polygon class="cls-8" points="130.95 126.8 135.22 125.08 138.45 125.08 138.93 120.19 136.34 119.75 131.43 120.7 130.95 126.8"/><polygon class="cls-8" points="140.59 120.55 140.33 125.01 148.47 124.85 148.47 121.95 140.59 120.55"/><polygon class="cls-8" points="153.83 126.07 153.94 126.09 162.46 127.61 162.46 124.87 154.37 123.11 153.83 126.07"/><polygon class="cls-8" points="134.57 148.1 139.51 154.25 143.15 152.25 137.87 145.89 134.57 148.1"/><path class="cls-8" d="M146.55,144.05l2.6,6.11,3.87-.46s-2.57-6.13-2.62-6.11Z"/><polygon class="cls-8" points="160.63 142.69 163.52 148.97 167.33 148.38 164.19 142.26 160.63 142.69"/><polyline class="cls-8" points="152.36 158.4 170.71 155.01 176.2 160.63 172.09 162.13 152.36 158.57"/><polyline class="cls-4" points="103.38 124.1 134.43 137.91 138.64 141.99 168.38 139.31 200.81 122.33"/><polyline class="cls-4" points="88.34 183.99 137.93 141.3 148.6 154.25 172.09 150.03 178.98 157.18 203.83 132.16"/><line class="cls-10" x1="119.87" y1="157.03" x2="121.36" y2="156.91"/><line class="cls-11" x1="124.88" y1="156.62" x2="130.15" y2="156.18"/><line class="cls-10" x1="131.91" y1="156.03" x2="133.4" y2="155.91"/><line class="cls-10" x1="148.6" y1="154.25" x2="148.48" y2="155.74"/><line class="cls-10" x1="148.18" y1="159.52" x2="148.06" y2="161.01"/><line class="cls-10" x1="165.16" y1="139.6" x2="165.99" y2="140.85"/><line class="cls-12" x1="167.74" y1="143.5" x2="170.38" y2="147.46"/><line class="cls-10" x1="171.26" y1="148.78" x2="172.09" y2="150.03"/><path class="cls-13" d="M210.25,158.08a8.2,8.2,0,0,1-8.2,8.2c-10.89-.43-10.88-16,0-16.41a8.21,8.21,0,0,1,8.2,8.21Z"/><line class="cls-10" x1="103.38" y1="124.1" x2="104.75" y2="124.71"/><polyline class="cls-14" points="107.34 125.86 134.43 137.91 136.54 139.96"/><polyline class="cls-10" points="137.56 140.95 138.64 141.99 140.13 141.86"/><polyline class="cls-15" points="143.14 141.59 168.38 139.31 198.14 123.73"/><line class="cls-10" x1="199.48" y1="123.03" x2="200.81" y2="122.33"/><line class="cls-10" x1="88.34" y1="183.99" x2="89.48" y2="183.01"/><line class="cls-16" x1="91.73" y1="181.07" x2="135.66" y2="143.25"/><polyline class="cls-10" points="136.79 142.28 137.93 141.3 138.88 142.46"/><line class="cls-17" x1="140.63" y1="144.58" x2="146.77" y2="152.03"/><polyline class="cls-10" points="147.64 153.09 148.6 154.25 150.07 153.98"/><line class="cls-18" x1="153.01" y1="153.46" x2="169.14" y2="150.56"/><polyline class="cls-10" points="170.61 150.3 172.09 150.03 173.13 151.11"/><line class="cls-19" x1="174.73" y1="152.78" x2="177.14" y2="155.27"/><polyline class="cls-10" points="177.94 156.1 178.98 157.18 180.04 156.12"/><line class="cls-20" x1="182.1" y1="154.04" x2="201.74" y2="134.27"/><line class="cls-10" x1="202.78" y1="133.23" x2="203.83" y2="132.16"/><path class="cls-21" d="M184.27,114.31c-5.29,0-9.58,5-9.58,11.1s9.58,18.77,9.58,18.77,9.57-12.63,9.57-18.77S189.56,114.31,184.27,114.31Zm0,12.68a4.15,4.15,0,1,1,4.15-4.15A4.15,4.15,0,0,1,184.27,127Z"/></svg>