<svg id="Layer_1" data-name="Layer 1" xmlns="http://www.w3.org/2000/svg" viewBox="0 0 300 300"><defs><style>.cls-1{fill:#a4e1fe;}.cls-1,.cls-10,.cls-11,.cls-12,.cls-13,.cls-14,.cls-15,.cls-16,.cls-3,.cls-4,.cls-5,.cls-7,.cls-8,.cls-9{stroke:#364562;stroke-miterlimit:10;}.cls-1,.cls-10,.cls-8,.cls-9{stroke-width:2px;}.cls-2,.cls-7,.cls-9{fill:#d4f3ff;}.cls-15,.cls-16,.cls-3{fill:#79bf67;}.cls-3,.cls-4{stroke-width:1.56px;}.cls-4{fill:#a6d898;}.cls-10,.cls-11,.cls-12,.cls-14,.cls-5{fill:#f9af72;}.cls-5{stroke-width:2.27px;}.cls-6{fill:#ffd5b6;}.cls-7{stroke-width:1.94px;}.cls-8{fill:#ffe2cc;opacity:0.15;}.cls-12,.cls-16{stroke-linecap:round;}.cls-13{fill:none;stroke-width:1.12px;}.cls-14{stroke-width:1.25px;}.cls-15{stroke-width:0.97px;}</style></defs><path class="cls-1" d="M186.31,214.55,182.77,201a32.18,32.18,0,0,0-16.28-62.26L163,125.2a46.18,46.18,0,1,1,23.36,89.35Z"/><path class="cls-2" d="M184,214.18l-.47-1.81c9.48-3.79,19.46-9,24.7-18A46.18,46.18,0,0,0,171.32,125,46.28,46.28,0,0,1,219,159.37c3.12,11.93.13,24.23-6.1,34.87s-17,16.82-29,19.94"/><rect class="cls-1" x="126.3" y="211.18" width="27" height="4.94"/><path class="cls-3" d="M131.4,170.92h8.89a4.65,4.65,0,0,1,4.65,4.65v2.51a4.65,4.65,0,0,1-4.65,4.65H131.4a0,0,0,0,1,0,0V170.92A0,0,0,0,1,131.4,170.92Z" transform="translate(315.01 38.65) rotate(90)"/><path class="cls-4" d="M144.09,176.06V179a4.66,4.66,0,0,1-4.66,4.66h-2.51a4.66,4.66,0,0,1-4.66-4.66v-2.89"/><rect class="cls-5" x="134.14" y="90.51" width="8.07" height="7.28" transform="translate(232.33 -44.02) rotate(90)"/><path class="cls-6" d="M141.82,95.45v2.74h-7.28V95.44C136.69,95.53,139.48,95.59,141.82,95.45Z"/><path class="cls-5" d="M141.82,95.2v.25c-2.34.14-5.13.08-7.28,0v-.2Z"/><path class="cls-5" d="M123.24,203.35h33.12a0,0,0,0,1,0,0v3.74a4.21,4.21,0,0,1-4.21,4.21H127.45a4.21,4.21,0,0,1-4.21-4.21v-3.74A0,0,0,0,1,123.24,203.35Z"/><polyline class="cls-7" points="132.3 216.12 126.3 216.12 126.3 211.49 132.48 211.49"/><path class="cls-1" d="M153.3,211.18v.12h-1.15a3.85,3.85,0,0,0,1-.12Z"/><path class="cls-8" d="M133.45,211.3h-6a3.85,3.85,0,0,1-1-.12,4.19,4.19,0,0,1-3.24-4.09v-3.73"/><path class="cls-1" d="M153.3,211.18v.12h-1.15a3.85,3.85,0,0,0,1-.12Z"/><path class="cls-5" d="M153.3,211.18v.12h-1.15a3.85,3.85,0,0,0,1-.12Z"/><rect class="cls-1" x="123.71" y="98.41" width="28.94" height="75.06" rx="3.88"/><path class="cls-9" d="M133.59,173.47h-6a3.87,3.87,0,0,1-3.88-3.88V102.3a3.88,3.88,0,0,1,3.88-3.89h6"/><path class="cls-1" d="M123.62,76.71h29.12a0,0,0,0,1,0,0v.56a14.56,14.56,0,0,1-14.56,14.56h0a14.56,14.56,0,0,1-14.56-14.56v-.56A0,0,0,0,1,123.62,76.71Z"/><path class="cls-9" d="M144.07,90.58a14.3,14.3,0,0,1-5.89,1.25,14.56,14.56,0,0,1-14.56-14.56v-.56h10.54"/><path class="cls-10" d="M184.95,198.47h0a11.38,11.38,0,0,1,11.38,11.38v13.5a0,0,0,0,1,0,0H173.57a0,0,0,0,1,0,0v-13.5A11.38,11.38,0,0,1,184.95,198.47Z"/><circle class="cls-10" cx="160.51" cy="132.21" r="11.38"/><circle class="cls-3" cx="160.51" cy="132.21" r="5.38"/><circle class="cls-3" cx="184.86" cy="208.97" r="5.38"/><path class="cls-11" d="M100.21,215.82h98.35a9.06,9.06,0,0,1,9.06,9.06v2.47a0,0,0,0,1,0,0H91.15a0,0,0,0,1,0,0v-2.47A9.06,9.06,0,0,1,100.21,215.82Z"/><rect class="cls-5" x="121.11" y="157.35" width="34.14" height="9"/><polyline class="cls-8" points="127.11 166.36 121.11 166.36 121.11 157.36 127.11 157.36"/><path class="cls-5" d="M141.82,95.2v.25c-2.34.14-5.13.08-7.28,0v-.2Z"/><path class="cls-8" d="M157.75,121.17A11.38,11.38,0,0,1,166.34,142"/><path class="cls-8" d="M175.56,203.36a11.65,11.65,0,0,1,1.86-2.07,11.38,11.38,0,0,1,18.32,12.07"/><line class="cls-12" x1="157.8" y1="221.24" x2="202.51" y2="221.24"/><line class="cls-12" x1="144.89" y1="221.24" x2="152.45" y2="221.24"/><ellipse class="cls-13" cx="93.83" cy="92.45" rx="16.56" ry="5.77" transform="translate(-30.93 134.73) rotate(-63.3)"/><ellipse class="cls-13" cx="93.83" cy="92.45" rx="5.77" ry="16.56" transform="translate(-16.78 163.98) rotate(-77.47)"/><circle class="cls-14" cx="94.05" cy="92.06" r="2.06"/><circle class="cls-15" cx="95.49" cy="79.81" r="2.06"/><circle class="cls-15" cx="91.54" cy="105.89" r="2.06"/><line class="cls-16" x1="69.25" y1="228.13" x2="220.9" y2="228.13"/><line class="cls-16" x1="225.07" y1="228.13" x2="230.75" y2="228.13"/></svg>