<svg id="Layer_1" data-name="Layer 1" xmlns="http://www.w3.org/2000/svg" viewBox="0 0 300 300"><defs><style>.cls-1{fill:#ee353d;}.cls-2,.cls-5{fill:#333;}.cls-2{opacity:0.2;}.cls-3{fill:#e7ddba;}.cls-4,.cls-6,.cls-7{fill:none;stroke-miterlimit:10;}.cls-4,.cls-6{stroke:#ee353d;}.cls-6{stroke-linecap:round;stroke-width:0.5px;}.cls-7{stroke:#333;stroke-width:3px;}</style></defs><rect class="cls-1" width="300" height="300"/><ellipse class="cls-2" cx="148.52" cy="214.89" rx="13.95" ry="4.88"/><ellipse class="cls-2" cx="205.17" cy="226.01" rx="13.95" ry="4.88"/><ellipse class="cls-2" cx="94.83" cy="227.2" rx="13.95" ry="4.88"/><polyline class="cls-3" points="206.61 111.01 300 45.04 300 204.78 206.61 153.9"/><line class="cls-4" x1="192.38" y1="130.57" x2="300" y2="78.25"/><line class="cls-4" x1="192.38" y1="130.57" x2="300" y2="94.97"/><line class="cls-4" x1="192.38" y1="130.57" x2="300" y2="109.81"/><line class="cls-4" x1="192.38" y1="130.57" x2="300" y2="123.03"/><line class="cls-4" x1="192.38" y1="131.25" x2="300" y2="183.57"/><line class="cls-4" x1="192.38" y1="131.25" x2="300" y2="166.85"/><line class="cls-4" x1="192.38" y1="131.25" x2="300" y2="152.01"/><line class="cls-4" x1="192.38" y1="131.25" x2="300" y2="141.63"/><path class="cls-3" d="M115.19,87.49a11.89,11.89,0,1,0,11.88,11.89A11.89,11.89,0,0,0,115.19,87.49Zm-6.06,17.31a1.55,1.55,0,1,1,.56-2.11A1.54,1.54,0,0,1,109.13,104.8Zm.56-8.45a1.54,1.54,0,1,1-.56-2.11A1.55,1.55,0,0,1,109.69,96.35Zm5.5,12.6a1.55,1.55,0,1,1,1.54-1.54A1.54,1.54,0,0,1,115.19,109Zm-.79-9.57a.79.79,0,1,1,.79.79A.79.79,0,0,1,114.4,99.38Zm.79-6.21a1.55,1.55,0,1,1,1.54-1.54A1.54,1.54,0,0,1,115.19,93.17Zm8.16,11.06a1.54,1.54,0,1,1-.56-2.11A1.54,1.54,0,0,1,123.35,104.23Zm-.56-7.32a1.54,1.54,0,1,1,.56-2.11A1.55,1.55,0,0,1,122.79,96.91Z"/><path class="cls-3" d="M149.13,70.29a19.8,19.8,0,1,0,19.8,19.79A19.79,19.79,0,0,0,149.13,70.29ZM139,99.12A2.57,2.57,0,1,1,140,95.6,2.57,2.57,0,0,1,139,99.12ZM140,85a2.57,2.57,0,1,1-.94-3.51A2.56,2.56,0,0,1,140,85Zm9.15,21a2.58,2.58,0,1,1,2.58-2.57A2.57,2.57,0,0,1,149.13,106Zm-1.31-16a1.32,1.32,0,1,1,1.31,1.32A1.31,1.31,0,0,1,147.82,90.08Zm1.31-10.33a2.57,2.57,0,1,1,2.58-2.57A2.57,2.57,0,0,1,149.13,79.75Zm13.61,18.42a2.57,2.57,0,1,1-.94-3.51A2.57,2.57,0,0,1,162.74,98.17ZM161.8,86a2.57,2.57,0,1,1,.94-3.52A2.57,2.57,0,0,1,161.8,86Z"/><rect class="cls-5" x="190.86" y="123.98" width="5.96" height="16.96"/><polygon class="cls-5" points="206.61 153.9 196.79 140.93 196.79 123.98 206.61 111.01 206.61 153.9"/><rect class="cls-5" x="99.04" y="139.63" width="3.63" height="6.71" transform="translate(201.71 285.98) rotate(-180)"/><path class="cls-5" d="M96,147.35l3.11-1v-6.72l-3.11-1a.39.39,0,0,0-.52.38v8A.4.4,0,0,0,96,147.35Z"/><rect class="cls-5" x="101.84" y="108.08" width="90.54" height="48.75" rx="3.57"/><rect class="cls-1" x="112.82" y="143.08" width="3.96" height="3.96"/><rect class="cls-1" x="118.49" y="143.08" width="3.96" height="3.96"/><rect class="cls-1" x="124.16" y="143.08" width="3.96" height="3.96"/><rect class="cls-1" x="129.84" y="143.08" width="3.96" height="3.96"/><rect class="cls-1" x="135.51" y="143.08" width="3.96" height="3.96"/><rect class="cls-1" x="141.18" y="143.08" width="3.96" height="3.96"/><rect class="cls-1" x="146.86" y="143.08" width="3.96" height="3.96"/><rect class="cls-1" x="152.53" y="143.08" width="3.96" height="3.96"/><rect class="cls-1" x="158.2" y="143.08" width="3.96" height="3.96"/><rect class="cls-1" x="163.87" y="143.08" width="3.96" height="3.96"/><rect class="cls-1" x="169.55" y="143.08" width="3.96" height="3.96"/><rect class="cls-1" x="175.22" y="143.08" width="3.96" height="3.96"/><rect class="cls-1" x="180.89" y="143.08" width="3.96" height="3.96"/><line class="cls-6" x1="112.82" y1="140.56" x2="184.85" y2="140.56"/><line class="cls-6" x1="112.82" y1="149.56" x2="184.85" y2="149.56"/><path class="cls-5" d="M111.57,159.41v1.41a5,5,0,0,0,5,5h62.81a5,5,0,0,0,5-5v-1.41Zm8.46,3.2a1.73,1.73,0,0,1-3.45,0h0a1.73,1.73,0,1,1,3.45,0Zm4.94,0a1.73,1.73,0,0,1-3.45,0h0a1.73,1.73,0,1,1,3.45,0Zm4.94,0a1.73,1.73,0,0,1-3.45,0h0a1.73,1.73,0,1,1,3.45,0Zm5,0a1.73,1.73,0,0,1-3.45,0h0a1.73,1.73,0,1,1,3.45,0Zm4.94,0a1.73,1.73,0,0,1-3.45,0h0a1.73,1.73,0,1,1,3.45,0Zm4.94,0a1.73,1.73,0,0,1-3.45,0h0a1.73,1.73,0,1,1,3.45,0Zm4.94,0a1.73,1.73,0,0,1-3.45,0h0a1.73,1.73,0,1,1,3.45,0Zm4.94,0a1.73,1.73,0,0,1-3.45,0h0a1.73,1.73,0,1,1,3.45,0Zm4.94,0a1.73,1.73,0,0,1-3.45,0h0a1.73,1.73,0,1,1,3.45,0Zm4.94,0a1.73,1.73,0,0,1-3.45,0h0a1.73,1.73,0,1,1,3.45,0Zm4.95,0a1.73,1.73,0,0,1-3.45,0h0a1.73,1.73,0,1,1,3.45,0Zm4.94,0a1.73,1.73,0,0,1-3.45,0h0a1.73,1.73,0,1,1,3.45,0Zm4.94,0a1.73,1.73,0,0,1-3.45,0h0a1.73,1.73,0,1,1,3.45,0Z"/><line class="cls-7" x1="130.37" y1="164.81" x2="95.43" y2="225.58"/><ellipse class="cls-5" cx="94.83" cy="226.01" rx="5.2" ry="3.7"/><line class="cls-7" x1="169.63" y1="164.81" x2="204.57" y2="225.58"/><ellipse class="cls-5" cx="205.17" cy="226.01" rx="5.2" ry="3.7"/><line class="cls-7" x1="149.23" y1="164.33" x2="148.52" y2="213.67"/><ellipse class="cls-5" cx="148.84" cy="214.23" rx="5.2" ry="3.7"/></svg>