<svg id="Layer_1" data-name="Layer 1" xmlns="http://www.w3.org/2000/svg" viewBox="0 0 300 300"><defs><style>.cls-1{fill:#022659;opacity:0.3;}.cls-2{fill:#c17638;}.cls-3{fill:#6d3916;}.cls-4{fill:#86be39;}.cls-5{fill:#df829b;}.cls-6{fill:#f9c344;}.cls-7{fill:#8dd8d5;}.cls-8{fill:#fafafa;}.cls-11,.cls-9{fill:none;stroke:#053035;stroke-miterlimit:10;}.cls-9{stroke-width:0.3px;}.cls-10{fill:#e4f0f9;}.cls-11{stroke-linecap:round;stroke-width:0.6px;}</style></defs><polyline class="cls-1" points="84.85 227.7 189.1 300 300 300 300 99.66 198.68 70.11"/><path class="cls-2" d="M71.31,79H222.72a8.23,8.23,0,0,1,8.23,8.23V212.72a8.24,8.24,0,0,1-8.24,8.24H71.31a8.23,8.23,0,0,1-8.23-8.23V87.28A8.23,8.23,0,0,1,71.31,79Z" transform="translate(297.01 2.99) rotate(90)"/><rect class="cls-3" x="81.37" y="70.15" width="133.73" height="159.7" rx="6.29"/><path class="cls-4" d="M221.43,106.08l-23.51,1.45c-1.9.11-3.62-.65-3.83-1.71L192.33,97c-.21-1.06,1.16-2,3.06-2.13l23.51-1.45c1.9-.11,3.61.65,3.83,1.7l1.76,8.84C224.7,105,223.33,106,221.43,106.08Z"/><path class="cls-5" d="M218.54,131,195,129.6c-1.9-.12-3.28-1.07-3.08-2.12l1.71-8.85c.21-1,1.92-1.82,3.82-1.7l23.52,1.4c1.9.11,3.27,1.06,3.07,2.12l-1.71,8.84C222.15,130.35,220.45,131.11,218.54,131Z"/><path class="cls-6" d="M219.5,151.31,196,149.9c-1.9-.11-3.28-1.06-3.07-2.12l1.71-8.84c.2-1.06,1.91-1.82,3.81-1.71L222,138.64c1.9.11,3.28,1.06,3.08,2.12l-1.72,8.84C223.11,150.66,221.4,151.42,219.5,151.31Z"/><path class="cls-7" d="M222.94,168.59,199.43,170c-1.9.12-3.61-.64-3.82-1.7l-1.77-8.84c-.21-1.05,1.16-2,3.06-2.12l23.51-1.45c1.9-.12,3.62.64,3.83,1.7l1.76,8.84C226.21,167.53,224.84,168.48,222.94,168.59Z"/><rect class="cls-8" x="80.14" y="69.91" width="133.73" height="159.7" rx="7.16"/><line class="cls-9" x1="92.19" y1="89.99" x2="201.83" y2="89.99"/><line class="cls-9" x1="92.19" y1="99.75" x2="201.83" y2="99.75"/><line class="cls-9" x1="92.19" y1="109.51" x2="201.83" y2="109.51"/><line class="cls-9" x1="92.19" y1="119.27" x2="201.83" y2="119.27"/><line class="cls-9" x1="92.19" y1="129.03" x2="201.83" y2="129.03"/><line class="cls-9" x1="92.19" y1="138.8" x2="201.83" y2="138.8"/><line class="cls-9" x1="92.19" y1="148.56" x2="201.83" y2="148.56"/><line class="cls-9" x1="92.19" y1="158.32" x2="201.83" y2="158.32"/><line class="cls-9" x1="92.19" y1="168.08" x2="201.83" y2="168.08"/><line class="cls-9" x1="92.19" y1="177.84" x2="201.83" y2="177.84"/><line class="cls-9" x1="92.19" y1="187.61" x2="201.83" y2="187.61"/><line class="cls-9" x1="92.19" y1="197.37" x2="201.83" y2="197.37"/><line class="cls-9" x1="92.19" y1="207.13" x2="201.83" y2="207.13"/><line class="cls-9" x1="92.19" y1="216.89" x2="201.83" y2="216.89"/><rect class="cls-10" x="83.22" y="87.88" width="4.22" height="4.22"/><rect class="cls-10" x="83.22" y="97.64" width="4.22" height="4.22"/><rect class="cls-10" x="83.22" y="107.4" width="4.22" height="4.22"/><rect class="cls-10" x="83.22" y="117.16" width="4.22" height="4.22"/><rect class="cls-10" x="83.22" y="126.92" width="4.22" height="4.22"/><rect class="cls-10" x="83.22" y="136.69" width="4.22" height="4.22"/><rect class="cls-10" x="83.22" y="146.45" width="4.22" height="4.22"/><rect class="cls-10" x="83.22" y="156.21" width="4.22" height="4.22"/><rect class="cls-10" x="83.22" y="165.97" width="4.22" height="4.22"/><rect class="cls-10" x="83.22" y="175.73" width="4.22" height="4.22"/><rect class="cls-10" x="83.22" y="185.5" width="4.22" height="4.22"/><rect class="cls-10" x="83.22" y="195.26" width="4.22" height="4.22"/><rect class="cls-10" x="83.22" y="205.02" width="4.22" height="4.22"/><rect class="cls-10" x="83.22" y="214.78" width="4.22" height="4.22"/><line class="cls-11" x1="73.98" y1="88.96" x2="85.13" y2="88.96"/><line class="cls-11" x1="73.98" y1="91.01" x2="85.13" y2="91.01"/><line class="cls-11" x1="73.98" y1="98.73" x2="85.13" y2="98.73"/><line class="cls-11" x1="73.98" y1="100.77" x2="85.13" y2="100.77"/><line class="cls-11" x1="73.98" y1="108.49" x2="85.13" y2="108.49"/><line class="cls-11" x1="73.98" y1="110.53" x2="85.13" y2="110.53"/><line class="cls-11" x1="73.98" y1="118.25" x2="85.13" y2="118.25"/><line class="cls-11" x1="73.98" y1="120.29" x2="85.13" y2="120.29"/><line class="cls-11" x1="73.98" y1="128.01" x2="85.13" y2="128.01"/><line class="cls-11" x1="73.98" y1="130.06" x2="85.13" y2="130.06"/><line class="cls-11" x1="73.98" y1="137.77" x2="85.13" y2="137.77"/><line class="cls-11" x1="73.98" y1="139.82" x2="85.13" y2="139.82"/><line class="cls-11" x1="73.98" y1="147.54" x2="85.13" y2="147.54"/><line class="cls-11" x1="73.98" y1="149.58" x2="85.13" y2="149.58"/><line class="cls-11" x1="73.98" y1="157.3" x2="85.13" y2="157.3"/><line class="cls-11" x1="73.98" y1="159.34" x2="85.13" y2="159.34"/><line class="cls-11" x1="73.98" y1="167.06" x2="85.13" y2="167.06"/><line class="cls-11" x1="73.98" y1="169.1" x2="85.13" y2="169.1"/><line class="cls-11" x1="73.98" y1="176.82" x2="85.13" y2="176.82"/><line class="cls-11" x1="73.98" y1="178.87" x2="85.13" y2="178.87"/><line class="cls-11" x1="73.98" y1="186.58" x2="85.13" y2="186.58"/><line class="cls-11" x1="73.98" y1="188.63" x2="85.13" y2="188.63"/><line class="cls-11" x1="73.98" y1="196.35" x2="85.13" y2="196.35"/><line class="cls-11" x1="73.98" y1="198.39" x2="85.13" y2="198.39"/><line class="cls-11" x1="73.98" y1="206.11" x2="85.13" y2="206.11"/><line class="cls-11" x1="73.98" y1="208.15" x2="85.13" y2="208.15"/><line class="cls-11" x1="73.98" y1="215.87" x2="85.13" y2="215.87"/><line class="cls-11" x1="73.98" y1="217.91" x2="85.13" y2="217.91"/></svg>