<svg id="Layer_1" data-name="Layer 1" xmlns="http://www.w3.org/2000/svg" viewBox="0 0 300 300"><defs><style>.cls-1{fill:#ffeec3;}.cls-12,.cls-2,.cls-4,.cls-9{fill:#2d3f49;}.cls-2{opacity:0.15;}.cls-3{fill:#c7eeff;}.cls-10,.cls-11,.cls-13,.cls-14,.cls-3,.cls-4,.cls-5,.cls-6,.cls-8,.cls-9{stroke:#2d3f49;}.cls-10,.cls-11,.cls-13,.cls-14,.cls-15,.cls-16,.cls-3,.cls-4,.cls-5,.cls-6,.cls-7,.cls-8,.cls-9{stroke-miterlimit:10;}.cls-10,.cls-11,.cls-15,.cls-16,.cls-3,.cls-5,.cls-6,.cls-8,.cls-9{stroke-width:1.1px;}.cls-4{stroke-width:1.06px;}.cls-5{fill:#eeeddb;}.cls-6{fill:#f9be69;}.cls-14,.cls-16,.cls-7{fill:none;}.cls-16,.cls-7{stroke:#fff;}.cls-13,.cls-14,.cls-7{stroke-width:0.63px;}.cls-8{fill:#e56034;}.cls-10{fill:#c2c0c0;}.cls-11{fill:#5f4e74;}.cls-13,.cls-15,.cls-18{fill:#fff;}.cls-15{stroke:#e56034;}.cls-15,.cls-16,.cls-17{opacity:0.3;}</style></defs><rect class="cls-1" width="300" height="300"/><path class="cls-2" d="M147.53,215.68c0,1.91-7.43,5.9-18.3,5.9s-19.67-1.55-19.67-3.47,8.8-3.46,19.67-3.46S147.53,213.77,147.53,215.68Z"/><path class="cls-2" d="M203,208.72c0,1.91-7.39,5.9-18.19,5.9s-27-2.25-27-4.16,16.18-2.77,27-2.77S203,206.81,203,208.72Z"/><path class="cls-3" d="M183.78,139.41s9.95,5.57,7,8.46-16.76,8.59-9.54,12.31,16,8.73,19.19,8.24,5.28-2.68,2.93-11.12-10.49-1.79-10.65-.05,3.9,3.15,4.76,3.43c0,0-11.46-2.05-12.6-3.71s12.81-3.37,14.13-4.15,5.78-3.07,2.41-7-17.1-14.79-17.1-14.79Z"/><path class="cls-3" d="M143.36,141.7s-7,11.45-16.42,12.51c0,0,2.58-9,2-15,0,0-8.44-7.53-9.06,2.14,0,0,2.91,13.22,2.43,16.26s6.11,4.5,12,1.38a42.26,42.26,0,0,0,9.69-7Z"/><path class="cls-4" d="M156.37,90.9a60.71,60.71,0,0,0,18.62,1L164.67,78.42Z"/><path class="cls-5" d="M143.86,106l3.34,11.6,34.35-3.91,4.63-5.85L175.51,92.56h0a67.44,67.44,0,0,1-19.71-.76Z"/><path class="cls-3" d="M141.09,167.05c12.08,5,26.45,5.55,42.5,1.8l.27-5.89c-16.07,3.75-30.42,3-42.51-1.93Z"/><path class="cls-6" d="M141.35,161c12.09,5,26.44,5.68,42.51,1.93l2.45-54.49c-16.7,3.52-30.84,2.83-42.51-1.91Z"/><path class="cls-7" d="M183.81,168.8l-.22,0"/><path class="cls-7" d="M141.09,167.05l-.12,0"/><path class="cls-3" d="M117.69,131.41s4.48,2.89,4.82,3.62-1.86,5.23-5,4.95-7.92-4.25-8.51-5.43-2.12-5.7,1.51-8.27,5-1.72,5.38,1.14S115.76,130.54,117.69,131.41Z"/><path class="cls-8" d="M166.55,180.4S174,207.23,173.68,210c0,0,24.71,6.24,31.54-2.48,4.65-5.61-17.33-18.2-26.73-7.5l-3.06-20.88Z"/><path class="cls-9" d="M144,215.6a14,14,0,0,0,3.24.27v0c4.89-18.93-13.55-26.49-19.34-28.36a6,6,0,0,0-.45,1.77C127.12,200.08,134.65,213.71,144,215.6Z"/><path class="cls-8" d="M147.28,215.84v0a10.12,10.12,0,0,0,9-6.36c-3.67-18.46,4.06-28.46,4.06-28.46.9-2-8.1-1.06-8.1-1.06-1.85,1.37-4.12,15.94-4.12,15.94-1.33-3.72-17.08-15.61-20.14-8.45C133.73,189.35,152.17,196.91,147.28,215.84Z"/><path class="cls-10" d="M105.16,119.41s1.62,1.71,4.12,4.16a10.5,10.5,0,0,0,6.76-7.78c-2.9-2.08-4.92-3.4-4.92-3.4C104.43,116.59,105.16,119.41,105.16,119.41Z"/><path class="cls-11" d="M109.28,123.57c7.49,7.34,22.91,21.29,26.82,15.8S124.37,121.74,116,115.79A10.5,10.5,0,0,1,109.28,123.57Z"/><path class="cls-9" d="M94.25,106.12c1.81,2.92,4.88,4.88,5.82,3.41,1-1.63,5.25-2.34,6.6-1.47,1.2.76,3.15-.55,3.67-.82a9.74,9.74,0,0,0-5.14-3.57c-8-2.9-5-5.57-4.85-5.74C100.05,98.08,93.93,100.56,94.25,106.12Z"/><path class="cls-8" d="M96.54,113.61c3.92,5,9.75,4.49,12.46,3.94a4,4,0,0,0,2.87-2.2,2.11,2.11,0,0,0,.17-1.46,6.45,6.45,0,0,1-.16-1.86,7.79,7.79,0,0,0-1.36-4.55c-.51.28-2.71,1.34-3.91.58-1.36-.87-5.56-.16-6.6,1.47-1,1.47-4-.49-5.83-3.41C94,108.23,94.55,110.73,96.54,113.61Z"/><path class="cls-12" d="M150,147.49l-.65,15.73-.64,0c.1,0,1-15.93,1.29-15.69Z"/><path class="cls-12" d="M173.91,137.85a4.47,4.47,0,0,1,1,4c-.58,2.84-2.76,7.55-10.77,7.76-11.49.3-12.64-11.28-12-12.61s3.43-2.8,9.28,1.38C165.08,140.75,170.4,134.15,173.91,137.85Z"/><line class="cls-7" x1="169.16" y1="137.21" x2="168.56" y2="148.77"/><line class="cls-7" x1="162.96" y1="138.93" x2="161.91" y2="149.44"/><line class="cls-7" x1="158.65" y1="136.69" x2="155.34" y2="146.22"/><path class="cls-12" d="M180.11,118.11c-4.12,3.11-8.21,6.58-12.63,9.29l-.08-.61a77.84,77.84,0,0,1,9.57,1.66,10.84,10.84,0,0,1,3.11,1.21l-.38.51a20.08,20.08,0,0,0-6-1.79c-2.44-.47-4.93-.78-7.4-1.09a28.23,28.23,0,0,0,4.22-2.48c3.13-2.07,6.58-4.67,9.61-6.7Z"/><path class="cls-12" d="M179.4,124.2l-11.25,3.07-.15-.61s11.45-2.58,11.4-2.46Z"/><polygon class="cls-12" points="150.37 116.71 151.09 108.95 151.72 109.03 150.52 116.73 150.37 116.71 150.37 116.71"/><path class="cls-13" d="M144.15,128.88c1.81,4.8,6.79,7.36,11.13,5.74s6.4-6.86,4.59-11.66c0,0,0,0,0,0-3.33.1-12.07.18-15.47-1.62A9.72,9.72,0,0,0,144.15,128.88Z"/><path class="cls-14" d="M144.39,121.3c3.4,1.8,12.14,1.72,15.47,1.62-1.82-4.77-6.79-7.32-11.12-5.69A8,8,0,0,0,144.39,121.3Z"/><path class="cls-12" d="M157.34,123.17s1.17,7.94-1.71,8.24-4.51-8.77-4.51-8.77C151.06,123.4,156.82,122.27,157.34,123.17Z"/><path class="cls-8" d="M142.66,180.52q16.59,6.07,38,1.6a3.13,3.13,0,0,0,2.47-2.91l.46-10.36c-16.05,3.75-30.42,3.19-42.5-1.8l-.47,10.4A3.12,3.12,0,0,0,142.66,180.52Z"/><path class="cls-3" d="M129.16,125.09s-2.49-.25-3,.7-1.3,5.76-4.23,4.68-3.86-1.34-3.34-4,4-6.89,7-6.17S129.9,123.68,129.16,125.09Z"/><path class="cls-15" d="M142.27,168.56l-.44,8.8a3.46,3.46,0,0,0,2.76,2.61"/><line class="cls-16" x1="142.68" y1="166.8" x2="146.23" y2="107.88"/><g class="cls-17"><path class="cls-18" d="M156.45,91.45A104.31,104.31,0,0,0,164.89,79c-2,4.63-5.31,8.56-8.11,12.72l-.33-.25Z"/></g><path class="cls-12" d="M149.91,186.7s7.13-2.4,8.56-2.25c0,0-7.06-1.72-7.6-1.43S149.91,186.7,149.91,186.7Z"/><path class="cls-12" d="M168.71,189.15s5.8-5.39,7.21-5.66c0,0-7.43.25-7.82.77S168.71,189.15,168.71,189.15Z"/></svg>