<svg id="Layer_1" data-name="Layer 1" xmlns="http://www.w3.org/2000/svg" viewBox="0 0 300 300"><defs><style>.cls-1{opacity:0.15;}.cls-2{fill:#ffdcb3;stroke:#07152d;stroke-width:0.66px;}.cls-16,.cls-2{stroke-linecap:round;}.cls-10,.cls-11,.cls-12,.cls-15,.cls-16,.cls-2,.cls-3,.cls-4,.cls-7,.cls-9{stroke-miterlimit:10;}.cls-3{fill:#7e391a;}.cls-10,.cls-11,.cls-12,.cls-3,.cls-7,.cls-9{stroke:#000;}.cls-11,.cls-12,.cls-3,.cls-7{stroke-width:0.41px;}.cls-4{fill:#5e9c71;stroke-width:0.66px;}.cls-15,.cls-16,.cls-4{stroke:#031223;}.cls-5,.cls-6{fill:#85d39c;}.cls-5{opacity:0.25;}.cls-6{opacity:0.5;}.cls-7{fill:#c66d1e;}.cls-14,.cls-8{fill:#cfaa8f;}.cls-8{opacity:0.3;}.cls-10,.cls-16,.cls-9{fill:none;}.cls-10,.cls-9{stroke-width:0.2px;}.cls-10{stroke-dasharray:4.94 2.06;}.cls-11{fill:#704223;}.cls-12{fill:#c1b1a7;}.cls-13{fill:#f9be69;}.cls-14{opacity:0.1;}.cls-15{fill:#fcb742;stroke-width:0.08px;}.cls-16{stroke-width:0.22px;}</style></defs><g class="cls-1"><line class="cls-2" x1="31.62" y1="67.12" x2="108.22" y2="67.12"/><line class="cls-2" x1="97.62" y1="75.11" x2="37.12" y2="75.11"/><line class="cls-2" x1="45.07" y1="83.11" x2="89.68" y2="83.11"/><line class="cls-2" x1="49.86" y1="67.12" x2="49.86" y2="75.11"/><line class="cls-2" x1="58.15" y1="75.11" x2="58.15" y2="83.11"/><line class="cls-2" x1="79.1" y1="75.11" x2="79.1" y2="67.12"/><line class="cls-2" x1="97.06" y1="67.12" x2="97.06" y2="74.73"/><line class="cls-2" x1="82.05" y1="75.11" x2="82.05" y2="83.11"/><line class="cls-2" x1="57.04" y1="67.12" x2="57.04" y2="59.68"/><line class="cls-2" x1="90.22" y1="67.12" x2="90.22" y2="59.68"/><line class="cls-2" x1="70.47" y1="83.11" x2="70.47" y2="89.18"/></g><g class="cls-1"><line class="cls-2" x1="253.11" y1="173.84" x2="199.51" y2="173.84"/><line class="cls-2" x1="210.1" y1="165.85" x2="270.61" y2="165.85"/><line class="cls-2" x1="262.66" y1="157.85" x2="218.05" y2="157.85"/><line class="cls-2" x1="252.87" y1="173.84" x2="252.87" y2="165.85"/><line class="cls-2" x1="249.58" y1="165.85" x2="249.58" y2="157.85"/><line class="cls-2" x1="228.63" y1="165.85" x2="228.63" y2="173.84"/><line class="cls-2" x1="210.67" y1="173.84" x2="210.67" y2="166.23"/><line class="cls-2" x1="225.68" y1="165.85" x2="225.68" y2="157.85"/></g><path class="cls-3" d="M205.26,138.47v57.75a9.15,9.15,0,0,1-9.15,9.14h-85.7a9.13,9.13,0,0,1-9.15-9.14V138.47a9.14,9.14,0,0,1,9.15-9.14h85.7A9.15,9.15,0,0,1,205.26,138.47Z"/><path class="cls-4" d="M149.39,95.57l-11.88,15.55-2.35,3.08L124,128.77l-.49.65,30,.44-.11.16c0-.06.08-.11.13-.16l10.28.14,6.39-8.35,2.52-3.32,2.31-3,.07-.1a2.37,2.37,0,0,0-.44-3.33l-.31-.23L165.7,105l-11.11-8.48-1.87-1.43A2.38,2.38,0,0,0,149.39,95.57Z"/><path class="cls-5" d="M151.8,99.09a2,2,0,0,0-1.53.76l-1.56,2-7.1,9.29-4,5.29-9.93,13,25.89.38-.11.16c0-.06.08-.11.13-.16l6.17.09,11-14.44v0a1.94,1.94,0,0,0-.37-2.72l-1.56-1.19-3.13-2.4a3,3,0,0,0-2.67-.47l-.39.12h0a3.19,3.19,0,0,1-.6.12,2.93,2.93,0,0,1-3.2-3v-.4a2.89,2.89,0,0,0-1.15-2.44l-2.92-2.23L153,99.49A1.87,1.87,0,0,0,151.8,99.09Z"/><path class="cls-6" d="M147.27,117.29h0a5.47,5.47,0,0,0-.7,0h0c-.2,0-.4,0-.6.07l-.19,0-.53.11a7.32,7.32,0,0,0-.87.28,4.83,4.83,0,0,0-.58.25l0,0a6.63,6.63,0,0,0-.59.31,8.46,8.46,0,0,0-.73.49l-.56.47-.38.37a4.12,4.12,0,0,0-.28.31,3.47,3.47,0,0,0-.3.37c-.13.17-.26.35-.38.53s-.25.42-.36.62-.15.3-.21.46a7.91,7.91,0,0,0-.43,1.24,3.63,3.63,0,0,0-.1.45,1.77,1.77,0,0,0,0,.2.89.89,0,0,0,0,.15,3,3,0,0,0-.05.42q0,.3,0,.6v0c0,.24,0,.47,0,.7,0,0,0,0,0,0,0,.2,0,.4.07.6a1.42,1.42,0,0,0,0,.2,3.21,3.21,0,0,0,.11.52,5.19,5.19,0,0,0,.28.87,3.56,3.56,0,0,0,.24.58.09.09,0,0,0,0,0,5.71,5.71,0,0,0,.31.6c.09.13.17.27.27.41l12.95.19.27-.37c.12-.2.24-.42.35-.62l.22-.45a8.4,8.4,0,0,0,.43-1.25c0-.15.07-.3.09-.44s0-.15,0-.21a.89.89,0,0,0,0-.15,3.05,3.05,0,0,0,0-.41,4.26,4.26,0,0,0,0-.61v0a5.39,5.39,0,0,0,0-.7.08.08,0,0,0,0,0c0-.2,0-.4-.08-.6a1.38,1.38,0,0,0,0-.2c0-.17-.07-.35-.11-.52a6.78,6.78,0,0,0-.28-.87,4.83,4.83,0,0,0-.25-.58s0,0,0,0a6.63,6.63,0,0,0-.31-.59,8.46,8.46,0,0,0-.49-.73c-.14-.19-.3-.38-.46-.56l-.38-.39-.3-.27-.38-.31-.53-.38-.62-.35-.45-.22a8,8,0,0,0-1.25-.42,3.48,3.48,0,0,0-.44-.1l-.21,0-.15,0a3.05,3.05,0,0,0-.41,0Z"/><path class="cls-4" d="M154.69,96.46l-.1.09-2.79,2.54-3.09,2.8-10.17,9.25-3.38,3.06-16.67,15.16c.19,0,.4,0,.61,0l34.44.5-.11.16c0-.06.08-.11.13-.16l12.34.17,10.57-9.6a2.38,2.38,0,0,0,.17-3.36l-1.58-1.75-3.37-3.7-6-6.59-7.65-8.41A2.38,2.38,0,0,0,154.69,96.46Z"/><path class="cls-5" d="M154.8,100.83l0,0-11.41,10.36-5.79,5.26L124,128.77l-.71.65,30.21.44-.11.16c0-.06.08-.11.13-.16l7.5.1,9.17-8.31,1.9-1.74a2,2,0,0,0,.13-2.74l-1.5-1.66-2.47-2.72a3,3,0,0,0-2.53-.94l-.41.05a2.75,2.75,0,0,1-.4,0,3,3,0,0,1-1.47-.42,2.9,2.9,0,0,1-1.43-2.54,2.6,2.6,0,0,1,.07-.61l.09-.41a2.92,2.92,0,0,0-.7-2.6l-4-4.38A1.94,1.94,0,0,0,154.8,100.83Z"/><path class="cls-6" d="M147.27,117.29h0a5.47,5.47,0,0,0-.7,0h0c-.2,0-.4,0-.6.07l-.19,0-.53.11a7.32,7.32,0,0,0-.87.28,4.83,4.83,0,0,0-.58.25l0,0a6.63,6.63,0,0,0-.59.31,8.46,8.46,0,0,0-.73.49l-.56.47-.38.37a4.12,4.12,0,0,0-.28.31,3.47,3.47,0,0,0-.3.37c-.13.17-.26.35-.38.53s-.25.42-.36.62-.15.3-.21.46a7.91,7.91,0,0,0-.43,1.24,3.63,3.63,0,0,0-.1.45,1.77,1.77,0,0,0,0,.2.89.89,0,0,0,0,.15,3,3,0,0,0-.05.42q0,.3,0,.6v0c0,.24,0,.47,0,.7,0,0,0,0,0,0,0,.2,0,.4.07.6a1.42,1.42,0,0,0,0,.2,3.21,3.21,0,0,0,.11.52,5.19,5.19,0,0,0,.28.87,3.56,3.56,0,0,0,.24.58.09.09,0,0,0,0,0,5.71,5.71,0,0,0,.31.6c.09.13.17.27.27.41l12.95.19-.11.16c0-.06.08-.11.13-.16s.17-.25.25-.37.24-.42.35-.62l.22-.45a8.4,8.4,0,0,0,.43-1.25c0-.15.07-.3.09-.44s0-.15,0-.21a.89.89,0,0,0,0-.15,3.05,3.05,0,0,0,0-.41,4.26,4.26,0,0,0,0-.61v0a5.39,5.39,0,0,0,0-.7.08.08,0,0,0,0,0c0-.2,0-.4-.08-.6a1.38,1.38,0,0,0,0-.2c0-.17-.07-.35-.11-.52a6.78,6.78,0,0,0-.28-.87,4.83,4.83,0,0,0-.25-.58s0,0,0,0a6.63,6.63,0,0,0-.31-.59,8.46,8.46,0,0,0-.49-.73c-.14-.19-.3-.38-.46-.56l-.38-.39-.3-.27-.38-.31-.53-.38-.62-.35-.45-.22a8,8,0,0,0-1.25-.42,3.48,3.48,0,0,0-.44-.1l-.21,0-.15,0a3.05,3.05,0,0,0-.41,0Z"/><path class="cls-7" d="M198.75,138.47v57.75a9.15,9.15,0,0,1-9.15,9.14H103.89a9.14,9.14,0,0,1-9.14-9.14V138.47a9.14,9.14,0,0,1,9.14-9.14H189.6A9.15,9.15,0,0,1,198.75,138.47Z"/><path class="cls-8" d="M196.37,132.33H110.78A11.07,11.07,0,0,0,99.71,143.4v60.95a9.14,9.14,0,0,1-5-8.13V138.47a9.14,9.14,0,0,1,9.14-9.14H189.6A9.09,9.09,0,0,1,196.37,132.33Z"/><line class="cls-9" x1="94.74" y1="140.73" x2="97.19" y2="140.73"/><path class="cls-10" d="M99.25,140.73h86.28a2.86,2.86,0,0,1,2.87,2.86V191.1a2.86,2.86,0,0,1-2.87,2.87H98.22"/><line class="cls-9" x1="97.19" y1="193.97" x2="94.74" y2="193.97"/><path class="cls-11" d="M186.82,157.48h18.43a0,0,0,0,1,0,0v19.73a0,0,0,0,1,0,0H186.82a9.86,9.86,0,0,1-9.86-9.86v0a9.86,9.86,0,0,1,9.86-9.86Z"/><circle class="cls-12" cx="188.4" cy="167.35" r="4.07"/><path class="cls-13" d="M146.57,91.08a8.55,8.55,0,0,1,1.11,1.06,2.47,2.47,0,0,1,.54,1.29.38.38,0,0,0,.38.37.37.37,0,0,0,.37-.37,3.2,3.2,0,0,0-.65-1.68,8.15,8.15,0,0,0-1.22-1.2.37.37,0,1,0-.53.53Z"/><path class="cls-13" d="M150.72,92.82a17.32,17.32,0,0,0-1.13-3.22A.37.37,0,1,0,149,90a15.68,15.68,0,0,1,1,3c.11.47.84.27.73-.2Z"/><path class="cls-13" d="M151.89,92.7a8.36,8.36,0,0,1,1.16-3.17c.26-.41-.39-.79-.65-.38a8.93,8.93,0,0,0-1.24,3.35.38.38,0,0,0,.73.2Z"/><path class="cls-11" d="M198.09,135.06a9.21,9.21,0,0,0-1.72-2.73"/><path class="cls-14" d="M205.26,154v42.25a9.15,9.15,0,0,1-9.15,9.14h-90.8l1.5-.73c5.61-2.73,13.17-6.43,21.72-10.66,18.73-9.27,67.09-34.48,70.22-36.24C201.14,156.38,203.32,155.12,205.26,154Z"/><rect class="cls-15" x="229.04" y="201.83" width="15.54" height="3.51" rx="0.76"/><rect class="cls-15" x="227.84" y="198.27" width="15.54" height="3.51" rx="0.76"/><rect class="cls-15" x="228.1" y="194.72" width="15.54" height="3.51" rx="0.76"/><rect class="cls-15" x="213.08" y="198.3" width="15.54" height="3.51" rx="0.76" transform="translate(-72.14 145.74) rotate(-31.67)"/><line class="cls-16" x1="87.17" y1="205.41" x2="255.17" y2="205.41"/></svg>