<svg id="Layer_1" data-name="Layer 1" xmlns="http://www.w3.org/2000/svg" viewBox="0 0 300 300"><defs><style>.cls-1{fill:#f2a950;}.cls-2{fill:#2487ea;}.cls-3{fill:#1071c1;}.cls-4{fill:#95cefc;}.cls-5{fill:#383838;}.cls-6,.cls-8,.cls-9{fill:none;stroke-miterlimit:10;}.cls-6{stroke:#2487ea;}.cls-7{fill:#1e3c5e;}.cls-8,.cls-9{stroke:#0a2138;}.cls-8{stroke-width:0.25px;}.cls-9{stroke-width:2px;}.cls-10{fill:#0a2138;}.cls-11{fill:#afafaf;}.cls-12{fill:#99d1ff;opacity:0.1;}.cls-13{opacity:0.05;}.cls-14{fill:#def2ff;}.cls-15{fill:#fff;}</style></defs><rect class="cls-1" width="300" height="300"/><path class="cls-2" d="M173.69,205.29a18,18,0,0,1-5.72,2.47,17.73,17.73,0,0,1-4.28.51H136.31a17.85,17.85,0,0,1-4.28-.51,18.17,18.17,0,0,1-13.88-18.41l.64-25.12a66.71,66.71,0,0,1,.57-7.21l5.94-28.52a21.36,21.36,0,0,1,21.25-19.07h6.89a21.38,21.38,0,0,1,21.24,19.07l6,29.23a66.88,66.88,0,0,1,.55,7.07l.64,24.56A18.17,18.17,0,0,1,173.69,205.29Z"/><path class="cls-3" d="M150,185h0c-3.11,0-5.67,7.58-5.85,4.48L140.3,99.14h19.4l-3.85,90.36C155.67,192.6,153.11,185,150,185Z"/><path class="cls-2" d="M178.52,95.91c0,4.26-7.62,7.9-18.34,9.33a75.9,75.9,0,0,1-10.17.66c-15.74,0-28.5-4.47-28.5-10s12.76-10,28.5-10a75.76,75.76,0,0,1,9.79.61C170.72,87.92,178.52,91.59,178.52,95.91Z"/><path class="cls-3" d="M125.22,99H119a3.24,3.24,0,0,1-3.23-3.24h0A3.23,3.23,0,0,1,119,92.49h6.27Z"/><rect class="cls-4" x="108.49" y="93.57" width="9.5" height="4.3"/><path class="cls-5" d="M99.93,93h11.29a0,0,0,0,1,0,0v5.38a0,0,0,0,1,0,0H99.93a1.22,1.22,0,0,1-1.22-1.22V94.25A1.22,1.22,0,0,1,99.93,93Z"/><path class="cls-6" d="M131.34,89.05V83.7A9.13,9.13,0,0,0,128,76.6l-12.25-10"/><circle class="cls-3" cx="113.12" cy="64.85" r="6.86"/><path class="cls-3" d="M174.78,99h6.27a3.24,3.24,0,0,0,3.23-3.24h0a3.23,3.23,0,0,0-3.23-3.23h-6.27Z"/><rect class="cls-4" x="182" y="93.57" width="9.5" height="4.3" transform="translate(373.51 191.45) rotate(180)"/><path class="cls-5" d="M190,93h11.29a0,0,0,0,1,0,0v5.38a0,0,0,0,1,0,0H190a1.22,1.22,0,0,1-1.22-1.22V94.25A1.22,1.22,0,0,1,190,93Z" transform="translate(390.08 191.45) rotate(180)"/><path class="cls-6" d="M168.66,89.05V83.7A9.13,9.13,0,0,1,172,76.6l12.25-10"/><circle class="cls-3" cx="186.88" cy="64.85" r="6.86"/><rect class="cls-7" x="138.69" y="188.68" width="22.63" height="47.32" rx="11.31"/><line class="cls-8" x1="149.98" y1="188.71" x2="149.98" y2="236.03"/><line class="cls-8" x1="155.71" y1="190.37" x2="155.71" y2="234.36"/><line class="cls-8" x1="144.24" y1="190.37" x2="144.24" y2="234.36"/><path class="cls-9" d="M119,196.09h-2.25a7.48,7.48,0,0,0-7.49,7.48v31.2"/><rect class="cls-10" x="107.77" y="233.72" width="3" height="1.08" rx="0.54"/><path class="cls-9" d="M180.22,196.09h2.24a7.48,7.48,0,0,1,7.49,7.48v31.2"/><rect class="cls-10" x="188.45" y="233.72" width="3" height="1.08" rx="0.54" transform="translate(379.9 468.51) rotate(180)"/><path class="cls-3" d="M168,194.41v13.34a17.3,17.3,0,0,1-4.28.52H136.31a17.3,17.3,0,0,1-4.28-.52V194.41a11.32,11.32,0,0,1,11.32-11.32h13.3A11.32,11.32,0,0,1,168,194.41Z"/><path class="cls-11" d="M162.86,202.26v9.55a12.47,12.47,0,0,1-3.07.37H140.2a12.45,12.45,0,0,1-3.06-.37v-9.55a8.1,8.1,0,0,1,8.1-8.09h9.52A8.1,8.1,0,0,1,162.86,202.26Z"/><path class="cls-12" d="M173.69,205.29c-2-6.8-3.84-16.91-8.45-28.39-6.52-16.24-1.26-51.31.83-63.33a21.33,21.33,0,0,1,8.61,14.93l6,29.23a66.88,66.88,0,0,1,.55,7.07l.64,24.56A18.17,18.17,0,0,1,173.69,205.29Z"/><ellipse class="cls-13" cx="150" cy="235.3" rx="49.81" ry="6.71"/><path class="cls-12" d="M178.52,95.91c0,4.26-7.62,7.9-18.34,9.33l-.38-18.71C170.72,87.92,178.52,91.59,178.52,95.91Z"/><ellipse class="cls-14" cx="150.01" cy="95.9" rx="19.56" ry="6.86"/><circle class="cls-15" cx="150.01" cy="95.9" r="5.95"/></svg>