<svg id="Layer_1" data-name="Layer 1" xmlns="http://www.w3.org/2000/svg" viewBox="0 0 300 300"><defs><style>.cls-1{fill:#f27127;}.cls-2,.cls-3{fill:#0d1752;}.cls-2,.cls-5{opacity:0.5;}.cls-4{fill:#111e6c;}.cls-12,.cls-13,.cls-5,.cls-7{fill:none;stroke-miterlimit:10;}.cls-5,.cls-7{stroke:#fff;}.cls-5{stroke-width:0.25px;}.cls-6{opacity:0.05;}.cls-8{fill:#58676c;}.cls-9{fill:#414c4e;}.cls-10{fill:#333;}.cls-11{fill:#c03;}.cls-12,.cls-13{stroke:#033;}.cls-13{stroke-linecap:round;}.cls-14{fill:#fff;}</style></defs><rect class="cls-1" width="300" height="300"/><path class="cls-2" d="M57.87,98.3h167a3.82,3.82,0,0,1,3.82,3.82V204.18a0,0,0,0,1,0,0H57.87a0,0,0,0,1,0,0V98.3A0,0,0,0,1,57.87,98.3Z"/><path class="cls-3" d="M60.2,95.82H222.37a4.33,4.33,0,0,1,4.33,4.33V201.7a0,0,0,0,1,0,0H55.87a0,0,0,0,1,0,0V100.15A4.33,4.33,0,0,1,60.2,95.82Z"/><rect class="cls-4" x="103.17" y="98.64" width="120.47" height="99.53"/><rect class="cls-5" x="107.16" y="101.94" width="112.5" height="92.94"/><g class="cls-6"><circle class="cls-7" cx="114.29" cy="109.63" r="0.25"/><circle class="cls-7" cx="118.24" cy="109.63" r="0.25"/><circle class="cls-7" cx="122.18" cy="109.63" r="0.25"/><circle class="cls-7" cx="126.13" cy="109.63" r="0.25"/><circle class="cls-7" cx="130.08" cy="109.63" r="0.25"/><circle class="cls-7" cx="134.03" cy="109.63" r="0.25"/><circle class="cls-7" cx="137.98" cy="109.63" r="0.25"/><circle class="cls-7" cx="141.93" cy="109.63" r="0.25"/><circle class="cls-7" cx="145.88" cy="109.63" r="0.25"/><circle class="cls-7" cx="149.82" cy="109.63" r="0.25"/><circle class="cls-7" cx="153.77" cy="109.63" r="0.25"/><circle class="cls-7" cx="157.72" cy="109.63" r="0.25"/><circle class="cls-7" cx="161.67" cy="109.63" r="0.25"/><circle class="cls-7" cx="165.62" cy="109.63" r="0.25"/><circle class="cls-7" cx="169.57" cy="109.63" r="0.25"/><circle class="cls-7" cx="173.51" cy="109.63" r="0.25"/><circle class="cls-7" cx="177.46" cy="109.63" r="0.25"/><circle class="cls-7" cx="181.41" cy="109.63" r="0.25"/><circle class="cls-7" cx="185.36" cy="109.63" r="0.25"/><circle class="cls-7" cx="189.31" cy="109.63" r="0.25"/><circle class="cls-7" cx="193.26" cy="109.63" r="0.25"/><circle class="cls-7" cx="197.21" cy="109.63" r="0.25"/><circle class="cls-7" cx="201.15" cy="109.63" r="0.25"/><circle class="cls-7" cx="205.1" cy="109.63" r="0.25"/><circle class="cls-7" cx="209.05" cy="109.63" r="0.25"/><circle class="cls-7" cx="213" cy="109.63" r="0.25"/></g><g class="cls-6"><circle class="cls-7" cx="114.29" cy="119.1" r="0.25"/><circle class="cls-7" cx="118.24" cy="119.1" r="0.25"/><circle class="cls-7" cx="122.18" cy="119.1" r="0.25"/><circle class="cls-7" cx="126.13" cy="119.1" r="0.25"/><circle class="cls-7" cx="130.08" cy="119.1" r="0.25"/><circle class="cls-7" cx="134.03" cy="119.1" r="0.25"/><circle class="cls-7" cx="137.98" cy="119.1" r="0.25"/><circle class="cls-7" cx="141.93" cy="119.1" r="0.25"/><circle class="cls-7" cx="145.88" cy="119.1" r="0.25"/><circle class="cls-7" cx="149.82" cy="119.1" r="0.25"/><circle class="cls-7" cx="153.77" cy="119.1" r="0.25"/><circle class="cls-7" cx="157.72" cy="119.1" r="0.25"/><circle class="cls-7" cx="161.67" cy="119.1" r="0.25"/><circle class="cls-7" cx="165.62" cy="119.1" r="0.25"/><circle class="cls-7" cx="169.57" cy="119.1" r="0.25"/><circle class="cls-7" cx="173.51" cy="119.1" r="0.25"/><circle class="cls-7" cx="177.46" cy="119.1" r="0.25"/><circle class="cls-7" cx="181.41" cy="119.1" r="0.25"/><circle class="cls-7" cx="185.36" cy="119.1" r="0.25"/><circle class="cls-7" cx="189.31" cy="119.1" r="0.25"/><circle class="cls-7" cx="193.26" cy="119.1" r="0.25"/><circle class="cls-7" cx="197.21" cy="119.1" r="0.25"/><circle class="cls-7" cx="201.15" cy="119.1" r="0.25"/><circle class="cls-7" cx="205.1" cy="119.1" r="0.25"/><circle class="cls-7" cx="209.05" cy="119.1" r="0.25"/><circle class="cls-7" cx="213" cy="119.1" r="0.25"/></g><g class="cls-6"><circle class="cls-7" cx="114.29" cy="128.58" r="0.25"/><circle class="cls-7" cx="118.24" cy="128.58" r="0.25"/><circle class="cls-7" cx="122.18" cy="128.58" r="0.25"/><circle class="cls-7" cx="126.13" cy="128.58" r="0.25"/><circle class="cls-7" cx="130.08" cy="128.58" r="0.25"/><circle class="cls-7" cx="134.03" cy="128.58" r="0.25"/><circle class="cls-7" cx="137.98" cy="128.58" r="0.25"/><circle class="cls-7" cx="141.93" cy="128.58" r="0.25"/><circle class="cls-7" cx="145.88" cy="128.58" r="0.25"/><circle class="cls-7" cx="149.82" cy="128.58" r="0.25"/><circle class="cls-7" cx="153.77" cy="128.58" r="0.25"/><circle class="cls-7" cx="157.72" cy="128.58" r="0.25"/><circle class="cls-7" cx="161.67" cy="128.58" r="0.25"/><circle class="cls-7" cx="165.62" cy="128.58" r="0.25"/><circle class="cls-7" cx="169.57" cy="128.58" r="0.25"/><circle class="cls-7" cx="173.51" cy="128.58" r="0.25"/><circle class="cls-7" cx="177.46" cy="128.58" r="0.25"/><circle class="cls-7" cx="181.41" cy="128.58" r="0.25"/><circle class="cls-7" cx="185.36" cy="128.58" r="0.25"/><circle class="cls-7" cx="189.31" cy="128.58" r="0.25"/><circle class="cls-7" cx="193.26" cy="128.58" r="0.25"/><circle class="cls-7" cx="197.21" cy="128.58" r="0.25"/><circle class="cls-7" cx="201.15" cy="128.58" r="0.25"/><circle class="cls-7" cx="205.1" cy="128.58" r="0.25"/><circle class="cls-7" cx="209.05" cy="128.58" r="0.25"/><circle class="cls-7" cx="213" cy="128.58" r="0.25"/></g><g class="cls-6"><circle class="cls-7" cx="114.29" cy="138.05" r="0.25"/><circle class="cls-7" cx="118.24" cy="138.05" r="0.25"/><circle class="cls-7" cx="122.18" cy="138.05" r="0.25"/><circle class="cls-7" cx="126.13" cy="138.05" r="0.25"/><circle class="cls-7" cx="130.08" cy="138.05" r="0.25"/><circle class="cls-7" cx="134.03" cy="138.05" r="0.25"/><circle class="cls-7" cx="137.98" cy="138.05" r="0.25"/><circle class="cls-7" cx="141.93" cy="138.05" r="0.25"/><circle class="cls-7" cx="145.88" cy="138.05" r="0.25"/><circle class="cls-7" cx="149.82" cy="138.05" r="0.25"/><circle class="cls-7" cx="153.77" cy="138.05" r="0.25"/><circle class="cls-7" cx="157.72" cy="138.05" r="0.25"/><circle class="cls-7" cx="161.67" cy="138.05" r="0.25"/><circle class="cls-7" cx="165.62" cy="138.05" r="0.25"/><circle class="cls-7" cx="169.57" cy="138.05" r="0.25"/><circle class="cls-7" cx="173.51" cy="138.05" r="0.25"/><circle class="cls-7" cx="177.46" cy="138.05" r="0.25"/><circle class="cls-7" cx="181.41" cy="138.05" r="0.25"/><circle class="cls-7" cx="185.36" cy="138.05" r="0.25"/><circle class="cls-7" cx="189.31" cy="138.05" r="0.25"/><circle class="cls-7" cx="193.26" cy="138.05" r="0.25"/><circle class="cls-7" cx="197.21" cy="138.05" r="0.25"/><circle class="cls-7" cx="201.15" cy="138.05" r="0.25"/><circle class="cls-7" cx="205.1" cy="138.05" r="0.25"/><circle class="cls-7" cx="209.05" cy="138.05" r="0.25"/><circle class="cls-7" cx="213" cy="138.05" r="0.25"/></g><g class="cls-6"><circle class="cls-7" cx="114.29" cy="147.52" r="0.25"/><circle class="cls-7" cx="118.24" cy="147.52" r="0.25"/><circle class="cls-7" cx="122.18" cy="147.52" r="0.25"/><circle class="cls-7" cx="126.13" cy="147.52" r="0.25"/><circle class="cls-7" cx="130.08" cy="147.52" r="0.25"/><circle class="cls-7" cx="134.03" cy="147.52" r="0.25"/><circle class="cls-7" cx="137.98" cy="147.52" r="0.25"/><circle class="cls-7" cx="141.93" cy="147.52" r="0.25"/><circle class="cls-7" cx="145.88" cy="147.52" r="0.25"/><circle class="cls-7" cx="149.82" cy="147.52" r="0.25"/><circle class="cls-7" cx="153.77" cy="147.52" r="0.25"/><circle class="cls-7" cx="157.72" cy="147.52" r="0.25"/><circle class="cls-7" cx="161.67" cy="147.52" r="0.25"/><circle class="cls-7" cx="165.62" cy="147.52" r="0.25"/><circle class="cls-7" cx="169.57" cy="147.52" r="0.25"/><circle class="cls-7" cx="173.51" cy="147.52" r="0.25"/><circle class="cls-7" cx="177.46" cy="147.52" r="0.25"/><circle class="cls-7" cx="181.41" cy="147.52" r="0.25"/><circle class="cls-7" cx="185.36" cy="147.52" r="0.25"/><circle class="cls-7" cx="189.31" cy="147.52" r="0.25"/><circle class="cls-7" cx="193.26" cy="147.52" r="0.25"/><circle class="cls-7" cx="197.21" cy="147.52" r="0.25"/><circle class="cls-7" cx="201.15" cy="147.52" r="0.25"/><circle class="cls-7" cx="205.1" cy="147.52" r="0.25"/><circle class="cls-7" cx="209.05" cy="147.52" r="0.25"/><circle class="cls-7" cx="213" cy="147.52" r="0.25"/></g><g class="cls-6"><circle class="cls-7" cx="114.29" cy="156.99" r="0.25"/><circle class="cls-7" cx="118.24" cy="156.99" r="0.25"/><circle class="cls-7" cx="122.18" cy="156.99" r="0.25"/><circle class="cls-7" cx="126.13" cy="156.99" r="0.25"/><circle class="cls-7" cx="130.08" cy="156.99" r="0.25"/><circle class="cls-7" cx="134.03" cy="156.99" r="0.25"/><circle class="cls-7" cx="137.98" cy="156.99" r="0.25"/><circle class="cls-7" cx="141.93" cy="156.99" r="0.25"/><circle class="cls-7" cx="145.88" cy="156.99" r="0.25"/><circle class="cls-7" cx="149.82" cy="156.99" r="0.25"/><circle class="cls-7" cx="153.77" cy="156.99" r="0.25"/><circle class="cls-7" cx="157.72" cy="156.99" r="0.25"/><circle class="cls-7" cx="161.67" cy="156.99" r="0.25"/><circle class="cls-7" cx="165.62" cy="156.99" r="0.25"/><circle class="cls-7" cx="169.57" cy="156.99" r="0.25"/><circle class="cls-7" cx="173.51" cy="156.99" r="0.25"/><circle class="cls-7" cx="177.46" cy="156.99" r="0.25"/><circle class="cls-7" cx="181.41" cy="156.99" r="0.25"/><circle class="cls-7" cx="185.36" cy="156.99" r="0.25"/><circle class="cls-7" cx="189.31" cy="156.99" r="0.25"/><circle class="cls-7" cx="193.26" cy="156.99" r="0.25"/><circle class="cls-7" cx="197.21" cy="156.99" r="0.25"/><circle class="cls-7" cx="201.15" cy="156.99" r="0.25"/><circle class="cls-7" cx="205.1" cy="156.99" r="0.25"/><circle class="cls-7" cx="209.05" cy="156.99" r="0.25"/><circle class="cls-7" cx="213" cy="156.99" r="0.25"/></g><g class="cls-6"><circle class="cls-7" cx="114.29" cy="166.46" r="0.25"/><circle class="cls-7" cx="118.24" cy="166.46" r="0.25"/><circle class="cls-7" cx="122.18" cy="166.46" r="0.25"/><circle class="cls-7" cx="126.13" cy="166.46" r="0.25"/><circle class="cls-7" cx="130.08" cy="166.46" r="0.25"/><circle class="cls-7" cx="134.03" cy="166.46" r="0.25"/><circle class="cls-7" cx="137.98" cy="166.46" r="0.25"/><circle class="cls-7" cx="141.93" cy="166.46" r="0.25"/><circle class="cls-7" cx="145.88" cy="166.46" r="0.25"/><circle class="cls-7" cx="149.82" cy="166.46" r="0.25"/><circle class="cls-7" cx="153.77" cy="166.46" r="0.25"/><circle class="cls-7" cx="157.72" cy="166.46" r="0.25"/><circle class="cls-7" cx="161.67" cy="166.46" r="0.25"/><circle class="cls-7" cx="165.62" cy="166.46" r="0.25"/><circle class="cls-7" cx="169.57" cy="166.46" r="0.25"/><circle class="cls-7" cx="173.51" cy="166.46" r="0.25"/><circle class="cls-7" cx="177.46" cy="166.46" r="0.25"/><circle class="cls-7" cx="181.41" cy="166.46" r="0.25"/><circle class="cls-7" cx="185.36" cy="166.46" r="0.25"/><circle class="cls-7" cx="189.31" cy="166.46" r="0.25"/><circle class="cls-7" cx="193.26" cy="166.46" r="0.25"/><circle class="cls-7" cx="197.21" cy="166.46" r="0.25"/><circle class="cls-7" cx="201.15" cy="166.46" r="0.25"/><circle class="cls-7" cx="205.1" cy="166.46" r="0.25"/><circle class="cls-7" cx="209.05" cy="166.46" r="0.25"/><circle class="cls-7" cx="213" cy="166.46" r="0.25"/></g><g class="cls-6"><circle class="cls-7" cx="114.29" cy="175.93" r="0.25"/><circle class="cls-7" cx="118.24" cy="175.93" r="0.25"/><circle class="cls-7" cx="122.18" cy="175.93" r="0.25"/><circle class="cls-7" cx="126.13" cy="175.93" r="0.25"/><circle class="cls-7" cx="130.08" cy="175.93" r="0.25"/><circle class="cls-7" cx="134.03" cy="175.93" r="0.25"/><circle class="cls-7" cx="137.98" cy="175.93" r="0.25"/><circle class="cls-7" cx="141.93" cy="175.93" r="0.25"/><circle class="cls-7" cx="145.88" cy="175.93" r="0.25"/><circle class="cls-7" cx="149.82" cy="175.93" r="0.25"/><circle class="cls-7" cx="153.77" cy="175.93" r="0.25"/><circle class="cls-7" cx="157.72" cy="175.93" r="0.25"/><circle class="cls-7" cx="161.67" cy="175.93" r="0.25"/><circle class="cls-7" cx="165.62" cy="175.93" r="0.25"/><circle class="cls-7" cx="169.57" cy="175.93" r="0.25"/><circle class="cls-7" cx="173.51" cy="175.93" r="0.25"/><circle class="cls-7" cx="177.46" cy="175.93" r="0.25"/><circle class="cls-7" cx="181.41" cy="175.93" r="0.25"/><circle class="cls-7" cx="185.36" cy="175.93" r="0.25"/><circle class="cls-7" cx="189.31" cy="175.93" r="0.25"/><circle class="cls-7" cx="193.26" cy="175.93" r="0.25"/><circle class="cls-7" cx="197.21" cy="175.93" r="0.25"/><circle class="cls-7" cx="201.15" cy="175.93" r="0.25"/><circle class="cls-7" cx="205.1" cy="175.93" r="0.25"/><circle class="cls-7" cx="209.05" cy="175.93" r="0.25"/><circle class="cls-7" cx="213" cy="175.93" r="0.25"/></g><g class="cls-6"><circle class="cls-7" cx="114.29" cy="185.41" r="0.25"/><circle class="cls-7" cx="118.24" cy="185.41" r="0.25"/><circle class="cls-7" cx="122.18" cy="185.41" r="0.25"/><circle class="cls-7" cx="126.13" cy="185.41" r="0.25"/><circle class="cls-7" cx="130.08" cy="185.41" r="0.25"/><circle class="cls-7" cx="134.03" cy="185.41" r="0.25"/><circle class="cls-7" cx="137.98" cy="185.41" r="0.25"/><circle class="cls-7" cx="141.93" cy="185.41" r="0.25"/><circle class="cls-7" cx="145.88" cy="185.41" r="0.25"/><circle class="cls-7" cx="149.82" cy="185.41" r="0.25"/><circle class="cls-7" cx="153.77" cy="185.41" r="0.25"/><circle class="cls-7" cx="157.72" cy="185.41" r="0.25"/><circle class="cls-7" cx="161.67" cy="185.41" r="0.25"/><circle class="cls-7" cx="165.62" cy="185.41" r="0.25"/><circle class="cls-7" cx="169.57" cy="185.41" r="0.25"/><circle class="cls-7" cx="173.51" cy="185.41" r="0.25"/><circle class="cls-7" cx="177.46" cy="185.41" r="0.25"/><circle class="cls-7" cx="181.41" cy="185.41" r="0.25"/><circle class="cls-7" cx="185.36" cy="185.41" r="0.25"/><circle class="cls-7" cx="189.31" cy="185.41" r="0.25"/><circle class="cls-7" cx="193.26" cy="185.41" r="0.25"/><circle class="cls-7" cx="197.21" cy="185.41" r="0.25"/><circle class="cls-7" cx="201.15" cy="185.41" r="0.25"/><circle class="cls-7" cx="205.1" cy="185.41" r="0.25"/><circle class="cls-7" cx="209.05" cy="185.41" r="0.25"/><circle class="cls-7" cx="213" cy="185.41" r="0.25"/></g><rect class="cls-8" x="64.63" y="106.86" width="27.49" height="8.45" rx="4.22"/><rect class="cls-8" x="64.63" y="121.02" width="27.49" height="8.45" rx="4.22"/><rect class="cls-8" x="64.63" y="135.17" width="27.49" height="8.45" rx="4.22"/><rect class="cls-8" x="64.63" y="149.32" width="27.49" height="8.45" rx="4.22"/><rect class="cls-8" x="64.63" y="163.48" width="27.49" height="8.45" rx="4.22"/><circle class="cls-8" cx="78.38" cy="184.31" r="6.35"/><circle class="cls-9" cx="78.38" cy="184.31" r="2.9"/><polygon class="cls-10" points="242.38 191.7 237.98 201.7 233.58 191.7 242.38 191.7"/><rect class="cls-9" x="233.58" y="104.38" width="8.79" height="87.32"/><path class="cls-11" d="M236.74,95.82h2.48A3.16,3.16,0,0,1,242.37,99v5.14a0,0,0,0,1,0,0h-8.79a0,0,0,0,1,0,0V99A3.16,3.16,0,0,1,236.74,95.82Z"/><line class="cls-12" x1="233.58" y1="104.24" x2="244.13" y2="104.24"/><line class="cls-13" x1="244.13" y1="101.96" x2="244.13" y2="112.77"/><g class="cls-6"><polygon class="cls-14" points="101.64 201.7 87.24 201.7 171.79 95.82 185.87 95.82 101.64 201.7"/></g><g class="cls-6"><polygon class="cls-14" points="121.64 201.7 107.24 201.7 191.79 95.82 205.87 95.82 121.64 201.7"/></g></svg>