<svg id="Layer_1" data-name="Layer 1" xmlns="http://www.w3.org/2000/svg" viewBox="0 0 300 300"><defs><style>.cls-1{fill:#dfb37d;}.cls-2{fill:#c1905b;}.cls-3{fill:#96622f;}.cls-4{fill:#372618;}.cls-5,.cls-7{opacity:0.3;}.cls-6,.cls-7{fill:#4d593b;}.cls-8{fill:none;stroke:#a62f24;stroke-linecap:round;stroke-linejoin:round;stroke-width:2px;}.cls-9{fill:#5a5e5f;}</style></defs><rect class="cls-1" width="300" height="300"/><path class="cls-2" d="M20.28,204.61s31-13.29,54.93-14.62,89.94-11.52,99.24-27.47c0,0,45.63,24.81,74.87,18.17,0,0,89.23,1.33-25.38,29.68,0,0-16.7,7.09-21.58,16.39s-77.08-13.29-101-4.43S2.56,217.46,20.28,204.61Z"/><path class="cls-3" d="M87.59,194.64s47.18,4.33,50.77,4.29c0,0-1.27-28.18-5.52-25.72S92.15,177.12,91,182,87.59,194.64,87.59,194.64Z"/><path class="cls-4" d="M48.22,198s66.3-87.87,76-135.83c0,0,64.69,33.8,92.7,29.61,0,0,11.26,53.43,28,77.89,0,0,5,6.6-2.42,10.14L194.34,214.7s-53.91-11.58-61-18.82c0,0-16.36-115.39-10.14-125.26,0,0-26.18,117.16-35.62,124C87.59,194.64,59.7,199.58,48.22,198Z"/><g class="cls-5"><path class="cls-6" d="M152.18,97.87a156.55,156.55,0,0,1,18.34,8.18c5.71,2.86,11.16,5.8,16.45,8.16s10.4,4.11,14.4,3.78a11,11,0,0,0,6.37-2.76A24.87,24.87,0,0,0,211,112c1.08-1.23,2.06-2.61,3.21-4a19.61,19.61,0,0,1,.44,5.41,19.16,19.16,0,0,1-1.09,5.57A16.75,16.75,0,0,1,205,128.4a20,20,0,0,1-6.46,1.83,26.23,26.23,0,0,1-6.27,0,38.57,38.57,0,0,1-11-3.19A58.76,58.76,0,0,1,164,114.91a64.57,64.57,0,0,1-6.7-7.88c-1-1.41-2-2.86-2.82-4.38A33.1,33.1,0,0,1,152.18,97.87Z"/></g><g class="cls-5"><path class="cls-6" d="M158.83,124.06a200.74,200.74,0,0,1,19.19,13c6,4.41,11.75,8.91,17.48,12.7a58.29,58.29,0,0,0,8.41,4.76,22,22,0,0,0,3.78,1.29,9,9,0,0,0,3.13.22,6.73,6.73,0,0,0,3.14-1.25,15.48,15.48,0,0,0,3.27-3.26,80.58,80.58,0,0,0,6-9.65,28.1,28.1,0,0,1,.84,6.07,25.85,25.85,0,0,1-.51,6.32,19.46,19.46,0,0,1-2.57,6.49,15.79,15.79,0,0,1-5.95,5.47,17.54,17.54,0,0,1-8.05,1.94,26,26,0,0,1-7.35-1.06,43.08,43.08,0,0,1-11.83-5.66,74.84,74.84,0,0,1-17.47-16.57,83.06,83.06,0,0,1-6.58-9.84c-1-1.74-1.89-3.49-2.72-5.31A43.51,43.51,0,0,1,158.83,124.06Z"/></g><path class="cls-7" d="M192.09,212.24c-.64.43-67.38-142.48-67.38-147.63,0,0-4.5,85.61,25.75,121.23,0,0,5.15,4.08-6.86,5.58,0,0-13.31.33-8.91,5.53Z"/><path class="cls-7" d="M48.22,198s59.37-78.45,74.05-123.18c0,0-17.94,93.24-40.26,108.91,0,0,8.06,6.07,6.5,10a10.17,10.17,0,0,1-.92.93Z"/><path class="cls-8" d="M216.56,91.8S243,161,261.61,182"/><path class="cls-8" d="M29.44,206.23s88.61-94.76,94.42-142.61c-2.17,12,79.82,169.86,79.82,169.86"/><path class="cls-9" d="M200.14,235c-.11-.64,2.53-12.66,4-13.29,0,0,8.39-3,8.39,0,0,0-3.49,15-6.18,16.14C206.31,237.86,200.62,237.7,200.14,235Z"/><path class="cls-9" d="M259.42,183.46c-.07-.36,1.42-7.1,2.21-7.45,0,0,4.71-1.69,4.71,0,0,0-2,8.43-3.47,9.05C262.87,185.06,259.68,185,259.42,183.46Z"/><path class="cls-9" d="M32.29,208.33c.07-.41-1.63-8.14-2.54-8.54,0,0-5.39-1.94-5.39,0,0,0,2.24,9.66,4,10.37C28.33,210.16,32,210.06,32.29,208.33Z"/><path class="cls-4" d="M100.59,160.93s21.81-85.61,22.62-90.31l7.58,106.26s-37.57,13.29-38.78,8Z"/></svg>