<svg id="Layer_1" data-name="Layer 1" xmlns="http://www.w3.org/2000/svg" viewBox="0 0 300 300"><defs><style>.cls-1{fill:#fbaa34;}.cls-2{fill:#2d2d2d;}.cls-3{fill:#151e21;opacity:0.15;}.cls-4{fill:#383838;}.cls-5{fill:#bf390c;}.cls-6{fill:#2257ff;}.cls-7{fill:#3b6308;}.cls-8{fill:#939393;}.cls-9{fill:#1a1a1a;}.cls-10{fill:#686868;}.cls-11{fill:#3f3f3f;}.cls-12{fill:#696969;}.cls-13,.cls-14{fill:none;}.cls-13{stroke:#1a1a1a;stroke-miterlimit:10;stroke-width:2.44px;}</style></defs><rect class="cls-1" width="300" height="300"/><path class="cls-2" d="M299.32,114.94s-.05,4.17-.14,4.1l-.11-4.1Z"/><ellipse class="cls-3" cx="150" cy="231.72" rx="74.47" ry="2.96"/><path class="cls-4" d="M178.23,139.93h1.59a.48.48,0,0,1,.48.48v8.49a.48.48,0,0,1-.48.48h-1.59a0,0,0,0,1,0,0v-9.44A0,0,0,0,1,178.23,139.93Z"/><path class="cls-5" d="M119.94,138.36h1.59a.48.48,0,0,1,.48.48v6.69a.48.48,0,0,1-.48.48h-1.59a0,0,0,0,1,0,0v-7.64A0,0,0,0,1,119.94,138.36Z" transform="translate(241.95 284.37) rotate(180)"/><path class="cls-6" d="M119.94,147.22h1.59a.48.48,0,0,1,.48.48v6.69a.48.48,0,0,1-.48.48h-1.59a0,0,0,0,1,0,0v-7.64A0,0,0,0,1,119.94,147.22Z" transform="translate(241.95 302.08) rotate(180)"/><path class="cls-7" d="M119.71,212.61h1.59a.48.48,0,0,1,.48.48v6.69a.48.48,0,0,1-.48.48h-1.59a0,0,0,0,1,0,0v-7.64A0,0,0,0,1,119.71,212.61Z" transform="translate(241.48 432.87) rotate(180)"/><path class="cls-8" d="M128.95,123.5h7.86a.51.51,0,0,1,.51.51v6.25a0,0,0,0,1,0,0h-8.89a0,0,0,0,1,0,0V124A.51.51,0,0,1,128.95,123.5Z"/><polygon class="cls-2" points="129.86 123.5 129.71 128.99 129.67 128.99 129.52 123.5 129.86 123.5 129.86 123.5"/><polygon class="cls-2" points="131.12 123.5 130.97 128.99 130.93 128.99 130.78 123.5 131.12 123.5 131.12 123.5"/><polygon class="cls-2" points="132.38 123.5 132.23 128.99 132.19 128.99 132.04 123.5 132.38 123.5 132.38 123.5"/><polygon class="cls-2" points="133.64 123.5 133.49 128.99 133.44 128.99 133.3 123.5 133.64 123.5 133.64 123.5"/><polygon class="cls-2" points="134.9 123.5 134.75 128.99 134.7 128.99 134.56 123.5 134.9 123.5 134.9 123.5"/><polygon class="cls-2" points="136.15 123.5 136.01 128.99 135.96 128.99 135.82 123.5 136.15 123.5 136.15 123.5"/><rect class="cls-9" x="158.24" y="123.3" width="10.86" height="6.49"/><rect class="cls-9" x="160.37" y="95.22" width="6.61" height="28.62"/><rect class="cls-9" x="161.45" y="69.75" width="4.45" height="28.62"/><rect class="cls-4" x="121.42" y="159.2" width="56.98" height="42.07"/><polygon class="cls-10" points="168.78 166.31 168.78 166.49 131.04 193.61 131.04 166.31 168.78 166.31"/><path class="cls-2" d="M121.42,197.95h57a0,0,0,0,1,0,0v28.48a5.21,5.21,0,0,1-5.21,5.21H126.63a5.21,5.21,0,0,1-5.21-5.21V197.95A0,0,0,0,1,121.42,197.95Z"/><path class="cls-2" d="M121.42,128.3h57a0,0,0,0,1,0,0v28.48A5.21,5.21,0,0,1,173.2,162H126.63a5.21,5.21,0,0,1-5.21-5.21V128.3A0,0,0,0,1,121.42,128.3Z" transform="translate(299.83 290.28) rotate(180)"/><path class="cls-11" d="M125.81,132.23H174a0,0,0,0,1,0,0v24.35a2.53,2.53,0,0,1-2.53,2.53H128.34a2.53,2.53,0,0,1-2.53-2.53V132.23A0,0,0,0,1,125.81,132.23Z" transform="translate(299.83 291.34) rotate(180)"/><rect class="cls-12" x="126.9" y="202.55" width="14.77" height="5.78" rx="1.41"/><rect class="cls-12" x="142.53" y="202.55" width="14.77" height="5.78" rx="1.41"/><rect class="cls-12" x="158.15" y="202.55" width="14.77" height="5.78" rx="1.41"/><rect class="cls-12" x="126.9" y="211.39" width="14.77" height="5.78" rx="1.41"/><rect class="cls-12" x="142.53" y="211.39" width="14.77" height="5.78" rx="1.41"/><rect class="cls-12" x="158.15" y="211.39" width="14.77" height="5.78" rx="1.41"/><rect class="cls-12" x="126.9" y="220.22" width="14.77" height="5.78" rx="1.41"/><rect class="cls-12" x="142.53" y="220.22" width="14.77" height="5.78" rx="1.41"/><rect class="cls-12" x="158.15" y="220.22" width="14.77" height="5.78" rx="1.41"/><line class="cls-13" x1="130.35" y1="137.9" x2="169.22" y2="137.9"/><line class="cls-13" x1="130.35" y1="141.91" x2="169.22" y2="141.91"/><line class="cls-13" x1="130.35" y1="145.93" x2="169.22" y2="145.93"/><line class="cls-13" x1="130.35" y1="149.94" x2="169.22" y2="149.94"/><line class="cls-13" x1="130.35" y1="153.95" x2="169.22" y2="153.95"/><polygon class="cls-8" points="168.78 166.49 168.78 194.17 131.04 194.17 131.04 193.61 168.78 166.49"/><line class="cls-14" x1="132.96" y1="193.61" x2="131.11" y2="194.72"/><rect class="cls-10" x="160.63" y="68.37" width="6.09" height="1.46" rx="0.54"/></svg>