<svg id="Layer_1" data-name="Layer 1" xmlns="http://www.w3.org/2000/svg" viewBox="0 0 300 300"><defs><style>.cls-1{fill:#f9b978;}.cls-2{fill:#3d3c3f;}.cls-3,.cls-5,.cls-7{fill:#e3f6ff;}.cls-13,.cls-3,.cls-4,.cls-5,.cls-6,.cls-7{stroke:#031223;stroke-miterlimit:10;}.cls-3{stroke-width:0.41px;}.cls-4{fill:#a4dcff;}.cls-5{stroke-width:0.55px;}.cls-11,.cls-12,.cls-6{fill:#59c6fc;}.cls-6{stroke-width:1.63px;}.cls-7{stroke-width:0.31px;}.cls-8{fill:#fcba11;}.cls-9{fill:#031223;}.cls-10{fill:none;}.cls-11,.cls-15{opacity:0.5;}.cls-12{opacity:0.3;}.cls-13{fill:#5e9c71;stroke-width:0.73px;}.cls-14,.cls-15{fill:#85d39c;}.cls-14{opacity:0.25;}</style></defs><rect class="cls-1" width="300" height="300"/><ellipse class="cls-2" cx="150" cy="209.41" rx="85.86" ry="11.27"/><path class="cls-3" d="M123.43,195.14l-.23.6-3.4,8.77a1.64,1.64,0,0,1-1.57.94H97.32a1.52,1.52,0,0,1-1.65-1.34v-9.37a1.53,1.53,0,0,1,1.65-1.35h24.53C123,193.39,123.77,194.28,123.43,195.14Z"/><path class="cls-3" d="M199.12,194.74v9.37a1.51,1.51,0,0,1-1.65,1.34H176.56a1.65,1.65,0,0,1-1.57-.94l-.47-1.19-2.92-7.58-.24-.6c-.34-.86.46-1.75,1.58-1.75h24.53A1.52,1.52,0,0,1,199.12,194.74Z"/><path class="cls-4" d="M218.8,94.42v86.22a15.1,15.1,0,0,1-15.11,15.1h-108A15.11,15.11,0,0,1,81.2,180.64V94.42a15.1,15.1,0,0,1,15.11-15.1H203.69A15.1,15.1,0,0,1,218.8,94.42Z"/><rect class="cls-4" x="92.18" y="88.6" width="115.65" height="97.86" rx="28.06"/><rect class="cls-4" x="87.83" y="106.31" width="8.7" height="18.55" rx="4.35"/><rect class="cls-5" x="198.14" y="114.8" width="4.81" height="48.14" rx="2.41"/><rect class="cls-4" x="87.83" y="149.94" width="8.7" height="18.55" rx="4.35"/><circle class="cls-6" cx="125.54" cy="138.87" r="20.33"/><circle class="cls-7" cx="125.54" cy="138.87" r="13"/><circle class="cls-8" cx="125.54" cy="138.87" r="10.13"/><path class="cls-9" d="M125.54,125.87a.34.34,0,0,1-.34-.34v-6.25a.34.34,0,0,1,.34-.34.34.34,0,0,1,.34.34v6.25A.34.34,0,0,1,125.54,125.87Z"/><path class="cls-9" d="M125.54,158.8a.35.35,0,0,1-.34-.34v-6.25a.34.34,0,0,1,.34-.34.34.34,0,0,1,.34.34v6.25A.34.34,0,0,1,125.54,158.8Z"/><line class="cls-10" x1="120.47" y1="119.95" x2="122.09" y2="125.99"/><path class="cls-9" d="M122.09,126.33a.34.34,0,0,1-.33-.26l-1.62-6a.35.35,0,0,1,.25-.42.33.33,0,0,1,.41.24l1.62,6a.33.33,0,0,1-.24.41Z"/><line class="cls-10" x1="129" y1="151.75" x2="130.61" y2="157.79"/><path class="cls-9" d="M130.61,158.13a.34.34,0,0,1-.33-.25l-1.61-6a.34.34,0,0,1,.24-.42.34.34,0,0,1,.41.25l1.62,6a.34.34,0,0,1-.24.42Z"/><line class="cls-10" x1="115.75" y1="121.91" x2="118.87" y2="127.32"/><path class="cls-9" d="M118.87,127.66a.34.34,0,0,1-.29-.17l-3.12-5.41a.34.34,0,0,1,.12-.47.33.33,0,0,1,.46.13l3.13,5.41a.33.33,0,0,1-.13.46A.34.34,0,0,1,118.87,127.66Z"/><line class="cls-10" x1="132.21" y1="150.42" x2="135.34" y2="155.83"/><path class="cls-9" d="M135.34,156.17a.35.35,0,0,1-.3-.17l-3.12-5.41a.33.33,0,0,1,.12-.46.34.34,0,0,1,.47.12l3.12,5.41a.34.34,0,0,1-.12.47A.35.35,0,0,1,135.34,156.17Z"/><line class="cls-10" x1="111.69" y1="125.02" x2="116.11" y2="129.44"/><path class="cls-9" d="M116.11,129.78a.33.33,0,0,1-.24-.1l-4.42-4.42a.34.34,0,0,1,.48-.48l4.42,4.42a.33.33,0,0,1,0,.48A.31.31,0,0,1,116.11,129.78Z"/><line class="cls-10" x1="134.98" y1="148.3" x2="139.39" y2="152.72"/><path class="cls-9" d="M139.39,153.06a.34.34,0,0,1-.24-.1l-4.42-4.42a.34.34,0,0,1,0-.48.36.36,0,0,1,.49,0l4.41,4.42a.33.33,0,0,1,0,.48A.31.31,0,0,1,139.39,153.06Z"/><line class="cls-10" x1="108.58" y1="129.08" x2="113.99" y2="132.2"/><path class="cls-9" d="M114,132.54a.35.35,0,0,1-.17,0l-5.41-3.13a.34.34,0,0,1,.34-.59l5.41,3.13a.33.33,0,0,1,.13.46A.35.35,0,0,1,114,132.54Z"/><line class="cls-10" x1="137.09" y1="145.54" x2="142.51" y2="148.66"/><path class="cls-9" d="M142.51,149a.33.33,0,0,1-.17,0l-5.42-3.13a.34.34,0,0,1,.34-.59l5.42,3.13a.34.34,0,0,1-.17.63Z"/><line class="cls-10" x1="106.62" y1="133.8" x2="112.66" y2="135.42"/><path class="cls-9" d="M112.66,135.76h-.09l-6-1.62a.34.34,0,0,1-.24-.42.33.33,0,0,1,.41-.24l6,1.62a.34.34,0,0,1-.09.67Z"/><line class="cls-10" x1="138.43" y1="142.32" x2="144.46" y2="143.94"/><path class="cls-9" d="M144.46,144.28h-.09l-6-1.62a.34.34,0,1,1,.18-.66l6,1.62a.34.34,0,0,1-.09.67Z"/><line class="cls-10" x1="105.96" y1="138.87" x2="112.21" y2="138.87"/><path class="cls-9" d="M112.21,139.21H106a.34.34,0,1,1,0-.68h6.25a.34.34,0,0,1,0,.68Z"/><line class="cls-10" x1="138.88" y1="138.87" x2="145.13" y2="138.87"/><path class="cls-9" d="M145.13,139.21h-6.25a.34.34,0,0,1,0-.68h6.25a.34.34,0,0,1,0,.68Z"/><line class="cls-10" x1="106.62" y1="143.94" x2="112.66" y2="142.32"/><path class="cls-9" d="M106.62,144.28a.33.33,0,0,1-.32-.25.34.34,0,0,1,.24-.42l6-1.62a.34.34,0,0,1,.42.24.34.34,0,0,1-.24.42l-6,1.62Z"/><line class="cls-10" x1="138.43" y1="135.42" x2="144.46" y2="133.8"/><path class="cls-9" d="M138.43,135.76a.34.34,0,0,1-.09-.67l6-1.62a.34.34,0,0,1,.42.24.34.34,0,0,1-.24.42l-6,1.62Z"/><line class="cls-10" x1="108.58" y1="148.66" x2="113.99" y2="145.54"/><path class="cls-9" d="M108.58,149a.32.32,0,0,1-.29-.17.33.33,0,0,1,.12-.46l5.41-3.13a.36.36,0,0,1,.47.13.33.33,0,0,1-.13.46L108.75,149A.33.33,0,0,1,108.58,149Z"/><line class="cls-10" x1="137.09" y1="132.2" x2="142.51" y2="129.08"/><path class="cls-9" d="M137.09,132.54a.34.34,0,0,1-.17-.63l5.42-3.13a.33.33,0,0,1,.46.13.34.34,0,0,1-.12.46l-5.42,3.13A.33.33,0,0,1,137.09,132.54Z"/><line class="cls-10" x1="111.69" y1="152.72" x2="116.11" y2="148.3"/><path class="cls-9" d="M111.69,153.06a.34.34,0,0,1-.24-.58l4.42-4.42a.34.34,0,0,1,.48,0,.33.33,0,0,1,0,.48L111.93,153A.31.31,0,0,1,111.69,153.06Z"/><line class="cls-10" x1="134.98" y1="129.44" x2="139.39" y2="125.02"/><path class="cls-9" d="M135,129.78a.34.34,0,0,1-.25-.58l4.42-4.42a.34.34,0,0,1,.48,0,.33.33,0,0,1,0,.48l-4.41,4.42A.34.34,0,0,1,135,129.78Z"/><line class="cls-10" x1="115.75" y1="155.83" x2="118.87" y2="150.42"/><path class="cls-9" d="M115.75,156.17a.33.33,0,0,1-.17,0,.34.34,0,0,1-.12-.47l3.12-5.41a.34.34,0,0,1,.59.34L116,156A.32.32,0,0,1,115.75,156.17Z"/><line class="cls-10" x1="132.21" y1="127.32" x2="135.34" y2="121.91"/><path class="cls-9" d="M132.21,127.66a.37.37,0,0,1-.17,0,.33.33,0,0,1-.12-.46l3.12-5.41a.34.34,0,1,1,.59.34l-3.12,5.41A.35.35,0,0,1,132.21,127.66Z"/><line class="cls-10" x1="120.47" y1="157.79" x2="122.09" y2="151.75"/><path class="cls-9" d="M120.47,158.13h-.08a.35.35,0,0,1-.25-.42l1.62-6a.35.35,0,0,1,.42-.25.34.34,0,0,1,.24.42l-1.62,6A.34.34,0,0,1,120.47,158.13Z"/><line class="cls-10" x1="129" y1="125.99" x2="130.61" y2="119.95"/><path class="cls-9" d="M129,126.33l-.09,0a.33.33,0,0,1-.24-.41l1.61-6a.34.34,0,0,1,.66.18l-1.62,6A.33.33,0,0,1,129,126.33Z"/><path class="cls-11" d="M214.78,190.9a15.07,15.07,0,0,1-11.09,4.84h-4.57v8.37a1.51,1.51,0,0,1-1.65,1.34H176.56a1.65,1.65,0,0,1-1.57-.94l-.47-1.19-2.92-7.58H123.2l-3.4,8.77a1.64,1.64,0,0,1-1.57.94H97.32a1.52,1.52,0,0,1-1.65-1.34v-8.38a15.07,15.07,0,0,1-10.93-5.38,100.42,100.42,0,0,1,11.88-8.3c22.85-13.57,57.5-21.36,104.76,1.68Q207.92,186.91,214.78,190.9Z"/><path class="cls-12" d="M182.82,79.32a127.07,127.07,0,0,1-11.88,9.28c-23.66,16.49-56.33,29.72-78.76,37.69-4,1.43-7.73,2.69-11,3.77V94.42a15.1,15.1,0,0,1,15.11-15.1Z"/><path class="cls-13" d="M228.22,145.45l-9.33,6.92L217,153.73l-8.73,6.47-.39.29V142.7l-.1.06.1-.07v-6.1l5-3.71,2-1.47,1.81-1.34.06,0a1.4,1.4,0,0,1,2,.3l.14.18,3.85,5.2,4.94,6.67.83,1.12A1.39,1.39,0,0,1,228.22,145.45Z"/><path class="cls-14" d="M226.15,144a1.19,1.19,0,0,1-.46.9l-1.23.9-5.57,4.13-3.17,2.35-7.8,5.77V142.7l-.1.06.1-.07V139l8.66-6.42h0a1.15,1.15,0,0,1,1.61.24l.69.94,1.39,1.87a1.77,1.77,0,0,1,.26,1.59l-.07.23h0a1.55,1.55,0,0,0-.07.35,1.74,1.74,0,0,0,1.77,1.93h.24a1.73,1.73,0,0,1,1.44.71l1.29,1.74.79,1.07A1.09,1.09,0,0,1,226.15,144Z"/><path class="cls-15" d="M215.32,146.53h0a3,3,0,0,1,0,.42s0,0,0,0,0,.24,0,.36a.45.45,0,0,1,0,.11,1.73,1.73,0,0,1-.07.31,3.16,3.16,0,0,1-.17.52,2.52,2.52,0,0,1-.15.34,0,0,0,0,1,0,0l-.19.35q-.13.21-.3.42l-.28.33-.23.23-.18.16a1.84,1.84,0,0,1-.22.17l-.32.23-.37.2-.27.12a4,4,0,0,1-.74.25l-.27,0-.12,0h-.09a2.13,2.13,0,0,1-.25,0l-.36,0h0l-.42,0h0l-.36,0-.11,0a1.73,1.73,0,0,1-.31-.07,3.16,3.16,0,0,1-.52-.17,2.52,2.52,0,0,1-.34-.15s0,0,0,0a2.91,2.91,0,0,1-.35-.18l-.24-.17V142.7l.22-.16.37-.2.27-.13a4.91,4.91,0,0,1,.74-.24l.27-.05.12,0H210a2.13,2.13,0,0,1,.25,0l.36,0h0a3,3,0,0,1,.42,0h0l.36,0,.11,0a1.73,1.73,0,0,1,.31.07,3.16,3.16,0,0,1,.52.17,2.52,2.52,0,0,1,.34.15h0l.35.19q.21.14.42.3a2.88,2.88,0,0,1,.33.28l.23.22.16.19.18.22.22.32.2.37c0,.09.09.18.12.27a4,4,0,0,1,.25.74,2.56,2.56,0,0,1,.05.27.5.5,0,0,1,0,.12.28.28,0,0,1,0,.09,1.9,1.9,0,0,1,0,.25C215.31,146.29,215.32,146.41,215.32,146.53Z"/><path class="cls-13" d="M227.73,142.31l0,.06L226.15,144l-1.69,1.8-5.57,6-1.85,2-9.13,9.76c0-.12,0-.24,0-.37V142.7l-.1.06.1-.07v-7.32l5.79-6.18a1.39,1.39,0,0,1,2-.07l1,.95,2.16,2,3.85,3.6,4.93,4.61A1.43,1.43,0,0,1,227.73,142.31Z"/><path class="cls-14" d="M225.14,142.2h0l-6.24,6.68-3.17,3.39-7.41,7.92-.39.42V142.7l-.1.06.1-.07v-4.45l5-5.36,1-1.12a1.13,1.13,0,0,1,.94-.35,1.11,1.11,0,0,1,.69.3l1,.9,1.59,1.49a1.74,1.74,0,0,1,.53,1.51l0,.24a1.94,1.94,0,0,0,0,.24,1.76,1.76,0,0,0,1.74,1.74l.36,0,.24-.05a1.75,1.75,0,0,1,1.54.43l2.56,2.4A1.15,1.15,0,0,1,225.14,142.2Z"/><path class="cls-15" d="M215.32,146.53h0a3,3,0,0,1,0,.42s0,0,0,0,0,.24,0,.36a.45.45,0,0,1,0,.11,1.73,1.73,0,0,1-.07.31,3.16,3.16,0,0,1-.17.52,2.52,2.52,0,0,1-.15.34,0,0,0,0,1,0,0l-.19.35q-.13.21-.3.42l-.28.33-.23.23-.18.16a1.84,1.84,0,0,1-.22.17l-.32.23-.37.2-.27.12a4,4,0,0,1-.74.25l-.27,0-.12,0h-.09a2.13,2.13,0,0,1-.25,0l-.36,0h0l-.42,0h0l-.36,0-.11,0a1.73,1.73,0,0,1-.31-.07,3.16,3.16,0,0,1-.52-.17,2.52,2.52,0,0,1-.34-.15s0,0,0,0a2.91,2.91,0,0,1-.35-.18l-.24-.17V142.7l-.1.06.1-.07.22-.15.37-.2.27-.13a4.91,4.91,0,0,1,.74-.24l.27-.05.12,0H210a2.13,2.13,0,0,1,.25,0l.36,0h0a3,3,0,0,1,.42,0h0l.36,0,.11,0a1.73,1.73,0,0,1,.31.07,3.16,3.16,0,0,1,.52.17,2.52,2.52,0,0,1,.34.15h0l.35.19q.21.14.42.3a2.88,2.88,0,0,1,.33.28l.23.22.16.19.18.22.22.32.2.37c0,.09.09.18.12.27a4,4,0,0,1,.25.74,2.56,2.56,0,0,1,.05.27.5.5,0,0,1,0,.12.28.28,0,0,1,0,.09,1.9,1.9,0,0,1,0,.25C215.31,146.29,215.32,146.41,215.32,146.53Z"/></svg>