<svg width="150" height="73" viewBox="0 0 150 73" fill="none" xmlns="http://www.w3.org/2000/svg">
<g clip-path="url(#clip0_20_40)">
<path d="M11.0851 25.0603H10.958L12.1967 29.2212L11.0851 25.0603ZM18.8858 51.569L18.924 51.7024L18.9621 51.569H18.8858Z" fill="white"/>
<path d="M37.6699 25.0603L25.6892 60.5577H12.0569L0 25.0603H10.9579L12.1967 29.1958L14.9409 38.3814L18.8858 51.5691L18.9239 51.7025L18.962 51.5691L22.9069 38.3814L26.8899 25.0603H37.6699Z" fill="white"/>
<path d="M46.4553 25.9878V60.3481H56.3207V25.9878H46.4553Z" fill="white"/>
<path d="M46.4553 12.0252V21.2743H56.3207V12.0252H46.4553Z" fill="white"/>
<path d="M64.4072 12.0252V21.2743H74.2726V12.0252H64.4072Z" fill="white"/>
<path d="M64.5216 26.045V59.7129C64.5216 61.9616 63.3718 63.4862 61.1167 63.4862C60.3384 63.4881 59.5618 63.4136 58.7981 63.2639V71.7825C59.8491 71.9496 60.9103 72.0451 61.9743 72.0683C71.0329 72.0683 74.3743 66.7831 74.3743 58.436V26.045H64.5216Z" fill="white"/>
<path d="M96.519 25.1175C87.0221 25.1175 82.2323 31.4128 81.0698 37.6445L90.3571 37.8859C90.9923 34.5445 92.8981 32.9437 96.1632 32.9437C99.9302 32.9437 101.455 34.9828 101.455 38.5402V40.9287H92.4597C83.3885 40.9287 79.7549 45.2103 79.7549 51.3721C79.7549 58.1248 84.0364 61.0913 89.8362 61.0913C95.636 61.0913 101.944 52.1979 101.944 52.1979V60.3481H111.231V38.5402C111.244 29.9073 106.962 25.1175 96.519 25.1175ZM101.455 47.1732C101.455 50.8639 98.6216 53.5256 94.1241 53.5256C90.3571 53.5256 89.1247 51.785 89.1247 49.6061C89.1247 47.2113 91.1511 45.7947 94.3401 45.7947H101.455V47.1732Z" fill="white"/>
<path d="M150 25.9243L136.431 60.4561C133.096 68.8667 130.257 72.4876 121.63 72.4876C119.73 72.492 117.833 72.324 115.964 71.9858L115.906 63.6387C117.368 63.9548 118.858 64.1272 120.353 64.1532H120.455C121.396 64.1452 122.322 63.9095 123.153 63.4664C123.983 63.0232 124.695 62.3856 125.226 61.6081C125.757 60.8306 126.092 59.9361 126.202 59.001C126.313 58.066 126.196 57.118 125.861 56.2381L114.344 25.9243H125.143L128.554 38.5466C129.31 41.4052 130.187 44.5877 131.032 47.7576L132.004 51.0227L132.467 52.5664L132.931 51.0227L134.335 46.3347C135.021 43.6793 135.688 41.1066 136.241 38.7626L139.417 25.9243H150Z" fill="white"/>
<path d="M0 8.09935V15.6333C0 18.7587 1.60081 21.2934 5.41862 21.2934C6.74201 21.3149 8.0586 21.0997 9.30631 20.6581L9.2682 16.8022C8.57631 17.0522 7.84988 17.1937 7.11472 17.2214C6.79963 17.2337 6.48537 17.1812 6.19137 17.0672C5.89737 16.9532 5.62987 16.7801 5.40542 16.5586C5.18096 16.3372 5.00432 16.072 4.8864 15.7796C4.76848 15.4871 4.7118 15.1736 4.71986 14.8583V8.09935H9.25549V4.34506H4.71986V0H0V4.34506" fill="white"/>
<path d="M21.3824 5.08194C18.8922 5.08194 17.1136 6.67005 16.2052 9.61123H15.9511V0.0444641H11.5488V20.8106H15.9511V12.2729C15.9511 10.3672 17.1453 9.03316 19.0193 9.03316C20.6074 9.03316 21.3506 10.1067 21.3506 11.6567V20.8106H25.7465V10.4243C25.7465 7.09566 24.2918 5.08194 21.3824 5.08194Z" fill="white"/>
<path d="M42.7963 11.9299H28.0777C28.0151 12.4399 27.9854 12.9534 27.9888 13.4672C27.9888 18.6762 31.165 21.2298 35.7832 21.2298C39.798 21.2298 41.6211 19.5337 42.4151 17.2024C42.4379 17.1299 42.4434 17.0531 42.4312 16.9781C42.4191 16.9032 42.3897 16.832 42.3453 16.7704C42.3009 16.7087 42.2428 16.6583 42.1755 16.623C42.1083 16.5877 42.0337 16.5686 41.9578 16.5671L38.915 16.5163C38.3432 18.0727 37.7652 18.2632 35.2623 18.168C33.1597 18.0854 32.1814 15.862 32.3211 14.1342H41.926C42.1389 14.1299 42.3425 14.046 42.4965 13.899C42.6506 13.752 42.7439 13.5526 42.7582 13.3401C42.7899 12.8446 42.8027 12.4 42.7963 11.9299Z" fill="white"/>
<path d="M32.1813 8.84894C33.1917 8.84894 34.0108 8.02985 34.0108 7.01944C34.0108 6.00904 33.1917 5.18994 32.1813 5.18994C31.1709 5.18994 30.3518 6.00904 30.3518 7.01944C30.3518 8.02985 31.1709 8.84894 32.1813 8.84894Z" fill="white"/>
<path d="M40.554 7.12742L38.2418 8.34709C38.1483 8.39678 38.0411 8.41438 37.9366 8.39716C37.8322 8.37994 37.7363 8.32887 37.6637 8.25181C37.4382 8.00661 37.284 7.7045 37.2176 7.37809C37.1512 7.05167 37.1752 6.71332 37.287 6.39954C37.3988 6.08576 37.5941 5.80845 37.8519 5.59752C38.1097 5.3866 38.4202 5.25006 38.7499 5.20264C39.2047 5.14311 39.6652 5.25717 40.0396 5.52208C40.414 5.78699 40.6748 6.18328 40.77 6.63193C40.7913 6.72676 40.7819 6.82591 40.7431 6.915C40.7042 7.00409 40.638 7.0785 40.554 7.12742Z" fill="white"/>
<path d="M11.0851 25.0603L12.1967 29.1958L10.958 25.0603H11.0851Z" fill="white"/>
<path d="M18.962 51.569L18.9239 51.7024L18.8857 51.569H18.962Z" fill="white"/>
</g>
<defs>
<clipPath id="clip0_20_40">
<rect width="150" height="72.4876" fill="black"/>
</clipPath>
</defs>
</svg>
