<svg width="50" height="50" viewBox="0 0 50 50" fill="none" xmlns="http://www.w3.org/2000/svg">
<path d="M46.0592 31.316C45.794 31.2478 45.5179 31.2327 45.2469 31.2715C44.9758 31.3103 44.7151 31.4023 44.4797 31.5422C44.2443 31.6821 44.0389 31.8672 43.8753 32.0867C43.7117 32.3063 43.593 32.556 43.5262 32.8215C43.1448 34.2931 42.2399 35.5751 40.981 36.4273C39.7221 37.2794 38.1956 37.6433 36.6877 37.4506C35.1798 37.258 33.7938 36.522 32.7896 35.3807C31.7854 34.2394 31.2319 32.7711 31.2327 31.2509V29.1676H45.816C46.0896 29.1677 46.3606 29.1138 46.6134 29.0091C46.8662 28.9045 47.0959 28.751 47.2893 28.5576C47.4828 28.3641 47.6363 28.1344 47.7409 27.8816C47.8456 27.6288 47.8994 27.3579 47.8994 27.0843C47.8994 25.7163 47.6299 24.3618 47.1065 23.098C46.583 21.8342 45.8157 20.6858 44.8484 19.7186C43.8811 18.7513 42.7328 17.984 41.469 17.4605C40.2052 16.937 38.8506 16.6676 37.4827 16.6676C36.1148 16.6676 34.7602 16.937 33.4964 17.4605C32.2326 17.984 31.0843 18.7513 30.117 19.7186C29.1497 20.6858 28.3824 21.8342 27.859 23.098C27.3355 24.3618 27.066 25.7163 27.066 27.0843V31.2509C27.0652 33.7867 27.9897 36.2356 29.666 38.1383C31.3423 40.0409 33.6553 41.2665 36.171 41.5851C38.6867 41.9037 41.2322 41.2934 43.3299 39.8687C45.4276 38.444 46.9334 36.3029 47.5647 33.8469C47.6322 33.5819 47.6467 33.3062 47.6076 33.0355C47.5684 32.7648 47.4763 32.5045 47.3365 32.2695C47.1967 32.0344 47.0119 31.8292 46.7927 31.6656C46.5735 31.502 46.3243 31.3832 46.0592 31.316V31.316ZM37.4827 20.8343C39.1356 20.8349 40.7214 21.4878 41.8955 22.6511C42.5476 23.3178 43.0446 24.1202 43.3511 25.0009H31.6167C32.0447 23.7858 32.8383 22.733 33.8886 21.9869C34.9389 21.2409 36.1944 20.8382 37.4827 20.8343V20.8343ZM33.316 14.5843H41.6494C42.2019 14.5843 42.7318 14.3648 43.1225 13.9741C43.5132 13.5834 43.7327 13.0535 43.7327 12.5009C43.7327 11.9484 43.5132 11.4185 43.1225 11.0278C42.7318 10.6371 42.2019 10.4176 41.6494 10.4176H33.316C32.7635 10.4176 32.2336 10.6371 31.8429 11.0278C31.4522 11.4185 31.2327 11.9484 31.2327 12.5009C31.2327 13.0535 31.4522 13.5834 31.8429 13.9741C32.2336 14.3648 32.7635 14.5843 33.316 14.5843V14.5843ZM20.6452 24.4117C21.7571 23.229 22.498 21.7465 22.7764 20.1473C23.0548 18.5482 22.8585 16.9025 22.2118 15.4137C21.565 13.9249 20.4962 12.6582 19.1373 11.7703C17.7785 10.8824 16.1893 10.4121 14.566 10.4176H4.14937C3.87577 10.4175 3.60482 10.4714 3.35203 10.576C3.09923 10.6807 2.86954 10.8341 2.67607 11.0276C2.4826 11.2211 2.32914 11.4508 2.22447 11.7036C2.1198 11.9564 2.06597 12.2273 2.06604 12.5009V39.5843C2.06597 39.8579 2.11981 40.1288 2.22448 40.3816C2.32915 40.6344 2.48261 40.8641 2.67608 41.0576C2.86955 41.251 3.09924 41.4045 3.35203 41.5091C3.60483 41.6138 3.87577 41.6677 4.14937 41.6676H15.6077C17.6351 41.6713 19.6088 41.0164 21.2319 39.8017C22.8551 38.5869 24.0398 36.8779 24.608 34.9318C25.1761 32.9856 25.0969 30.9076 24.3822 29.0104C23.6676 27.1132 22.3561 25.4993 20.6452 24.4117V24.4117ZM6.23271 14.5843H14.566C15.6711 14.5843 16.7309 15.0232 17.5123 15.8046C18.2937 16.586 18.7327 17.6459 18.7327 18.7509C18.7327 19.856 18.2937 20.9158 17.5123 21.6972C16.7309 22.4786 15.6711 22.9176 14.566 22.9176H6.23271V14.5843ZM15.6077 37.5009H6.23271V27.0843H15.6077C16.989 27.0843 18.3138 27.633 19.2906 28.6097C20.2673 29.5865 20.816 30.9113 20.816 32.2926C20.816 33.6739 20.2673 34.9987 19.2906 35.9754C18.3138 36.9522 16.989 37.5009 15.6077 37.5009Z" fill="white"/>
</svg>
