<svg id="Layer_1" data-name="Layer 1" xmlns="http://www.w3.org/2000/svg" viewBox="0 0 300 300"><defs><style>.cls-1{fill:#aeb879;}.cls-2{fill:#0d0e18;opacity:0.15;}.cls-3{fill:#cc673f;}.cls-4{fill:#9b5f3d;}.cls-5{fill:#8c4728;}.cls-6{fill:#0f0e16;}.cls-12,.cls-7{fill:none;stroke-miterlimit:10;}.cls-7{stroke:#383838;}.cls-8{fill:#2e2f43;}.cls-9{fill:#1b1e33;}.cls-10{fill:#0c0f18;}.cls-11{fill:#421507;}.cls-12{stroke:#90472c;stroke-linecap:round;stroke-width:4px;}</style></defs><rect class="cls-1" width="300" height="300"/><path class="cls-2" d="M76.69,214.46s-13.86,14,14.89,19,121.46,1.7,134.17-13.1S113.05,168.74,76.69,214.46Z"/><ellipse class="cls-3" cx="169.65" cy="192.11" rx="25.24" ry="33.37"/><ellipse class="cls-4" cx="165.06" cy="193.19" rx="18.53" ry="29.65"/><path class="cls-5" d="M165.07,173.19c-6.91,0-12.5,8.95-12.5,20s5.59,20,12.5,20,12.5-9,12.5-20S172,173.19,165.07,173.19Zm0,35.95c-5.51,0-10-7.14-10-15.95s4.46-16,10-16,10,7.15,10,16S170.57,209.14,165.07,209.14Z"/><path class="cls-6" d="M226,110c-6.15-23.15-23-38.75-37.73-34.84s-21.61,25.83-15.45,49,23,38.75,37.73,34.85S232.2,133.11,226,110Zm-18.8,36.38c-10.27,2.73-22.08-8.18-26.39-24.36s.54-31.53,10.81-34.26,22.08,8.18,26.39,24.37S217.51,143.61,207.24,146.34Z"/><path class="cls-7" d="M207.24,146.34c-10.27,2.73-22.08-8.18-26.39-24.36s.54-31.53,10.81-34.26,22.08,8.18,26.39,24.37S217.51,143.61,207.24,146.34Z"/><path class="cls-8" d="M207.24,146.34c-10.27,2.73-22.08-8.18-26.39-24.36s.54-31.53,10.81-34.26,22.08,8.18,26.39,24.37S217.51,143.61,207.24,146.34Z"/><path class="cls-8" d="M81.61,156.09s-8.27-23.52,14.2-41.93A54.33,54.33,0,0,1,119,103.25c24.53-5.24,16.82,5.41,50.48-9.83l3.71-2.29s-9.89,46.12,23.46,63.94c0,0-20.11,7.41-33.35,24s-36.35,3.53-38.12,0-4-18.7-28.23-24.8a20.86,20.86,0,0,0-7.86-.55C86.6,154,83.47,155.47,81.61,156.09Z"/><path class="cls-9" d="M108.66,149.42c-9.6-2.48-17.63-3.55-23.74-2.72a20.6,20.6,0,0,0-4.73,1.17c-.48-8.5,1.48-22.12,15.62-33.71A54.44,54.44,0,0,1,119,103.25c12.88-2.75,16.87-1.12,22.62-1.16a30.12,30.12,0,0,0,5.36-.53c-.49,8.52-1.2,29.15,2.32,43C153.83,162.48,128.66,154.6,108.66,149.42Z"/><path class="cls-10" d="M122.18,198.89a7.34,7.34,0,0,0,7.06.71c3.71-1.77.35-3.88,3.71-4.41s19.23-1.42,20.29,0,1.06,5.86,7.06,5,20.29-19.51,19.24-28.51-10.42-.89-16.24,6.35-24.35,13.76-38.12,0c0,0-12.33-35.71-43.57-23.42v7.89S122.71,197.48,122.18,198.89Z"/><ellipse class="cls-3" cx="96.95" cy="189.46" rx="25.24" ry="33.37"/><ellipse class="cls-4" cx="92.36" cy="190.54" rx="18.53" ry="29.65"/><path class="cls-5" d="M92.36,166C83.89,166,77,177,77,190.54s6.86,24.53,15.33,24.53,15.33-11,15.33-24.53S100.83,166,92.36,166Zm0,44.68c-7,0-12.59-9-12.59-20.15s5.64-20.15,12.59-20.15,12.6,9,12.6,20.15S99.32,210.69,92.36,210.69Z"/><ellipse class="cls-11" cx="92.36" cy="190.54" rx="3.64" ry="5.82"/><path class="cls-9" d="M196.66,155.07a81.75,81.75,0,0,0-11.79,5.82c-40.2-37.06-18.74-66-18.74-66l3.35-1.49,3.71-2.29a84.78,84.78,0,0,0-.62,26.46l4.8,16.89A43.37,43.37,0,0,0,196.66,155.07Z"/><path class="cls-12" d="M76.67,111.38s10.59-.23,14.59,5.65"/><path class="cls-6" d="M84.21,121.59s9.77-10.47,12-11.65c0,0,3,.94,2.83,2,0,0-11.3,11.41-11.77,12.71C87.27,124.65,84,123.59,84.21,121.59Z"/></svg>