<svg id="Layer_1" data-name="Layer 1" xmlns="http://www.w3.org/2000/svg" viewBox="0 0 300 300"><defs><style>.cls-1{fill:#ce3309;}.cls-2{fill:#070707;opacity:0.09;}.cls-3{fill:#ffa64d;}.cls-3,.cls-4,.cls-5,.cls-7,.cls-8,.cls-9{stroke:#730807;stroke-miterlimit:10;}.cls-3,.cls-4,.cls-5,.cls-9{stroke-width:1.5px;}.cls-4{fill:#f7972d;}.cls-5{fill:#5cff5c;}.cls-6{fill:#0e910c;}.cls-7{fill:#ac350b;}.cls-8{fill:#c43c12;}.cls-9{fill:#ffcf03;}.cls-10{fill:#ffd66b;}</style></defs><rect class="cls-1" width="300" height="300"/><polygon class="cls-2" points="157.38 300 89.44 183.65 207.12 124.72 300 155.15 300 300 157.38 300"/><path class="cls-3" d="M92.16,186C90,184.72,89,182,89,179.37v-5.31H206.83v5.47a9.18,9.18,0,0,1-.29,2.33"/><path class="cls-4" d="M206.57,181.76c-.58,1.53-1.94,3.92-3.39,4.57-35.23,15.81-73,15.32-111.11-.41"/><path class="cls-5" d="M96.51,167.16s-13.92,6.34-11.64,10.7c2.28,2.44,11.83.51,13-.51s9.18,2.88,12.39,1.28-2.65-3.91,1.6-3.27,6.35,4,10.6,3.4,8.93-3,12.32-2,10.23,7.95,16,6,7.08-5.57,9.06-5.77,3.69,3.66,9.55,2.31,5.48-1.86,6.41-2.69,1.72,4.16,6.16,2.56,4.81-1.28,4-2.37,5,5.19,7.39,4.23,1.67-5.47,2.77-5.88,2.53,4,7.52,2.87,4.78-1.41,4.78-1.41a13.8,13.8,0,0,1,2.59-.55c.64,0-1.57-3.07-2.5-4.32s-1.39-3.43-2.65-3.91-1.72-1.86-2.06-2.69-1.08-.32-1.11-1.38-106.83-.86-106.83-.86-5.09.7-4.07,1.41S96.51,167.16,96.51,167.16Z"/><path class="cls-6" d="M149.11,180.09c-2.57,0-5.75-2-8.3-3.67a20.87,20.87,0,0,0-4.72-2.53,8.87,8.87,0,0,0-2.64-.37,25.06,25.06,0,0,0-6.57,1.25,32,32,0,0,1-4.29,1,4.12,4.12,0,0,1-.6,0,7.92,7.92,0,0,1-3.64-1.31,16.2,16.2,0,0,0-5.57-2.12,11.33,11.33,0,0,0-1.52-.14,3.23,3.23,0,0,0-3.1,1.84,3.16,3.16,0,0,0-.26,1.88,32,32,0,0,1-4.52-1,18.77,18.77,0,0,0-4.32-.83,3.82,3.82,0,0,0-2.35.73A22.15,22.15,0,0,1,89.86,176h0c-.48,0-.87,0-1.2,0,1.58-1.68,5.59-4.29,9.52-6.08l5.25-2.39-2.78-1.66h14.4c48.19,0,79.79.25,86.38.66a3.67,3.67,0,0,0,.52.42,6.47,6.47,0,0,0,3.15,3.56c.14.23.35.66.5,1a12.59,12.59,0,0,0,1.17,2.08l.35.47-2.83.84,0,0-.71.16a4.16,4.16,0,0,1-1,.11,3.57,3.57,0,0,1-2.66-1.42,4.55,4.55,0,0,0-3.16-1.64,3.22,3.22,0,0,0-1.1.19c-2,.74-2.41,2.89-2.66,4.31-.06.34-.15.87-.26,1.28a22.53,22.53,0,0,1-3.9-3,3.43,3.43,0,0,0-2.47-1.23h-1.79l-.8,1.68-.1.23c-.59.2-1.31.44-2.19.76a2.31,2.31,0,0,1-.71.15c-.32,0-.55-.2-1.17-1a4,4,0,0,0-3.12-2,3.19,3.19,0,0,0-2.11.83c-.21.2-.38.38-.55.56l-.13.14c-.1.07-.78.49-4.46,1.33a8,8,0,0,1-1.74.22,5.88,5.88,0,0,1-3.51-1.27,6.49,6.49,0,0,0-3.53-1.33,3,3,0,0,0-.42,0c-1.75.17-2.94,1.28-4.09,2.35a14.35,14.35,0,0,1-5.6,3.55A3.9,3.9,0,0,1,149.11,180.09Z"/><rect class="cls-7" x="89.44" y="150.13" width="116.9" height="19.4" rx="5.03"/><path class="cls-8" d="M201.31,164.53a5,5,0,0,0,5-5"/><path class="cls-8" d="M206.34,159.5v5a5,5,0,0,1-5,5H94.47a5,5,0,0,1-5-5v-5"/><path class="cls-7" d="M206.34,150.15v5a5,5,0,0,0-5-5H94.47a5,5,0,0,0-5,5v-5a5,5,0,0,1,5-5H201.31A5,5,0,0,1,206.34,150.15Z"/><path class="cls-4" d="M194.33,115.37c2.88,1.46,5.76,3.07,8.65,4.8a8.07,8.07,0,0,1,3.85,6.93v14.5a3.74,3.74,0,0,1-3.67,3.81H92.62A3.74,3.74,0,0,1,89,141.6v-2.12"/><path class="cls-3" d="M89,139.48V126.94a8.09,8.09,0,0,1,3.65-6.81c29-18.55,58.94-22.09,89.87-10.1a122.17,122.17,0,0,1,11.86,5.34"/><path class="cls-9" d="M207,147.84a3.21,3.21,0,0,1-.8,2.84,2.94,2.94,0,0,1-2.1.9H193c-2.78,0-9.65,8.59-12.77,8.59-2.62,0-3.5-6.12-5.18-8.59a2.38,2.38,0,0,0-1-.94c-.78-.29-1.42.18-2,.94-1.24,1.65-2.23,4.63-3.91,4.17a7.8,7.8,0,0,1-3.56-2.87,3.21,3.21,0,0,0-2.58-1.3H91.84a3.14,3.14,0,0,1-3.13-3.28,3.05,3.05,0,0,1,.86-2,2.92,2.92,0,0,1,2.09-.9H204A3.08,3.08,0,0,1,207,147.84Z"/><path class="cls-10" d="M99.8,126.74a1,1,0,0,0,0-2,1,1,0,0,0,0,2Z"/><path class="cls-10" d="M114.36,120.35a1,1,0,0,0,0-2,1,1,0,0,0,0,2Z"/><path class="cls-10" d="M112.19,128a1,1,0,0,0,0-2,1,1,0,0,0,0,2Z"/><path class="cls-10" d="M116.91,123.42a1,1,0,0,0,0-2,1,1,0,0,0,0,2Z"/><path class="cls-10" d="M128.08,114.82l-.13.12a.72.72,0,0,0-.21.33.79.79,0,0,0-.09.38.86.86,0,0,0,.09.39.75.75,0,0,0,.21.32l.2.15a1,1,0,0,0,.5.14l.27,0a1,1,0,0,0,.44-.26l.13-.13a1,1,0,0,0,.29-.71.73.73,0,0,0-.08-.38.69.69,0,0,0-.21-.32l-.2-.16a1,1,0,0,0-.51-.14l-.26,0a.94.94,0,0,0-.44.26Z"/><path class="cls-10" d="M140.78,124.17l.25-.12a.78.78,0,0,0,.28-.26.75.75,0,0,0,.18-.34.78.78,0,0,0,0-.4.81.81,0,0,0-.12-.37l-.16-.2a.94.94,0,0,0-.44-.26l-.26,0a1,1,0,0,0-.51.14l-.25.13a1.08,1.08,0,0,0-.46.59.78.78,0,0,0,0,.4.85.85,0,0,0,.12.38l.15.2a1,1,0,0,0,.45.25l.26,0a1,1,0,0,0,.51-.14Z"/><path class="cls-10" d="M152.53,117.42a1,1,0,0,0,0-2,1,1,0,0,0,0,2Z"/><path class="cls-10" d="M159.42,113.2a1.5,1.5,0,0,1,.3,0l-.27,0a1.09,1.09,0,0,1,.31.08l-.24-.1a1.35,1.35,0,0,1,.26.15l-.21-.16a1.17,1.17,0,0,1,.16.15.78.78,0,0,0,.33.21.82.82,0,0,0,.38.09.86.86,0,0,0,.39-.09.75.75,0,0,0,.32-.21,1,1,0,0,0,.29-.7l0-.27a1,1,0,0,0-.26-.44,2.64,2.64,0,0,0-.41-.34,2.19,2.19,0,0,0-.49-.23,2.38,2.38,0,0,0-.53-.11,1.5,1.5,0,0,0-.3,0,.86.86,0,0,0-.39.09.83.83,0,0,0-.32.2.86.86,0,0,0-.2.33.71.71,0,0,0-.09.38l0,.27a1,1,0,0,0,.25.44l.21.16a1,1,0,0,0,.5.13Z"/><path class="cls-10" d="M177.55,127.12h.25a.75.75,0,0,0,.39-.09.83.83,0,0,0,.32-.2.72.72,0,0,0,.21-.33.69.69,0,0,0,.08-.38l0-.27a1.1,1.1,0,0,0-.26-.44l-.2-.15a.94.94,0,0,0-.51-.14h-.25a.66.66,0,0,0-.39.09.72.72,0,0,0-.32.2,1,1,0,0,0-.29.71l0,.26a1.13,1.13,0,0,0,.26.45l.2.15a1,1,0,0,0,.51.14Z"/><path class="cls-10" d="M157.38,133.54H157a.85.85,0,0,0-.38.09.94.94,0,0,0-.53.53.85.85,0,0,0-.09.38l0,.27a.94.94,0,0,0,.26.44l.2.16a1,1,0,0,0,.5.13h.39a.71.71,0,0,0,.38-.08.78.78,0,0,0,.33-.21.83.83,0,0,0,.2-.32.86.86,0,0,0,.09-.39l0-.26a1,1,0,0,0-.25-.44l-.21-.16a1,1,0,0,0-.5-.14Z"/><path class="cls-10" d="M138.61,136H138a.65.65,0,0,0-.38.09.76.76,0,0,0-.32.2.75.75,0,0,0-.21.32.86.86,0,0,0-.09.39l0,.27a1,1,0,0,0,.26.44l.2.15a1,1,0,0,0,.5.14h.64a.66.66,0,0,0,.39-.09.83.83,0,0,0,.32-.2,1,1,0,0,0,.29-.71l0-.27a1.1,1.1,0,0,0-.26-.44l-.2-.15a1,1,0,0,0-.51-.14Z"/><path class="cls-10" d="M129.29,136.06a1,1,0,0,0,0-2,1,1,0,0,0,0,2Z"/><path class="cls-10" d="M131.85,128.52a1,1,0,0,0,0-2,1,1,0,0,0,0,2Z"/><path class="cls-10" d="M165.55,125.71a1,1,0,0,0,0-2,1,1,0,0,0,0,2Z"/><path class="cls-10" d="M183.55,123.16h.13a.73.73,0,0,0,.38-.08.78.78,0,0,0,.32-.21.75.75,0,0,0,.21-.32.86.86,0,0,0,.09-.39l0-.26a1,1,0,0,0-.26-.45l-.2-.15a1,1,0,0,0-.5-.14h-.13a.75.75,0,0,0-.39.09.83.83,0,0,0-.32.2.72.72,0,0,0-.21.33.71.71,0,0,0-.08.38l0,.27a1.1,1.1,0,0,0,.26.44l.2.15a.94.94,0,0,0,.51.14Z"/><path class="cls-10" d="M193.88,133l-.76.13a.7.7,0,0,0-.34.18.77.77,0,0,0-.26.28.85.85,0,0,0-.12.37.77.77,0,0,0,0,.4l.1.24a1,1,0,0,0,.36.36l.24.1a1,1,0,0,0,.53,0l.76-.13a1.15,1.15,0,0,0,.6-.46.81.81,0,0,0,.12-.37.78.78,0,0,0,0-.4l-.1-.24a.93.93,0,0,0-.36-.35l-.24-.11a1.19,1.19,0,0,0-.53,0Z"/><path class="cls-10" d="M151.25,108.78h-.13a.71.71,0,0,0-.38.08.69.69,0,0,0-.32.21.75.75,0,0,0-.21.32.86.86,0,0,0-.09.39l0,.26a1,1,0,0,0,.26.45l.2.15a1,1,0,0,0,.5.14h.13a.86.86,0,0,0,.39-.09.83.83,0,0,0,.32-.2.79.79,0,0,0,.2-.33.63.63,0,0,0,.09-.38l0-.27a1,1,0,0,0-.25-.44l-.2-.15a.94.94,0,0,0-.51-.14Z"/><path class="cls-10" d="M134.84,109.45l-.13.13a.83.83,0,0,0-.2.32.75.75,0,0,0-.09.39.69.69,0,0,0,.09.38.79.79,0,0,0,.2.33l.21.15a1,1,0,0,0,.5.14l.27,0a1,1,0,0,0,.44-.25l.13-.13a.83.83,0,0,0,.2-.32.86.86,0,0,0,.09-.39.82.82,0,0,0-.09-.38.79.79,0,0,0-.2-.33l-.21-.15a1,1,0,0,0-.5-.14l-.27,0a1,1,0,0,0-.44.25Z"/><path class="cls-10" d="M121.38,117a1,1,0,0,0,0-2,1,1,0,0,0,0,2Z"/><path class="cls-10" d="M106.12,130.65l-.13.12a.72.72,0,0,0-.21.33.69.69,0,0,0-.08.38,1,1,0,0,0,.29.71l.2.15a1,1,0,0,0,.51.14l.26,0a.92.92,0,0,0,.44-.25l.13-.13a1,1,0,0,0,.29-.71.73.73,0,0,0-.08-.38.69.69,0,0,0-.21-.32l-.2-.16a1,1,0,0,0-.51-.14l-.26,0a.94.94,0,0,0-.44.26Z"/><path class="cls-10" d="M102.61,139.88a1,1,0,0,0,0-2,1,1,0,0,0,0,2Z"/><path class="cls-10" d="M111.51,184.15a.5.5,0,0,0,0-1,.5.5,0,0,0,0,1Z"/><path class="cls-10" d="M124.1,181.43a.5.5,0,0,0,0-1,.5.5,0,0,0,0,1Z"/><path class="cls-10" d="M135.51,185.34a.5.5,0,0,0,0-1,.5.5,0,0,0,0,1Z"/><path class="cls-10" d="M123.93,188.07a.5.5,0,0,0,0-1,.5.5,0,0,0,0,1Z"/><path class="cls-10" d="M142.31,189.94h.86a.5.5,0,0,0,.35-.86.52.52,0,0,0-.35-.14h-.86a.52.52,0,0,0-.35.14.53.53,0,0,0-.15.36.51.51,0,0,0,.15.35.53.53,0,0,0,.35.15Z"/><path class="cls-10" d="M162.06,188.06a1,1,0,0,0,0-2,1,1,0,0,0,0,2Z"/><path class="cls-10" d="M177.21,186.69h.34a.71.71,0,0,0,.38-.08.78.78,0,0,0,.33-.21.83.83,0,0,0,.2-.32.86.86,0,0,0,.09-.39l0-.26a1,1,0,0,0-.25-.44l-.21-.16a1,1,0,0,0-.5-.14h-.34a.86.86,0,0,0-.39.09.75.75,0,0,0-.32.21.69.69,0,0,0-.21.32.73.73,0,0,0-.08.38l0,.27a1,1,0,0,0,.26.44l.2.16a1,1,0,0,0,.51.13Z"/><path class="cls-10" d="M165.8,191.16h-.51a.73.73,0,0,0-.38.09.76.76,0,0,0-.32.2.72.72,0,0,0-.21.33.82.82,0,0,0-.09.38l0,.27a1,1,0,0,0,.26.44l.2.15a.88.88,0,0,0,.5.14h.51a.74.74,0,0,0,.39-.08.85.85,0,0,0,.32-.21,1,1,0,0,0,.29-.71l0-.26a1.13,1.13,0,0,0-.26-.45l-.2-.15a1,1,0,0,0-.51-.14Z"/></svg>