<?xml version="1.0" encoding="utf-8"?>
<!-- Generator: Adobe Illustrator 26.0.1, SVG Export Plug-In . SVG Version: 6.00 Build 0)  -->
<svg version="1.1" id="Layer_1" xmlns="http://www.w3.org/2000/svg" xmlns:xlink="http://www.w3.org/1999/xlink" x="0px" y="0px"
	 viewBox="0 0 50 50" style="enable-background:new 0 0 50 50;" xml:space="preserve">
<style type="text/css">
	.st0{fill:none;stroke:#FFFFFF;stroke-width:3;stroke-linecap:round;stroke-linejoin:round;}
	.st1{fill:#FFFFFF;}
</style>
<g>
	<path class="st0" d="M36,10.4H14c-1.4,0-2.5,1.1-2.5,2.5v24.1c0,1.4,1.1,2.5,2.5,2.5h22c1.4,0,2.5-1.1,2.5-2.5V12.9
		C38.5,11.5,37.4,10.4,36,10.4z"/>
	<g>
		<path class="st1" d="M31.3,24.3H18.8c-0.4,0-0.8,0.3-0.8,0.8s0.3,0.8,0.8,0.8h12.5c0.4,0,0.7-0.3,0.7-0.8S31.7,24.3,31.3,24.3z"/>
		<path class="st1" d="M18.8,19.5h12.5c0.4,0,0.7-0.3,0.7-0.8S31.7,18,31.3,18H18.8c-0.4,0-0.8,0.3-0.8,0.8S18.3,19.5,18.8,19.5z"/>
		<path class="st1" d="M25,30.5h-6.2c-0.4,0-0.8,0.3-0.8,0.8s0.3,0.8,0.8,0.8H25c0.4,0,0.8-0.3,0.8-0.8S25.4,30.5,25,30.5z"/>
	</g>
</g>
</svg>
