<svg id="Layer_1" data-name="Layer 1" xmlns="http://www.w3.org/2000/svg" viewBox="0 0 300 300"><defs><style>.cls-1{fill:#343e4c;}.cls-2{fill:#022659;opacity:0.3;}.cls-3{fill:#231f20;}.cls-4{fill:#d2d3d5;}.cls-5{fill:#a6a8aa;}.cls-6{fill:#ebedec;}.cls-14,.cls-7{fill:none;}.cls-7{stroke:#323031;stroke-linecap:round;stroke-width:0.39px;}.cls-11,.cls-14,.cls-7{stroke-miterlimit:10;}.cls-8{fill:#323031;}.cls-9{fill:#383838;}.cls-10{fill:#676868;}.cls-11{fill:#f5d469;}.cls-11,.cls-14{stroke:#fff;stroke-width:0.53px;}.cls-12{fill:#f2ca37;}.cls-13{fill:#de8912;}</style></defs><rect class="cls-1" width="300" height="300"/><polyline class="cls-2" points="216.77 59.43 300 105.7 300 300 192.42 300 88.75 243.6"/><rect class="cls-3" x="83.23" y="56.4" width="133.55" height="93.2" rx="4.76" transform="translate(300 206) rotate(180)"/><rect class="cls-4" x="83.23" y="150.4" width="133.55" height="93.2" rx="5.52"/><path class="cls-5" d="M94.27,150.4H205.73a0,0,0,0,1,0,0v0a3.84,3.84,0,0,1-3.84,3.84H98.12a3.84,3.84,0,0,1-3.84-3.84v0a0,0,0,0,1,0,0Z"/><rect class="cls-5" x="97.45" y="161.65" width="5.44" height="3.52" rx="1"/><rect class="cls-5" x="105.1" y="161.65" width="5.44" height="3.52" rx="1"/><rect class="cls-5" x="112.76" y="161.65" width="5.44" height="3.52" rx="1"/><rect class="cls-5" x="120.42" y="161.65" width="5.44" height="3.52" rx="1"/><rect class="cls-5" x="128.07" y="161.65" width="5.44" height="3.52" rx="1"/><rect class="cls-5" x="135.73" y="161.65" width="5.44" height="3.52" rx="1"/><rect class="cls-5" x="143.38" y="161.65" width="5.44" height="3.52" rx="1"/><rect class="cls-5" x="151.04" y="161.65" width="5.44" height="3.52" rx="1"/><rect class="cls-5" x="158.7" y="161.65" width="5.44" height="3.52" rx="1"/><rect class="cls-5" x="166.35" y="161.65" width="5.44" height="3.52" rx="1"/><rect class="cls-5" x="174.01" y="161.65" width="5.44" height="3.52" rx="1"/><rect class="cls-5" x="181.67" y="161.65" width="5.44" height="3.52" rx="1"/><rect class="cls-5" x="183.54" y="199.33" width="5.44" height="2.94" rx="1"/><rect class="cls-5" x="190.34" y="199.33" width="5.44" height="2.94" rx="1"/><rect class="cls-5" x="197.39" y="199.33" width="5.44" height="2.94" rx="1"/><rect class="cls-5" x="190.34" y="195.75" width="5.44" height="2.94" rx="1"/><rect class="cls-5" x="189.32" y="161.65" width="5.44" height="3.52" rx="1"/><rect class="cls-5" x="196.98" y="161.65" width="5.44" height="3.52" rx="1"/><rect class="cls-5" x="97.45" y="166.84" width="5.48" height="5.48" rx="1"/><rect class="cls-5" x="108.26" y="174.12" width="5.48" height="5.48" rx="1"/><rect class="cls-5" x="97.17" y="174.12" width="9.77" height="5.48" rx="1"/><rect class="cls-5" x="97.17" y="181.81" width="10.66" height="5.48" rx="1"/><rect class="cls-5" x="97.17" y="196.79" width="10.66" height="5.48" rx="1"/><rect class="cls-5" x="109.59" y="196.79" width="10.66" height="5.48" rx="1"/><rect class="cls-5" x="97.17" y="188.92" width="15.01" height="5.48" rx="1"/><rect class="cls-5" x="127.85" y="196.79" width="35.09" height="5.48" rx="1"/><rect class="cls-5" x="115.78" y="174.12" width="5.48" height="5.48" rx="1"/><rect class="cls-5" x="122.97" y="174.12" width="5.48" height="5.48" rx="1"/><rect class="cls-5" x="130.49" y="174.12" width="5.48" height="5.48" rx="1"/><rect class="cls-5" x="137.68" y="174.12" width="5.48" height="5.48" rx="1"/><rect class="cls-5" x="145.21" y="174.12" width="5.48" height="5.48" rx="1"/><rect class="cls-5" x="152.73" y="174.12" width="5.48" height="5.48" rx="1"/><rect class="cls-5" x="160.26" y="174.12" width="5.48" height="5.48" rx="1"/><rect class="cls-5" x="167.44" y="174.12" width="5.48" height="5.48" rx="1"/><rect class="cls-5" x="174.97" y="174.12" width="5.48" height="5.48" rx="1"/><rect class="cls-5" x="182.5" y="174.12" width="5.48" height="5.48" rx="1"/><rect class="cls-5" x="110.12" y="181.81" width="5.48" height="5.48" rx="1"/><rect class="cls-5" x="117.64" y="181.81" width="5.48" height="5.48" rx="1"/><rect class="cls-5" x="124.83" y="181.81" width="5.48" height="5.48" rx="1"/><rect class="cls-5" x="132.36" y="181.81" width="5.48" height="5.48" rx="1"/><rect class="cls-5" x="139.54" y="181.81" width="5.48" height="5.48" rx="1"/><rect class="cls-5" x="147.07" y="181.81" width="5.48" height="5.48" rx="1"/><rect class="cls-5" x="154.59" y="181.81" width="5.48" height="5.48" rx="1"/><rect class="cls-5" x="161.78" y="181.81" width="5.48" height="5.48" rx="1"/><rect class="cls-5" x="169.31" y="181.81" width="5.48" height="5.48" rx="1"/><rect class="cls-5" x="176.83" y="181.81" width="5.48" height="5.48" rx="1"/><rect class="cls-5" x="113.74" y="188.92" width="5.48" height="5.48" rx="1"/><rect class="cls-5" x="121.27" y="188.92" width="5.48" height="5.48" rx="1"/><rect class="cls-5" x="121.41" y="196.79" width="5.48" height="5.48" rx="1"/><rect class="cls-5" x="128.79" y="188.92" width="5.48" height="5.48" rx="1"/><rect class="cls-5" x="136.32" y="188.92" width="5.48" height="5.48" rx="1"/><rect class="cls-5" x="143.85" y="188.92" width="5.48" height="5.48" rx="1"/><rect class="cls-5" x="151.37" y="188.92" width="5.48" height="5.48" rx="1"/><rect class="cls-5" x="158.9" y="188.92" width="5.48" height="5.48" rx="1"/><rect class="cls-5" x="165.98" y="188.92" width="5.48" height="5.48" rx="1"/><rect class="cls-5" x="164.14" y="196.79" width="8.5" height="5.48" rx="1"/><rect class="cls-5" x="173.95" y="196.79" width="8.5" height="5.48" rx="1"/><rect class="cls-5" x="173.27" y="188.92" width="5.48" height="5.48" rx="1"/><rect class="cls-5" x="180.69" y="188.92" width="5.48" height="5.48" rx="1"/><rect class="cls-5" x="187.82" y="188.92" width="14.87" height="5.48" rx="1"/><rect class="cls-5" x="184.36" y="181.81" width="5.48" height="5.48" rx="1"/><rect class="cls-5" x="191.34" y="181.81" width="11.25" height="5.48" rx="1"/><rect class="cls-5" x="189.68" y="174.12" width="5.48" height="5.48" rx="1"/><rect class="cls-5" x="197.21" y="174.12" width="5.48" height="5.48" rx="1"/><rect class="cls-5" x="104.81" y="166.84" width="5.48" height="5.48" rx="1"/><rect class="cls-5" x="112.18" y="166.84" width="5.48" height="5.48" rx="1"/><rect class="cls-5" x="119.55" y="166.84" width="5.48" height="5.48" rx="1"/><rect class="cls-5" x="126.91" y="166.84" width="5.48" height="5.48" rx="1"/><rect class="cls-5" x="134.28" y="166.84" width="5.48" height="5.48" rx="1"/><rect class="cls-5" x="141.64" y="166.84" width="5.48" height="5.48" rx="1"/><rect class="cls-5" x="149.01" y="166.84" width="5.48" height="5.48" rx="1"/><rect class="cls-5" x="156.38" y="166.84" width="5.48" height="5.48" rx="1"/><rect class="cls-5" x="163.74" y="166.84" width="5.48" height="5.48" rx="1"/><rect class="cls-5" x="171.11" y="166.84" width="5.48" height="5.48" rx="1"/><rect class="cls-5" x="178.47" y="166.84" width="5.48" height="5.48" rx="1"/><rect class="cls-5" x="186.18" y="166.84" width="5.48" height="5.48" rx="1"/><rect class="cls-5" x="194.03" y="166.84" width="8.63" height="5.48" rx="1"/><rect class="cls-6" x="133.48" y="206.47" width="33.83" height="21.06" rx="1"/><path class="cls-6" d="M133.43,228h16.71a0,0,0,0,1,0,0v5a0,0,0,0,1,0,0h-14a2.71,2.71,0,0,1-2.71-2.71V228A0,0,0,0,1,133.43,228Z"/><path class="cls-6" d="M150.65,228h16.71a0,0,0,0,1,0,0v2.34a2.71,2.71,0,0,1-2.71,2.71h-14a0,0,0,0,1,0,0v-5A0,0,0,0,1,150.65,228Z"/><circle class="cls-5" cx="210.45" cy="157.89" r="2.11"/><path class="cls-7" d="M211.17,156.5a1.56,1.56,0,1,1-1.4,0"/><line class="cls-7" x1="210.45" y1="156.3" x2="210.45" y2="158.64"/><rect class="cls-8" x="97.4" y="147.02" width="105.21" height="6.08" rx="1"/><rect class="cls-9" x="89.45" y="62.49" width="121.1" height="81.19"/><polygon class="cls-10" points="89.45 62.49 210.55 143.68 89.45 143.68 89.45 62.49"/><path class="cls-11" d="M150,113.17H138.89a2.09,2.09,0,0,1-1.81-3.14l5.55-9.62,5.56-9.63a2.09,2.09,0,0,1,3.62,0l5.56,9.63,5.55,9.62a2.09,2.09,0,0,1-1.81,3.14Z"/><path class="cls-12" d="M161.11,113.17H138.89a2.09,2.09,0,0,1-1.81-3.14l5.55-9.62,1.26-2.17c2.61.71,7.72,1.7,12.45.39l1,1.78,5.55,9.62A2.09,2.09,0,0,1,161.11,113.17Z"/><path class="cls-13" d="M161.11,113.17H138.89a2.09,2.09,0,0,1-1.81-3.14l3.19-5.54c3.4,2,10.56,4.81,20.56,1.91l2.09,3.63A2.09,2.09,0,0,1,161.11,113.17Z"/><path d="M150,107.61a1.2,1.2,0,0,1-.89-.37,1.24,1.24,0,0,1,0-1.79,1.26,1.26,0,0,1,1.78,0,1.24,1.24,0,0,1,0,1.79A1.2,1.2,0,0,1,150,107.61Zm0-12.32h0a1.19,1.19,0,0,1,1.19,1.2v1l-.51,6.14h-1.36l-.51-6.14v-1A1.19,1.19,0,0,1,150,95.29Z"/><path class="cls-14" d="M150,113.17H138.89a2.09,2.09,0,0,1-1.81-3.14l5.55-9.62,5.56-9.63a2.09,2.09,0,0,1,3.62,0l5.56,9.63,5.55,9.62a2.09,2.09,0,0,1-1.81,3.14Z"/></svg>