<svg id="Layer_1" data-name="Layer 1" xmlns="http://www.w3.org/2000/svg" viewBox="0 0 300 300"><defs><style>.cls-1{fill:#e4f0f9;}.cls-12,.cls-2{fill:#3d3c3f;}.cls-2{opacity:0.45;}.cls-17,.cls-18,.cls-20,.cls-3{fill:#f4d5b8;}.cls-10,.cls-3,.cls-5,.cls-6,.cls-8,.cls-9{stroke:#031223;}.cls-10,.cls-18,.cls-20,.cls-22,.cls-23,.cls-24,.cls-25,.cls-26,.cls-3,.cls-5,.cls-6,.cls-8,.cls-9{stroke-miterlimit:10;}.cls-3{stroke-width:1.83px;}.cls-4{fill:#fcedde;}.cls-10,.cls-21,.cls-5,.cls-8,.cls-9{fill:#ffb84e;}.cls-5{stroke-width:0.77px;}.cls-6{fill:#301f09;stroke-width:0.28px;}.cls-7{fill:#dfbe9b;}.cls-8{stroke-width:0.29px;}.cls-9{stroke-width:0.32px;}.cls-10{stroke-width:0.37px;}.cls-11{opacity:0.15;}.cls-13{fill:#ff2060;}.cls-14{fill:#208420;}.cls-15{fill:#3322cb;}.cls-16{fill:#383838;}.cls-18,.cls-20,.cls-22,.cls-23{stroke:#383838;}.cls-18{stroke-width:0.27px;}.cls-19{fill:#3f75e0;}.cls-20{stroke-width:0.08px;}.cls-22,.cls-23,.cls-24,.cls-25,.cls-26{fill:none;}.cls-22,.cls-23,.cls-26{stroke-width:0.29px;}.cls-23{stroke-linecap:round;}.cls-24{stroke:#ff3f0b;}.cls-24,.cls-25{stroke-width:2px;}.cls-25{stroke:#ffb84e;}.cls-26{stroke:#fcedde;}</style></defs><rect class="cls-1" width="300" height="300"/><ellipse class="cls-2" cx="150" cy="224.16" rx="79.43" ry="2.84"/><path class="cls-3" d="M103.11,93.55h70.53a14.25,14.25,0,0,1,14.25,14.25v72a0,0,0,0,1,0,0h-99a0,0,0,0,1,0,0v-72A14.25,14.25,0,0,1,103.11,93.55Z"/><path class="cls-4" d="M185.23,103v76.86H91.53V103a7.09,7.09,0,0,1,7.1-7.1h79.5A7.1,7.1,0,0,1,185.23,103Z"/><path class="cls-5" d="M116.1,189.94l-3.82,27.88a4,4,0,0,1-4,4h-5.4a4,4,0,0,1-4-4l3.82-27.88a4,4,0,0,1,4-4.05h5.4A4,4,0,0,1,116.1,189.94Z"/><path class="cls-5" d="M160.66,189.94l3.82,27.88a4,4,0,0,0,4,4h5.39a4,4,0,0,0,4.05-4l-3.82-27.88a4,4,0,0,0-4-4.05H164.7A4,4,0,0,0,160.66,189.94Z"/><rect class="cls-6" x="104.74" y="205.46" width="66.87" height="2.9"/><path class="cls-5" d="M108.83,192.23,105,220.11a4.05,4.05,0,0,1-4.05,4H95.57a4.05,4.05,0,0,1-4-4l3.82-27.88a4,4,0,0,1,4-4h5.39A4,4,0,0,1,108.83,192.23Z"/><path class="cls-5" d="M167.93,192.23l3.82,27.88a4.05,4.05,0,0,0,4,4h5.4a4.05,4.05,0,0,0,4-4l-3.82-27.88a4,4,0,0,0-4-4H172A4,4,0,0,0,167.93,192.23Z"/><path class="cls-7" d="M185.23,149.46v30.38H117.44C134.62,176.16,163.74,167.64,185.23,149.46Z"/><rect class="cls-5" x="84.85" y="178.48" width="107.05" height="13.48" rx="6.74"/><rect class="cls-8" x="124.61" y="88.86" width="33.02" height="4.47" rx="2.24"/><path class="cls-9" d="M127.81,77.92h13.27a6.17,6.17,0,0,1,6.17,6.17v0a3.43,3.43,0,0,1-3.43,3.43h-16a0,0,0,0,1,0,0v-9.6A0,0,0,0,1,127.81,77.92Z" transform="translate(54.81 220.24) rotate(-90)"/><path class="cls-9" d="M132.34,80.21H150a1.8,1.8,0,0,1,1.8,1.8v0a3.22,3.22,0,0,1-3.22,3.22H132.34a0,0,0,0,1,0,0v-5A0,0,0,0,1,132.34,80.21Z" transform="translate(59.34 224.77) rotate(-90)"/><rect class="cls-10" x="120.29" y="88.86" width="33.02" height="7.56" rx="3.78"/><g class="cls-11"><path class="cls-12" d="M171.61,205.59v2.9H104.74v-.77l2-.46,7.19-1.63.15,0Z"/><path class="cls-12" d="M113.58,208.49l-1.3,9.46a4,4,0,0,1-4,4h-3.62a4.05,4.05,0,0,0,.4-1.75l1.6-11.75Z"/><path class="cls-12" d="M106.61,208.49,105,220.24a4.06,4.06,0,0,1-4.05,4H95.57a4,4,0,0,1-4-4l1.36-10c2.22-.47,4.62-1,7.17-1.54l4.68-1v.77Z"/><path class="cls-12" d="M185.23,220.24a4,4,0,0,1-4,4h-5.39a4,4,0,0,1-3.64-2.3,3.91,3.91,0,0,1-.4-1.75l-1.62-11.75h1.48v-2.9h-1.87l-1.82-13.23c0-.09,0-.18,0-.27H181.4c0,.09,0,.18,0,.27Z"/><path class="cls-12" d="M171.75,220.24a3.91,3.91,0,0,0,.4,1.75h-3.63a4,4,0,0,1-4.05-4l-1.29-9.46h6.95Z"/><path class="cls-12" d="M191.9,183.88v2.94a5.27,5.27,0,0,1-5.27,5.27H164.49c1.26-.41,2.5-.81,3.72-1.23h0q3-1,5.74-2l1.5-.55a109.81,109.81,0,0,0,15.76-7A5.21,5.21,0,0,1,191.9,183.88Z"/><path class="cls-12" d="M169.74,205.59h-7l-1.7-12.42,3.41-1.08h3.44c0,.09,0,.18,0,.27Z"/></g><path class="cls-13" d="M165.93,112.43a9.84,9.84,0,0,0-.63-1.72A7.77,7.77,0,0,0,165.93,112.43Z"/><polygon class="cls-13" points="165.92 116.58 165.67 115.95 166.13 117.58 165.92 116.58"/><path class="cls-13" d="M164.55,117.16c1.3,2.54.29-.64.95.18l.3.58-.82-2.15C164.82,116.23,165.09,117.79,164.55,117.16Z"/><path class="cls-13" d="M161.3,111.85c.5,1,.24.94.31.24-.06-.11-.1-.16-.14-.24S161.4,111.89,161.3,111.85Z"/><path class="cls-13" d="M161.47,111.85c.11-.14-.48-.81,0,0Z"/><path class="cls-13" d="M161.07,112.73l-.22-1c-.31-.58-.54-.64-.68-1.1A4.87,4.87,0,0,0,161.07,112.73Z"/><path class="cls-13" d="M161.76,114.7l-.08-.42C161.55,114,161.49,114,161.76,114.7Z"/><path class="cls-13" d="M161.52,113.38l.16.9c.22.41.61,1.25,0-.34C162,114.72,161.68,114,161.52,113.38Z"/><path class="cls-13" d="M161.82,113.72a4.13,4.13,0,0,1,.88,1.8C162.89,115,162,113.19,161.82,113.72Z"/><path class="cls-13" d="M165.7,119.88l.48.7-.28-.93C166,120.11,165.32,119.07,165.7,119.88Z"/><path class="cls-13" d="M159.29,111.92c.24.55.74,1.44,1.08,2.14l-.16-.7A7.38,7.38,0,0,1,159.29,111.92Z"/><path class="cls-13" d="M160.37,114.06l.24,1C160.84,115.13,160.66,114.66,160.37,114.06Z"/><polygon class="cls-13" points="163.05 117.6 162.47 115.46 163 117.66 163.05 117.6"/><polygon class="cls-13" points="158.49 112.21 158.01 110.88 158.7 112.9 158.49 112.21"/><path class="cls-13" d="M158.08,112.67c-.41-1.1-1-1.73-1.16-2.42a9.07,9.07,0,0,0,.52,2.08C157.35,111.82,157.52,111.88,158.08,112.67Z"/><path class="cls-13" d="M157.82,113.6c-.06-.28-.21-.76-.38-1.27A10.56,10.56,0,0,0,157.82,113.6Z"/><path class="cls-13" d="M160.14,115a9.84,9.84,0,0,0-.89-1.5l.8,1.52Z"/><path class="cls-13" d="M160.08,115.05l0,0h-.21Z"/><path class="cls-13" d="M160.16,115h0C160.22,115.13,160.25,115.18,160.16,115Z"/><path class="cls-13" d="M161.87,116.44a9.52,9.52,0,0,0,1.31,3.18C162.78,118.52,162.29,117.83,161.87,116.44Z"/><path class="cls-13" d="M161.16,116.87l.37.26a13.38,13.38,0,0,1-.64-1.44Z"/><polygon class="cls-13" points="161.28 117.42 161.16 116.87 161.02 116.78 161.28 117.42"/><path class="cls-13" d="M158.86,114.87c.23.72.15.83.09,1,.26.24.46.35.58.29C159.32,115.66,159,114.76,158.86,114.87Z"/><path class="cls-13" d="M159.52,115.09l0,.1C159.61,115.32,159.64,115.35,159.52,115.09Z"/><path class="cls-13" d="M157.83,116.37l.15.27-.12-.27Z"/><path class="cls-13" d="M159.69,116.43c.23.26.11-.15-.06-.65,0,.19,0,.32-.1.37C159.63,116.37,159.69,116.52,159.69,116.43Z"/><path class="cls-13" d="M157.85,114.47c.2.3.38.55.55.77C158.13,114.77,157.67,114.06,157.85,114.47Z"/><path class="cls-13" d="M159.31,114.78l0-.08C159.1,114.38,159.18,114.54,159.31,114.78Z"/><path class="cls-13" d="M159.31,114.78a9.19,9.19,0,0,0,.32,1,3.4,3.4,0,0,0-.09-.59Z"/><path class="cls-13" d="M162.17,126.45c-.66-1.44-1-2.88-.12-1.43a71.8,71.8,0,0,0-4.07-8.38,8.77,8.77,0,0,1,.75,2.15,12.65,12.65,0,0,1,1.76,3c.07.87-.47-.4-1-1.09,1,1.73.88,2.76,2.18,5.36l-.2-1A12.77,12.77,0,0,0,162.17,126.45Z"/><path class="cls-13" d="M158.45,116.6v-.22a11.4,11.4,0,0,1-1.21-1.8,9.17,9.17,0,0,0,.62,1.79h.51Z"/><path class="cls-13" d="M158.83,116.19a28.67,28.67,0,0,0,1.69,4c.2-.23-.43-1.39-.6-2.14-.23.58-.29-.92-1-1.67a.88.88,0,0,1,0-.51,7.84,7.84,0,0,1-.55-.62l.06.1h0v0c.11.19.17.31.1.2v0l.26.6c-.27-.27-.21-.4-.26-.6l-.1-.24h0v1C158.64,116.56,158.72,116.46,158.83,116.19Z"/><path class="cls-13" d="M164.52,123.08a2.94,2.94,0,0,1-.18-.35C164.4,122.93,164.45,123.06,164.52,123.08Z"/><path class="cls-13" d="M163.92,122.22c-.08-.24-.34-.87-.17-.76a7.09,7.09,0,0,1,.59,1.27,5.46,5.46,0,0,0-.85-1.9l.07.23a18.66,18.66,0,0,1-1.6-2.54C162.66,119.9,163.17,120.89,163.92,122.22Z"/><path class="cls-13" d="M161.56,119.61l0,.92.8,1.27L162,121C162.33,121.22,161.82,120.24,161.56,119.61Z"/><polygon class="cls-13" points="157.42 115.61 156.69 113.94 157.59 116.36 157.42 115.61"/><polygon class="cls-13" points="157.07 116.02 156.42 114.58 156.71 115.49 157.07 116.02"/><path class="cls-13" d="M141,145.45l.1.45A1.82,1.82,0,0,0,141,145.45Z"/><path class="cls-13" d="M141.79,145.21l-.32-.72A2.66,2.66,0,0,0,141.79,145.21Z"/><path class="cls-13" d="M146.46,121.28c-.79-1.26-1.94-3.25-1.15-1.65l.79,1.54C146.07,120.84,146.23,121,146.46,121.28Z"/><path class="cls-13" d="M143.66,134.11l.27.46-.62-1.54Z"/><path class="cls-13" d="M146.66,140.64l-.67-.92A8.05,8.05,0,0,0,146.66,140.64Z"/><path class="cls-13" d="M137.88,149l.63,1.65C138.69,150.52,138.24,149.75,137.88,149Z"/><path class="cls-13" d="M152.87,118.72c-.42-.55-.64-.76-.76-.79C152.69,118.75,153.45,120.05,152.87,118.72Z"/><path class="cls-13" d="M133.43,128.66a5.87,5.87,0,0,0,.37,1A3.65,3.65,0,0,0,133.43,128.66Z"/><path class="cls-13" d="M151.75,118.1l.25.34c0-.31-.05-.56.11-.51C151.68,117.31,151.36,117,151.75,118.1Z"/><path class="cls-13" d="M122.65,154.19c0-.07-.07-.1-.11-.18C122.62,154.23,122.64,154.23,122.65,154.19Z"/><path class="cls-13" d="M112.19,139.45c0-.11,0-.13.1-.17S112.18,139.2,112.19,139.45Z"/><path class="cls-13" d="M155,116.17c0-.15-.07-.18,0,0Z"/><path class="cls-13" d="M158.38,122.16a7.7,7.7,0,0,0,.32.78C158.53,122.55,158.43,122.31,158.38,122.16Z"/><path class="cls-13" d="M155.5,128.28h0C155.66,128.58,155.63,128.52,155.5,128.28Z"/><path class="cls-13" d="M155.46,116.81a2.49,2.49,0,0,0-.34-.4A4.33,4.33,0,0,0,155.46,116.81Z"/><path class="cls-13" d="M155.09,116.08l.16.12C155.14,115.93,155.05,115.77,155.09,116.08Z"/><path class="cls-13" d="M154.9,116.31s.12,0,.22.1a2.12,2.12,0,0,1-.13-.24A.46.46,0,0,1,154.9,116.31Z"/><path class="cls-13" d="M128.69,146.49l-.09-.14C128.8,147.05,128.79,146.93,128.69,146.49Z"/><path class="cls-13" d="M151.86,138.68l0-.08,0,0Z"/><path class="cls-13" d="M152.09,140c-.79-2-.6-1.81-.29-1.45l-2.27-4.46Z"/><path class="cls-13" d="M139.52,146.71l.9,1.3c.81,2.45.22,1.75,1.38,3.63-2.28-4.93.68-.93-1.6-5.86l.64,1c-.07,0,.06.27,0,.24,1.41,2.21-1.45-3.66-.73-3.14a4.24,4.24,0,0,1,.92,1.61l-.27-1.36c.13,0,.52.92.38.86l.28-.6.06.14c-.3-.8-.71-2.06-.88-2.6.45.65.19.55.51,1.15l-.32-1.31c.71,1.22,1.09,2.55.82,2.45,2.56,4.79-.37-1.33,1.49,1.29l.06.74c1.48,2.71,1.18,1.61,2.28,3.22-.5-.88-2.62-4.12-2.92-5.47.25.33.44.46.11-.6.83,1.75.77,1.25.91,1.06l1.08,2.32a25.18,25.18,0,0,0-1.07-3c.32.12,1.22,1.89,2,3.37.52.2-1.61-2.75-1.4-3.39.71.75.47-.29.15-1.84a12,12,0,0,1,1,2.06l-.7-1.93a4.67,4.67,0,0,1,.45.89c-.19-.79-1.09-2.32-1.15-3.06-1.15-2.57,2.26,3.49,1.18.46.38.62.64,1.43,1.09,2.31a31,31,0,0,0-1.2-4.25l1,1.38a24.73,24.73,0,0,1-2.33-5.61c-.47-.79-.89-1.48-1.09-1.83l-.23-1.42a17,17,0,0,1,1,2.17l-.2-.59a19.58,19.58,0,0,1,1.63,3.49l-.81-1.36c.58,1.45,1.24,3,1.9,4.38a3,3,0,0,1-.18-.68c.16.39.31.74.43,1s-.08-.29-.3-.9l1.32,2.53-.47-1,1.25,1.37c-.89-2.75-2.41-6.71-2.37-8,.76,2,1.44,3.09,2.51,5.33-1.29-2.29,0,1.21-.46.87a5.59,5.59,0,0,1,.88,1.65l-.52-2.4a5.48,5.48,0,0,0,1.26,2c-1.83-3.56-.78-2.59-1.1-3.79.59,1.2,1.14,2.47.75,2.29,1.58,2.59-1.68-4.41-.3-2.23-.05.06-.17-.11.1.52-.37-1.15.39-.46.81.63l-.05.06c.62.23,1.26-.57-.15-3.67l2,4.36L147,128.12c1.2,2.67,4.45,8.83,4.83,10.48.28.33.61.71.36-.32a39.63,39.63,0,0,1-2-4c1.65,2.82.92,1.49,2.43,3.84a27,27,0,0,1-2-4.64c.27.63,2,4.07,2.12,4.53l-1.56-4.24a42.51,42.51,0,0,0,2.27,4.54c-.42-.77.37-.08.28-.53l-.61-.87c.73.41-2.31-5.91-1.77-5.9a43.9,43.9,0,0,0,2.81,5.62c-.89-2.13-4.34-10.21-4.72-12l.64,1.15-.35-1.5c1.32,3.22,3.95,10,4.9,12.74.62.86.72,1.37.91,1.15a3.47,3.47,0,0,1,.64,1.85l.92.45c-1.19-2.42-.73-2.65-1.72-4.66l.58,2.82c-1.19-2.41-2.94-7.06-2.33-6.83.57.92,2,4.36,2.39,5.16-.35-.86-.38-1.78-.06-1.2l.45,1.37c.67.81-1.17-3.39.21-1.2.17.11,1.78,3,1.11,1.54-1.48-2.69-5.62-11.24-6.51-13.36.12.17,1.76,2.4,2.52,3.72,1.2,2.1,2.25,5.28,3.28,7.08a16.28,16.28,0,0,1-.71-1.8c.37.52.94,2.07,1,1.67-1.14-2.48.54,0-.89-2.13-.13-.8.46.4.66.18a40.06,40.06,0,0,1-2.5-6.32c.29.63.73,1.42.93,1.78.53,0,1.3,1,1.71.86a13.3,13.3,0,0,1,1.28,2.3,5.13,5.13,0,0,1-.4-1.44c1.26,2-.11.46,1.29,2.93a12.18,12.18,0,0,1-.87-3.1c-1.11-2.18-.61-.23-.36.75a37,37,0,0,1-2.93-8c0-.91,1.09,1.9.94,1.44.88.24-2-5.57-.43-3.62,1.13,1.84,1.85,3.86,2.56,5.23.08.87-1-1-1.15-.86l.66.81c.22.68.28,1.26-.09.74,1,1.66,1.22-.16,2.47,1.22a10.31,10.31,0,0,0-.84-2.19l0,.35c-.89-1.5-.74-2.31-1.28-3-.32-1.2-.91-3-.2-2.29l1.11,2.19c-.32-.64-.82-1.23-.58-.51-.34-1,1.86,2.78.62-.18l-.93-1.44c-.32-1.21-1.17-3.69-.58-3.11-1.15-2.14.06.28-1.34-2.2,1.67,3.11-.72.18,1.12,3.41-1.6-2.88-.93-1.11-2.37-3.52.35.72.75,1.35.36,1.1l.26.66,0,0,.06.09c0,.11,0,.13,0,0a11.9,11.9,0,0,1,.63,1.06c.69,1.73.32,1.84.62,2.77-.3-.29-.35-.87-.79-1.61l.45,1.38c-.79-1.62-1.63-2.54-1.78-3.63l-.3.06c-.6-.84-1-1.09-.8-.35-.3-.29.53,2,0,.63l.06,1.21-.2-.4c-.52,0,.41,3.09-1.46.4.05.47.14,1-.31.7l-.72-1.38c.05.57-1.22-1.14-.6.35-2-3.67-1.28-.4-1.91-.91l.86,1.83c-.27,0-.23.62-.15,1.49l.79,1.61c.41,1.44-1.15-.86-1.44-.52-.27-.63-.1-.51.14-.17-2.19-3.44.34,3.11-1.33.64.18.63,0,.47-.26.09,0,0,0,0,0-.09a0,0,0,0,0-.05,0c-.18-.26-.38-.54-.55-.8a8.18,8.18,0,0,0,.53.81c-.06.07-.08.33,0,.79l-.89-1.71s0,0,0,.06c-.42-.59.3.87,1,2.14a10.48,10.48,0,0,0,.35,1.12c-1.43-2.75.16,1.09-1.4-1.84.62,1.5,0,1.38,1.36,4.47-.2-.4-.32-.57-.27-.62-.3-.29-.59-.58-.29.34l-1.12-2.18,1.15,3.1A15.56,15.56,0,0,1,145,124c.85,2.81.14,1.14,1,3.9l-.67-1.44c-.09.11.63,2.12,0,1-1.58-2.58-1.55.28-3.47-1.91,2.15,4.14-1.23-1.72.3,1.55a14.42,14.42,0,0,1-1.18-2.41c.11,1.15-1.3-1.32-.23,1.55-.52-1-.62-1.49-.94-2.07.07.23.3.92,0,.35a5.68,5.68,0,0,1-.5-1.32c-.29.34,1.14,3.42,2.49,6.31-.84-1.27-.84-1-.08.92a6,6,0,0,1-1-2.29c-.2-.08-1.45-1-.36,1.31-.32-.57-.26-.09-.17.2-.36,0-.48-.2-.66.16l.26.34c1.21,2.83.06.73,0,1.17l-.13-.29c-1.48-1.75.23,1.08-1.38-1l.85,1.72c1.73,3.75-1.5-2-1.13-.41l.58.93c.44,1.36-2.87-4.84-3.25-5.23a2.2,2.2,0,0,1-.25-.81c-1.48-2,1,2.29.95,3-.64-1.19-1.41-3.15-1.73-3.27-.58-.94,1.26,4.27-.15,2.06a11.91,11.91,0,0,1,1.21,2.61c-.07.45-2.31-3.28-1.11-.2q-.23-.37-.39-.72a12.46,12.46,0,0,0,.69,3.21c-3-5.92.29,3.42-2.31-2.11l-.4.55-.25-.57c-.52-.2,0,1.18.48,2.56a6.25,6.25,0,0,1-.57-1.17c-1-.88-1-.62-.09,2.33l-.89-1.77c.38,1.1-2-2.48-1.55-.16a7.63,7.63,0,0,1-.32-.83c.42,2.37-3.64-4.38-.81,2.27l.38,1.79c.71.29,1.24,2.87,1.94,3.87,0,.47-1.4-1.75-1.32-2.19l.19.31c-1.5-3.46-1.15-.94-2.21-3.27-.86.6-2.63-.89-3.56-.65l1.3,2.62h-.37c-.36-.59-1-2-.78-2-.8-1.46.21,1.43.46,2-.91-.89-1.23-3.19-1.39-3.19l-.09.28.18.29c.35,1.15.86,2.32.54,2.3a15.65,15.65,0,0,1-.94-1.68c-.08-.19-.15-.27-.13,0l-.49-.06,1.1,2c.3,1.12-.41.05.84,2.36-1.91-3.57-2-.69-2.69-1.76.44,1.64.19,1.72-.18,1.66.26.41,1.35,2.77,1,2.59-2-4.95-1.39-1.93-3.13-5.38,1.2,2.27-.45.89,1.26,4.1-.38-.31-.8-1.84-1.46-2.93.33,2.11-1.6-.79-1.93.11a20.54,20.54,0,0,1,1,2.62l-1.67-3.11c0,.37,1.44,3.8.29,1.63a7.9,7.9,0,0,1,.65,1.59c-1.25-1.33-1.56-.48-2,.07s-1.15.75-2.7-2.13c.58,1.24.54,1.39.45,1.48.17.28.57,1.64.89,2.54-.44-.78-.88-1.57-1.3-2.35.74,2.54-.42.33.29,2.76v-.49c.69,2.93,2.32,6.22,3.5,9.87-.39-1.66.18-.53.75.41s1.11,1.7.53-.67c.37.7.33,1.19.68,2-.42-1.59-.4-2,.12-1.37l.12.4c.56-.65,1.43.75,2.63,1.43l-.75-1.74a4.25,4.25,0,0,1,.77,1.12c-.86-2.75-.54,0-1.52-3,1.64,3.5,1.21-.41,3,3.59.27-.09-.9-2-.64-2.08l.52,1.07-.52-1.44a9.71,9.71,0,0,1,1.3,2.42c-.09-.09,0,.31,0,.41.75,1.2.43-.7.68-.31l-.53-.57c.27-1.32,1.72-.24,1.44-2.74l-.41-.8c-.15-1.73.79.73,1-.21l.07.21c-.25-.87-.29-1.34-.1-1.32.28,1,1.07,1.76,1.36,2.9-.18-1.87-.29-1.4-1.28-4.6l.68,1.33c-.42-1.29-.7-1.94-.58-2.41.29,1.27,1.08,2,1.51,3.64,1.89,2.72-.48-3.36,1.71.86-1.42-3.86-1.42-1.87-1.63-2.73-.67-1.18-1-2.9-.7-2.6.22,0,2.45,4.66,2.87,4.38-.05,0,.08.29,0,.29.6.88-.25-1.44.66,0-.91-2.32.33,0-.94-2.9l-.11.86c-.11-.86-1.42-4.34-.29-2.88.23.6.46,1.42.58,1.88.49.8,0-.66.47.16,1.27,2.9-.22.85.52,3.17.68,1.17-.46-2.31.82.88-1.61-4.06.68.3-.39-2.88l.76,1.74c-.07-.29-.34-1.15-.24-1.15l.86,2.31c-.62-2,1.24,1.46,1,.31-.48.28-1.06-2-1.85-3.2-.44-2.59,2.41,4.36,2.73,3.22,0,.28-.83-.88-1-1.74a8.25,8.25,0,0,1,1.27,1.74c.29-.56-.89-1.74-1.18-2.89,1.12,2-.17-1-.28-1.72l.81,1.75c1,.89-1.55-3.71-.46-2.57l.92,2.52,0-.74.87,2c-.42-1.6-.17-1.26.35-.82-.63-1.2-1.44-3.19-1.23-3.35.63,1,.68,1.7.89,1.3.43,1.13,1,2.55.1,1l.68,1.7c.72,1.12.55.08.66,0a1,1,0,0,1-.32-.35l-.65-2.65a7.74,7.74,0,0,1,.74,1.73c0-.24-.3-1.07-.23-1.29a21.27,21.27,0,0,1,1.43,3.67l-.28-1.79c.31.61,1,1.6,1.2,2.15.64.72-.68-3,.17-2.09a3.82,3.82,0,0,1-.23-.8c.46.17,1.54,1.79,1-.33l1.4,2.45c0-.71-1.79-3.08-1.76-4.26,0-1,1.14,2.11,1.59,2.77-.43-1.36-1.37-4.11-.09-2.19C139.78,146.81,139.53,146.47,139.52,146.71Zm3-2.78c.11.4.51,1.59,0,.58C141.58,142.48,142.1,143.41,142.48,143.93Zm3.29-6.71c.23.6,0,.35-.39-.27C145.37,136.78,145.48,136.81,145.77,137.22Zm8.87-19.15,0,.09C154.2,117.55,154.38,117.79,154.64,118.07Zm.67.61a4.08,4.08,0,0,0-.33-.74c.19.45.14.52,0,.43C155.22,118.82,155.41,119.11,155.31,118.68ZM122.37,135.1l.26.43C122.73,136.1,122.56,135.62,122.37,135.1Z"/><path class="cls-13" d="M146.31,139.88c-.16-.28-.32-.6-.48-.93A3.58,3.58,0,0,0,146.31,139.88Z"/><path class="cls-13" d="M137.77,148.65h0l.13.32Z"/><path class="cls-13" d="M157.55,135.74a6.12,6.12,0,0,1-.55-.84A2,2,0,0,0,157.55,135.74Z"/><path class="cls-13" d="M155.58,114.92v.55c.06-.13.27.24.45.49A5.13,5.13,0,0,1,155.58,114.92Z"/><path class="cls-13" d="M162.41,124.9c-.07-.22.05-.05,0-.28l-.39-.81C161.9,123.92,162.12,124.62,162.41,124.9Z"/><path class="cls-13" d="M158.5,120.63c.71,1.46.6.9.62.57,0,0,0,0,0,0C158.16,119.13,158.33,119.89,158.5,120.63Z"/><path class="cls-13" d="M159.12,121.13c0-.09,0-.15.12-.1C158.87,120.2,159.1,120.89,159.12,121.13Z"/><path class="cls-13" d="M155.25,117.52c.25.34-.85-1.9-.52-1.32C153.91,114.3,155.35,118.67,155.25,117.52Z"/><polygon class="cls-13" points="160.9 125.41 160 123.63 160.61 125.12 160.9 125.41"/><path class="cls-13" d="M159.17,124.61l.46.39a2.39,2.39,0,0,1-.23-.64C159.23,124.36,158.91,124.07,159.17,124.61Z"/><path class="cls-13" d="M159.4,124.36c.09,0,.14-.07,0-.39C159.41,124,159.35,124.11,159.4,124.36Z"/><polygon class="cls-13" points="160.85 126.1 160.61 125.76 160.39 125.7 160.85 126.1"/><path class="cls-13" d="M156.6,125.4V126c.27.64.52,1,.49.69A5.26,5.26,0,0,0,156.6,125.4Z"/><path class="cls-13" d="M159.7,130a15.12,15.12,0,0,1-.76-1.32l1.06,2.24Z"/><path class="cls-13" d="M159.24,130.86c.28.64.5,2,.74,1.67C159.71,131.9,159.71,131.27,159.24,130.86Z"/><polygon class="cls-13" points="154.23 129.78 154.28 129.72 152.51 126.05 154.23 129.78"/><path class="cls-13" d="M155.22,140.11c.71.74-1-2.3-.23-1.32-.35-.9-.64-.8-.93-1.58C154.32,138.21,154,137.73,155.22,140.11Z"/><path class="cls-13" d="M154.06,137.21c-.05-.16-.1-.35-.18-.6A5,5,0,0,0,154.06,137.21Z"/><polygon class="cls-13" points="110.94 137.57 110.54 136.81 111.05 138.08 110.94 137.57"/><path class="cls-13" d="M111.56,140.55l-.81-2.46.6,2.28C111.35,140.24,111.36,140,111.56,140.55Z"/><path class="cls-13" d="M145.25,148.41l-.26-.57c-.32-.6-.38-.63-.52-.68Z"/><polygon class="cls-13" points="141.87 147.85 141.94 147.88 140.85 145.8 141.87 147.85"/><path class="cls-13" d="M141,151.57c.13.05,0-.47.14-.42C141.13,151.62,139.74,148.93,141,151.57Z"/><path class="cls-14" d="M147.56,142.9l.17.09Z"/><polygon class="cls-14" points="146.23 142.14 145.68 141.73 147.01 142.75 146.23 142.14"/><path class="cls-14" d="M146.07,142.27c2.22,1.8-.27-.38.55.23l.51.4-1.79-1.44C145.61,141.7,146.72,142.75,146.07,142.27Z"/><path class="cls-14" d="M141.31,138.34c.84.73.72.63.27.22l-.21-.18Z"/><path class="cls-14" d="M141.37,138.38Z"/><path class="cls-14" d="M141.82,138.82l-.73-.66-1-.86Z"/><path class="cls-14" d="M143.36,140.24l-.3-.3C142.85,139.76,142.78,139.7,143.36,140.24Z"/><path class="cls-14" d="M142.41,139.34l.65.6c.34.31,1,.93-.24-.22C143.45,140.29,142.85,139.74,142.41,139.34Z"/><path class="cls-14" d="M142.74,139.62c.47.4.78.64,1.5,1.32A12.11,12.11,0,0,0,142.74,139.62Z"/><path class="cls-14" d="M148.33,144.18l.67.51-.71-.64C148.64,144.36,147.64,143.61,148.33,144.18Z"/><path class="cls-14" d="M140.64,137.93l1.75,1.64-.49-.5C141.59,138.79,141.29,138.55,140.64,137.93Z"/><path class="cls-14" d="M142.39,139.57l.72.75C143.23,140.37,142.88,140,142.39,139.57Z"/><polygon class="cls-14" points="145.7 142.37 144.11 140.86 145.71 142.4 145.7 142.37"/><polygon class="cls-14" points="140.49 137.97 139.49 136.98 140.99 138.49 140.49 137.97"/><path class="cls-14" d="M140.6,138.21l-1.91-1.89c.13.16.83.88,1.45,1.53C139.8,137.48,139.9,137.56,140.6,138.21Z"/><path class="cls-14" d="M141,138.81l-.9-1Z"/><path class="cls-14" d="M142.84,140.17c-.27-.26-1-.92-1.27-1.18l1.24,1.17Z"/><path class="cls-14" d="M142.85,140.2l0,0-.1,0Z"/><path class="cls-14" d="M142.85,140.17h0C143,140.28,143,140.32,142.85,140.17Z"/><path class="cls-14" d="M144.48,141.42c.68.67,1.37,1.43,2.48,2.37C146.13,143,145.49,142.44,144.48,141.42Z"/><path class="cls-14" d="M144.4,141.63l.33.23c-.33-.31-.81-.76-1.15-1.1Z"/><polygon class="cls-14" points="144.78 142.03 144.41 141.63 144.29 141.55 144.78 142.03"/><path class="cls-14" d="M142.22,139.88a4,4,0,0,1,.6.71c.26.22.41.33.43.3C142.87,140.51,142.2,139.82,142.22,139.88Z"/><path class="cls-14" d="M142.63,140.14l.07.08C142.8,140.32,142.84,140.35,142.63,140.14Z"/><path class="cls-14" d="M142.6,140.8l.21.22-.2-.22Z"/><path class="cls-14" d="M143.48,141.11c.25.22,0-.09-.4-.47a1.1,1.1,0,0,1,.17.25C143.42,141.06,143.53,141.18,143.48,141.11Z"/><path class="cls-14" d="M141.55,139.42l.69.65C141.85,139.69,141.25,139.1,141.55,139.42Z"/><path class="cls-14" d="M142.35,139.89l0-.06C142,139.58,142.16,139.71,142.35,139.89Z"/><path class="cls-14" d="M142.35,139.89l.73.75-.38-.42Z"/><path class="cls-14" d="M150.08,148.82c-1.08-1.16-2-2.28-.79-1.11-.76-.92-4.42-4.62-6.48-6.69.48.5.93,1,1.52,1.68s1.52,1.35,2.46,2.43c.49.66-.44-.35-1.06-.92,1.4,1.4,1.89,2.17,3.89,4.26l-.62-.81C149.31,148,149.78,148.54,150.08,148.82Z"/><path class="cls-14" d="M143,141.05l-.12-.16c-.22-.18-.67-.62-1.56-1.48.51.58.91,1,1.27,1.39l.25.08Z"/><path class="cls-14" d="M143,140.82c1.19,1.24,1.66,1.81,3,3.11a21.81,21.81,0,0,0-1.46-1.63c.22.39-.65-.7-1.39-1.34a2.36,2.36,0,0,1-.29-.37l-.58-.52.07.07h0l0,0,.15.15,0,0,.45.47a3,3,0,0,1-.45-.47l-.18-.18,0,0,.59.75C143.09,141.05,143.07,141,143,140.82Z"/><path class="cls-14" d="M149.6,146.39l-.29-.27A1.38,1.38,0,0,0,149.6,146.39Z"/><path class="cls-14" d="M148.8,145.72c-.16-.17-.66-.65-.5-.55.39.33.6.56,1,1a17,17,0,0,0-1.5-1.43l.16.17c-.47-.36-2.08-1.8-2.24-2C146.86,144,147.67,144.7,148.8,145.72Z"/><path class="cls-14" d="M146.15,143.63l.52.67,1.1,1-.64-.63C147.43,144.88,146.63,144.12,146.15,143.63Z"/><polygon class="cls-14" points="141.99 140.18 140.74 138.86 142.48 140.76 141.99 140.18"/><polygon class="cls-14" points="142.05 140.43 140.97 139.28 141.6 139.99 142.05 140.43"/><path class="cls-14" d="M145.76,162.12l.19.41A3.75,3.75,0,0,0,145.76,162.12Z"/><path class="cls-14" d="M146.12,162l-.4-.67A7,7,0,0,0,146.12,162Z"/><path class="cls-14" d="M139.51,142.81c-.94-1.14-2.38-2.93-1.29-1.52l1.07,1.37C139.13,142.39,139.27,142.53,139.51,142.81Z"/><path class="cls-14" d="M143.35,152.83l.31.43c-.32-.5-.62-1-.91-1.39Z"/><path class="cls-14" d="M147.38,158.77l-.71-.87C146.91,158.21,147.14,158.51,147.38,158.77Z"/><path class="cls-14" d="M144.91,164.74l.8,1.58A7.56,7.56,0,0,0,144.91,164.74Z"/><path class="cls-14" d="M141.44,141.83a8.25,8.25,0,0,0-.75-.73C141.37,141.83,142.38,142.94,141.44,141.83Z"/><path class="cls-14" d="M136.26,146.34c.15.28.32.58.52.91C136.65,147,136.48,146.7,136.26,146.34Z"/><path class="cls-14" d="M140.61,141.18l.28.3c-.17-.24-.3-.44-.2-.38C140.18,140.56,139.86,140.24,140.61,141.18Z"/><path class="cls-14" d="M135.25,166.79l-.06-.2C135.21,166.82,135.23,166.83,135.25,166.79Z"/><path class="cls-14" d="M139.13,152.56c.14,0,.27.27.3.28s.07-.06,0-.11A.71.71,0,0,0,139.13,152.56Z"/><path class="cls-14" d="M141.17,140.22c-.06-.1-.13-.15,0,0Z"/><path class="cls-14" d="M145.9,145.19l.56.63Z"/><path class="cls-14" d="M147.29,149.67Z"/><path class="cls-14" d="M141.73,140.78l-.37-.36Z"/><path class="cls-14" d="M141.17,140.17l.13.11C141.11,140.06,141,139.93,141.17,140.17Z"/><path class="cls-14" d="M141.2,140.31s.06,0,.16.11l-.19-.2A.24.24,0,0,1,141.2,140.31Z"/><path class="cls-14" d="M139,160.88l-.08-.15C139.18,161.41,139.16,161.3,139,160.88Z"/><path class="cls-14" d="M149.61,157.77l0-.07,0,0Z"/><path class="cls-14" d="M150.26,158.9c-1.23-1.77-1-1.58-.73-1.25l-3-4Z"/><path class="cls-14" d="M145.25,163l.9,1.28a19.32,19.32,0,0,0,1.83,3.41c-2.73-4.69.17-.74-2.6-5.41l.66.94s.12.25.07.21c1.48,2.15-1.93-3.42-1.37-2.86a9.67,9.67,0,0,1,1,1.55l-.57-1.23a3.46,3.46,0,0,1,.48.81l0-.49.08.14L144.4,159c.46.64.28.51.65,1.08l-.6-1.19a7.84,7.84,0,0,1,1.25,2.26c3,4.54-.64-1.21,1.26,1.33l.26.65a29.11,29.11,0,0,0,2.35,3.12c-.57-.83-2.83-3.94-3.43-5.16.25.32.4.46-.12-.5,1,1.63.84,1.19.86,1.05l1.37,2.16c-.31-.68-1-1.77-1.59-2.77a33,33,0,0,1,2.25,3.19c.38.24-1.83-2.6-1.91-3.12.65.75.17-.19-.54-1.56.57.68.85,1.31,1.28,1.91l-1.05-1.76a9.24,9.24,0,0,1,.56.83c-.38-.71-1.41-2.14-1.7-2.78-1.54-2.36,2.48,3.29.81.56.44.58.87,1.31,1.43,2.12-1-1.85-.71-1.36-2.17-3.78l1,1.31c-1.16-1.53-2.34-3.48-3.32-5.07l-1.27-1.71-.65-1.21c.25.33.74,1.06,1.32,2l-.32-.52c.58.74,1.4,2,2.18,3.17-.31-.4-.63-.83-1-1.26.85,1.3,1.79,2.74,2.65,4a6,6,0,0,1-.35-.6c.23.35.44.67.59.87a5.76,5.76,0,0,0-.5-.81l1.66,2.33-.64-.94,1.21,1.34c-1.5-2.46-3.82-6-4.31-7.09,1.16,1.74,2,2.79,3.39,4.82-1.57-2.1.49,1,.07.67a12.62,12.62,0,0,1,1.1,1.51l-1.18-2.1a12.54,12.54,0,0,0,1.46,1.86c-2.36-3.24-1.4-2.28-2-3.33.79,1.09,1.57,2.22,1.28,2,1.87,2.38-2.6-3.92-1-1.91,0,0-.14-.12.25.45-.65-1,0-.34.7.63v0c.43.27.49-.32-1.51-3.07.26.35,2.41,3.32,2.82,3.87l-6.57-9.38c1.72,2.36,6,7.87,6.84,9.29.28.3.62.66.08-.23-.27-.31-2.59-3.33-2.72-3.57,2,2.53,1.11,1.34,2.89,3.47-.41-.47-3.13-4.16-3-4.09.41.56,2.73,3.61,3,4l-2.57-3.69c.45.67,2.3,3,3.1,4-.55-.69.18,0-.05-.42l-.7-.78c.59.41-3.69-5.14-3.4-5.07.55.75,3.45,4.56,3.89,4.94-1.37-1.85-6.65-8.87-7.63-10.35l.83,1-.84-1.25c2.11,2.76,6.44,8.63,8.06,11,.71.78,1,1.21,1,1a7.31,7.31,0,0,1,1.12,1.6l.72.45c-1.67-2.11-1.5-2.25-2.9-4l1.49,2.37c-1.66-2.11-4.58-6.1-4.15-5.84.7.81,2.95,3.77,3.51,4.47-.56-.74-1-1.5-.54-1l.83,1.18c.73.72-2.08-2.9-.38-1,.15.11,2.29,2.61,1.29,1.37-2-2.34-7.95-9.72-9.37-11.54.14.15,2,2.16,3,3.3,1.57,1.82,3.54,4.51,4.89,6.08-.46-.58-1-1.3-1.17-1.54.43.46,1.42,1.78,1.29,1.45-1.71-2.12.31,0-1.42-1.81-.42-.66.43.37.45.21-1.15-1.34-3.75-4.69-4.18-5.34.44.54,1,1.22,1.3,1.53.3.08,1.17,1,1.32.86.44.49,1,1,1.76,2a13.3,13.3,0,0,1-.88-1.19c1.62,1.72.15.36,2,2.46-1-1.21-1.3-1.76-1.89-2.56-1.62-1.84-.44-.24.14.57-2.19-2.57-4.39-5.34-5.3-6.63-.45-.71,1.47,1.62,1.18,1.24.57.28-3.74-4.56-2-2.86,1.49,1.56,2.84,3.2,3.89,4.35.45.68-1-.91-1-.8l.74.7c.44.56.74,1,.3.58,1.33,1.4.58,0,1.93,1.18a22.35,22.35,0,0,0-1.52-1.78l.16.27c-1.2-1.25-1.53-1.86-2.12-2.41-.76-1-2-2.42-1.27-1.77l1.68,1.79c-.49-.53-1-1-.55-.46-.71-.82,2.37,2.33.22-.06l-1.21-1.2c-.78-1-2.5-2.91-1.91-2.4-1.69-1.74.17.22-1.8-1.81,2.44,2.54-.25,0,2.33,2.68-2.28-2.37-1-.95-3-3,.55.59,1.07,1.12.75.87l.47.54,0,0,.06.06c.08.1.1.11,0,0l.85.88c1.23,1.4,1.11,1.43,1.72,2.18-.29-.26-.61-.71-1.2-1.33l.91,1.11c-1.2-1.33-2.07-2.15-2.7-3h-.12c-.71-.72-1-1-.56-.38-.28-.27,1.24,1.56.34.48l.62.92-.29-.33c-.25-.09,1.72,2.44-.5.08.25.37.58.83.19.49l-1-1.18c.3.46-1.14-1.08-.12.18-2.72-3.18-.8-.53-1.35-1l1.28,1.57c-.13,0,.18.45.61,1.14l1.13,1.4c.86,1.2-1-.86-1-.64-.42-.54-.28-.42,0-.11-2.63-3.08,1.56,2.52-.38.29.37.53.22.37-.08,0l-.05-.08h0l-.62-.72.62.73a2.89,2.89,0,0,0,.35.63l-1.19-1.51,0,0c-.47-.54.53.75,1.43,1.88l.66,1c-1.92-2.45.55.9-1.5-1.71,1,1.3.57,1.09,2.6,3.82a3.42,3.42,0,0,1-.4-.55c-.27-.28-.54-.56,0,.24l-1.49-2,1.89,2.7c-.95-1.15-1.48-1.83-2.56-3.38,1.61,2.41.56.94,2.16,3.33l-.94-1.28c0,.08,1.19,1.83.4.79-1.86-2.36-.68,0-2.51-2.15,2.73,3.78-1.31-1.63.77,1.32-.65-.89-1-1.38-1.55-2.18.51,1-1.16-1.32.51,1.22-.63-.91-.91-1.33-1.29-1.87.13.2.52.81.13.28s-.51-.77-.77-1.18c0,.22,1.93,3,3.73,5.65-.92-1.2-.82-1,.32.75a17.32,17.32,0,0,1-1.4-2.08c-.13-.1-1.1-1.1.33,1-.38-.53-.17-.12,0,.13-.18-.06-.32-.25-.27,0l.26.33c1.67,2.59.3.63.43,1l-.17-.26c-1.39-1.74.51.94-1.05-1.07l1.06,1.6c2.25,3.46-1.48-1.94-.71-.56l.63.9c.71,1.22-3.19-4.62-3.51-5s-.29-.5-.42-.73c-1.43-2,1.34,2.13,1.55,2.68-.74-1.13-1.82-2.92-2-3.1-.61-.91,2.17,3.84.7,1.69.57.87,1.14,1.75,1.51,2.44.12.37-2.26-3.24-.6-.4l-.44-.69c.4.76.57,1.32,1.46,2.87-3.46-5.66,1.29,3-1.82-2.29v.37l-.31-.54c-.31-.29.39,1,1.08,2.29-.23-.34-.5-.85-.65-1.13-.77-1-.64-.75.71,2l-1-1.72c.51,1-1.71-2.6-.74-.5-.11-.2-.28-.54-.41-.79.91,2.14-2.89-4.7.36,1.75l.69,1.64c.41.42,1.39,2.81,2,3.85a10.55,10.55,0,0,1-1.24-2.23l.18.31c-1.67-3.37-.79-1.09-1.92-3.39-.21.32-1.32-1.49-1.58-1.54l1.19,2.67-.15-.11a15.64,15.64,0,0,1-.83-2c-.68-1.51.46,1.32.7,1.91-.58-1-1.29-3.16-1.35-3.21l0,.22.14.31a13.07,13.07,0,0,1,.79,2.19c-.27-.52-.71-1.66-.77-1.76s-.11-.28,0-.07l-.16-.21.88,2.14a15.08,15.08,0,0,0,.87,2.34c-1.53-3.74-.88-1.23-1.35-2.39.5,1.62.41,1.62.27,1.45a19.22,19.22,0,0,1,.8,2.65c-1.59-5.11-.82-2.19-1.91-5.89.73,2.45.1.62,1.08,4.12-.16-.41-.52-1.94-.86-3.15.23,1,.1.69,0,.21-.06-.24-.13-.5-.19-.71a.47.47,0,1,0,0,.09l0,.2a3.23,3.23,0,0,0,.08.33h0c0,.17.06.36.09.56.09.47.18,1,.27,1.51l-.28-1.74a1,1,0,0,0,0,.16l0,.17,0,.34,0-.16,0,.1v0s0,0,0,0l0,.25.09.71c0-.2,0-.38-.06-.53v.06l0,.16c0,.21,0,.42,0,.63s0,.43,0,.65v.19l.06,4h0v0s0,.07,0,.06,0-.11.42-.4a13.76,13.76,0,0,1,1.61-.95l4.72-2.43.45-.22.44-.39c-1.12.81-1.31.74-1.42.64-.24.23-1.54.8-2.38,1.26A3.47,3.47,0,0,0,138,153a8.26,8.26,0,0,1,1-.88c-1.13.68-1.23.64-1.3.64s-.11,0-1.19.72l.43-.27-8.73,5.68c.73-.45.83-.49.65-.35l-.45.33-.32.22a2.58,2.58,0,0,1-.39.14,4.06,4.06,0,0,1-.73.18h-.08l3.67-1.94-.13.07-.25.13-.5.27-1,.53-1.9,1,0,0-.11,0A15.06,15.06,0,0,1,128,159c-.67.41-1.13.51-1.9,1a4.47,4.47,0,0,1,1.44-.53c.23,0,.16.1,0,.55l-.38.16a2,2,0,0,1,.36.44,4.07,4.07,0,0,1,.35.6c.1.2.28.5.42.76l.23.4a4,4,0,0,0,.33.46,8.74,8.74,0,0,0,.82,1,7.75,7.75,0,0,0,1.23.93,7.36,7.36,0,0,0,1.52.73,9.41,9.41,0,0,0,.91.25l.13.2-.09-1.89a6.24,6.24,0,0,1,.28,1.31c.06-2.88-.41-.14-.33-3.32.11,1.93.37,1.93.61,2s.48.19.8,2.36c.25,0-.31-2.18-.08-2.18l.2,1.17-.13-1.52a12.88,12.88,0,0,1,.61,2.68c-.06-.11-.08.3-.11.39.43,1.35.56-.56.7-.12l-.37-.69c.29-.59.53-.54.8-.66s.49-.39.4-1.61l-.26-.86c-.12-1.68.52.88.67.05l.05.2c-.19-.87-.24-1.32-.14-1.25.24,1,.77,1.89,1,3-.24-1.79-.27-1.38-1.15-4.59l.52,1.39a12.82,12.82,0,0,1-.6-2.37c.31,1.24.84,2.1,1.27,3.73,1.44,2.93-.68-3.24,1.14,1.15-1.34-3.88-1.08-2-1.31-2.88-.53-1.24-1-2.91-.76-2.56.11.06,2.06,4.84,2.3,4.67,0,0,.09.28.05.27.5.93-.37-1.38.39.14-.9-2.31.2.07-1-2.85l.09.76c-.2-.82-1.57-4.26-.69-2.69.24.59.52,1.39.67,1.84.42.83-.15-.62.29.24,1.25,2.91,0,.74.85,3,.59,1.2-.65-2.22.63,1-1.63-4,.46.4-.73-2.72l.76,1.74a6.86,6.86,0,0,1-.34-1.1l.92,2.28c-.73-2,1,1.56.68.46-.25.17-1-2-1.7-3.27-.76-2.44,2.26,4.44,2.26,3.43.06.27-.68-.94-1-1.77a16.29,16.29,0,0,1,1.11,1.81c.09-.47-.88-1.74-1.28-2.84,1.08,2-.31-.9-.55-1.61l.86,1.73c.79,1-1.73-3.63-.85-2.4l1.1,2.44-.19-.68,1,2c-.61-1.52-.38-1.16,0-.68a20.65,20.65,0,0,1-1.5-3.23c.59,1,.8,1.65.82,1.33.52,1.08,1.18,2.45.3.91l.79,1.65c.69,1.13.35.16.4.11a1.33,1.33,0,0,1-.27-.37l-1-2.48a14.7,14.7,0,0,1,.85,1.67c-.05-.21-.43-1-.45-1.19.73,1.4,1.49,2.82,1.74,3.53l-.6-1.66c.34.6,1,1.59,1.25,2.12.58.74-1.15-2.84-.42-1.85-.14-.28-.26-.54-.34-.75.31.23,1.39,1.83.49-.14l1.49,2.39c-.18-.63-1.88-3-2.2-4-.3-.87,1.25,2,1.7,2.69-.63-1.28-2-3.84-.66-1.94C145.44,163.13,145.19,162.79,145.25,163Zm.87-2c.19.36.8,1.45.17.5C145.15,159.62,145.73,160.5,146.12,161Zm-.48-5.25c.35.53.14.29-.31-.28C145.26,155.33,145.33,155.37,145.64,155.76ZM142,141.6l.06.07C141.5,141.14,141.71,141.35,142,141.6Zm.64.56c-.18-.21-.35-.41-.54-.61.32.37.33.41.22.32C142.64,142.25,142.88,142.5,142.62,142.16Zm-9,6.89.2.47C134,150,133.85,149.57,133.65,149.05Z"/><path class="cls-14" d="M146.91,158.09l-.6-.86A10.39,10.39,0,0,0,146.91,158.09Z"/><path class="cls-14" d="M144.76,164.45h0l.17.3Z"/><path class="cls-14" d="M151.7,155.9c-.2-.2-.44-.46-.68-.73A4.73,4.73,0,0,0,151.7,155.9Z"/><path class="cls-14" d="M140.77,139.39l.3.41c0-.09.25.21.47.43C141.23,139.9,140.78,139.43,140.77,139.39Z"/><path class="cls-14" d="M149.43,147.65c-.15-.18,0,0-.15-.22l-.63-.64A4,4,0,0,0,149.43,147.65Z"/><path class="cls-14" d="M145.18,144.05c1.11,1.18.77.75.6.49,0,0,0,0,0,0C144.23,142.88,144.71,143.47,145.18,144.05Z"/><path class="cls-14" d="M145.76,144.5c0-.07-.06-.11,0-.07C145.14,143.77,145.62,144.31,145.76,144.5Z"/><path class="cls-14" d="M142,141.27c.29.29-1.38-1.55-.93-1.07C139.71,138.65,142.64,142.15,142,141.27Z"/><polygon class="cls-14" points="148.87 147.93 147.48 146.48 148.56 147.68 148.87 147.93"/><path class="cls-14" d="M147.54,147.16l.44.34a5.54,5.54,0,0,1-.45-.52C147.45,147,147.14,146.72,147.54,147.16Z"/><path class="cls-14" d="M147.53,147c.05,0,0,0-.17-.29C147.36,146.72,147.39,146.79,147.53,147Z"/><polygon class="cls-14" points="149.18 148.46 148.88 148.17 148.73 148.11 149.18 148.46"/><path class="cls-14" d="M146.55,147.51l.3.5c.44.52.74.82.59.59A12,12,0,0,0,146.55,147.51Z"/><path class="cls-14" d="M150.4,151.44c-.3-.3-.59-.63-1-1.12l1.63,1.87Z"/><path class="cls-14" d="M150.53,152.09c.45.52,1.17,1.6,1.18,1.39A9.42,9.42,0,0,0,150.53,152.09Z"/><polygon class="cls-14" points="147.27 150.73 147.27 150.68 144.69 147.52 147.27 150.73"/><path class="cls-14" d="M152.12,159.31c.71.68-1.51-2-.66-1.13-.56-.78-.69-.72-1.17-1.4A15.89,15.89,0,0,0,152.12,159.31Z"/><path class="cls-14" d="M150.29,156.78l-.35-.51Z"/><path class="cls-14" d="M140.62,150.87c.22-.17.45-.32.68-.47l-1.14.74Z"/><path class="cls-14" d="M138,152.54l2.21-1.42-2,1.32C138.27,152.36,138.48,152.23,138,152.54Z"/><path class="cls-14" d="M149.15,165.28l-.33-.53c-.37-.56-.42-.59-.52-.66Z"/><polygon class="cls-14" points="146.98 164.35 147.02 164.38 145.77 162.4 146.98 164.35"/><path class="cls-14" d="M147.47,167.53c.09.06-.12-.42,0-.36C147.56,167.59,146,165,147.47,167.53Z"/><path class="cls-15" d="M139,117.92h0Z"/><polygon class="cls-15" points="137.14 117.12 137.17 117.14 136.89 116.95 137.14 117.12"/><path class="cls-15" d="M135.32,115.87c1.12.88,1,.79.77.58l-.23-.16-.1-.07.08.06.34.22.11.08.15.09c-.26-.16-.55-.35-.8-.54l-.19-.14s0,0,0,0l0,0S135.47,116,135.32,115.87Z"/><path class="cls-15" d="M133.65,114.55l.31.26-.06,0Z"/><path class="cls-15" d="M133.9,114.76Z"/><path class="cls-15" d="M132.73,113.7l.32.31c-.07-.06-.35-.34-.25-.23C132.47,113.45,132.54,113.52,132.73,113.7Z"/><path class="cls-15" d="M132.72,113.7c-.09-.09-.26-.25-.13-.13l-.07-.06-.05-.05h0l.07.07Z"/><path class="cls-15" d="M132.94,113.91l-.35-.34.3.28c.11.1-.32-.29-.14-.12Z"/><path class="cls-15" d="M133.15,114.1l.24.22h0l-.06,0,.21.18-.07-.06,0,0,.14.13.09.07Z"/><path class="cls-15" d="M137.65,117.69l.68.48-.75-.6C138,117.87,136.94,117.14,137.65,117.69Z"/><path class="cls-15" d="M130.43,111.52l1.41,1.4-.49-.49Z"/><path class="cls-15" d="M131.84,112.92l.73.75C132.66,113.75,132.31,113.4,131.84,112.92Z"/><path class="cls-15" d="M135,115.85c-.51-.52-1-1-1.6-1.49.56.48,1.1,1,1.61,1.52Z"/><polygon class="cls-15" points="130.08 111.18 129.12 110.16 130.57 111.71 130.08 111.18"/><path class="cls-15" d="M130.22,111.39c-.79-.86-1.32-1.44-1.81-2l1.4,1.58C129.48,110.6,129.57,110.7,130.22,111.39Z"/><path class="cls-15" d="M130.66,112c-.17-.22-.5-.59-.85-1Z"/><path class="cls-15" d="M132.33,113.49l-1.22-1.24,1.19,1.23Z"/><path class="cls-15" d="M132.34,113.52l0,0-.09,0Z"/><path class="cls-15" d="M132.33,113.49Z"/><path class="cls-15" d="M133.85,114.86c.68.67,1.35,1.45,2.44,2.42Z"/><path class="cls-15" d="M133.83,115l.3.25L133,114.14C133.3,114.43,133.57,114.72,133.83,115Z"/><polygon class="cls-15" points="134.19 115.43 133.83 115.02 133.72 114.93 134.19 115.43"/><path class="cls-15" d="M131.76,113.14a5.11,5.11,0,0,1,.58.73c.23.24.38.35.39.33C132.37,113.8,131.74,113.08,131.76,113.14Z"/><path class="cls-15" d="M132.14,113.44l.06.07C132.3,113.62,132.33,113.65,132.14,113.44Z"/><path class="cls-15" d="M132.1,114.05l.2.24-.19-.23Z"/><path class="cls-15" d="M133,114.44c.23.23,0-.09-.39-.49a1.1,1.1,0,0,1,.17.25Z"/><path class="cls-15" d="M131.13,112.63l.65.68C131.41,112.91,130.84,112.29,131.13,112.63Z"/><path class="cls-15" d="M131.88,113.17l0-.06C131.57,112.84,131.7,113,131.88,113.17Z"/><path class="cls-15" d="M131.88,113.17l.68.78a5.54,5.54,0,0,0-.36-.44Z"/><path class="cls-15" d="M139,122.61c-1-1.24-1.85-2.44-.68-1.2-.68-1-4.1-4.91-6-7.12.44.53.85,1,1.4,1.79s1.42,1.44,2.29,2.59c.43.7-.44-.37-1-1,1.3,1.5,1.71,2.33,3.55,4.57l-.55-.88C138.27,121.72,138.69,122.31,139,122.61Z"/><path class="cls-15" d="M132.49,114.34l-.11-.16c-.2-.2-.62-.67-1.45-1.59.48.61.85,1.07,1.18,1.47l.23.1Z"/><path class="cls-15" d="M132.46,114.1c1.12,1.31,1.54,1.92,2.79,3.3a17.89,17.89,0,0,0-1.34-1.72c.18.4-.61-.75-1.32-1.43a1.62,1.62,0,0,1-.25-.38l-.56-.56.07.08h0l0,0c.15.16.23.26.15.16l0,0,.42.5a3.32,3.32,0,0,1-.42-.5l-.17-.19v0l.53.79C132.55,114.34,132.55,114.29,132.46,114.1Z"/><path class="cls-15" d="M138.86,120l-.29-.28C138.71,119.83,138.81,119.94,138.86,120Z"/><path class="cls-15" d="M138.07,119.27c-.15-.18-.63-.68-.48-.58.39.34.58.58,1,1a13.08,13.08,0,0,0-1.46-1.47l.16.17c-.47-.37-2-1.87-2.16-2C136.2,117.43,137,118.22,138.07,119.27Z"/><path class="cls-15" d="M135.49,117.08l.48.71,1.05,1.06-.61-.66C136.7,118.4,136,117.6,135.49,117.08Z"/><polygon class="cls-15" points="131.54 113.4 130.39 112 131.99 114 131.54 113.4"/><polygon class="cls-15" points="131.6 113.64 130.6 112.41 131.18 113.17 131.6 113.64"/><path class="cls-15" d="M131.26,136.54l.14.43A2.68,2.68,0,0,0,131.26,136.54Z"/><path class="cls-15" d="M131.68,136.46l-.33-.71A5.24,5.24,0,0,0,131.68,136.46Z"/><path class="cls-15" d="M128.34,116.07c-.82-1.23-2-3.17-1.13-1.64l.91,1.48C128,115.62,128.12,115.77,128.34,116.07Z"/><path class="cls-15" d="M130.4,126.8l.27.46-.74-1.49Z"/><path class="cls-15" d="M133.7,133.18l-.61-.94C133.29,132.57,133.5,132.88,133.7,133.18Z"/><path class="cls-15" d="M129.93,139.16l.64,1.65A6.55,6.55,0,0,0,129.93,139.16Z"/><path class="cls-15" d="M130.73,115.08a6.26,6.26,0,0,0-.69-.8C130.65,115.07,131.55,116.27,130.73,115.08Z"/><path class="cls-15" d="M123.53,119.83c.11.29.25.62.41,1A8.35,8.35,0,0,0,123.53,119.83Z"/><path class="cls-15" d="M129.94,114.37l.25.32c-.14-.26-.25-.47-.15-.41C129.59,113.7,129.29,113.35,129.94,114.37Z"/><path class="cls-15" d="M120.9,140.8l-.08-.19C120.88,140.84,120.89,140.85,120.9,140.8Z"/><path class="cls-15" d="M115.83,124a.27.27,0,0,1,0-.14C115.83,123.7,115.83,123.72,115.83,124Z"/><path class="cls-15" d="M130.7,113.38c0-.11-.11-.16,0,0Z"/><path class="cls-15" d="M135,118.73l.5.68C135.26,119.07,135.1,118.86,135,118.73Z"/><path class="cls-15" d="M135.63,123.55Z"/><path class="cls-15" d="M131.22,114l-.34-.39Z"/><path class="cls-15" d="M130.72,113.33l.12.12C130.66,113.22,130.55,113.07,130.72,113.33Z"/><path class="cls-15" d="M130.73,113.48s.06,0,.15.11l-.18-.21Z"/><path class="cls-15" d="M124.1,135l-.06-.15C124.23,135.5,124.22,135.39,124.1,135Z"/><path class="cls-15" d="M136.44,132.22l0-.08,0,0Z"/><path class="cls-15" d="M136.92,133.43c-1-1.91-.83-1.7-.55-1.34l-2.55-4.31Z"/><path class="cls-15" d="M130.57,137.41l.77,1.36a17.08,17.08,0,0,0,1.47,3.59c-2.24-5,.27-.74-2-5.67l.56,1s.09.25,0,.22c1.26,2.28-1.54-3.62-1-3a7.73,7.73,0,0,1,.86,1.64l-.42-1.29a2.94,2.94,0,0,1,.4.86l0-.5.06.14c-.32-.78-.82-2-1-2.53a11.13,11.13,0,0,1,.53,1.14l-.45-1.25a6.88,6.88,0,0,1,1,2.39c2.47,4.83-.49-1.29,1.15,1.44l.18.68a25.8,25.8,0,0,0,2,3.34,62,62,0,0,1-2.86-5.5c.22.35.36.49,0-.52.85,1.73.72,1.27.77,1.12l1.12,2.3c-.22-.71-.81-1.88-1.26-2.94a30.46,30.46,0,0,1,1.9,3.42c.37.27-1.54-2.79-1.54-3.32.59.8.23-.19-.29-1.65.5.74.69,1.41,1.06,2l-.83-1.86s.32.59.46.87c-.28-.74-1.15-2.28-1.35-3-1.26-2.52,2.12,3.54.8.62.37.63.71,1.4,1.17,2.28-.76-2-.52-1.45-1.67-4l.92,1.42a52.78,52.78,0,0,1-2.69-5.44c-.47-.8-.88-1.5-1.07-1.84l-.48-1.3c.22.36.61,1.15,1.08,2.11l-.25-.56c.5.8,1.16,2.12,1.79,3.41l-.8-1.36c.68,1.39,1.44,2.94,2.15,4.26a4.51,4.51,0,0,1-.26-.65c.18.38.35.72.47.94s-.11-.27-.38-.86l1.37,2.5-.52-1,1.08,1.44c-1.17-2.62-3-6.42-3.35-7.59.93,1.87,1.62,3,2.8,5.19-1.33-2.27.33,1.09-.07.7a10.5,10.5,0,0,1,.92,1.62l-.88-2.23a10.21,10.21,0,0,0,1.25,2c-2-3.49-1.09-2.44-1.59-3.57.66,1.17,1.3,2.39,1,2.17,1.59,2.57-2.1-4.21-.73-2,0,0-.13-.13.19.47-.51-1.08.12-.35.65.7l0,0c.44.3.63-.32-1-3.29.22.38,2,3.58,2.34,4.18l-5.37-10.12c1.43,2.55,5,8.5,5.69,10,.26.33.57.72.15-.24-.24-.33-2.2-3.6-2.29-3.86,1.75,2.75,1,1.46,2.5,3.77-.36-.52-2.62-4.5-2.47-4.42.33.6,2.29,3.9,2.5,4.33l-2.09-4c.37.72,1.93,3.29,2.62,4.36-.47-.75.21,0,0-.45l-.62-.84c.57.45-3-5.56-2.72-5.48.46.81,2.9,4.94,3.3,5.35-1.14-2-5.54-9.59-6.33-11.19l.72,1.1-.67-1.35c1.77,3,5.36,9.34,6.68,11.86.63.84.83,1.31.9,1.13a5.76,5.76,0,0,1,.9,1.73l.72.49c-1.42-2.28-1.19-2.43-2.38-4.33l1.15,2.57c-1.42-2.29-3.83-6.61-3.4-6.32.62.87,2.5,4.08,3,4.84-.46-.8-.75-1.62-.38-1.07l.68,1.27c.65.78-1.72-3.13-.21-1.05.14.12,2,2.83,1.15,1.48-1.73-2.53-6.84-10.53-8-12.5.13.17,1.78,2.34,2.66,3.59,1.37,2,3,4.88,4.18,6.58-.39-.62-.84-1.41-1-1.66.38.49,1.21,1.92,1.14,1.57-1.47-2.3.33.05-1.21-2-.33-.72.41.4.46.22-1-1.45-3.2-5.07-3.55-5.78.38.59.9,1.32,1.14,1.66.32.08,1.12,1,1.31.94.39.53.93,1.13,1.56,2.12a9.66,9.66,0,0,1-.73-1.29c1.46,1.86.08.39,1.78,2.66a25.72,25.72,0,0,1-1.58-2.77c-1.43-2-.45-.26,0,.62-1.91-2.79-3.8-5.78-4.54-7.16-.37-.77,1.31,1.74,1,1.33.6.31-3.24-4.92-1.64-3.08,1.34,1.69,2.53,3.45,3.46,4.69.37.74-1-1-1-.86l.68.76c.39.61.63,1.1.22.63,1.2,1.51.65,0,1.93,1.25a21.94,21.94,0,0,0-1.34-1.91l.12.29c-1.1-1.35-1.33-2-1.9-2.59-.65-1-1.76-2.6-1.06-1.9l1.52,1.92c-.44-.56-1-1.1-.53-.49-.63-.88,2.2,2.49.26-.07l-1.11-1.28c-.69-1-2.25-3.12-1.7-2.56-1.54-1.87.16.23-1.66-2,2.24,2.72-.25,0,2.11,2.87-2.08-2.55-.95-1-2.72-3.21.49.64,1,1.21.67.94l.42.58,0,0,.06.07,0,0,.77,1a23.77,23.77,0,0,1,1.5,2.34c-.28-.28-.54-.76-1.08-1.43l.8,1.19c-1.08-1.43-1.88-2.32-2.42-3.23h-.13c-.64-.78-.93-1.06-.52-.42-.26-.29,1.07,1.68.28.51l.52,1-.26-.36c-.25-.1,1.42,2.63-.57.07.21.4.47.9.11.53l-.89-1.28c.24.49-1-1.18-.16.18-2.38-3.44-.77-.58-1.29-1.13l1.09,1.71c-.13,0,.11.48.45,1.23l1,1.51c.7,1.3-.9-.94-.93-.7-.36-.59-.23-.46,0-.12-2.29-3.35,1.19,2.72-.5.3.3.58.16.41-.1,0l0-.09s0,0,0,0l-.54-.79.54.8a2.28,2.28,0,0,0,.25.68l-1-1.64,0,0c-.41-.58.43.8,1.2,2,.14.29.31.63.54,1-1.63-2.65.41,1-1.33-1.86.8,1.41.4,1.18,2.09,4.13a3.49,3.49,0,0,1-.33-.59c-.25-.31-.5-.61-.06.24l-1.25-2.1,1.53,2.91a39,39,0,0,1-2.15-3.65c1.29,2.6.42,1,1.7,3.59l-.78-1.38c0,.08.95,2,.27.85-1.59-2.56-.77,0-2.41-2.33,2.29,4.06-1.13-1.77.59,1.41-.54-1-.88-1.48-1.29-2.35.37,1-1-1.43.3,1.31-.54-1-.73-1.44-1.06-2,.1.22.41.87.08.3s-.41-.83-.62-1.26a61.91,61.91,0,0,0,3,6.07c-.78-1.29-.72-1.09.2.79a13.23,13.23,0,0,1-1.15-2.23c-.13-.1-1-1.18.14,1.09-.32-.57-.16-.13,0,.14-.2-.07-.31-.27-.32,0l.22.35c1.36,2.77.21.67.28,1.05l-.14-.29c-1.23-1.87.38,1-1-1.15l.87,1.71c1.83,3.7-1.29-2.08-.71-.6l.53,1c.55,1.3-2.69-4.93-3-5.36a6.39,6.39,0,0,1-.33-.78c-1.24-2.1,1.09,2.27,1.21,2.86-.62-1.21-1.48-3.11-1.68-3.3-.52-1,1.67,4.08.42,1.8a25.23,25.23,0,0,1,1.23,2.59c.06.39-2-3.44-.63-.42l-.37-.73a31.68,31.68,0,0,0,1.08,3c-2.86-6,.87,3.15-1.68-2.4l-.09.4-.25-.57c-.31-.31.24,1,.78,2.41a11.6,11.6,0,0,1-.53-1.19c-.72-1-.63-.79.41,2.09l-.81-1.81c.4,1.08-1.54-2.72-.83-.51-.09-.21-.24-.56-.33-.83.66,2.25-2.65-4.85,0,1.86l.52,1.71c.42.43,1.15,2.91,1.69,4,.07.43-1-1.93-1.08-2.32l.15.33c-1.38-3.5-.76-1.13-1.71-3.51-.33.34-1.46-1.47-1.86-1.49l1.06,2.73-.19-.11a9.53,9.53,0,0,1-.7-2c-.62-1.54.33,1.36.54,2a29,29,0,0,1-1.18-3.28v.23l.13.32a9.18,9.18,0,0,1,.62,2.24c-.27-.53-.64-1.69-.71-1.79s-.11-.28-.06-.06l-.24-.18.83,2.16a8.24,8.24,0,0,0,.74,2.38c-1.44-3.77-1.07-1.17-1.53-2.33.42,1.63.3,1.64.12,1.48a14,14,0,0,1,.77,2.65c-1.56-5.12-.89-2.16-2.08-5.83.8,2.43-.09.69,1,4.14-.21-.39-.57-1.92-1-3.12.37,2.06-.75-1.19-.77-.46.17.68.47,1.72.68,2.74l-1-3.38c0,.34.92,4,.28,1.6.14.57.37,1.43.39,1.66-.61-1.62-.64-.89-.76-.54s-.38.33-.77-2.86a11,11,0,0,1,.15,1.54c0,.37.17,1.73.26,2.68l-.37-2.63c.17,2.64-.14.19,0,2.71l0-.45c.09,3,.57,6.61.86,10.43,0-1.7.15-.45.37.61s.52,1.92.39-.51c.16.77.09,1.23.22,2.11-.1-1.64-.06-2,.21-1.28l0,.4c.47-.46.85,1.1,1.65,2.06l-.41-1.86a6.85,6.85,0,0,1,.46,1.27c-.44-2.84-.36-.1-.85-3.23.92,3.75.71-.1,1.77,4.16.17,0-.54-2.13-.37-2.14l.31,1.14-.31-1.49a16.6,16.6,0,0,1,.81,2.62c-.06-.11,0,.29,0,.38.48,1.33.29-.56.45-.13L121,140c.14-1.19,1.12.18.82-2.26l-.28-.85c-.19-1.67.51.88.6.05l0,.21c-.2-.87-.25-1.33-.14-1.25.24,1,.76,1.89,1,3a27.91,27.91,0,0,0-1.09-4.61l.5,1.4a11.4,11.4,0,0,1-.55-2.38c.28,1.25.8,2.11,1.2,3.76,1.35,3-.59-3.26,1.09,1.18-1.2-3.93-1-2.06-1.21-2.92-.5-1.25-.88-2.94-.67-2.58.12.05,1.89,4.9,2.12,4.74,0,0,.07.28,0,.27.44,1-.3-1.4.39.16-.78-2.35.2.08-.86-2.9l0,.77c-.15-.83-1.31-4.34-.5-2.73.21.6.44,1.41.56,1.87.39.85-.1-.62.29.25,1.09,3,0,.75.66,3.07.53,1.23-.52-2.25.59,1-1.4-4.14.45.42-.55-2.77l.65,1.78a6.89,6.89,0,0,1-.27-1.12l.78,2.34c-.61-2,.92,1.61.65.49-.26.17-.88-2.11-1.49-3.36-.58-2.5,2,4.56,2,3.56,0,.27-.62-1-.85-1.83a15.77,15.77,0,0,1,1,1.88c.11-.47-.75-1.8-1.08-2.93.94,2.12-.22-.92-.39-1.65l.71,1.79c.74,1-1.42-3.76-.62-2.47l.9,2.53-.13-.7.8,2.05c-.47-1.57-.27-1.2.1-.68a18.91,18.91,0,0,1-1.22-3.35c.52,1,.66,1.71.72,1.38.43,1.13,1,2.55.21.94l.65,1.71c.6,1.18.35.19.4.14a1.43,1.43,0,0,1-.24-.38l-.78-2.58a16.2,16.2,0,0,1,.7,1.74c0-.21-.34-1-.33-1.23.59,1.46,1.23,2.95,1.41,3.67l-.44-1.7c.29.62.86,1.67,1.06,2.21.5.79-.87-2.94-.21-1.9a5.92,5.92,0,0,1-.26-.78c.3.26,1.23,1.95.55-.1l1.26,2.51c-.11-.65-1.6-3.16-1.78-4.24-.19-.9,1.05,2.16,1.44,2.84-.49-1.33-1.54-4-.43-2C130.75,137.56,130.53,137.2,130.57,137.41Zm1.29-2c.14.38.62,1.53.1.52C131,133.94,131.52,134.88,131.86,135.43Zm.52-5.48c.27.58.09.32-.3-.31C132,129.49,132.11,129.53,132.38,130Zm-1-15.1,0,.08C130.92,114.35,131.11,114.58,131.36,114.85Zm.59.6-.48-.65c.28.4.28.44.18.35C132,115.55,132.17,115.82,132,115.45Zm-12.72,7.46.19.47C119.55,123.92,119.4,123.44,119.23,122.91Z"/><path class="cls-15" d="M133.32,132.44c-.15-.29-.33-.6-.5-.92A9.34,9.34,0,0,0,133.32,132.44Z"/><path class="cls-15" d="M129.81,138.86s0,0,0,0l.13.32Z"/><path class="cls-15" d="M139.23,130.3c-.18-.22-.39-.5-.6-.8A4.33,4.33,0,0,0,139.23,130.3Z"/><path class="cls-15" d="M130.39,112.52l.27.43c0-.1.23.23.43.46C130.81,113.06,130.4,112.55,130.39,112.52Z"/><path class="cls-15" d="M138.47,121.33c-.14-.18,0,0-.14-.23l-.58-.68A2.9,2.9,0,0,0,138.47,121.33Z"/><path class="cls-15" d="M134.42,117.51c1,1.27.71.8.57.53,0,0,0,0,0,0C133.57,116.26,134,116.89,134.42,117.51Z"/><path class="cls-15" d="M135,118c0-.07-.05-.12,0-.07C134.42,117.21,134.85,117.79,135,118Z"/><path class="cls-15" d="M131.42,114.51c.27.32-1.23-1.67-.83-1.15C129.38,111.69,132,115.45,131.42,114.51Z"/><polygon class="cls-15" points="137.78 121.66 136.52 120.11 137.49 121.4 137.78 121.66"/><path class="cls-15" d="M136.45,120.84l.42.38a5.57,5.57,0,0,1-.39-.56C136.38,120.65,136.09,120.37,136.45,120.84Z"/><path class="cls-15" d="M136.48,120.66c.05,0,.05,0-.14-.32A.69.69,0,0,0,136.48,120.66Z"/><polygon class="cls-15" points="138.03 122.23 137.75 121.93 137.59 121.86 138.03 122.23"/><path class="cls-15" d="M135.27,121.22l.23.54c.39.57.66.89.54.64A12,12,0,0,0,135.27,121.22Z"/><path class="cls-15" d="M138.77,125.47c-.27-.32-.53-.68-.93-1.2l1.44,2Z"/><path class="cls-15" d="M138.78,126.17c.39.57,1,1.74,1,1.51A7.81,7.81,0,0,0,138.78,126.17Z"/><polygon class="cls-15" points="135.37 124.68 135.38 124.64 133.17 121.21 135.37 124.68"/><path class="cls-15" d="M138.94,133.93c.65.75-1.26-2.17-.5-1.21-.46-.85-.62-.79-1-1.52A12.87,12.87,0,0,0,138.94,133.93Z"/><path class="cls-15" d="M137.43,131.2l-.28-.56C137.26,130.87,137.35,131.05,137.43,131.2Z"/><polygon class="cls-15" points="115.5 121.78 115.42 120.94 115.53 122.3 115.5 121.78"/><path class="cls-15" d="M115.61,124.8l-.16-2.59.1,2.35C115.56,124.45,115.57,124.22,115.61,124.8Z"/><path class="cls-15" d="M134.43,140l-.26-.56c-.32-.6-.36-.64-.46-.71Z"/><polygon class="cls-15" points="132.22 138.9 132.26 138.94 131.22 136.83 132.22 138.9"/><path class="cls-15" d="M132.29,142.16c.09.07-.07-.44,0-.37C132.38,142.23,131.08,139.5,132.29,142.16Z"/><path class="cls-16" d="M203.87,209.17s-3.16-6.22-2.47-7.55a2,2,0,0,1,2.32-.81s4.24,5.55,4.33,6.5a4.92,4.92,0,0,1,0,1.64C208,209.58,204.75,210.63,203.87,209.17Z"/><path class="cls-17" d="M201.58,203.64c-.27-.3,0-.78.19-1.07.59-.9,2.17-1.47,2.93-.47l0,.05a5.31,5.31,0,0,0-2.83,1.14.5.5,0,0,0-.27.35Z"/><path class="cls-18" d="M201.31,202s-3.84-.5-3.65-3.48,1.16-3.75.14-5a6.64,6.64,0,0,1,5,2.08,4.39,4.39,0,0,1,1,4.87l-.09.18a3,3,0,0,1-2.17,1.31A.33.33,0,0,1,201.31,202Z"/><path class="cls-19" d="M203.83,197.49c-.12,0-.19-.05-.31-.07a1.18,1.18,0,0,1-.55-.23c-1.43-1-2.64-1.83-3.89-1.12s-.73,4.33-.73,4.33l.12.21a2.67,2.67,0,0,1-.81-2.07c.2-3,1.16-3.75.14-5a6.69,6.69,0,0,1,5,2.08,4.53,4.53,0,0,1,1,1.63A1.18,1.18,0,0,1,203.83,197.49Z"/><path class="cls-18" d="M199.58,196.9a2.5,2.5,0,0,0,.18,3.15"/><path class="cls-16" d="M213.53,205.65s1-1.89.75-2.3a.59.59,0,0,0-.7-.24,12.91,12.91,0,0,0-1.31,2,1.37,1.37,0,0,0,0,.5C212.29,205.77,213.27,206.09,213.53,205.65Z"/><path class="cls-17" d="M214.23,204a1.35,1.35,0,0,0-.94-.46c.22-.42,1.11,0,.94.46Z"/><path class="cls-20" d="M214.31,203.48s1.17-.16,1.11-1.06-.35-1.14,0-1.51a2,2,0,0,0-1.52.64,1.32,1.32,0,0,0-.28,1.47l0,.06a1,1,0,0,0,.66.4Z"/><path class="cls-21" d="M213.55,202.1l.09,0a.41.41,0,0,0,.17-.07c.43-.3.8-.56,1.18-.34s.22,1.31.22,1.31l0,.07a.79.79,0,0,0,.25-.63c-.06-.91-.35-1.14,0-1.51a2,2,0,0,0-1.52.64,1.23,1.23,0,0,0-.29.49A.14.14,0,0,0,213.55,202.1Z"/><path class="cls-20" d="M214.84,201.92a.76.76,0,0,1-.06,1"/><path class="cls-16" d="M214.8,200l-1,2.15s-.11.64-1.66.41-3.36-.42-4.55,3.16c0,0-.49,2.32-.53,2.75s-4.93,1.08-3.76-1.23c0,0,1.37-2.11,2.12-2.43s2.48-3.9-1.06-6c-.69-.27,0-1.7,0-1.7l.79-1.7Z"/><path class="cls-22" d="M216.44,196.25c-.22.55-1,2.27-1.64,3.7l-9.66-4.62,2-4.21s0-.27.92.17l8.54,3.84S216.83,195.26,216.44,196.25Z"/><line class="cls-23" x1="208.53" y1="191.58" x2="207.22" y2="194.36"/><line class="cls-23" x1="209.84" y1="192.19" x2="208.78" y2="194.44"/><line class="cls-23" x1="211.35" y1="192.83" x2="209.66" y2="196.41"/><line class="cls-23" x1="212.73" y1="193.41" x2="211.42" y2="196.18"/><line class="cls-23" x1="214.04" y1="194.08" x2="212.58" y2="197.16"/><line class="cls-23" x1="215.49" y1="194.69" x2="214.58" y2="196.62"/><circle class="cls-16" cx="214.37" cy="197.25" r="0.5"/><circle class="cls-16" cx="208.6" cy="195.12" r="0.5"/><line class="cls-24" x1="205.09" y1="195.31" x2="214.95" y2="200.02"/><line class="cls-25" x1="214.95" y1="200.02" x2="214.8" y2="199.95"/><line class="cls-25" x1="205.14" y1="195.33" x2="205.09" y2="195.31"/><line class="cls-26" x1="204.47" y1="196.76" x2="214.27" y2="201.12"/><path class="cls-19" d="M215.87,224.16H198.44c-.75,0-1.38-.75-1.49-1.75l-1.6-15.54c-.13-1.22.57-2.3,1.49-2.3h20.64c.91,0,1.62,1.08,1.49,2.3l-1.6,15.54C217.26,223.41,216.63,224.16,215.87,224.16Z"/><path class="cls-1" d="M197.77,207.41h19.06a0,0,0,0,1,0,0v.34a2,2,0,0,1-2,2H199.74a2,2,0,0,1-2-2v-.34A0,0,0,0,1,197.77,207.41Z"/></svg>