<svg id="Layer_1" data-name="Layer 1" xmlns="http://www.w3.org/2000/svg" viewBox="0 0 300 300"><defs><style>.cls-1{fill:#d7123d;}.cls-2{fill:#ffd69f;}.cls-3{fill:#063d5b;}.cls-4,.cls-9{fill:#f2dfd0;}.cls-4,.cls-5,.cls-6{stroke:#000;stroke-miterlimit:10;}.cls-5{fill:none;}.cls-6{fill:#fccaca;}.cls-7{fill:#f9be69;}.cls-8{fill:#262021;}</style></defs><rect class="cls-1" width="300" height="300"/><polygon points="127.44 154.94 129.3 146.38 177.47 135.97 182.06 152.12 174.38 169.59 154.97 183.35 131.24 174 127.44 154.94"/><path class="cls-2" d="M129.21,148.24l1.28-1.64,14,2.65,16.81-2.16,1.63,2.42s-11.47,9.14-34,.71S129.21,148.24,129.21,148.24Z"/><path class="cls-3" d="M161.44,85.6c-.05.29-.22,1-.29,1.24-12.71.35-25,4.48-28.74,5.82a3.15,3.15,0,0,0-5.35,2.26,3,3,0,0,0,.21,1.13c-25.67,11.66-28.7,33.87-29,37.41l0,.48a30.91,30.91,0,0,0,.06,4.1c-1.16-.37-17.38-5.76-16.7-18.35S95.27,105.6,96,105.53c3.05-12.22,14.69-44.8,47.93-41.29A18.43,18.43,0,0,1,161.44,85.6Z"/><path class="cls-4" d="M216.27,133.83c-6.17-16-17.19-14.91-25.75-13.13-3.8.79-7.12,1.71-9.31,1.33l-.35-.08c-2.79-.72-4.22-3-5.54-6.07-1.9-4.47-3.55-10.68-8.69-16.52a29,29,0,0,0-4.53-3.31h0c-11.84-7-25.32-3.47-29.33-2.16a1.69,1.69,0,0,1,0,.23,3.15,3.15,0,0,1-6.09,1.13c-25.67,11.66-28.7,33.87-29,37.41,0,.31,0,.48,0,.48a30.91,30.91,0,0,0,.06,4.1,32.85,32.85,0,0,0,8.4,20.06,6.85,6.85,0,0,0-4.52,5,11.77,11.77,0,0,0,2.9,11.31c8,8.35,23.21,5.63,20.5-3.73,1.09,1.93,20.3,35.27,49.43,25.5,25.58-9.33,27.19-21.52,27.44-30.68C202.55,164.5,225.18,157,216.27,133.83Zm-53.7,31.77c-1.39,3.06-9.59,18.53-21.29,7.59a32.75,32.75,0,0,1-10.65-24.53s-2.4-.74,6,1.31l3.81.93h0c6.56,1,16.22.07,19.45-1.71l.15-.09.17-.11h0c.17-.12.15-.06.26-.18.34.43.78.79,1.21,1.27a5.92,5.92,0,0,0,.56.56l3.47,2.89-.07.36S164.12,162.18,162.57,165.6Zm8-38.95c-1.51.52-3.54-1.42-4.54-4.32s-.58-5.68.93-6.2,3.54,1.42,4.54,4.32S172,126.13,170.53,126.65Z"/><path class="cls-3" d="M175.35,116.53c-1.9-4.47-3.55-10.68-8.69-16.52a29,29,0,0,0-4.53-3.31h0c-11.84-7-25.32-3.47-29.33-2.16a3.21,3.21,0,0,0-.94-2c3.7-1.34,16-5.47,28.74-5.82a45,45,0,0,1,15.24,1.91C194.53,94.78,193.31,109.47,175.35,116.53Z"/><path d="M131.41,166.68c9.06,12.4,21.65,20.93,30.69,3.15.8-1.51,1.8-3.7,2.48-5.29a35.84,35.84,0,0,1-5.07,10.58c-9.28,12.76-22.34,1.3-28.1-8.44Z"/><path d="M96.45,137.63c1.55-18.78,13.48-36.32,30.8-44l1.58,3.68C112,103.7,99.93,120,97.49,137.7l-1-.07Z"/><path d="M114,122.68a11.77,11.77,0,0,1,10.73-7.34c4.64-.15,9,1.84,13,3.87s7.66,4.34,11.42,6.45c3,1.54,8.51,5.48,11.58,2.79a3.41,3.41,0,0,1-1.18,1.21c-6.68,3.26-21.89-8.4-28.84-10.83-6-2.65-12.8-1.89-16.67,3.85Z"/><path d="M159.36,113.42c-2.8-3.73-6.81-10.36-2.19-14.22,3-2.54,6.54.26,8.35,2.76l-.06.07c-.88-.52-1.73-1.06-2.58-1.53-1.88-1.08-3.7-1.42-5.26.29-3,3,.36,9.29,1.74,12.63Z"/><path d="M137.9,136.47c0-2,1.95-3.55,3.75-4.1,3.25-1.12,7.75-.09,11,.16,1.77.24,3.73.28,5.42.48-3.53,1.17-7.32.93-11,.67-3.38-.29-7.36-.39-9.26,2.79Z"/><path d="M109,123.06a15.7,15.7,0,0,0,11,8.45v.05a10.77,10.77,0,0,1-9.6-5,10.34,10.34,0,0,1-1.45-3.44l.1,0Z"/><path d="M107,129.17c3.26,3.38,7.15,6.78,12.13,6.64v0c-3.69,1.25-7.67-.82-10.13-3.55a12.43,12.43,0,0,1-2.14-3.05l.13-.08Z"/><path class="cls-5" d="M172.28,133.57s9.36-18.52,22-10.5S196.34,155,173,155.15c-15.59-1.35-17.71-16.94-7-15.82"/><path d="M125.47,153.74c-2.52-3.46-.93-7.15,2.77-8.82,3.31-1.78,7.19-.55,10.55.35a41.49,41.49,0,0,0,10.29,2.11,20.44,20.44,0,0,0,10-2.26l.45.89c-6.52,3.62-14.31,2.33-21,0-3.26-1-6.92-2.3-10.16-.69-3.61,1.48-5.24,5-2.95,8.45Z"/><path class="cls-1" d="M153.34,165a42.55,42.55,0,0,0-3.73-3.74c-1.3-1,4.68-2.45,8.38.5s3.38,4.47-1.09,7.65-10.17,4.41-12.58,2.12-8.27-7.59-7.65-10.09,9.09-1.12,11.06-.24S152.55,165.12,153.34,165Z"/><path d="M108.14,165.74c5.06-3.38,10.37,2,11.71,6.79h0c-2.35-4.13-6.46-8.6-11.67-6.8Z"/><path d="M115.5,174.28c-2.7-1.38-6-5.81-2.58-8.14l.08.08c-2,2.91.71,5.73,2.58,8l-.08.1Z"/><path d="M162.43,95.62c6.49-1.43,14-1.45,19.46,2.76a17.43,17.43,0,0,0-9.37-2.66,30.62,30.62,0,0,0-9.61,1.47l-.48-1.57Z"/><path d="M167,99.4c7.09-.55,13.85,2.51,19.34,6.75a39.21,39.21,0,0,0-4.46-2.52c-4.46-2.12-9.7-3.4-14.58-2.61L167,99.4Z"/><path class="cls-5" d="M186.71,121.06l19.06-22.18s3.88-1.26,2.38,2.8-17.38,19.79-17.38,19.79"/><path class="cls-6" d="M198.28,93.68s9.42,12,11.18,12.83,11.4-2.59,11.82-10.12c0,0-7-10.41-10.64-13.35C210.64,83,201.52,82.27,198.28,93.68Z"/><ellipse cx="168.83" cy="121.71" rx="2.89" ry="5.56" transform="translate(-30.34 61.31) rotate(-18.92)"/><ellipse cx="204.75" cy="89.13" rx="5.56" ry="1.45" transform="translate(-9.48 152.17) rotate(-39.92)"/><circle class="cls-7" cx="130.13" cy="94.84" r="3.15"/><path d="M132.4,92.65c13.41-5.46,28.61-9.27,43-5.77,6.9,1.86,15.55,6.62,15.26,14.86-.62,7.94-8.41,12.76-15.16,15.25l-.37-.93c6.13-2.7,13.36-7.09,13.89-14.39.1-7.45-7.79-11.4-14.05-13.25-14-3.73-29.2,0-42.6,4.23Z"/><path class="cls-8" d="M182.41,227.83l-1.23,2.88a1.17,1.17,0,0,0,0,.49q.06,6,.14,12c0,.37-.09.45-.45.44-3.28-.09-6.57-.15-9.85-.22-.52,0-.52,0-.37-.49q1.71-5.59,3.43-11.19a.57.57,0,0,0-.08-.56c-2.09-2.91-4.16-5.83-6.24-8.75l-.18-.23c0,.48,0,.86,0,1.24s-.06.35-.33.36c-1.12,0-2.24.07-3.35.08-.36,0-.44.11-.4.44.07.65.13,1.3.16,2,0,.26.15.23.32.22.71-.07,1.41-.12,2.12-.21.24,0,.33,0,.35.27.11,1.93.23,3.87.37,5.8,0,.22-.05.27-.26.29-.72.07-1.43.17-2.15.24-.29,0-.39.13-.36.43a11.53,11.53,0,0,1,.08,1.43c0,.29.09.31.33.21l4.73-1.79.95-.34c.1.07.06.16.07.23.07,3,.14,5.94.23,8.91,0,.3-.07.39-.36.44-3.41.57-6.82,1.17-10.22,1.75-1.06.19-2.12.36-3.18.56-.37.07-.45,0-.46-.38-.09-3.74-.21-7.47-.3-11.2,0-.38-.09-.4-.4-.22a18.64,18.64,0,0,1-5,2c-.33.08-.39.19-.34.52.38,2.35.73,4.71,1.1,7.06,0,.24,0,.3-.26.32l-6.31.55c-1.67.14-3.34.27-5,.43-.33,0-.4-.06-.39-.35s0-.52,0-.78-.05-.26-.25-.13a10.75,10.75,0,0,1-4.59,1.58,18.64,18.64,0,0,1-7.13-.53,8.6,8.6,0,0,1-3.42-1.48,9.67,9.67,0,0,1-3.59-6.13c0-.35-.09-.7-.12-1.06,0-.17-.05-.23-.25-.16a13.78,13.78,0,0,1-2.74.77c-.22,0-.25.11-.19.32.51,2,1,4,1.66,5.89.17.49.39.95.6,1.46-1.6.19-3.16.39-4.73.56-2.32.25-4.64.48-7,.63-.49,0-1,0-1.48,0-.19,0-.25-.06-.27-.25-.18-2.28-.38-4.56-.57-6.84-.24-2.77-.47-5.54-.71-8.31l-.57-6.8q-.34-4.14-.7-8.27a.77.77,0,0,1,.27-.68,12.74,12.74,0,0,1,6.47-3.17,16.71,16.71,0,0,1,8.34.3c5.16,1.77,8.55,5.16,9.39,10.75,0,.06,0,.11,0,.2a9.86,9.86,0,0,1,5.32-.92,13.07,13.07,0,0,1,5.21,1.74v-.49c0-3.14-.06-6.27-.1-9.41a.48.48,0,0,1,.31-.52,20.93,20.93,0,0,1,15.82-.87,10.45,10.45,0,0,1,5.49,4c.14.22.32.15.5.13l3.56-.52,3.27-.48c.23,0,.27,0,.27.23,0,.62,0,1.23,0,1.84,0,.14-.06.31.06.39s.24-.09.34-.15c1.32-.85,2.64-1.69,3.95-2.55.29-.19.41-.2.59.13,1.38,2.44,2.79,4.87,4.19,7.3.07.11.13.23.21.37.16-.14.15-.33.2-.49.86-3.13,1.72-6.27,2.56-9.41.1-.36.2-.46.6-.36,2.65.69,5.3,1.35,7.95,2,.39.1.48.21.28.59a14.13,14.13,0,0,0-.6,1.39l7-1.49c.11.1.07.21.07.31,0,2.72,0,5.43.08,8.14,0,.34-.08.45-.42.51-1.6.26-3.19.57-4.79.85-.3.06-.48.12-.38.51a7,7,0,0,1,.14,1.13c0,.19.08.24.29.19.83-.21,1.67-.38,2.5-.59.31-.08.42,0,.44.33.08,1.61.17,3.22.29,4.82,0,.26-.09.32-.29.38-.77.19-1.53.41-2.29.59-.26.07-.35.18-.33.45.05.69.09,1.39.09,2.08,0,.33.08.39.39.25,1.85-.79,3.71-1.56,5.56-2.34l.68-.28c-.07,1-.13,1.91-.19,2.84-.18,2.52-.37,5-.54,7.55,0,.26-.09.36-.36.41l-8.09,1.43c-1.43.25-2.87.5-4.3.77-.32.06-.32-.11-.33-.33q-.12-4.66-.26-9.32c-.07-2.17-.13-4.33-.19-6.5,0-.06,0-.13,0-.19Zm-68.64-16.68c-.81,0-1.63.07-2.44.15a12.12,12.12,0,0,0-6.4,2.55.66.66,0,0,0-.28.66c.12,1.34.22,2.68.34,4,.23,2.73.48,5.47.71,8.21.2,2.43.39,4.86.6,7.29.24,2.84.49,5.69.72,8.54,0,.37.14.49.51.46,1.25-.12,2.5-.2,3.74-.33,1.87-.18,3.74-.4,5.61-.59.3,0,.4-.12.29-.46-.72-2.24-1.26-4.53-1.88-6.8-.1-.39,0-.46.37-.49a14.13,14.13,0,0,0,4.14-1,.46.46,0,0,0,.33-.48,20.05,20.05,0,0,1,.36-3.08,11.5,11.5,0,0,1,5.19-7.24,1.22,1.22,0,0,0,.66-1.43,10.73,10.73,0,0,0-2.15-5.1A12.62,12.62,0,0,0,113.77,211.15Zm46.52,10.36a10.82,10.82,0,0,0-.18-2.08,8.64,8.64,0,0,0-5-6.74,17.87,17.87,0,0,0-8.31-1.57,19.9,19.9,0,0,0-6.76,1.43.62.62,0,0,0-.46.68c.06,3.22.09,6.43.11,9.65a.82.82,0,0,0,.25.61,10.45,10.45,0,0,1,2.56,4.13,15.69,15.69,0,0,1,.27,8.75,11.36,11.36,0,0,1-1.83,4.38,1.61,1.61,0,0,0-.35,1.11c0,.39.12.49.5.45,2.81-.25,5.61-.5,8.42-.73.3,0,.24-.17.21-.36q-.52-3.33-1-6.66c-.1-.62-.08-.63.56-.75a17.4,17.4,0,0,0,6.33-2.51,9.41,9.41,0,0,0,3.78-4.44A14.07,14.07,0,0,0,160.29,221.51ZM121.5,233c0,2.49.19,4.15,1.13,5.63a6.62,6.62,0,0,0,2.92,2.93,16.09,16.09,0,0,0,10.35.91,6.53,6.53,0,0,0,4.85-4.26,16.5,16.5,0,0,0,1.06-6.92,11.21,11.21,0,0,0-1.55-5.11c-1.75-2.86-4.47-4.06-7.68-4.37A8.78,8.78,0,0,0,127.5,223a11.23,11.23,0,0,0-5.22,5.55A12.58,12.58,0,0,0,121.5,233Zm55.75-7.75c-.14-.23-.22-.36-.29-.49l-5.09-8.85c-.1-.19-.17-.39-.47-.19-1.23.81-2.47,1.6-3.71,2.4-.09,0-.23.09-.22.22.05.63-.15,1.27.29,1.88,2.55,3.55,5.08,7.12,7.63,10.67a.76.76,0,0,1,.12.75c-1,3.36-2,6.72-3.09,10.07-.1.35,0,.45.33.46l6.74.12c.32,0,.42-.08.41-.41,0-1.77-.05-3.54-.07-5.31s0-3.41-.06-5.11a3,3,0,0,1,.19-1.35c2.19-5.08,4.35-10.17,6.53-15.25.14-.32.08-.42-.26-.5q-2.59-.63-5.18-1.31c-.35-.1-.47,0-.56.31-.6,2.22-1.21,4.44-1.81,6.66C178.21,221.68,177.74,223.39,177.25,225.21Zm16.24-6.6h0c0-.9,0-1.8,0-2.7,0-.33-.11-.38-.41-.32-1.88.42-3.75.81-5.63,1.2a.68.68,0,0,0-.52.45c-1,2.34-2,4.69-3,7a2,2,0,0,0-.16.87q.17,5,.31,10.05c.07,2.3.13,4.61.19,6.91,0,.5,0,.51.52.43l9.57-1.69c.24,0,.37-.11.39-.4.14-2.2.31-4.4.46-6.6,0-.53,0-.53-.46-.33-1.82.77-3.64,1.53-5.45,2.31-.28.12-.4.15-.41-.23-.06-1.73-.15-3.45-.23-5.18a.32.32,0,0,1,.28-.4c.7-.17,1.39-.4,2.1-.54.43-.09.54-.28.49-.7-.08-.64-.11-1.3-.15-1.95,0-.24-.07-.29-.31-.23-.8.2-1.62.37-2.42.56-.26.06-.36,0-.4-.27-.14-1.28-.3-2.56-.47-3.84,0-.28,0-.41.33-.46,1.62-.28,3.24-.59,4.86-.88.36-.06.57-.13.55-.59C193.46,220.28,193.49,219.44,193.49,218.61Zm-24.55,16.13-.46.17-5.27,2c-.2.07-.38.19-.4-.19-.07-1.54-.15-3.07-.24-4.61,0-.25.05-.36.32-.39.68-.06,1.35-.14,2-.22.2,0,.45,0,.42-.34-.09-1-.15-2-.22-3.06,0-.23-.1-.3-.33-.27-.7.07-1.41.11-2.11.19-.22,0-.28,0-.3-.24-.12-1.6-.25-3.2-.4-4.8,0-.33.1-.38.39-.39,1.13,0,2.26-.06,3.39-.08.3,0,.41-.08.4-.39q-.06-3.08-.09-6.13c0-.31-.12-.38-.39-.34-1.59.25-3.17.49-4.76.72-.27,0-.27.13-.18.34a14.13,14.13,0,0,1,.68,7.75,11.12,11.12,0,0,1-3.95,7.12.61.61,0,0,0-.25.56c0,1.37.07,2.75.11,4.13.06,2.2.12,4.41.17,6.61,0,.26.06.33.33.28,1-.19,2-.35,2.93-.52,2.62-.45,5.23-.91,7.85-1.34.32-.06.43-.17.4-.5,0-.65-.06-1.3-.06-2C168.94,237.5,168.94,236.17,168.94,234.74Z"/><path class="cls-9" d="M113.77,211.15A12.62,12.62,0,0,1,124.19,216a10.73,10.73,0,0,1,2.15,5.1,1.22,1.22,0,0,1-.66,1.43,11.5,11.5,0,0,0-5.19,7.24,20.05,20.05,0,0,0-.36,3.08.46.46,0,0,1-.33.48,14.13,14.13,0,0,1-4.14,1c-.35,0-.47.1-.37.49.62,2.27,1.16,4.56,1.88,6.8.11.34,0,.42-.29.46-1.87.19-3.74.41-5.61.59-1.24.13-2.49.21-3.74.33-.37,0-.48-.09-.51-.46-.23-2.85-.48-5.7-.72-8.54-.21-2.43-.4-4.86-.6-7.29-.23-2.74-.48-5.48-.71-8.21-.12-1.35-.22-2.69-.34-4a.66.66,0,0,1,.28-.66,12.12,12.12,0,0,1,6.4-2.55C112.14,211.22,113,211.15,113.77,211.15Zm-1.13,7.38c.09.82.18,1.65.26,2.47.23,2.28.51,4.54.83,6.8,0,.23.11.32.35.23.54-.21,1.1-.39,1.65-.61a10.43,10.43,0,0,0,3.34-2.08,6.38,6.38,0,0,0,1.8-5.19,3.14,3.14,0,0,0-2.91-3.1,9.88,9.88,0,0,0-2.49,0,7.49,7.49,0,0,0-2.18.49A.86.86,0,0,0,112.64,218.53Z"/><path class="cls-9" d="M160.29,221.51a14.07,14.07,0,0,1-1,5.35,9.41,9.41,0,0,1-3.78,4.44,17.4,17.4,0,0,1-6.33,2.51c-.64.12-.66.13-.56.75q.5,3.33,1,6.66c0,.19.09.33-.21.36-2.81.23-5.61.48-8.42.73-.38,0-.49-.06-.5-.45a1.61,1.61,0,0,1,.35-1.11,11.36,11.36,0,0,0,1.83-4.38,15.69,15.69,0,0,0-.27-8.75,10.45,10.45,0,0,0-2.56-4.13.82.82,0,0,1-.25-.61c0-3.22-.05-6.43-.11-9.65a.62.62,0,0,1,.46-.68,19.9,19.9,0,0,1,6.76-1.43,17.87,17.87,0,0,1,8.31,1.57,8.64,8.64,0,0,1,5,6.74A10.82,10.82,0,0,1,160.29,221.51ZM151,217.62a15.37,15.37,0,0,0-4.48.79c-.27.1-.27.23-.23.46.21,1.33.41,2.66.62,4,.29,1.91.59,3.82.88,5.73,0,.17,0,.3.28.22a13.29,13.29,0,0,0,4.06-1.88,8,8,0,0,0,3.4-4.82,3.44,3.44,0,0,0-2.67-4.27A11.58,11.58,0,0,0,151,217.62Z"/><path class="cls-9" d="M121.5,233a12.58,12.58,0,0,1,.78-4.4A11.23,11.23,0,0,1,127.5,223a8.78,8.78,0,0,1,5.08-1.24c3.21.31,5.93,1.51,7.68,4.37a11.21,11.21,0,0,1,1.55,5.11,16.5,16.5,0,0,1-1.06,6.92,6.53,6.53,0,0,1-4.85,4.26,16.09,16.09,0,0,1-10.35-.91,6.62,6.62,0,0,1-2.92-2.93C121.69,237.11,121.45,235.45,121.5,233Zm11.39-2.36c-.2,0-.41,0-.61,0a4.38,4.38,0,0,0-3.47,2,3.6,3.6,0,0,0,.08,4.08,4.2,4.2,0,0,0,4,2.23,4.57,4.57,0,0,0,3-1.42c2-1.91,1.74-4.24,0-6A3.92,3.92,0,0,0,132.89,230.6Z"/><path class="cls-9" d="M177.25,225.21c.49-1.82,1-3.53,1.43-5.23.6-2.22,1.21-4.44,1.81-6.66.09-.34.21-.41.56-.31q2.58.68,5.18,1.31c.34.08.4.18.26.5-2.18,5.08-4.34,10.17-6.53,15.25a3,3,0,0,0-.19,1.35c.07,1.7,0,3.41.06,5.11s0,3.54.07,5.31c0,.33-.09.41-.41.41l-6.74-.12c-.38,0-.43-.11-.33-.46,1-3.35,2.06-6.71,3.09-10.07a.76.76,0,0,0-.12-.75c-2.55-3.55-5.08-7.12-7.63-10.67-.44-.61-.24-1.25-.29-1.88,0-.13.13-.17.22-.22,1.24-.8,2.48-1.59,3.71-2.4.3-.2.37,0,.47.19l5.09,8.85C177,224.85,177.11,225,177.25,225.21Z"/><path class="cls-9" d="M193.49,218.61c0,.83,0,1.67,0,2.49,0,.46-.19.53-.55.59-1.62.29-3.24.6-4.86.88-.32.05-.37.18-.33.46.17,1.28.33,2.56.47,3.84,0,.29.14.33.4.27.8-.19,1.62-.36,2.42-.56.24-.06.3,0,.31.23,0,.65.07,1.31.15,1.95,0,.42-.06.61-.49.7-.71.14-1.4.37-2.1.54a.32.32,0,0,0-.28.4c.08,1.73.17,3.45.23,5.18,0,.38.13.35.41.23,1.81-.78,3.63-1.54,5.45-2.31.48-.2.5-.2.46.33-.15,2.2-.32,4.4-.46,6.6,0,.29-.15.36-.39.4l-9.57,1.69c-.48.08-.51.07-.52-.43-.06-2.3-.12-4.61-.19-6.91q-.15-5-.31-10.05a2,2,0,0,1,.16-.87c1-2.33,2-4.68,3-7a.68.68,0,0,1,.52-.45c1.88-.39,3.75-.78,5.63-1.2.3-.06.41,0,.41.32,0,.9,0,1.8,0,2.7Z"/><path class="cls-9" d="M168.94,234.74c0,1.43,0,2.76,0,4.09,0,.66,0,1.31.06,2,0,.33-.08.44-.4.5-2.62.43-5.23.89-7.85,1.34-1,.17-2,.33-2.93.52-.27,0-.32,0-.33-.28-.05-2.2-.11-4.41-.17-6.61,0-1.38-.07-2.76-.11-4.13a.61.61,0,0,1,.25-.56,11.12,11.12,0,0,0,3.95-7.12,14.13,14.13,0,0,0-.68-7.75c-.09-.21-.09-.3.18-.34,1.59-.23,3.17-.47,4.76-.72.27,0,.39,0,.39.34q0,3.06.09,6.13c0,.31-.1.39-.4.39-1.13,0-2.26.07-3.39.08-.29,0-.42.06-.39.39.15,1.6.28,3.2.4,4.8,0,.22.08.27.3.24.7-.08,1.41-.12,2.11-.19.23,0,.32,0,.33.27.07,1,.13,2,.22,3.06,0,.36-.22.32-.42.34-.68.08-1.35.16-2,.22-.27,0-.34.14-.32.39.09,1.54.17,3.07.24,4.61,0,.38.2.26.4.19l5.27-2Z"/><path class="cls-8" d="M112.64,218.53a.86.86,0,0,1,.65-1,7.49,7.49,0,0,1,2.18-.49,9.88,9.88,0,0,1,2.49,0,3.14,3.14,0,0,1,2.91,3.1,6.38,6.38,0,0,1-1.8,5.19,10.43,10.43,0,0,1-3.34,2.08c-.55.22-1.11.4-1.65.61-.24.09-.32,0-.35-.23-.32-2.26-.6-4.52-.83-6.8C112.82,220.18,112.73,219.35,112.64,218.53Zm2.24,7.76a11.7,11.7,0,0,0,2.93-1.66,4,4,0,0,0,1.38-2,6.63,6.63,0,0,0,.34-2.29,1.81,1.81,0,0,0-1.74-2,10.22,10.22,0,0,0-3.4.2c-.3,0-.36.19-.33.47.12,1,.21,2,.32,3C114.54,223.48,114.71,224.86,114.88,226.29Z"/><path class="cls-8" d="M151,217.62a11.58,11.58,0,0,1,1.86.22,3.44,3.44,0,0,1,2.67,4.27,8,8,0,0,1-3.4,4.82,13.29,13.29,0,0,1-4.06,1.88c-.26.08-.25-.05-.28-.22-.29-1.91-.59-3.82-.88-5.73-.21-1.33-.41-2.66-.62-4,0-.23,0-.36.23-.46A15.37,15.37,0,0,1,151,217.62Zm-.09,1.38a14.49,14.49,0,0,0-2.79.35c-.3.06-.35.2-.31.48q.54,3.46,1.07,6.93c0,.25.1.31.36.21a9.94,9.94,0,0,0,3.14-2,6,6,0,0,0,1.85-3.32,2,2,0,0,0-1.47-2.4A6.39,6.39,0,0,0,150.86,219Z"/><path class="cls-8" d="M132.89,230.6a3.92,3.92,0,0,1,3,1c1.72,1.73,2,4.06,0,6a4.57,4.57,0,0,1-3,1.42,4.2,4.2,0,0,1-4-2.23,3.6,3.6,0,0,1-.08-4.08,4.38,4.38,0,0,1,3.47-2C132.48,230.59,132.69,230.6,132.89,230.6Zm-.06,1.32c-.21,0-.48,0-.73.08a2.88,2.88,0,0,0-2.42,2,3.15,3.15,0,0,0,2.15,3.48,3.45,3.45,0,0,0,3.54-1.41,2.58,2.58,0,0,0-1.6-4.05Z"/><path d="M95.21,105.36c4.92-24.23,22.41-43.47,48.61-42.59,11,.64,20.64,12,17.69,23l-.43-.09c1.21-8.26-4.13-16.34-11.64-19.39-3.77-1.68-7.83-1.56-11.89-1.16a44.14,44.14,0,0,0-12,2.89C111,73.76,101.36,88,97,102.65c-.22.77-.65,2.34-.84,3.12l-.92-.41Z"/><path d="M96.51,137.65C90.77,135.81,85,132.47,82,127A14.84,14.84,0,0,1,84.7,109.6a17.58,17.58,0,0,1,11.17-4.44l0,.4a18.43,18.43,0,0,0-10.21,5,14,14,0,0,0-3.7,10.3c.22,5.87,4.83,10.37,9.62,13.21a34.32,34.32,0,0,0,5.22,2.6l-.31,1Z"/></svg>