<svg id="Layer_1" data-name="Layer 1" xmlns="http://www.w3.org/2000/svg" xmlns:xlink="http://www.w3.org/1999/xlink" viewBox="0 0 300 300"><defs><style>.cls-1{fill:#303637;}.cls-2{fill:#ad3b39;}.cls-3{fill:#696466;}.cls-4,.cls-5{fill:#f0eff6;}.cls-4,.cls-9{opacity:0.3;}.cls-6{fill:#8c8c8c;}.cls-7{fill:#d33;}.cls-8{fill:#fffeff;}.cls-9{fill:url(#linear-gradient);}.cls-10{fill:#c3c4c4;}.cls-11{fill:#a9a8a8;}.cls-12{fill:#c7c7c8;}.cls-13{fill:#1b1b1c;}.cls-14{opacity:0.19;}</style><linearGradient id="linear-gradient" x1="150.01" y1="242.75" x2="150.01" y2="233.39" gradientUnits="userSpaceOnUse"><stop offset="0" stop-color="#fff" stop-opacity="0"/><stop offset="1" stop-color="#d33"/></linearGradient></defs><rect class="cls-1" width="300" height="300"/><path class="cls-2" d="M168.06,111.73V215.28H131.69V111.73a78.56,78.56,0,0,1,.77-11.06c6.55,1.73,21.61,4.75,34.85.17A79.17,79.17,0,0,1,168.06,111.73Z"/><path class="cls-3" d="M167.31,100.84c-13.24,4.58-28.3,1.56-34.85-.17,0-.36.1-.74.17-1.1a79.63,79.63,0,0,1,5-17.93l10-24.4a1.81,1.81,0,0,1,1.67-1.12h1.15a1.81,1.81,0,0,1,1.67,1.12l10,24.4a79.37,79.37,0,0,1,4.8,16.71C167.07,99.18,167.2,100,167.31,100.84Z"/><circle class="cls-4" cx="144.69" cy="88.34" r="3.77"/><circle class="cls-4" cx="149.88" cy="77.98" r="1.73"/><path class="cls-5" d="M177.19,253.88h-10V148.13c0-4.61,2.25-19.43,5-19.43h0c2.77,0,5,14.82,5,19.43Z"/><polygon class="cls-2" points="178.19 249.19 166.15 249.19 167.15 239.02 177.19 239.02 178.19 249.19"/><path class="cls-6" d="M177.19,156.75v7.61a20.63,20.63,0,0,1-10,0v-7.61a20.63,20.63,0,0,1,10,0Z"/><path class="cls-6" d="M177.19,177.68v7.61a20.63,20.63,0,0,1-10,0v-7.61a21,21,0,0,1,10,0Z"/><path class="cls-6" d="M177.19,198.62v7.61a20.63,20.63,0,0,1-10,0v-7.61a21,21,0,0,1,10,0Z"/><path class="cls-6" d="M177.19,219.56v7.61a20.63,20.63,0,0,1-10,0v-7.61a20.63,20.63,0,0,1,10,0Z"/><path class="cls-5" d="M132.43,253.88h-10V148.13c0-4.61,2.25-19.43,5-19.43h0c2.77,0,5,14.82,5,19.43Z"/><polygon class="cls-2" points="133.43 249.19 121.39 249.19 122.39 239.02 132.43 239.02 133.43 249.19"/><path class="cls-6" d="M132.43,156.75v7.61a20.63,20.63,0,0,1-10,0v-7.61a20.63,20.63,0,0,1,10,0Z"/><path class="cls-6" d="M132.43,177.68v7.61a20.63,20.63,0,0,1-10,0v-7.61a21,21,0,0,1,10,0Z"/><path class="cls-6" d="M132.43,198.62v7.61a20.63,20.63,0,0,1-10,0v-7.61a21,21,0,0,1,10,0Z"/><path class="cls-6" d="M132.43,219.56v7.61a20.63,20.63,0,0,1-10,0v-7.61a20.63,20.63,0,0,1,10,0Z"/><polygon class="cls-2" points="143.55 221.04 137.7 232.15 123.04 227.9 122.96 227.86 127.48 221.04 143.55 221.04"/><polygon class="cls-7" points="127.48 221.04 122.96 227.86 110.3 221.09 110.33 221.04 127.48 221.04"/><path class="cls-8" d="M144.07,152.5V220l-.53,1H110.33l2.71-5.12a23.41,23.41,0,0,1,9.15-9.46h0c6.59-3.2,15.51-24.23,15.51-24.23v-20Z"/><polygon class="cls-2" points="176.78 227.96 162.31 232.15 156.47 221.04 170.45 221.04 176.78 227.96"/><polygon class="cls-7" points="189.7 221.09 176.96 227.9 176.78 227.96 170.45 221.04 189.67 221.04 189.7 221.09"/><path class="cls-8" d="M189.67,221h-33.2l-.52-1V152.5l6.37,9.77v20s8.92,21,15.49,24.23h0a23.47,23.47,0,0,1,9.15,9.46Z"/><polygon class="cls-9" points="157.82 233.39 159.96 242.75 140.05 242.75 142.19 233.39 157.82 233.39"/><path class="cls-8" d="M160.73,228.45l-.33.52a7.56,7.56,0,0,0-1.22,4.13v.16l-1.36.13h-17v-.29a7.63,7.63,0,0,0-1.21-4.13l-.34-.52a.59.59,0,0,1,.5-.91h20.46A.59.59,0,0,1,160.73,228.45Z"/><path class="cls-8" d="M155.93,147.58H144.09a54.39,54.39,0,0,1,.36-6.43,24.62,24.62,0,0,0,11.12-.09A63.22,63.22,0,0,1,155.93,147.58Z"/><path class="cls-10" d="M155.57,141.06a24.62,24.62,0,0,1-11.12.09c0-.25.05-.49.09-.74,1.1-8.32,3.88-10.61,5-11.21a1,1,0,0,1,.94,0c1.12.6,3.9,2.89,5,11.21C155.51,140.63,155.53,140.84,155.57,141.06Z"/><path class="cls-11" d="M160.49,228H149.87v-80.4h5.52l.55.55v67.73l5.53,10.51A1.1,1.1,0,0,1,160.49,228Z"/><path class="cls-12" d="M149.87,147.58V228H139.52a1.1,1.1,0,0,1-1-1.61l5.53-10.51V148.21c0-.22,0-.43,0-.63Z"/><rect class="cls-13" x="146.17" y="144.01" width="1.43" height="1.43" transform="translate(5.26 -5.15) rotate(2.05)"/><rect class="cls-13" x="149.15" y="144.01" width="1.43" height="1.43" transform="translate(5.26 -5.26) rotate(2.05)"/><rect class="cls-13" x="152.34" y="144.01" width="1.43" height="1.43" transform="translate(5.26 -5.37) rotate(2.05)"/><ellipse class="cls-14" cx="150" cy="255.41" rx="62.82" ry="4.41"/></svg>