<svg id="Layer_1" data-name="Layer 1" xmlns="http://www.w3.org/2000/svg" xmlns:xlink="http://www.w3.org/1999/xlink" viewBox="0 0 300 300"><defs><style>.cls-1,.cls-10,.cls-11,.cls-3,.cls-9{fill:none;}.cls-2{fill:#fff1e1;}.cls-10,.cls-11,.cls-3,.cls-9{stroke:#2b2b2b;stroke-miterlimit:10;}.cls-10,.cls-11,.cls-3{stroke-linecap:round;}.cls-4{fill:#ffe9cc;}.cls-5{fill:#2b2b2b;}.cls-6{fill:#e08484;}.cls-7{opacity:0.3;}.cls-8{clip-path:url(#clip-path);}.cls-9{stroke-width:0.39px;}.cls-10{stroke-width:3.67px;}.cls-11{stroke-width:1.83px;}.cls-12{fill:#f9be69;}</style><clipPath id="clip-path"><rect class="cls-1" x="145.02" y="55.09" width="8.35" height="30.5" rx="4.18" transform="translate(219.53 -78.85) rotate(90)"/></clipPath></defs><rect class="cls-2" width="300" height="300"/><line class="cls-3" x1="215.36" y1="234.4" x2="250.27" y2="234.4"/><line class="cls-3" x1="79.2" y1="234.4" x2="201.33" y2="234.4"/><line class="cls-3" x1="68.81" y1="234.4" x2="75.39" y2="234.4"/><line class="cls-3" x1="49.73" y1="234.4" x2="65.73" y2="234.4"/><circle class="cls-4" cx="150" cy="160.44" r="62.16"/><rect class="cls-5" x="142.83" y="72.05" width="12.72" height="25.08"/><rect class="cls-6" x="145.02" y="55.09" width="8.35" height="30.5" rx="4.18" transform="translate(219.53 -78.85) rotate(90)"/><g class="cls-7"><g class="cls-8"><line class="cls-9" x1="134.84" y1="64.17" x2="134.84" y2="75.77"/><line class="cls-9" x1="136.53" y1="64.17" x2="136.53" y2="75.77"/><line class="cls-9" x1="138.22" y1="64.17" x2="138.22" y2="75.77"/><line class="cls-9" x1="139.91" y1="64.17" x2="139.91" y2="75.77"/><line class="cls-9" x1="141.59" y1="64.17" x2="141.59" y2="75.77"/><line class="cls-9" x1="143.28" y1="64.17" x2="143.28" y2="75.77"/><line class="cls-9" x1="144.97" y1="64.17" x2="144.97" y2="75.77"/><line class="cls-9" x1="146.66" y1="64.17" x2="146.66" y2="75.77"/><line class="cls-9" x1="148.35" y1="64.17" x2="148.35" y2="75.77"/><line class="cls-9" x1="150.04" y1="64.17" x2="150.04" y2="75.77"/><line class="cls-9" x1="151.72" y1="64.17" x2="151.72" y2="75.77"/><line class="cls-9" x1="153.41" y1="64.17" x2="153.41" y2="75.77"/><line class="cls-9" x1="155.1" y1="64.17" x2="155.1" y2="75.77"/><line class="cls-9" x1="156.79" y1="64.17" x2="156.79" y2="75.77"/><line class="cls-9" x1="158.48" y1="64.17" x2="158.48" y2="75.77"/><line class="cls-9" x1="160.17" y1="64.17" x2="160.17" y2="75.77"/><line class="cls-9" x1="161.85" y1="64.17" x2="161.85" y2="75.77"/><line class="cls-9" x1="163.54" y1="64.17" x2="163.54" y2="75.77"/></g></g><path class="cls-6" d="M177.19,165.86H152.62a2.28,2.28,0,0,0-2.26-2v-6.18a4,4,0,1,0,0-7.9V139c.55,0,1.09,0,1.64.05a26.82,26.82,0,0,1,25.18,26.21C177.19,165.49,177.19,165.68,177.19,165.86Z"/><line class="cls-10" x1="150" y1="100.7" x2="150" y2="115.51"/><line class="cls-10" x1="150" y1="205.07" x2="150" y2="219.88"/><line class="cls-10" x1="209.59" y1="160.29" x2="194.78" y2="160.29"/><line class="cls-10" x1="105.22" y1="160.29" x2="90.41" y2="160.29"/><line class="cls-11" x1="192.06" y1="118.09" x2="181.61" y2="128.58"/><line class="cls-11" x1="118.39" y1="192.01" x2="107.94" y2="202.5"/><line class="cls-11" x1="192.2" y1="202.36" x2="181.72" y2="191.9"/><line class="cls-11" x1="118.28" y1="128.68" x2="107.8" y2="118.23"/><path class="cls-5" d="M179.82,165.3h-19a1.89,1.89,0,0,0-3.26,0h-3.7a3.58,3.58,0,0,0-1.84-2.38v-4.23a5.26,5.26,0,0,0,0-10V130.31a1.64,1.64,0,0,0-2.79-1.16,1.68,1.68,0,0,0-.48,1.16V148.7a5.26,5.26,0,0,0,0,10v4.23a3.57,3.57,0,1,0,5,4.34h3.81a1.89,1.89,0,0,0,3.26,0h19a1,1,0,0,0,0-2Zm-33.41-11.6a4,4,0,1,1,4,4A4,4,0,0,1,146.41,153.7Zm4,14.66a2.27,2.27,0,1,1,2.26-2.5c0,.08,0,.15,0,.23A2.27,2.27,0,0,1,150.36,168.36Z"/><rect class="cls-5" x="180.83" y="84.84" width="7.98" height="10.13" transform="translate(56.68 -70.78) rotate(25.49)"/><rect class="cls-12" x="184.62" y="79.18" width="4.76" height="12.32" rx="2.38" transform="translate(344.5 -46.74) rotate(115.49)"/><path class="cls-12" d="M150,86.58a73.71,73.71,0,1,0,73.71,73.71A73.71,73.71,0,0,0,150,86.58Zm0,133.6a59.89,59.89,0,1,1,59.89-59.89A59.89,59.89,0,0,1,150,220.18Z"/></svg>