<svg id="Layer_1" data-name="Layer 1" xmlns="http://www.w3.org/2000/svg" viewBox="0 0 300 300"><defs><style>.cls-1{fill:#fff1e1;}.cls-2{fill:#151e21;opacity:0.15;}.cls-3,.cls-6{fill:#fff;}.cls-3,.cls-5,.cls-6{stroke:#314251;stroke-miterlimit:10;}.cls-3,.cls-5{stroke-width:5.62px;}.cls-4{fill:#e75e51;}.cls-5,.cls-8{fill:none;}.cls-6{stroke-linecap:round;stroke-width:0.62px;}.cls-7{opacity:0.1;}</style></defs><rect class="cls-1" width="300" height="300"/><polygon class="cls-2" points="150.53 230.18 220.06 299.71 300 299.71 300 122.29 151.24 74.53 150.53 230.18"/><path class="cls-3" d="M163.43,179.54V91.06A13.43,13.43,0,0,0,150,77.63h0a13.43,13.43,0,0,0-13.43,13.43v88.48a25.76,25.76,0,1,0,26.86,0Z"/><path class="cls-4" d="M175.76,201.53a25.76,25.76,0,1,1-39.19-22v-41h26.86v41A25.74,25.74,0,0,1,175.76,201.53Z"/><path class="cls-5" d="M163.43,179.54V91.06A13.43,13.43,0,0,0,150,77.63h0a13.43,13.43,0,0,0-13.43,13.43v88.48a25.76,25.76,0,1,0,26.86,0Z"/><line class="cls-6" x1="138.99" y1="104.16" x2="145.89" y2="104.16"/><line class="cls-6" x1="138.99" y1="108.32" x2="142.77" y2="108.32"/><line class="cls-6" x1="138.99" y1="112.01" x2="145.89" y2="112.01"/><line class="cls-6" x1="138.99" y1="116.17" x2="142.77" y2="116.17"/><line class="cls-6" x1="138.99" y1="119.87" x2="145.89" y2="119.87"/><line class="cls-6" x1="138.99" y1="124.02" x2="142.77" y2="124.02"/><line class="cls-6" x1="138.99" y1="127.72" x2="145.89" y2="127.72"/><line class="cls-6" x1="138.99" y1="131.88" x2="142.77" y2="131.88"/><line class="cls-6" x1="138.99" y1="135.58" x2="145.89" y2="135.58"/><line class="cls-6" x1="138.99" y1="139.73" x2="142.77" y2="139.73"/><line class="cls-6" x1="138.99" y1="143.43" x2="145.89" y2="143.43"/><line class="cls-6" x1="138.99" y1="147.59" x2="142.77" y2="147.59"/><line class="cls-6" x1="138.99" y1="151.28" x2="145.89" y2="151.28"/><line class="cls-6" x1="138.99" y1="155.44" x2="142.77" y2="155.44"/><line class="cls-6" x1="138.99" y1="159.14" x2="145.89" y2="159.14"/><line class="cls-6" x1="138.99" y1="163.29" x2="142.77" y2="163.29"/><line class="cls-6" x1="138.99" y1="166.99" x2="145.89" y2="166.99"/><line class="cls-6" x1="138.99" y1="171.15" x2="142.77" y2="171.15"/><path class="cls-7" d="M174,202.52c0,13.45-10.08,20.75-23.23,21.91,21.83-21.35,14.46-31-.44-42.28V78.78a13.42,13.42,0,0,1,11.34,13.27v88.48A25.74,25.74,0,0,1,174,202.52Z"/><path class="cls-8" d="M155.76,185s20,10.72,0,41.84"/><path class="cls-5" d="M163.43,179.54V91.06A13.43,13.43,0,0,0,150,77.63h0a13.43,13.43,0,0,0-13.43,13.43v88.48a25.76,25.76,0,1,0,26.86,0Z"/></svg>