<svg id="Layer_1" data-name="Layer 1" xmlns="http://www.w3.org/2000/svg" viewBox="0 0 300 300"><defs><style>.cls-1{fill:#c8d9cb;}.cls-2,.cls-7{fill:none;stroke-linecap:round;stroke-miterlimit:10;}.cls-2{stroke:#323644;stroke-width:2px;}.cls-3{fill:#eb3e51;}.cls-4,.cls-6{fill:#fff;}.cls-4,.cls-5{opacity:0.15;}.cls-7{stroke:#eb3e51;stroke-width:4px;}</style></defs><rect class="cls-1" width="300" height="300"/><line class="cls-2" x1="149.99" y1="66.47" x2="149.99" y2="209.53"/><path class="cls-3" d="M150,68.59v59.18a20.14,20.14,0,0,0-2.26-1.85,29.15,29.15,0,0,0-21.32-5.43,29.44,29.44,0,0,0-3.92.86A38.6,38.6,0,0,0,110,127.77,19.74,19.74,0,0,0,107.9,126a30.47,30.47,0,0,0-3.27-2,29.55,29.55,0,0,0-16.53-3.52,29.23,29.23,0,0,0-3.36.44A40.15,40.15,0,0,0,71,126.47S84.43,80.71,132.5,70.55h0a89.49,89.49,0,0,1,10-1.53h0C145,68.79,147.43,68.64,150,68.59Z"/><path class="cls-4" d="M132.5,70.55c-21.28,8.66-40,26.78-44.4,49.91a29.23,29.23,0,0,0-3.36.44C90.13,97.23,110.18,78.46,132.5,70.55Z"/><path class="cls-4" d="M142.55,69c-5.14,1.69-9.3,5.38-13,9.19-8,8.72-13,19.64-16.87,30.71-1.49,4.52-3.57,12.13-4.76,17.11a30.47,30.47,0,0,0-3.27-2l2.4-7.83c4.79-14,11.2-28,21.87-38.56C132.84,74,137.29,70.43,142.55,69Z"/><path class="cls-4" d="M145.9,69c-6.2,3.76-9.89,10.51-12.68,17-3.62,8.81-5.36,18.42-6.32,27.85l-.49,6.62a29.44,29.44,0,0,0-3.92.86,5.14,5.14,0,0,1,0-.66l1-7.26c1.62-9.58,4.06-19.27,8.35-28C135.13,79.06,139.39,72.31,145.9,69Z"/><path class="cls-3" d="M229,126.47a40.15,40.15,0,0,0-13.73-5.57,30.22,30.22,0,0,0-19.9,3.08,32.63,32.63,0,0,0-3.27,2,20.14,20.14,0,0,0-2.1,1.74,38.79,38.79,0,0,0-12.48-6.42,29.92,29.92,0,0,0-3.93-.86,29.1,29.1,0,0,0-21.28,5.41,21.37,21.37,0,0,0-2.29,1.87V68.59c2.56,0,5,.2,7.42.43h0a90,90,0,0,1,10.05,1.53h0C215.57,80.71,229,126.47,229,126.47Z"/><path class="cls-4" d="M167.5,70.55c21.28,8.66,40.05,26.78,44.4,49.91a29.23,29.23,0,0,1,3.36.44C209.87,97.23,189.82,78.46,167.5,70.55Z"/><path class="cls-4" d="M157.45,69c5.14,1.69,9.3,5.38,13,9.19,8,8.72,13.05,19.64,16.87,30.71,1.49,4.52,3.57,12.13,4.76,17.11a30.47,30.47,0,0,1,3.27-2l-2.4-7.83c-4.79-14-11.2-28-21.87-38.56C167.16,74,162.71,70.43,157.45,69Z"/><path class="cls-4" d="M154.1,69c6.2,3.76,9.89,10.51,12.68,17,3.62,8.81,5.36,18.42,6.32,27.85l.49,6.62a29.44,29.44,0,0,1,3.92.86,5.14,5.14,0,0,0,0-.66l-1-7.26c-1.62-9.58-4.06-19.27-8.35-28C164.87,79.06,160.61,72.31,154.1,69Z"/><g class="cls-5"><path class="cls-6" d="M152.3,125.9a21.37,21.37,0,0,0-2.29,1.87h0a20.14,20.14,0,0,0-2.26-1.85L150,69.34l0-.75Z"/></g><path class="cls-7" d="M150,209.53v15.12a8.89,8.89,0,0,1-8.88,8.88h0a8.88,8.88,0,0,1-8.88-8.88v-3.12"/></svg>