<svg id="Layer_1" data-name="Layer 1" xmlns="http://www.w3.org/2000/svg" viewBox="0 0 300 300"><defs><style>.cls-1{fill:#ffeec3;}.cls-2{fill:#ccc;}.cls-3{fill:#343e4c;}.cls-4{fill:#232b35;}.cls-5,.cls-7{fill:none;}.cls-5{stroke:#232b35;stroke-width:0.1px;}.cls-5,.cls-7,.cls-9{stroke-miterlimit:10;}.cls-6{opacity:0.6;}.cls-7{stroke:#fff;stroke-width:0.5px;}.cls-8{fill:#fff;}.cls-9{fill:#79bf67;stroke:#364562;stroke-linecap:round;}</style></defs><rect class="cls-1" width="300" height="300"/><rect class="cls-2" x="101.29" y="105.88" width="21.18" height="16.71"/><rect class="cls-3" x="99.35" y="121.44" width="25.06" height="10.94"/><rect class="cls-4" x="99.35" y="127.29" width="25.06" height="3.12"/><path class="cls-3" d="M96.82,128.47h30.12a0,0,0,0,1,0,0v50.59a15.06,15.06,0,0,1-15.06,15.06h0a15.06,15.06,0,0,1-15.06-15.06V128.47a0,0,0,0,1,0,0Z"/><rect class="cls-4" x="103.3" y="110.16" width="4.15" height="2.39"/><rect class="cls-4" x="116.3" y="110.16" width="4.15" height="2.39"/><polyline class="cls-5" points="112.23 105.89 112.23 108.16 111.23 108.16 111.23 114.09 112.35 114.09 112.35 115.67 111.26 115.67 111.26 119.44 112.52 119.44 112.52 121.53"/><g class="cls-6"><polyline class="cls-7" points="111.96 156.97 115.38 153.21 115.38 147.97"/><circle class="cls-8" cx="115.38" cy="147.97" r="1.41"/><polyline class="cls-7" points="111.79 161.97 108.38 158.21 108.38 152.97"/><circle class="cls-8" cx="108.38" cy="152.97" r="1.41"/><line class="cls-7" x1="111.81" y1="166.38" x2="111.81" y2="145.15"/><circle class="cls-8" cx="111.81" cy="144.82" r="1.41"/><circle class="cls-8" cx="111.81" cy="167.82" r="2.76"/></g><path class="cls-3" d="M173.67,165v4.36h.64v24.23a.51.51,0,0,1-.51.5H170a.5.5,0,0,1-.5-.5h0a.5.5,0,0,0-.5-.5H146.64a.5.5,0,0,0-.5.5h0a.5.5,0,0,1-.5.5h-3.83a.51.51,0,0,1-.51-.5V168.83h.54v-6.91h-.54v-5.69a.51.51,0,0,1,.51-.5H169.5a.48.48,0,0,1,.34.14l4.31,4.15a.52.52,0,0,1,.16.37V165Z"/><rect class="cls-2" x="144.19" y="161.49" width="27.24" height="29.74" rx="1.8"/><path class="cls-4" d="M171.43,168.88v20.56a1.81,1.81,0,0,1-1.8,1.8H146a1.81,1.81,0,0,1-1.8-1.8V168.88Z"/><path class="cls-2" d="M157.8,161.21h-1.28a.3.3,0,0,1-.22-.5l.53-.6.75-.84a.31.31,0,0,1,.45,0l.75.84.53.6a.3.3,0,0,1-.22.5Z"/><path class="cls-4" d="M203.18,191.25v1.53a.79.79,0,0,1-.79.8H185.55a.8.8,0,0,1-.8-.8v-1.53Z"/><path class="cls-3" d="M201.59,182.62v.85a.8.8,0,0,0,.24.57l1.12,1.12a.79.79,0,0,1,.23.56v5.53H184.75V171a.79.79,0,0,1,.8-.79h13.11a.79.79,0,0,1,.8.79v4.72a.8.8,0,0,0,.8.79h2.13a.79.79,0,0,1,.79.8V181a.79.79,0,0,1-.79.8A.79.79,0,0,0,201.59,182.62Z"/><rect class="cls-2" x="190.89" y="170.18" width="0.64" height="21.08"/><path class="cls-2" d="M187.63,173.39h-.69a.16.16,0,0,1-.12-.27l.29-.32.4-.46a.16.16,0,0,1,.24,0l.41.46.29.32a.16.16,0,0,1-.12.27Z"/><line class="cls-9" x1="228.31" y1="194.12" x2="230.72" y2="194.12"/><line class="cls-9" x1="224.6" y1="194.12" x2="228.31" y2="194.12"/><line class="cls-9" x1="78.13" y1="194.12" x2="219.13" y2="194.12"/><line class="cls-9" x1="69.28" y1="194.12" x2="74.42" y2="194.12"/></svg>